G04 EAGLE Gerber RS-274X export*
G75*
%MOMM*%
%FSLAX34Y34*%
%LPD*%
%INSilkscreen Bottom*%
%IPPOS*%
%AMOC8*
5,1,8,0,0,1.08239X$1,22.5*%
G01*
%ADD10C,0.101600*%
%ADD11C,0.254000*%
%ADD12C,0.127000*%
%ADD13C,0.050800*%


D10*
X757428Y390511D02*
X757428Y387914D01*
X757430Y387815D01*
X757436Y387715D01*
X757445Y387616D01*
X757458Y387518D01*
X757475Y387420D01*
X757496Y387322D01*
X757521Y387226D01*
X757549Y387131D01*
X757581Y387037D01*
X757616Y386944D01*
X757655Y386852D01*
X757698Y386762D01*
X757743Y386674D01*
X757793Y386587D01*
X757845Y386503D01*
X757901Y386420D01*
X757959Y386340D01*
X758021Y386262D01*
X758086Y386187D01*
X758154Y386114D01*
X758224Y386044D01*
X758297Y385976D01*
X758372Y385911D01*
X758450Y385849D01*
X758530Y385791D01*
X758613Y385735D01*
X758697Y385683D01*
X758784Y385633D01*
X758872Y385588D01*
X758962Y385545D01*
X759054Y385506D01*
X759147Y385471D01*
X759241Y385439D01*
X759336Y385411D01*
X759432Y385386D01*
X759530Y385365D01*
X759628Y385348D01*
X759726Y385335D01*
X759825Y385326D01*
X759925Y385320D01*
X760024Y385318D01*
X766516Y385318D01*
X766615Y385320D01*
X766715Y385326D01*
X766814Y385335D01*
X766912Y385348D01*
X767010Y385365D01*
X767108Y385386D01*
X767204Y385411D01*
X767299Y385439D01*
X767393Y385471D01*
X767486Y385506D01*
X767578Y385545D01*
X767668Y385588D01*
X767756Y385633D01*
X767843Y385683D01*
X767927Y385735D01*
X768010Y385791D01*
X768090Y385849D01*
X768168Y385911D01*
X768243Y385976D01*
X768316Y386044D01*
X768386Y386114D01*
X768454Y386187D01*
X768519Y386262D01*
X768581Y386340D01*
X768639Y386420D01*
X768695Y386503D01*
X768747Y386587D01*
X768797Y386674D01*
X768842Y386762D01*
X768885Y386852D01*
X768924Y386944D01*
X768959Y387036D01*
X768991Y387131D01*
X769019Y387226D01*
X769044Y387322D01*
X769065Y387420D01*
X769082Y387518D01*
X769095Y387616D01*
X769104Y387715D01*
X769110Y387815D01*
X769112Y387914D01*
X769112Y390511D01*
X766516Y394876D02*
X769112Y398122D01*
X757428Y398122D01*
X757428Y401367D02*
X757428Y394876D01*
X1006743Y376682D02*
X1009340Y376682D01*
X1009439Y376684D01*
X1009539Y376690D01*
X1009638Y376699D01*
X1009736Y376712D01*
X1009834Y376729D01*
X1009932Y376750D01*
X1010028Y376775D01*
X1010123Y376803D01*
X1010217Y376835D01*
X1010310Y376870D01*
X1010402Y376909D01*
X1010492Y376952D01*
X1010580Y376997D01*
X1010667Y377047D01*
X1010751Y377099D01*
X1010834Y377155D01*
X1010914Y377213D01*
X1010992Y377275D01*
X1011067Y377340D01*
X1011140Y377408D01*
X1011210Y377478D01*
X1011278Y377551D01*
X1011343Y377626D01*
X1011405Y377704D01*
X1011463Y377784D01*
X1011519Y377867D01*
X1011571Y377951D01*
X1011621Y378038D01*
X1011666Y378126D01*
X1011709Y378216D01*
X1011748Y378308D01*
X1011783Y378401D01*
X1011815Y378495D01*
X1011843Y378590D01*
X1011868Y378686D01*
X1011889Y378784D01*
X1011906Y378882D01*
X1011919Y378980D01*
X1011928Y379079D01*
X1011934Y379179D01*
X1011936Y379278D01*
X1011936Y385770D01*
X1011934Y385869D01*
X1011928Y385969D01*
X1011919Y386068D01*
X1011906Y386166D01*
X1011889Y386264D01*
X1011868Y386362D01*
X1011843Y386458D01*
X1011815Y386553D01*
X1011783Y386647D01*
X1011748Y386740D01*
X1011709Y386832D01*
X1011666Y386922D01*
X1011621Y387010D01*
X1011571Y387097D01*
X1011519Y387181D01*
X1011463Y387264D01*
X1011405Y387344D01*
X1011343Y387422D01*
X1011278Y387497D01*
X1011210Y387570D01*
X1011140Y387640D01*
X1011067Y387708D01*
X1010992Y387773D01*
X1010914Y387835D01*
X1010834Y387893D01*
X1010751Y387949D01*
X1010667Y388001D01*
X1010580Y388051D01*
X1010492Y388096D01*
X1010402Y388139D01*
X1010310Y388178D01*
X1010217Y388213D01*
X1010123Y388245D01*
X1010028Y388273D01*
X1009932Y388298D01*
X1009834Y388319D01*
X1009736Y388336D01*
X1009638Y388349D01*
X1009539Y388358D01*
X1009439Y388364D01*
X1009340Y388366D01*
X1006743Y388366D01*
X1002378Y385770D02*
X999132Y388366D01*
X999132Y376682D01*
X995887Y376682D02*
X1002378Y376682D01*
X990948Y385770D02*
X987702Y388366D01*
X987702Y376682D01*
X984457Y376682D02*
X990948Y376682D01*
X1018935Y489966D02*
X1021532Y489966D01*
X1021631Y489968D01*
X1021731Y489974D01*
X1021830Y489983D01*
X1021928Y489996D01*
X1022026Y490013D01*
X1022124Y490034D01*
X1022220Y490059D01*
X1022315Y490087D01*
X1022409Y490119D01*
X1022502Y490154D01*
X1022594Y490193D01*
X1022684Y490236D01*
X1022772Y490281D01*
X1022859Y490331D01*
X1022943Y490383D01*
X1023026Y490439D01*
X1023106Y490497D01*
X1023184Y490559D01*
X1023259Y490624D01*
X1023332Y490692D01*
X1023402Y490762D01*
X1023470Y490835D01*
X1023535Y490910D01*
X1023597Y490988D01*
X1023655Y491068D01*
X1023711Y491151D01*
X1023763Y491235D01*
X1023813Y491322D01*
X1023858Y491410D01*
X1023901Y491500D01*
X1023940Y491592D01*
X1023975Y491685D01*
X1024007Y491779D01*
X1024035Y491874D01*
X1024060Y491970D01*
X1024081Y492068D01*
X1024098Y492166D01*
X1024111Y492264D01*
X1024120Y492363D01*
X1024126Y492463D01*
X1024128Y492562D01*
X1024128Y499054D01*
X1024126Y499153D01*
X1024120Y499253D01*
X1024111Y499352D01*
X1024098Y499450D01*
X1024081Y499548D01*
X1024060Y499646D01*
X1024035Y499742D01*
X1024007Y499837D01*
X1023975Y499931D01*
X1023940Y500024D01*
X1023901Y500116D01*
X1023858Y500206D01*
X1023813Y500294D01*
X1023763Y500381D01*
X1023711Y500465D01*
X1023655Y500548D01*
X1023597Y500628D01*
X1023535Y500706D01*
X1023470Y500781D01*
X1023402Y500854D01*
X1023332Y500924D01*
X1023259Y500992D01*
X1023184Y501057D01*
X1023106Y501119D01*
X1023026Y501177D01*
X1022943Y501233D01*
X1022859Y501285D01*
X1022772Y501335D01*
X1022684Y501380D01*
X1022594Y501423D01*
X1022502Y501462D01*
X1022409Y501497D01*
X1022315Y501529D01*
X1022220Y501557D01*
X1022124Y501582D01*
X1022026Y501603D01*
X1021928Y501620D01*
X1021830Y501633D01*
X1021731Y501642D01*
X1021631Y501648D01*
X1021532Y501650D01*
X1018935Y501650D01*
X1014570Y489966D02*
X1010675Y489966D01*
X1010576Y489968D01*
X1010476Y489974D01*
X1010377Y489983D01*
X1010279Y489996D01*
X1010181Y490013D01*
X1010083Y490034D01*
X1009987Y490059D01*
X1009892Y490087D01*
X1009798Y490119D01*
X1009705Y490154D01*
X1009613Y490193D01*
X1009523Y490236D01*
X1009435Y490281D01*
X1009348Y490331D01*
X1009264Y490383D01*
X1009181Y490439D01*
X1009101Y490497D01*
X1009023Y490559D01*
X1008948Y490624D01*
X1008875Y490692D01*
X1008805Y490762D01*
X1008737Y490835D01*
X1008672Y490910D01*
X1008610Y490988D01*
X1008552Y491068D01*
X1008496Y491151D01*
X1008444Y491235D01*
X1008394Y491322D01*
X1008349Y491410D01*
X1008306Y491500D01*
X1008267Y491592D01*
X1008232Y491685D01*
X1008200Y491779D01*
X1008172Y491874D01*
X1008147Y491970D01*
X1008126Y492068D01*
X1008109Y492166D01*
X1008096Y492264D01*
X1008087Y492363D01*
X1008081Y492463D01*
X1008079Y492562D01*
X1008079Y493861D01*
X1008081Y493960D01*
X1008087Y494060D01*
X1008096Y494159D01*
X1008109Y494257D01*
X1008126Y494355D01*
X1008147Y494453D01*
X1008172Y494549D01*
X1008200Y494644D01*
X1008232Y494738D01*
X1008267Y494831D01*
X1008306Y494923D01*
X1008349Y495013D01*
X1008394Y495101D01*
X1008444Y495188D01*
X1008496Y495272D01*
X1008552Y495355D01*
X1008610Y495435D01*
X1008672Y495513D01*
X1008737Y495588D01*
X1008805Y495661D01*
X1008875Y495731D01*
X1008948Y495799D01*
X1009023Y495864D01*
X1009101Y495926D01*
X1009181Y495984D01*
X1009264Y496040D01*
X1009348Y496092D01*
X1009435Y496142D01*
X1009523Y496187D01*
X1009613Y496230D01*
X1009705Y496269D01*
X1009798Y496304D01*
X1009892Y496336D01*
X1009987Y496364D01*
X1010083Y496389D01*
X1010181Y496410D01*
X1010279Y496427D01*
X1010377Y496440D01*
X1010476Y496449D01*
X1010576Y496455D01*
X1010675Y496457D01*
X1014570Y496457D01*
X1014570Y501650D01*
X1008079Y501650D01*
X993893Y475742D02*
X991296Y475742D01*
X993893Y475742D02*
X993992Y475744D01*
X994092Y475750D01*
X994191Y475759D01*
X994289Y475772D01*
X994387Y475789D01*
X994485Y475810D01*
X994581Y475835D01*
X994676Y475863D01*
X994770Y475895D01*
X994863Y475930D01*
X994955Y475969D01*
X995045Y476012D01*
X995133Y476057D01*
X995220Y476107D01*
X995304Y476159D01*
X995387Y476215D01*
X995467Y476273D01*
X995545Y476335D01*
X995620Y476400D01*
X995693Y476468D01*
X995763Y476538D01*
X995831Y476611D01*
X995896Y476686D01*
X995958Y476764D01*
X996016Y476844D01*
X996072Y476927D01*
X996124Y477011D01*
X996174Y477098D01*
X996219Y477186D01*
X996262Y477276D01*
X996301Y477368D01*
X996336Y477461D01*
X996368Y477555D01*
X996396Y477650D01*
X996421Y477746D01*
X996442Y477844D01*
X996459Y477942D01*
X996472Y478040D01*
X996481Y478139D01*
X996487Y478239D01*
X996489Y478338D01*
X996489Y484830D01*
X996487Y484929D01*
X996481Y485029D01*
X996472Y485128D01*
X996459Y485226D01*
X996442Y485324D01*
X996421Y485422D01*
X996396Y485518D01*
X996368Y485613D01*
X996336Y485707D01*
X996301Y485800D01*
X996262Y485892D01*
X996219Y485982D01*
X996174Y486070D01*
X996124Y486157D01*
X996072Y486241D01*
X996016Y486324D01*
X995958Y486404D01*
X995896Y486482D01*
X995831Y486557D01*
X995763Y486630D01*
X995693Y486700D01*
X995620Y486768D01*
X995545Y486833D01*
X995467Y486895D01*
X995387Y486953D01*
X995304Y487009D01*
X995220Y487061D01*
X995133Y487111D01*
X995045Y487156D01*
X994955Y487199D01*
X994863Y487238D01*
X994770Y487273D01*
X994676Y487305D01*
X994581Y487333D01*
X994485Y487358D01*
X994387Y487379D01*
X994289Y487396D01*
X994191Y487409D01*
X994092Y487418D01*
X993992Y487424D01*
X993893Y487426D01*
X991296Y487426D01*
X986931Y482233D02*
X983036Y482233D01*
X982937Y482231D01*
X982837Y482225D01*
X982738Y482216D01*
X982640Y482203D01*
X982542Y482186D01*
X982444Y482165D01*
X982348Y482140D01*
X982253Y482112D01*
X982159Y482080D01*
X982066Y482045D01*
X981974Y482006D01*
X981884Y481963D01*
X981796Y481918D01*
X981709Y481868D01*
X981625Y481816D01*
X981542Y481760D01*
X981462Y481702D01*
X981384Y481640D01*
X981309Y481575D01*
X981236Y481507D01*
X981166Y481437D01*
X981098Y481364D01*
X981033Y481289D01*
X980971Y481211D01*
X980913Y481131D01*
X980857Y481048D01*
X980805Y480964D01*
X980755Y480877D01*
X980710Y480789D01*
X980667Y480699D01*
X980628Y480607D01*
X980593Y480514D01*
X980561Y480420D01*
X980533Y480325D01*
X980508Y480229D01*
X980487Y480131D01*
X980470Y480033D01*
X980457Y479935D01*
X980448Y479836D01*
X980442Y479736D01*
X980440Y479637D01*
X980440Y478988D01*
X980442Y478875D01*
X980448Y478762D01*
X980458Y478649D01*
X980472Y478536D01*
X980489Y478424D01*
X980511Y478313D01*
X980536Y478203D01*
X980566Y478093D01*
X980599Y477985D01*
X980636Y477878D01*
X980676Y477772D01*
X980721Y477668D01*
X980769Y477565D01*
X980820Y477464D01*
X980875Y477365D01*
X980933Y477268D01*
X980995Y477173D01*
X981060Y477080D01*
X981128Y476990D01*
X981199Y476902D01*
X981274Y476816D01*
X981351Y476733D01*
X981431Y476653D01*
X981514Y476576D01*
X981600Y476501D01*
X981688Y476430D01*
X981778Y476362D01*
X981871Y476297D01*
X981966Y476235D01*
X982063Y476177D01*
X982162Y476122D01*
X982263Y476071D01*
X982366Y476023D01*
X982470Y475978D01*
X982576Y475938D01*
X982683Y475901D01*
X982791Y475868D01*
X982901Y475838D01*
X983011Y475813D01*
X983122Y475791D01*
X983234Y475774D01*
X983347Y475760D01*
X983460Y475750D01*
X983573Y475744D01*
X983686Y475742D01*
X983799Y475744D01*
X983912Y475750D01*
X984025Y475760D01*
X984138Y475774D01*
X984250Y475791D01*
X984361Y475813D01*
X984471Y475838D01*
X984581Y475868D01*
X984689Y475901D01*
X984796Y475938D01*
X984902Y475978D01*
X985006Y476023D01*
X985109Y476071D01*
X985210Y476122D01*
X985309Y476177D01*
X985406Y476235D01*
X985501Y476297D01*
X985594Y476362D01*
X985684Y476430D01*
X985772Y476501D01*
X985858Y476576D01*
X985941Y476653D01*
X986021Y476733D01*
X986098Y476816D01*
X986173Y476902D01*
X986244Y476990D01*
X986312Y477080D01*
X986377Y477173D01*
X986439Y477268D01*
X986497Y477365D01*
X986552Y477464D01*
X986603Y477565D01*
X986651Y477668D01*
X986696Y477772D01*
X986736Y477878D01*
X986773Y477985D01*
X986806Y478093D01*
X986836Y478203D01*
X986861Y478313D01*
X986883Y478424D01*
X986900Y478536D01*
X986914Y478649D01*
X986924Y478762D01*
X986930Y478875D01*
X986932Y478988D01*
X986931Y478988D02*
X986931Y482233D01*
X986929Y482376D01*
X986923Y482519D01*
X986913Y482662D01*
X986899Y482804D01*
X986882Y482946D01*
X986860Y483088D01*
X986835Y483229D01*
X986805Y483369D01*
X986772Y483508D01*
X986735Y483646D01*
X986694Y483783D01*
X986650Y483919D01*
X986601Y484054D01*
X986549Y484187D01*
X986494Y484319D01*
X986434Y484449D01*
X986371Y484578D01*
X986305Y484705D01*
X986235Y484830D01*
X986162Y484952D01*
X986085Y485073D01*
X986005Y485192D01*
X985922Y485308D01*
X985836Y485423D01*
X985747Y485534D01*
X985654Y485644D01*
X985559Y485750D01*
X985460Y485854D01*
X985359Y485955D01*
X985255Y486054D01*
X985149Y486149D01*
X985039Y486242D01*
X984928Y486331D01*
X984813Y486417D01*
X984697Y486500D01*
X984578Y486580D01*
X984457Y486657D01*
X984335Y486730D01*
X984210Y486800D01*
X984083Y486866D01*
X983954Y486929D01*
X983824Y486989D01*
X983692Y487044D01*
X983559Y487096D01*
X983424Y487145D01*
X983288Y487189D01*
X983151Y487230D01*
X983013Y487267D01*
X982874Y487300D01*
X982734Y487330D01*
X982593Y487355D01*
X982451Y487377D01*
X982309Y487394D01*
X982167Y487408D01*
X982024Y487418D01*
X981881Y487424D01*
X981738Y487426D01*
X646684Y413625D02*
X646684Y411028D01*
X646686Y410929D01*
X646692Y410829D01*
X646701Y410730D01*
X646714Y410632D01*
X646731Y410534D01*
X646752Y410436D01*
X646777Y410340D01*
X646805Y410245D01*
X646837Y410151D01*
X646872Y410058D01*
X646911Y409966D01*
X646954Y409876D01*
X646999Y409788D01*
X647049Y409701D01*
X647101Y409617D01*
X647157Y409534D01*
X647215Y409454D01*
X647277Y409376D01*
X647342Y409301D01*
X647410Y409228D01*
X647480Y409158D01*
X647553Y409090D01*
X647628Y409025D01*
X647706Y408963D01*
X647786Y408905D01*
X647869Y408849D01*
X647953Y408797D01*
X648040Y408747D01*
X648128Y408702D01*
X648218Y408659D01*
X648310Y408620D01*
X648403Y408585D01*
X648497Y408553D01*
X648592Y408525D01*
X648688Y408500D01*
X648786Y408479D01*
X648884Y408462D01*
X648982Y408449D01*
X649081Y408440D01*
X649181Y408434D01*
X649280Y408432D01*
X655772Y408432D01*
X655871Y408434D01*
X655971Y408440D01*
X656070Y408449D01*
X656168Y408462D01*
X656266Y408479D01*
X656364Y408500D01*
X656460Y408525D01*
X656555Y408553D01*
X656649Y408585D01*
X656742Y408620D01*
X656834Y408659D01*
X656924Y408702D01*
X657012Y408747D01*
X657099Y408797D01*
X657183Y408849D01*
X657266Y408905D01*
X657346Y408963D01*
X657424Y409025D01*
X657499Y409090D01*
X657572Y409158D01*
X657642Y409228D01*
X657710Y409301D01*
X657775Y409376D01*
X657837Y409454D01*
X657895Y409534D01*
X657951Y409617D01*
X658003Y409701D01*
X658053Y409788D01*
X658098Y409876D01*
X658141Y409966D01*
X658180Y410058D01*
X658215Y410150D01*
X658247Y410245D01*
X658275Y410340D01*
X658300Y410436D01*
X658321Y410534D01*
X658338Y410632D01*
X658351Y410730D01*
X658360Y410829D01*
X658366Y410929D01*
X658368Y411028D01*
X658368Y413625D01*
X658368Y417990D02*
X657070Y417990D01*
X658368Y417990D02*
X658368Y424481D01*
X646684Y421236D01*
X1006997Y400304D02*
X1009594Y400304D01*
X1009693Y400306D01*
X1009793Y400312D01*
X1009892Y400321D01*
X1009990Y400334D01*
X1010088Y400351D01*
X1010186Y400372D01*
X1010282Y400397D01*
X1010377Y400425D01*
X1010471Y400457D01*
X1010564Y400492D01*
X1010656Y400531D01*
X1010746Y400574D01*
X1010834Y400619D01*
X1010921Y400669D01*
X1011005Y400721D01*
X1011088Y400777D01*
X1011168Y400835D01*
X1011246Y400897D01*
X1011321Y400962D01*
X1011394Y401030D01*
X1011464Y401100D01*
X1011532Y401173D01*
X1011597Y401248D01*
X1011659Y401326D01*
X1011717Y401406D01*
X1011773Y401489D01*
X1011825Y401573D01*
X1011875Y401660D01*
X1011920Y401748D01*
X1011963Y401838D01*
X1012002Y401930D01*
X1012037Y402023D01*
X1012069Y402117D01*
X1012097Y402212D01*
X1012122Y402308D01*
X1012143Y402406D01*
X1012160Y402504D01*
X1012173Y402602D01*
X1012182Y402701D01*
X1012188Y402801D01*
X1012190Y402900D01*
X1012190Y409392D01*
X1012188Y409491D01*
X1012182Y409591D01*
X1012173Y409690D01*
X1012160Y409788D01*
X1012143Y409886D01*
X1012122Y409984D01*
X1012097Y410080D01*
X1012069Y410175D01*
X1012037Y410269D01*
X1012002Y410362D01*
X1011963Y410454D01*
X1011920Y410544D01*
X1011875Y410632D01*
X1011825Y410719D01*
X1011773Y410803D01*
X1011717Y410886D01*
X1011659Y410966D01*
X1011597Y411044D01*
X1011532Y411119D01*
X1011464Y411192D01*
X1011394Y411262D01*
X1011321Y411330D01*
X1011246Y411395D01*
X1011168Y411457D01*
X1011088Y411515D01*
X1011005Y411571D01*
X1010921Y411623D01*
X1010834Y411673D01*
X1010746Y411718D01*
X1010656Y411761D01*
X1010564Y411800D01*
X1010471Y411835D01*
X1010377Y411867D01*
X1010282Y411895D01*
X1010186Y411920D01*
X1010088Y411941D01*
X1009990Y411958D01*
X1009892Y411971D01*
X1009793Y411980D01*
X1009693Y411986D01*
X1009594Y411988D01*
X1006997Y411988D01*
X1000035Y405497D02*
X996141Y405497D01*
X1000035Y405497D02*
X1000134Y405499D01*
X1000234Y405505D01*
X1000333Y405514D01*
X1000431Y405527D01*
X1000529Y405544D01*
X1000627Y405565D01*
X1000723Y405590D01*
X1000818Y405618D01*
X1000912Y405650D01*
X1001005Y405685D01*
X1001097Y405724D01*
X1001187Y405767D01*
X1001275Y405812D01*
X1001362Y405862D01*
X1001446Y405914D01*
X1001529Y405970D01*
X1001609Y406028D01*
X1001687Y406090D01*
X1001762Y406155D01*
X1001835Y406223D01*
X1001905Y406293D01*
X1001973Y406366D01*
X1002038Y406441D01*
X1002100Y406519D01*
X1002158Y406599D01*
X1002214Y406682D01*
X1002266Y406766D01*
X1002316Y406853D01*
X1002361Y406941D01*
X1002404Y407031D01*
X1002443Y407123D01*
X1002478Y407216D01*
X1002510Y407310D01*
X1002538Y407405D01*
X1002563Y407501D01*
X1002584Y407599D01*
X1002601Y407697D01*
X1002614Y407795D01*
X1002623Y407894D01*
X1002629Y407994D01*
X1002631Y408093D01*
X1002632Y408093D02*
X1002632Y408742D01*
X1002630Y408855D01*
X1002624Y408968D01*
X1002614Y409081D01*
X1002600Y409194D01*
X1002583Y409306D01*
X1002561Y409417D01*
X1002536Y409527D01*
X1002506Y409637D01*
X1002473Y409745D01*
X1002436Y409852D01*
X1002396Y409958D01*
X1002351Y410062D01*
X1002303Y410165D01*
X1002252Y410266D01*
X1002197Y410365D01*
X1002139Y410462D01*
X1002077Y410557D01*
X1002012Y410650D01*
X1001944Y410740D01*
X1001873Y410828D01*
X1001798Y410914D01*
X1001721Y410997D01*
X1001641Y411077D01*
X1001558Y411154D01*
X1001472Y411229D01*
X1001384Y411300D01*
X1001294Y411368D01*
X1001201Y411433D01*
X1001106Y411495D01*
X1001009Y411553D01*
X1000910Y411608D01*
X1000809Y411659D01*
X1000706Y411707D01*
X1000602Y411752D01*
X1000496Y411792D01*
X1000389Y411829D01*
X1000281Y411862D01*
X1000171Y411892D01*
X1000061Y411917D01*
X999950Y411939D01*
X999838Y411956D01*
X999725Y411970D01*
X999612Y411980D01*
X999499Y411986D01*
X999386Y411988D01*
X999273Y411986D01*
X999160Y411980D01*
X999047Y411970D01*
X998934Y411956D01*
X998822Y411939D01*
X998711Y411917D01*
X998601Y411892D01*
X998491Y411862D01*
X998383Y411829D01*
X998276Y411792D01*
X998170Y411752D01*
X998066Y411707D01*
X997963Y411659D01*
X997862Y411608D01*
X997763Y411553D01*
X997666Y411495D01*
X997571Y411433D01*
X997478Y411368D01*
X997388Y411300D01*
X997300Y411229D01*
X997214Y411154D01*
X997131Y411077D01*
X997051Y410997D01*
X996974Y410914D01*
X996899Y410828D01*
X996828Y410740D01*
X996760Y410650D01*
X996695Y410557D01*
X996633Y410462D01*
X996575Y410365D01*
X996520Y410266D01*
X996469Y410165D01*
X996421Y410062D01*
X996376Y409958D01*
X996336Y409852D01*
X996299Y409745D01*
X996266Y409637D01*
X996236Y409527D01*
X996211Y409417D01*
X996189Y409306D01*
X996172Y409194D01*
X996158Y409081D01*
X996148Y408968D01*
X996142Y408855D01*
X996140Y408742D01*
X996141Y408742D02*
X996141Y405497D01*
X996143Y405354D01*
X996149Y405211D01*
X996159Y405068D01*
X996173Y404926D01*
X996190Y404784D01*
X996212Y404642D01*
X996237Y404501D01*
X996267Y404361D01*
X996300Y404222D01*
X996337Y404084D01*
X996378Y403947D01*
X996422Y403811D01*
X996471Y403676D01*
X996523Y403543D01*
X996578Y403411D01*
X996638Y403281D01*
X996701Y403152D01*
X996767Y403025D01*
X996837Y402901D01*
X996910Y402778D01*
X996987Y402657D01*
X997067Y402538D01*
X997150Y402422D01*
X997236Y402307D01*
X997325Y402196D01*
X997418Y402086D01*
X997513Y401980D01*
X997612Y401876D01*
X997713Y401775D01*
X997817Y401676D01*
X997923Y401581D01*
X998033Y401488D01*
X998144Y401399D01*
X998259Y401313D01*
X998375Y401230D01*
X998494Y401150D01*
X998615Y401073D01*
X998738Y401000D01*
X998862Y400930D01*
X998989Y400864D01*
X999118Y400801D01*
X999248Y400741D01*
X999380Y400686D01*
X999513Y400634D01*
X999648Y400585D01*
X999784Y400541D01*
X999921Y400500D01*
X1000059Y400463D01*
X1000198Y400430D01*
X1000338Y400400D01*
X1000479Y400375D01*
X1000621Y400353D01*
X1000763Y400336D01*
X1000905Y400322D01*
X1001048Y400312D01*
X1001191Y400306D01*
X1001334Y400304D01*
D11*
X714248Y335788D02*
X688848Y335788D01*
X688848Y386588D01*
X714248Y361188D02*
X714248Y335788D01*
X714248Y361188D02*
X714248Y386588D01*
X688848Y386588D01*
X688848Y361188D02*
X714248Y361188D01*
D12*
X720471Y335661D02*
X731901Y335661D01*
X731901Y340741D01*
X726821Y340741D02*
X726821Y335661D01*
X723646Y345542D02*
X731901Y345542D01*
X723646Y345542D02*
X723535Y345544D01*
X723425Y345550D01*
X723314Y345559D01*
X723204Y345573D01*
X723095Y345590D01*
X722986Y345611D01*
X722878Y345636D01*
X722771Y345665D01*
X722665Y345697D01*
X722560Y345733D01*
X722457Y345773D01*
X722355Y345816D01*
X722254Y345863D01*
X722155Y345914D01*
X722059Y345967D01*
X721964Y346024D01*
X721871Y346085D01*
X721780Y346148D01*
X721691Y346215D01*
X721605Y346285D01*
X721522Y346358D01*
X721440Y346433D01*
X721362Y346511D01*
X721287Y346593D01*
X721214Y346676D01*
X721144Y346762D01*
X721077Y346851D01*
X721014Y346942D01*
X720953Y347035D01*
X720896Y347130D01*
X720843Y347226D01*
X720792Y347325D01*
X720745Y347426D01*
X720702Y347528D01*
X720662Y347631D01*
X720626Y347736D01*
X720594Y347842D01*
X720565Y347949D01*
X720540Y348057D01*
X720519Y348166D01*
X720502Y348275D01*
X720488Y348385D01*
X720479Y348496D01*
X720473Y348606D01*
X720471Y348717D01*
X720473Y348828D01*
X720479Y348938D01*
X720488Y349049D01*
X720502Y349159D01*
X720519Y349268D01*
X720540Y349377D01*
X720565Y349485D01*
X720594Y349592D01*
X720626Y349698D01*
X720662Y349803D01*
X720702Y349906D01*
X720745Y350008D01*
X720792Y350109D01*
X720843Y350208D01*
X720896Y350305D01*
X720953Y350399D01*
X721014Y350492D01*
X721077Y350583D01*
X721144Y350672D01*
X721214Y350758D01*
X721287Y350841D01*
X721362Y350923D01*
X721440Y351001D01*
X721522Y351076D01*
X721605Y351149D01*
X721691Y351219D01*
X721780Y351286D01*
X721871Y351349D01*
X721964Y351410D01*
X722059Y351467D01*
X722155Y351520D01*
X722254Y351571D01*
X722355Y351618D01*
X722457Y351661D01*
X722560Y351701D01*
X722665Y351737D01*
X722771Y351769D01*
X722878Y351798D01*
X722986Y351823D01*
X723095Y351844D01*
X723204Y351861D01*
X723314Y351875D01*
X723425Y351884D01*
X723535Y351890D01*
X723646Y351892D01*
X731901Y351892D01*
X723011Y363322D02*
X722911Y363320D01*
X722812Y363314D01*
X722712Y363304D01*
X722614Y363291D01*
X722515Y363273D01*
X722418Y363252D01*
X722322Y363227D01*
X722226Y363198D01*
X722132Y363165D01*
X722039Y363129D01*
X721948Y363089D01*
X721858Y363045D01*
X721770Y362998D01*
X721684Y362948D01*
X721600Y362894D01*
X721518Y362837D01*
X721439Y362777D01*
X721361Y362713D01*
X721287Y362647D01*
X721215Y362578D01*
X721146Y362506D01*
X721080Y362432D01*
X721016Y362354D01*
X720956Y362275D01*
X720899Y362193D01*
X720845Y362109D01*
X720795Y362023D01*
X720748Y361935D01*
X720704Y361845D01*
X720664Y361754D01*
X720628Y361661D01*
X720595Y361567D01*
X720566Y361471D01*
X720541Y361375D01*
X720520Y361278D01*
X720502Y361179D01*
X720489Y361081D01*
X720479Y360981D01*
X720473Y360882D01*
X720471Y360782D01*
X720473Y360641D01*
X720478Y360500D01*
X720488Y360359D01*
X720501Y360218D01*
X720517Y360078D01*
X720538Y359938D01*
X720562Y359799D01*
X720590Y359660D01*
X720621Y359523D01*
X720656Y359386D01*
X720694Y359250D01*
X720736Y359115D01*
X720782Y358982D01*
X720831Y358849D01*
X720884Y358718D01*
X720940Y358589D01*
X720999Y358460D01*
X721062Y358334D01*
X721128Y358209D01*
X721197Y358086D01*
X721270Y357965D01*
X721346Y357846D01*
X721425Y357728D01*
X721506Y357613D01*
X721591Y357501D01*
X721679Y357390D01*
X721770Y357282D01*
X721863Y357176D01*
X721960Y357073D01*
X722059Y356972D01*
X729361Y357289D02*
X729461Y357291D01*
X729560Y357297D01*
X729660Y357307D01*
X729758Y357320D01*
X729857Y357338D01*
X729954Y357359D01*
X730050Y357384D01*
X730146Y357413D01*
X730240Y357446D01*
X730333Y357482D01*
X730424Y357522D01*
X730514Y357566D01*
X730602Y357613D01*
X730688Y357663D01*
X730772Y357717D01*
X730854Y357774D01*
X730933Y357834D01*
X731011Y357898D01*
X731085Y357964D01*
X731157Y358033D01*
X731226Y358105D01*
X731292Y358179D01*
X731356Y358257D01*
X731416Y358336D01*
X731473Y358418D01*
X731527Y358502D01*
X731577Y358588D01*
X731624Y358676D01*
X731668Y358766D01*
X731708Y358857D01*
X731744Y358950D01*
X731777Y359044D01*
X731806Y359140D01*
X731831Y359236D01*
X731852Y359333D01*
X731870Y359432D01*
X731883Y359530D01*
X731893Y359630D01*
X731899Y359729D01*
X731901Y359829D01*
X731902Y359829D02*
X731900Y359962D01*
X731895Y360095D01*
X731885Y360228D01*
X731872Y360361D01*
X731855Y360493D01*
X731835Y360625D01*
X731811Y360756D01*
X731783Y360886D01*
X731752Y361016D01*
X731717Y361144D01*
X731678Y361272D01*
X731636Y361398D01*
X731590Y361523D01*
X731541Y361647D01*
X731489Y361770D01*
X731433Y361891D01*
X731373Y362010D01*
X731311Y362128D01*
X731245Y362243D01*
X731176Y362357D01*
X731103Y362469D01*
X731028Y362579D01*
X730949Y362687D01*
X727138Y358559D02*
X727190Y358475D01*
X727245Y358392D01*
X727304Y358312D01*
X727365Y358234D01*
X727429Y358159D01*
X727497Y358086D01*
X727567Y358015D01*
X727639Y357948D01*
X727714Y357883D01*
X727792Y357821D01*
X727872Y357762D01*
X727954Y357706D01*
X728038Y357654D01*
X728124Y357605D01*
X728212Y357559D01*
X728302Y357516D01*
X728393Y357477D01*
X728486Y357442D01*
X728580Y357410D01*
X728675Y357382D01*
X728771Y357357D01*
X728868Y357337D01*
X728966Y357319D01*
X729064Y357306D01*
X729163Y357297D01*
X729262Y357291D01*
X729361Y357289D01*
X725234Y362052D02*
X725182Y362136D01*
X725127Y362219D01*
X725068Y362299D01*
X725007Y362377D01*
X724943Y362452D01*
X724875Y362525D01*
X724805Y362596D01*
X724733Y362663D01*
X724658Y362728D01*
X724580Y362790D01*
X724500Y362849D01*
X724418Y362905D01*
X724334Y362957D01*
X724248Y363006D01*
X724160Y363052D01*
X724070Y363095D01*
X723979Y363134D01*
X723886Y363169D01*
X723792Y363201D01*
X723697Y363229D01*
X723601Y363254D01*
X723504Y363274D01*
X723406Y363292D01*
X723308Y363305D01*
X723209Y363314D01*
X723110Y363320D01*
X723011Y363322D01*
X725234Y362052D02*
X727139Y358559D01*
X720471Y368427D02*
X720471Y373507D01*
X720471Y368427D02*
X731901Y368427D01*
X731901Y373507D01*
X726821Y372237D02*
X726821Y368427D01*
X729361Y377927D02*
X731901Y381102D01*
X720471Y381102D01*
X720471Y377927D02*
X720471Y384277D01*
X769122Y509768D02*
X929122Y509768D01*
X929122Y349768D02*
X769122Y349768D01*
X769122Y467768D02*
X769122Y471768D01*
X769122Y487768D02*
X769122Y491768D01*
X769122Y505768D02*
X769122Y509768D01*
X929122Y509768D02*
X929122Y505768D01*
X769122Y451768D02*
X769122Y447768D01*
X769122Y431768D02*
X769122Y427768D01*
X769122Y411768D02*
X769122Y407768D01*
X769122Y391768D02*
X769122Y387768D01*
X769122Y371768D02*
X769122Y367768D01*
X769122Y353768D02*
X769122Y349768D01*
X929122Y349768D02*
X929122Y353768D01*
X929122Y367768D02*
X929122Y371768D01*
X929122Y387768D02*
X929122Y391768D01*
X929122Y407768D02*
X929122Y411768D01*
X929122Y427768D02*
X929122Y431768D01*
X929122Y447768D02*
X929122Y451768D01*
X929122Y467768D02*
X929122Y471768D01*
X929122Y487768D02*
X929122Y491768D01*
D10*
X817961Y360067D02*
X816014Y360067D01*
X816014Y353576D01*
X819909Y353576D01*
X820008Y353578D01*
X820108Y353584D01*
X820207Y353593D01*
X820305Y353606D01*
X820403Y353623D01*
X820501Y353644D01*
X820597Y353669D01*
X820692Y353697D01*
X820786Y353729D01*
X820879Y353764D01*
X820971Y353803D01*
X821061Y353846D01*
X821149Y353891D01*
X821236Y353941D01*
X821320Y353993D01*
X821403Y354049D01*
X821483Y354107D01*
X821561Y354169D01*
X821636Y354234D01*
X821709Y354302D01*
X821779Y354372D01*
X821847Y354445D01*
X821912Y354520D01*
X821974Y354598D01*
X822032Y354678D01*
X822088Y354761D01*
X822140Y354845D01*
X822190Y354932D01*
X822235Y355020D01*
X822278Y355110D01*
X822317Y355202D01*
X822352Y355295D01*
X822384Y355389D01*
X822412Y355484D01*
X822437Y355580D01*
X822458Y355678D01*
X822475Y355776D01*
X822488Y355874D01*
X822497Y355973D01*
X822503Y356073D01*
X822505Y356172D01*
X822505Y362664D01*
X822503Y362763D01*
X822497Y362863D01*
X822488Y362962D01*
X822475Y363060D01*
X822458Y363158D01*
X822437Y363256D01*
X822412Y363352D01*
X822384Y363447D01*
X822352Y363541D01*
X822317Y363634D01*
X822278Y363726D01*
X822235Y363816D01*
X822190Y363904D01*
X822140Y363991D01*
X822088Y364075D01*
X822032Y364158D01*
X821974Y364238D01*
X821912Y364316D01*
X821847Y364391D01*
X821779Y364464D01*
X821709Y364534D01*
X821636Y364602D01*
X821561Y364667D01*
X821483Y364729D01*
X821403Y364787D01*
X821320Y364843D01*
X821236Y364895D01*
X821149Y364945D01*
X821061Y364990D01*
X820971Y365033D01*
X820879Y365072D01*
X820786Y365107D01*
X820692Y365139D01*
X820597Y365167D01*
X820501Y365192D01*
X820403Y365213D01*
X820305Y365230D01*
X820207Y365243D01*
X820108Y365252D01*
X820008Y365258D01*
X819909Y365260D01*
X816014Y365260D01*
X810313Y365260D02*
X810313Y353576D01*
X803822Y353576D02*
X810313Y365260D01*
X803822Y365260D02*
X803822Y353576D01*
X798121Y353576D02*
X798121Y365260D01*
X794876Y365260D01*
X794763Y365258D01*
X794650Y365252D01*
X794537Y365242D01*
X794424Y365228D01*
X794312Y365211D01*
X794201Y365189D01*
X794091Y365164D01*
X793981Y365134D01*
X793873Y365101D01*
X793766Y365064D01*
X793660Y365024D01*
X793556Y364979D01*
X793453Y364931D01*
X793352Y364880D01*
X793253Y364825D01*
X793156Y364767D01*
X793061Y364705D01*
X792968Y364640D01*
X792878Y364572D01*
X792790Y364501D01*
X792704Y364426D01*
X792621Y364349D01*
X792541Y364269D01*
X792464Y364186D01*
X792389Y364100D01*
X792318Y364012D01*
X792250Y363922D01*
X792185Y363829D01*
X792123Y363734D01*
X792065Y363637D01*
X792010Y363538D01*
X791959Y363437D01*
X791911Y363334D01*
X791866Y363230D01*
X791826Y363124D01*
X791789Y363017D01*
X791756Y362909D01*
X791726Y362799D01*
X791701Y362689D01*
X791679Y362578D01*
X791662Y362466D01*
X791648Y362353D01*
X791638Y362240D01*
X791632Y362127D01*
X791630Y362014D01*
X791630Y356822D01*
X791632Y356709D01*
X791638Y356596D01*
X791648Y356483D01*
X791662Y356370D01*
X791679Y356258D01*
X791701Y356147D01*
X791726Y356037D01*
X791756Y355927D01*
X791789Y355819D01*
X791826Y355712D01*
X791866Y355606D01*
X791911Y355502D01*
X791959Y355399D01*
X792010Y355298D01*
X792065Y355199D01*
X792123Y355102D01*
X792185Y355007D01*
X792250Y354914D01*
X792318Y354824D01*
X792389Y354736D01*
X792464Y354650D01*
X792541Y354567D01*
X792621Y354487D01*
X792704Y354410D01*
X792790Y354335D01*
X792878Y354264D01*
X792968Y354196D01*
X793061Y354131D01*
X793156Y354069D01*
X793253Y354011D01*
X793352Y353956D01*
X793453Y353905D01*
X793556Y353857D01*
X793660Y353812D01*
X793766Y353772D01*
X793873Y353735D01*
X793981Y353702D01*
X794091Y353672D01*
X794201Y353647D01*
X794312Y353625D01*
X794424Y353608D01*
X794537Y353594D01*
X794650Y353584D01*
X794763Y353578D01*
X794876Y353576D01*
X798121Y353576D01*
X816014Y380067D02*
X817961Y380067D01*
X816014Y380067D02*
X816014Y373576D01*
X819909Y373576D01*
X820008Y373578D01*
X820108Y373584D01*
X820207Y373593D01*
X820305Y373606D01*
X820403Y373623D01*
X820501Y373644D01*
X820597Y373669D01*
X820692Y373697D01*
X820786Y373729D01*
X820879Y373764D01*
X820971Y373803D01*
X821061Y373846D01*
X821149Y373891D01*
X821236Y373941D01*
X821320Y373993D01*
X821403Y374049D01*
X821483Y374107D01*
X821561Y374169D01*
X821636Y374234D01*
X821709Y374302D01*
X821779Y374372D01*
X821847Y374445D01*
X821912Y374520D01*
X821974Y374598D01*
X822032Y374678D01*
X822088Y374761D01*
X822140Y374845D01*
X822190Y374932D01*
X822235Y375020D01*
X822278Y375110D01*
X822317Y375202D01*
X822352Y375295D01*
X822384Y375389D01*
X822412Y375484D01*
X822437Y375580D01*
X822458Y375678D01*
X822475Y375776D01*
X822488Y375874D01*
X822497Y375973D01*
X822503Y376073D01*
X822505Y376172D01*
X822505Y382664D01*
X822503Y382763D01*
X822497Y382863D01*
X822488Y382962D01*
X822475Y383060D01*
X822458Y383158D01*
X822437Y383256D01*
X822412Y383352D01*
X822384Y383447D01*
X822352Y383541D01*
X822317Y383634D01*
X822278Y383726D01*
X822235Y383816D01*
X822190Y383904D01*
X822140Y383991D01*
X822088Y384075D01*
X822032Y384158D01*
X821974Y384238D01*
X821912Y384316D01*
X821847Y384391D01*
X821779Y384464D01*
X821709Y384534D01*
X821636Y384602D01*
X821561Y384667D01*
X821483Y384729D01*
X821403Y384787D01*
X821320Y384843D01*
X821236Y384895D01*
X821149Y384945D01*
X821061Y384990D01*
X820971Y385033D01*
X820879Y385072D01*
X820786Y385107D01*
X820692Y385139D01*
X820597Y385167D01*
X820501Y385192D01*
X820403Y385213D01*
X820305Y385230D01*
X820207Y385243D01*
X820108Y385252D01*
X820008Y385258D01*
X819909Y385260D01*
X816014Y385260D01*
X810313Y385260D02*
X810313Y373576D01*
X803822Y373576D02*
X810313Y385260D01*
X803822Y385260D02*
X803822Y373576D01*
X798121Y373576D02*
X798121Y385260D01*
X794876Y385260D01*
X794763Y385258D01*
X794650Y385252D01*
X794537Y385242D01*
X794424Y385228D01*
X794312Y385211D01*
X794201Y385189D01*
X794091Y385164D01*
X793981Y385134D01*
X793873Y385101D01*
X793766Y385064D01*
X793660Y385024D01*
X793556Y384979D01*
X793453Y384931D01*
X793352Y384880D01*
X793253Y384825D01*
X793156Y384767D01*
X793061Y384705D01*
X792968Y384640D01*
X792878Y384572D01*
X792790Y384501D01*
X792704Y384426D01*
X792621Y384349D01*
X792541Y384269D01*
X792464Y384186D01*
X792389Y384100D01*
X792318Y384012D01*
X792250Y383922D01*
X792185Y383829D01*
X792123Y383734D01*
X792065Y383637D01*
X792010Y383538D01*
X791959Y383437D01*
X791911Y383334D01*
X791866Y383230D01*
X791826Y383124D01*
X791789Y383017D01*
X791756Y382909D01*
X791726Y382799D01*
X791701Y382689D01*
X791679Y382578D01*
X791662Y382466D01*
X791648Y382353D01*
X791638Y382240D01*
X791632Y382127D01*
X791630Y382014D01*
X791630Y376822D01*
X791632Y376709D01*
X791638Y376596D01*
X791648Y376483D01*
X791662Y376370D01*
X791679Y376258D01*
X791701Y376147D01*
X791726Y376037D01*
X791756Y375927D01*
X791789Y375819D01*
X791826Y375712D01*
X791866Y375606D01*
X791911Y375502D01*
X791959Y375399D01*
X792010Y375298D01*
X792065Y375199D01*
X792123Y375102D01*
X792185Y375007D01*
X792250Y374914D01*
X792318Y374824D01*
X792389Y374736D01*
X792464Y374650D01*
X792541Y374567D01*
X792621Y374487D01*
X792704Y374410D01*
X792790Y374335D01*
X792878Y374264D01*
X792968Y374196D01*
X793061Y374131D01*
X793156Y374069D01*
X793253Y374011D01*
X793352Y373956D01*
X793453Y373905D01*
X793556Y373857D01*
X793660Y373812D01*
X793766Y373772D01*
X793873Y373735D01*
X793981Y373702D01*
X794091Y373672D01*
X794201Y373647D01*
X794312Y373625D01*
X794424Y373608D01*
X794537Y373594D01*
X794650Y373584D01*
X794763Y373578D01*
X794876Y373576D01*
X798121Y373576D01*
X822957Y393576D02*
X826202Y393576D01*
X822957Y393576D02*
X822844Y393578D01*
X822731Y393584D01*
X822618Y393594D01*
X822505Y393608D01*
X822393Y393625D01*
X822282Y393647D01*
X822172Y393672D01*
X822062Y393702D01*
X821954Y393735D01*
X821847Y393772D01*
X821741Y393812D01*
X821637Y393857D01*
X821534Y393905D01*
X821433Y393956D01*
X821334Y394011D01*
X821237Y394069D01*
X821142Y394131D01*
X821049Y394196D01*
X820959Y394264D01*
X820871Y394335D01*
X820785Y394410D01*
X820702Y394487D01*
X820622Y394567D01*
X820545Y394650D01*
X820470Y394736D01*
X820399Y394824D01*
X820331Y394914D01*
X820266Y395007D01*
X820204Y395102D01*
X820146Y395199D01*
X820091Y395298D01*
X820040Y395399D01*
X819992Y395502D01*
X819947Y395606D01*
X819907Y395712D01*
X819870Y395819D01*
X819837Y395927D01*
X819807Y396037D01*
X819782Y396147D01*
X819760Y396258D01*
X819743Y396370D01*
X819729Y396483D01*
X819719Y396596D01*
X819713Y396709D01*
X819711Y396822D01*
X819713Y396935D01*
X819719Y397048D01*
X819729Y397161D01*
X819743Y397274D01*
X819760Y397386D01*
X819782Y397497D01*
X819807Y397607D01*
X819837Y397717D01*
X819870Y397825D01*
X819907Y397932D01*
X819947Y398038D01*
X819992Y398142D01*
X820040Y398245D01*
X820091Y398346D01*
X820146Y398445D01*
X820204Y398542D01*
X820266Y398637D01*
X820331Y398730D01*
X820399Y398820D01*
X820470Y398908D01*
X820545Y398994D01*
X820622Y399077D01*
X820702Y399157D01*
X820785Y399234D01*
X820871Y399309D01*
X820959Y399380D01*
X821049Y399448D01*
X821142Y399513D01*
X821237Y399575D01*
X821334Y399633D01*
X821433Y399688D01*
X821534Y399739D01*
X821637Y399787D01*
X821741Y399832D01*
X821847Y399872D01*
X821954Y399909D01*
X822062Y399942D01*
X822172Y399972D01*
X822282Y399997D01*
X822393Y400019D01*
X822505Y400036D01*
X822618Y400050D01*
X822731Y400060D01*
X822844Y400066D01*
X822957Y400068D01*
X822307Y405260D02*
X826202Y405260D01*
X822307Y405260D02*
X822206Y405258D01*
X822106Y405252D01*
X822006Y405242D01*
X821906Y405229D01*
X821807Y405211D01*
X821708Y405190D01*
X821611Y405165D01*
X821514Y405136D01*
X821419Y405103D01*
X821325Y405067D01*
X821233Y405027D01*
X821142Y404984D01*
X821053Y404937D01*
X820966Y404887D01*
X820880Y404833D01*
X820797Y404776D01*
X820717Y404716D01*
X820638Y404653D01*
X820562Y404586D01*
X820489Y404517D01*
X820419Y404445D01*
X820351Y404371D01*
X820286Y404294D01*
X820225Y404214D01*
X820166Y404132D01*
X820111Y404048D01*
X820059Y403962D01*
X820010Y403874D01*
X819965Y403784D01*
X819923Y403692D01*
X819885Y403599D01*
X819851Y403504D01*
X819820Y403409D01*
X819793Y403312D01*
X819770Y403214D01*
X819750Y403115D01*
X819735Y403015D01*
X819723Y402915D01*
X819715Y402815D01*
X819711Y402714D01*
X819711Y402614D01*
X819715Y402513D01*
X819723Y402413D01*
X819735Y402313D01*
X819750Y402213D01*
X819770Y402114D01*
X819793Y402016D01*
X819820Y401919D01*
X819851Y401824D01*
X819885Y401729D01*
X819923Y401636D01*
X819965Y401544D01*
X820010Y401454D01*
X820059Y401366D01*
X820111Y401280D01*
X820166Y401196D01*
X820225Y401114D01*
X820286Y401034D01*
X820351Y400957D01*
X820419Y400883D01*
X820489Y400811D01*
X820562Y400742D01*
X820638Y400675D01*
X820717Y400612D01*
X820797Y400552D01*
X820880Y400495D01*
X820966Y400441D01*
X821053Y400391D01*
X821142Y400344D01*
X821233Y400301D01*
X821325Y400261D01*
X821419Y400225D01*
X821514Y400192D01*
X821611Y400163D01*
X821708Y400138D01*
X821807Y400117D01*
X821906Y400099D01*
X822006Y400086D01*
X822106Y400076D01*
X822206Y400070D01*
X822307Y400068D01*
X822307Y400067D02*
X824904Y400067D01*
X815280Y394225D02*
X815280Y393576D01*
X815280Y394225D02*
X814631Y394225D01*
X814631Y393576D01*
X815280Y393576D01*
X810200Y393576D02*
X806955Y393576D01*
X806842Y393578D01*
X806729Y393584D01*
X806616Y393594D01*
X806503Y393608D01*
X806391Y393625D01*
X806280Y393647D01*
X806170Y393672D01*
X806060Y393702D01*
X805952Y393735D01*
X805845Y393772D01*
X805739Y393812D01*
X805635Y393857D01*
X805532Y393905D01*
X805431Y393956D01*
X805332Y394011D01*
X805235Y394069D01*
X805140Y394131D01*
X805047Y394196D01*
X804957Y394264D01*
X804869Y394335D01*
X804783Y394410D01*
X804700Y394487D01*
X804620Y394567D01*
X804543Y394650D01*
X804468Y394736D01*
X804397Y394824D01*
X804329Y394914D01*
X804264Y395007D01*
X804202Y395102D01*
X804144Y395199D01*
X804089Y395298D01*
X804038Y395399D01*
X803990Y395502D01*
X803945Y395606D01*
X803905Y395712D01*
X803868Y395819D01*
X803835Y395927D01*
X803805Y396037D01*
X803780Y396147D01*
X803758Y396258D01*
X803741Y396370D01*
X803727Y396483D01*
X803717Y396596D01*
X803711Y396709D01*
X803709Y396822D01*
X803711Y396935D01*
X803717Y397048D01*
X803727Y397161D01*
X803741Y397274D01*
X803758Y397386D01*
X803780Y397497D01*
X803805Y397607D01*
X803835Y397717D01*
X803868Y397825D01*
X803905Y397932D01*
X803945Y398038D01*
X803990Y398142D01*
X804038Y398245D01*
X804089Y398346D01*
X804144Y398445D01*
X804202Y398542D01*
X804264Y398637D01*
X804329Y398730D01*
X804397Y398820D01*
X804468Y398908D01*
X804543Y398994D01*
X804620Y399077D01*
X804700Y399157D01*
X804783Y399234D01*
X804869Y399309D01*
X804957Y399380D01*
X805047Y399448D01*
X805140Y399513D01*
X805235Y399575D01*
X805332Y399633D01*
X805431Y399688D01*
X805532Y399739D01*
X805635Y399787D01*
X805739Y399832D01*
X805845Y399872D01*
X805952Y399909D01*
X806060Y399942D01*
X806170Y399972D01*
X806280Y399997D01*
X806391Y400019D01*
X806503Y400036D01*
X806616Y400050D01*
X806729Y400060D01*
X806842Y400066D01*
X806955Y400068D01*
X806306Y405260D02*
X810200Y405260D01*
X806306Y405260D02*
X806205Y405258D01*
X806105Y405252D01*
X806005Y405242D01*
X805905Y405229D01*
X805806Y405211D01*
X805707Y405190D01*
X805610Y405165D01*
X805513Y405136D01*
X805418Y405103D01*
X805324Y405067D01*
X805232Y405027D01*
X805141Y404984D01*
X805052Y404937D01*
X804965Y404887D01*
X804879Y404833D01*
X804796Y404776D01*
X804716Y404716D01*
X804637Y404653D01*
X804561Y404586D01*
X804488Y404517D01*
X804418Y404445D01*
X804350Y404371D01*
X804285Y404294D01*
X804224Y404214D01*
X804165Y404132D01*
X804110Y404048D01*
X804058Y403962D01*
X804009Y403874D01*
X803964Y403784D01*
X803922Y403692D01*
X803884Y403599D01*
X803850Y403504D01*
X803819Y403409D01*
X803792Y403312D01*
X803769Y403214D01*
X803749Y403115D01*
X803734Y403015D01*
X803722Y402915D01*
X803714Y402815D01*
X803710Y402714D01*
X803710Y402614D01*
X803714Y402513D01*
X803722Y402413D01*
X803734Y402313D01*
X803749Y402213D01*
X803769Y402114D01*
X803792Y402016D01*
X803819Y401919D01*
X803850Y401824D01*
X803884Y401729D01*
X803922Y401636D01*
X803964Y401544D01*
X804009Y401454D01*
X804058Y401366D01*
X804110Y401280D01*
X804165Y401196D01*
X804224Y401114D01*
X804285Y401034D01*
X804350Y400957D01*
X804418Y400883D01*
X804488Y400811D01*
X804561Y400742D01*
X804637Y400675D01*
X804716Y400612D01*
X804796Y400552D01*
X804879Y400495D01*
X804965Y400441D01*
X805052Y400391D01*
X805141Y400344D01*
X805232Y400301D01*
X805324Y400261D01*
X805418Y400225D01*
X805513Y400192D01*
X805610Y400163D01*
X805707Y400138D01*
X805806Y400117D01*
X805905Y400099D01*
X806005Y400086D01*
X806105Y400076D01*
X806205Y400070D01*
X806306Y400068D01*
X806306Y400067D02*
X808902Y400067D01*
X799419Y405260D02*
X795525Y393576D01*
X791630Y405260D01*
X839195Y413576D02*
X839195Y425260D01*
X835950Y425260D01*
X835837Y425258D01*
X835724Y425252D01*
X835611Y425242D01*
X835498Y425228D01*
X835386Y425211D01*
X835275Y425189D01*
X835165Y425164D01*
X835055Y425134D01*
X834947Y425101D01*
X834840Y425064D01*
X834734Y425024D01*
X834630Y424979D01*
X834527Y424931D01*
X834426Y424880D01*
X834327Y424825D01*
X834230Y424767D01*
X834135Y424705D01*
X834042Y424640D01*
X833952Y424572D01*
X833864Y424501D01*
X833778Y424426D01*
X833695Y424349D01*
X833615Y424269D01*
X833538Y424186D01*
X833463Y424100D01*
X833392Y424012D01*
X833324Y423922D01*
X833259Y423829D01*
X833197Y423734D01*
X833139Y423637D01*
X833084Y423538D01*
X833033Y423437D01*
X832985Y423334D01*
X832940Y423230D01*
X832900Y423124D01*
X832863Y423017D01*
X832830Y422909D01*
X832800Y422799D01*
X832775Y422689D01*
X832753Y422578D01*
X832736Y422466D01*
X832722Y422353D01*
X832712Y422240D01*
X832706Y422127D01*
X832704Y422014D01*
X832706Y421901D01*
X832712Y421788D01*
X832722Y421675D01*
X832736Y421562D01*
X832753Y421450D01*
X832775Y421339D01*
X832800Y421229D01*
X832830Y421119D01*
X832863Y421011D01*
X832900Y420904D01*
X832940Y420798D01*
X832985Y420694D01*
X833033Y420591D01*
X833084Y420490D01*
X833139Y420391D01*
X833197Y420294D01*
X833259Y420199D01*
X833324Y420106D01*
X833392Y420016D01*
X833463Y419928D01*
X833538Y419842D01*
X833615Y419759D01*
X833695Y419679D01*
X833778Y419602D01*
X833864Y419527D01*
X833952Y419456D01*
X834042Y419388D01*
X834135Y419323D01*
X834230Y419261D01*
X834327Y419203D01*
X834426Y419148D01*
X834527Y419097D01*
X834630Y419049D01*
X834734Y419004D01*
X834840Y418964D01*
X834947Y418927D01*
X835055Y418894D01*
X835165Y418864D01*
X835275Y418839D01*
X835386Y418817D01*
X835498Y418800D01*
X835611Y418786D01*
X835724Y418776D01*
X835837Y418770D01*
X835950Y418768D01*
X835950Y418769D02*
X839195Y418769D01*
X835301Y418769D02*
X832704Y413576D01*
X827435Y413576D02*
X822243Y413576D01*
X827435Y413576D02*
X827435Y425260D01*
X822243Y425260D01*
X823541Y420067D02*
X827435Y420067D01*
X814419Y413576D02*
X814320Y413578D01*
X814220Y413584D01*
X814121Y413593D01*
X814023Y413606D01*
X813925Y413623D01*
X813827Y413644D01*
X813731Y413669D01*
X813636Y413697D01*
X813542Y413729D01*
X813449Y413764D01*
X813357Y413803D01*
X813267Y413846D01*
X813179Y413891D01*
X813092Y413941D01*
X813008Y413993D01*
X812925Y414049D01*
X812845Y414107D01*
X812767Y414169D01*
X812692Y414234D01*
X812619Y414302D01*
X812549Y414372D01*
X812481Y414445D01*
X812416Y414520D01*
X812354Y414598D01*
X812296Y414678D01*
X812240Y414761D01*
X812188Y414845D01*
X812138Y414932D01*
X812093Y415020D01*
X812050Y415110D01*
X812011Y415202D01*
X811976Y415295D01*
X811944Y415389D01*
X811916Y415484D01*
X811891Y415580D01*
X811870Y415678D01*
X811853Y415776D01*
X811840Y415874D01*
X811831Y415973D01*
X811825Y416073D01*
X811823Y416172D01*
X814419Y413576D02*
X814563Y413578D01*
X814708Y413584D01*
X814852Y413593D01*
X814995Y413606D01*
X815139Y413623D01*
X815282Y413644D01*
X815424Y413669D01*
X815565Y413697D01*
X815706Y413729D01*
X815846Y413765D01*
X815985Y413804D01*
X816123Y413847D01*
X816259Y413894D01*
X816395Y413944D01*
X816529Y413998D01*
X816661Y414055D01*
X816792Y414116D01*
X816921Y414180D01*
X817049Y414248D01*
X817175Y414319D01*
X817299Y414393D01*
X817420Y414470D01*
X817540Y414551D01*
X817658Y414634D01*
X817773Y414721D01*
X817886Y414811D01*
X817997Y414904D01*
X818105Y414999D01*
X818211Y415098D01*
X818314Y415199D01*
X817989Y422664D02*
X817987Y422763D01*
X817981Y422863D01*
X817972Y422962D01*
X817959Y423060D01*
X817942Y423158D01*
X817921Y423256D01*
X817896Y423352D01*
X817868Y423447D01*
X817836Y423541D01*
X817801Y423634D01*
X817762Y423726D01*
X817719Y423816D01*
X817674Y423904D01*
X817624Y423991D01*
X817572Y424075D01*
X817516Y424158D01*
X817458Y424238D01*
X817396Y424316D01*
X817331Y424391D01*
X817263Y424464D01*
X817193Y424534D01*
X817120Y424602D01*
X817045Y424667D01*
X816967Y424729D01*
X816887Y424787D01*
X816804Y424843D01*
X816720Y424895D01*
X816633Y424945D01*
X816545Y424990D01*
X816455Y425033D01*
X816363Y425072D01*
X816270Y425107D01*
X816176Y425139D01*
X816081Y425167D01*
X815985Y425192D01*
X815887Y425213D01*
X815789Y425230D01*
X815691Y425243D01*
X815592Y425252D01*
X815492Y425258D01*
X815393Y425260D01*
X815257Y425258D01*
X815121Y425252D01*
X814985Y425243D01*
X814849Y425230D01*
X814714Y425212D01*
X814580Y425192D01*
X814446Y425167D01*
X814312Y425139D01*
X814180Y425106D01*
X814049Y425071D01*
X813918Y425031D01*
X813789Y424988D01*
X813661Y424942D01*
X813535Y424891D01*
X813409Y424838D01*
X813286Y424780D01*
X813164Y424720D01*
X813044Y424656D01*
X812925Y424588D01*
X812809Y424518D01*
X812695Y424444D01*
X812582Y424367D01*
X812472Y424286D01*
X816692Y420392D02*
X816778Y420445D01*
X816862Y420502D01*
X816944Y420561D01*
X817024Y420624D01*
X817101Y420690D01*
X817176Y420758D01*
X817248Y420830D01*
X817317Y420904D01*
X817383Y420981D01*
X817446Y421060D01*
X817506Y421142D01*
X817563Y421226D01*
X817617Y421312D01*
X817667Y421400D01*
X817714Y421490D01*
X817758Y421581D01*
X817797Y421675D01*
X817834Y421769D01*
X817866Y421865D01*
X817895Y421963D01*
X817920Y422061D01*
X817941Y422160D01*
X817959Y422260D01*
X817972Y422360D01*
X817982Y422461D01*
X817988Y422563D01*
X817990Y422664D01*
X813121Y418444D02*
X813035Y418391D01*
X812951Y418334D01*
X812869Y418275D01*
X812789Y418212D01*
X812712Y418146D01*
X812637Y418078D01*
X812565Y418006D01*
X812496Y417932D01*
X812430Y417855D01*
X812367Y417776D01*
X812307Y417694D01*
X812250Y417610D01*
X812196Y417524D01*
X812146Y417436D01*
X812099Y417346D01*
X812055Y417255D01*
X812016Y417161D01*
X811979Y417067D01*
X811947Y416971D01*
X811918Y416873D01*
X811893Y416775D01*
X811872Y416676D01*
X811854Y416576D01*
X811841Y416476D01*
X811831Y416375D01*
X811825Y416273D01*
X811823Y416172D01*
X813121Y418444D02*
X816691Y420392D01*
X806862Y413576D02*
X801669Y413576D01*
X806862Y413576D02*
X806862Y425260D01*
X801669Y425260D01*
X802967Y420067D02*
X806862Y420067D01*
X794876Y425260D02*
X794876Y413576D01*
X798121Y425260D02*
X791630Y425260D01*
X828220Y433576D02*
X828220Y445260D01*
X824975Y445260D01*
X824862Y445258D01*
X824749Y445252D01*
X824636Y445242D01*
X824523Y445228D01*
X824411Y445211D01*
X824300Y445189D01*
X824190Y445164D01*
X824080Y445134D01*
X823972Y445101D01*
X823865Y445064D01*
X823759Y445024D01*
X823655Y444979D01*
X823552Y444931D01*
X823451Y444880D01*
X823352Y444825D01*
X823255Y444767D01*
X823160Y444705D01*
X823067Y444640D01*
X822977Y444572D01*
X822889Y444501D01*
X822803Y444426D01*
X822720Y444349D01*
X822640Y444269D01*
X822563Y444186D01*
X822488Y444100D01*
X822417Y444012D01*
X822349Y443922D01*
X822284Y443829D01*
X822222Y443734D01*
X822164Y443637D01*
X822109Y443538D01*
X822058Y443437D01*
X822010Y443334D01*
X821965Y443230D01*
X821925Y443124D01*
X821888Y443017D01*
X821855Y442909D01*
X821825Y442799D01*
X821800Y442689D01*
X821778Y442578D01*
X821761Y442466D01*
X821747Y442353D01*
X821737Y442240D01*
X821731Y442127D01*
X821729Y442014D01*
X821729Y436822D01*
X821731Y436709D01*
X821737Y436596D01*
X821747Y436483D01*
X821761Y436370D01*
X821778Y436258D01*
X821800Y436147D01*
X821825Y436037D01*
X821855Y435927D01*
X821888Y435819D01*
X821925Y435712D01*
X821965Y435606D01*
X822010Y435502D01*
X822058Y435399D01*
X822109Y435298D01*
X822164Y435199D01*
X822222Y435102D01*
X822284Y435007D01*
X822349Y434914D01*
X822417Y434824D01*
X822488Y434736D01*
X822563Y434650D01*
X822640Y434567D01*
X822720Y434487D01*
X822803Y434410D01*
X822889Y434335D01*
X822977Y434264D01*
X823067Y434196D01*
X823160Y434131D01*
X823255Y434069D01*
X823352Y434011D01*
X823451Y433956D01*
X823552Y433905D01*
X823655Y433857D01*
X823759Y433812D01*
X823865Y433772D01*
X823972Y433735D01*
X824080Y433702D01*
X824190Y433672D01*
X824300Y433647D01*
X824411Y433625D01*
X824523Y433608D01*
X824636Y433594D01*
X824749Y433584D01*
X824862Y433578D01*
X824975Y433576D01*
X828220Y433576D01*
X815450Y433576D02*
X815450Y445260D01*
X816748Y433576D02*
X814151Y433576D01*
X814151Y445260D02*
X816748Y445260D01*
X809551Y442014D02*
X809551Y436822D01*
X809552Y442014D02*
X809550Y442127D01*
X809544Y442240D01*
X809534Y442353D01*
X809520Y442466D01*
X809503Y442578D01*
X809481Y442689D01*
X809456Y442799D01*
X809426Y442909D01*
X809393Y443017D01*
X809356Y443124D01*
X809316Y443230D01*
X809271Y443334D01*
X809223Y443437D01*
X809172Y443538D01*
X809117Y443637D01*
X809059Y443734D01*
X808997Y443829D01*
X808932Y443922D01*
X808864Y444012D01*
X808793Y444100D01*
X808718Y444186D01*
X808641Y444269D01*
X808561Y444349D01*
X808478Y444426D01*
X808392Y444501D01*
X808304Y444572D01*
X808214Y444640D01*
X808121Y444705D01*
X808026Y444767D01*
X807929Y444825D01*
X807830Y444880D01*
X807729Y444931D01*
X807626Y444979D01*
X807522Y445024D01*
X807416Y445064D01*
X807309Y445101D01*
X807201Y445134D01*
X807091Y445164D01*
X806981Y445189D01*
X806870Y445211D01*
X806758Y445228D01*
X806645Y445242D01*
X806532Y445252D01*
X806419Y445258D01*
X806306Y445260D01*
X806193Y445258D01*
X806080Y445252D01*
X805967Y445242D01*
X805854Y445228D01*
X805742Y445211D01*
X805631Y445189D01*
X805521Y445164D01*
X805411Y445134D01*
X805303Y445101D01*
X805196Y445064D01*
X805090Y445024D01*
X804986Y444979D01*
X804883Y444931D01*
X804782Y444880D01*
X804683Y444825D01*
X804586Y444767D01*
X804491Y444705D01*
X804398Y444640D01*
X804308Y444572D01*
X804220Y444501D01*
X804134Y444426D01*
X804051Y444349D01*
X803971Y444269D01*
X803894Y444186D01*
X803819Y444100D01*
X803748Y444012D01*
X803680Y443922D01*
X803615Y443829D01*
X803553Y443734D01*
X803495Y443637D01*
X803440Y443538D01*
X803389Y443437D01*
X803341Y443334D01*
X803296Y443230D01*
X803256Y443124D01*
X803219Y443017D01*
X803186Y442909D01*
X803156Y442799D01*
X803131Y442689D01*
X803109Y442578D01*
X803092Y442466D01*
X803078Y442353D01*
X803068Y442240D01*
X803062Y442127D01*
X803060Y442014D01*
X803060Y436822D01*
X803062Y436709D01*
X803068Y436596D01*
X803078Y436483D01*
X803092Y436370D01*
X803109Y436258D01*
X803131Y436147D01*
X803156Y436037D01*
X803186Y435927D01*
X803219Y435819D01*
X803256Y435712D01*
X803296Y435606D01*
X803341Y435502D01*
X803389Y435399D01*
X803440Y435298D01*
X803495Y435199D01*
X803553Y435102D01*
X803615Y435007D01*
X803680Y434914D01*
X803748Y434824D01*
X803819Y434736D01*
X803894Y434650D01*
X803971Y434567D01*
X804051Y434487D01*
X804134Y434410D01*
X804220Y434335D01*
X804308Y434264D01*
X804398Y434196D01*
X804491Y434131D01*
X804586Y434069D01*
X804683Y434011D01*
X804782Y433956D01*
X804883Y433905D01*
X804986Y433857D01*
X805090Y433812D01*
X805196Y433772D01*
X805303Y433735D01*
X805411Y433702D01*
X805521Y433672D01*
X805631Y433647D01*
X805742Y433625D01*
X805854Y433608D01*
X805967Y433594D01*
X806080Y433584D01*
X806193Y433578D01*
X806306Y433576D01*
X806419Y433578D01*
X806532Y433584D01*
X806645Y433594D01*
X806758Y433608D01*
X806870Y433625D01*
X806981Y433647D01*
X807091Y433672D01*
X807201Y433702D01*
X807309Y433735D01*
X807416Y433772D01*
X807522Y433812D01*
X807626Y433857D01*
X807729Y433905D01*
X807830Y433956D01*
X807929Y434011D01*
X808026Y434069D01*
X808121Y434131D01*
X808214Y434196D01*
X808304Y434264D01*
X808392Y434335D01*
X808478Y434410D01*
X808561Y434487D01*
X808641Y434567D01*
X808718Y434650D01*
X808793Y434736D01*
X808864Y434824D01*
X808932Y434914D01*
X808997Y435007D01*
X809059Y435102D01*
X809117Y435199D01*
X809172Y435298D01*
X809223Y435399D01*
X809271Y435502D01*
X809316Y435606D01*
X809356Y435712D01*
X809393Y435819D01*
X809426Y435927D01*
X809456Y436037D01*
X809481Y436147D01*
X809503Y436258D01*
X809520Y436370D01*
X809534Y436483D01*
X809544Y436596D01*
X809550Y436709D01*
X809552Y436822D01*
X798122Y439418D02*
X798119Y439648D01*
X798111Y439878D01*
X798097Y440107D01*
X798078Y440336D01*
X798053Y440565D01*
X798023Y440793D01*
X797988Y441020D01*
X797947Y441246D01*
X797901Y441471D01*
X797849Y441695D01*
X797792Y441918D01*
X797730Y442139D01*
X797662Y442359D01*
X797589Y442577D01*
X797511Y442793D01*
X797428Y443007D01*
X797340Y443220D01*
X797247Y443430D01*
X797148Y443637D01*
X797115Y443727D01*
X797079Y443816D01*
X797039Y443904D01*
X796995Y443989D01*
X796948Y444073D01*
X796898Y444155D01*
X796844Y444235D01*
X796788Y444312D01*
X796728Y444388D01*
X796665Y444461D01*
X796600Y444531D01*
X796531Y444599D01*
X796460Y444663D01*
X796387Y444725D01*
X796311Y444784D01*
X796233Y444840D01*
X796152Y444893D01*
X796070Y444942D01*
X795986Y444988D01*
X795899Y445031D01*
X795812Y445070D01*
X795722Y445106D01*
X795632Y445138D01*
X795540Y445166D01*
X795447Y445191D01*
X795353Y445212D01*
X795259Y445229D01*
X795164Y445243D01*
X795068Y445252D01*
X794972Y445258D01*
X794876Y445260D01*
X794780Y445258D01*
X794684Y445252D01*
X794588Y445243D01*
X794493Y445229D01*
X794399Y445212D01*
X794305Y445191D01*
X794212Y445166D01*
X794120Y445138D01*
X794030Y445106D01*
X793940Y445070D01*
X793853Y445031D01*
X793766Y444988D01*
X793682Y444942D01*
X793600Y444893D01*
X793519Y444840D01*
X793441Y444784D01*
X793365Y444725D01*
X793292Y444663D01*
X793221Y444599D01*
X793152Y444531D01*
X793087Y444461D01*
X793024Y444388D01*
X792964Y444313D01*
X792908Y444235D01*
X792854Y444155D01*
X792804Y444073D01*
X792757Y443989D01*
X792714Y443904D01*
X792673Y443816D01*
X792637Y443727D01*
X792604Y443637D01*
X792505Y443429D01*
X792412Y443219D01*
X792324Y443007D01*
X792241Y442793D01*
X792163Y442576D01*
X792090Y442358D01*
X792022Y442139D01*
X791960Y441917D01*
X791903Y441695D01*
X791851Y441471D01*
X791805Y441246D01*
X791764Y441020D01*
X791729Y440792D01*
X791699Y440565D01*
X791674Y440336D01*
X791655Y440107D01*
X791641Y439878D01*
X791633Y439648D01*
X791630Y439418D01*
X798121Y439418D02*
X798118Y439188D01*
X798110Y438958D01*
X798096Y438729D01*
X798077Y438500D01*
X798052Y438271D01*
X798022Y438043D01*
X797987Y437816D01*
X797946Y437590D01*
X797900Y437365D01*
X797848Y437141D01*
X797791Y436918D01*
X797729Y436697D01*
X797661Y436477D01*
X797588Y436259D01*
X797510Y436043D01*
X797427Y435829D01*
X797339Y435617D01*
X797246Y435406D01*
X797147Y435199D01*
X797148Y435199D02*
X797115Y435109D01*
X797079Y435020D01*
X797038Y434932D01*
X796995Y434847D01*
X796948Y434763D01*
X796898Y434681D01*
X796844Y434601D01*
X796788Y434524D01*
X796728Y434448D01*
X796665Y434375D01*
X796600Y434305D01*
X796531Y434237D01*
X796460Y434173D01*
X796387Y434111D01*
X796311Y434052D01*
X796233Y433996D01*
X796152Y433943D01*
X796070Y433894D01*
X795986Y433848D01*
X795899Y433805D01*
X795812Y433766D01*
X795722Y433730D01*
X795632Y433698D01*
X795540Y433670D01*
X795447Y433645D01*
X795353Y433624D01*
X795259Y433607D01*
X795164Y433593D01*
X795068Y433584D01*
X794972Y433578D01*
X794876Y433576D01*
X792604Y435199D02*
X792505Y435406D01*
X792412Y435617D01*
X792324Y435829D01*
X792241Y436043D01*
X792163Y436259D01*
X792090Y436477D01*
X792022Y436697D01*
X791960Y436918D01*
X791903Y437141D01*
X791851Y437365D01*
X791805Y437590D01*
X791764Y437816D01*
X791729Y438043D01*
X791699Y438271D01*
X791674Y438500D01*
X791655Y438729D01*
X791641Y438958D01*
X791633Y439188D01*
X791630Y439418D01*
X792604Y435199D02*
X792637Y435109D01*
X792673Y435020D01*
X792714Y434932D01*
X792757Y434847D01*
X792804Y434763D01*
X792854Y434681D01*
X792908Y434601D01*
X792964Y434523D01*
X793024Y434448D01*
X793087Y434375D01*
X793152Y434305D01*
X793221Y434237D01*
X793292Y434173D01*
X793365Y434111D01*
X793441Y434052D01*
X793519Y433996D01*
X793600Y433943D01*
X793682Y433894D01*
X793766Y433848D01*
X793853Y433805D01*
X793940Y433766D01*
X794030Y433730D01*
X794120Y433698D01*
X794212Y433670D01*
X794305Y433645D01*
X794399Y433624D01*
X794493Y433607D01*
X794588Y433593D01*
X794684Y433584D01*
X794780Y433578D01*
X794876Y433576D01*
X797472Y436172D02*
X792279Y442664D01*
X828220Y453576D02*
X828220Y465260D01*
X824975Y465260D01*
X824862Y465258D01*
X824749Y465252D01*
X824636Y465242D01*
X824523Y465228D01*
X824411Y465211D01*
X824300Y465189D01*
X824190Y465164D01*
X824080Y465134D01*
X823972Y465101D01*
X823865Y465064D01*
X823759Y465024D01*
X823655Y464979D01*
X823552Y464931D01*
X823451Y464880D01*
X823352Y464825D01*
X823255Y464767D01*
X823160Y464705D01*
X823067Y464640D01*
X822977Y464572D01*
X822889Y464501D01*
X822803Y464426D01*
X822720Y464349D01*
X822640Y464269D01*
X822563Y464186D01*
X822488Y464100D01*
X822417Y464012D01*
X822349Y463922D01*
X822284Y463829D01*
X822222Y463734D01*
X822164Y463637D01*
X822109Y463538D01*
X822058Y463437D01*
X822010Y463334D01*
X821965Y463230D01*
X821925Y463124D01*
X821888Y463017D01*
X821855Y462909D01*
X821825Y462799D01*
X821800Y462689D01*
X821778Y462578D01*
X821761Y462466D01*
X821747Y462353D01*
X821737Y462240D01*
X821731Y462127D01*
X821729Y462014D01*
X821729Y456822D01*
X821731Y456709D01*
X821737Y456596D01*
X821747Y456483D01*
X821761Y456370D01*
X821778Y456258D01*
X821800Y456147D01*
X821825Y456037D01*
X821855Y455927D01*
X821888Y455819D01*
X821925Y455712D01*
X821965Y455606D01*
X822010Y455502D01*
X822058Y455399D01*
X822109Y455298D01*
X822164Y455199D01*
X822222Y455102D01*
X822284Y455007D01*
X822349Y454914D01*
X822417Y454824D01*
X822488Y454736D01*
X822563Y454650D01*
X822640Y454567D01*
X822720Y454487D01*
X822803Y454410D01*
X822889Y454335D01*
X822977Y454264D01*
X823067Y454196D01*
X823160Y454131D01*
X823255Y454069D01*
X823352Y454011D01*
X823451Y453956D01*
X823552Y453905D01*
X823655Y453857D01*
X823759Y453812D01*
X823865Y453772D01*
X823972Y453735D01*
X824080Y453702D01*
X824190Y453672D01*
X824300Y453647D01*
X824411Y453625D01*
X824523Y453608D01*
X824636Y453594D01*
X824749Y453584D01*
X824862Y453578D01*
X824975Y453576D01*
X828220Y453576D01*
X815450Y453576D02*
X815450Y465260D01*
X816748Y453576D02*
X814151Y453576D01*
X814151Y465260D02*
X816748Y465260D01*
X809551Y462014D02*
X809551Y456822D01*
X809552Y462014D02*
X809550Y462127D01*
X809544Y462240D01*
X809534Y462353D01*
X809520Y462466D01*
X809503Y462578D01*
X809481Y462689D01*
X809456Y462799D01*
X809426Y462909D01*
X809393Y463017D01*
X809356Y463124D01*
X809316Y463230D01*
X809271Y463334D01*
X809223Y463437D01*
X809172Y463538D01*
X809117Y463637D01*
X809059Y463734D01*
X808997Y463829D01*
X808932Y463922D01*
X808864Y464012D01*
X808793Y464100D01*
X808718Y464186D01*
X808641Y464269D01*
X808561Y464349D01*
X808478Y464426D01*
X808392Y464501D01*
X808304Y464572D01*
X808214Y464640D01*
X808121Y464705D01*
X808026Y464767D01*
X807929Y464825D01*
X807830Y464880D01*
X807729Y464931D01*
X807626Y464979D01*
X807522Y465024D01*
X807416Y465064D01*
X807309Y465101D01*
X807201Y465134D01*
X807091Y465164D01*
X806981Y465189D01*
X806870Y465211D01*
X806758Y465228D01*
X806645Y465242D01*
X806532Y465252D01*
X806419Y465258D01*
X806306Y465260D01*
X806193Y465258D01*
X806080Y465252D01*
X805967Y465242D01*
X805854Y465228D01*
X805742Y465211D01*
X805631Y465189D01*
X805521Y465164D01*
X805411Y465134D01*
X805303Y465101D01*
X805196Y465064D01*
X805090Y465024D01*
X804986Y464979D01*
X804883Y464931D01*
X804782Y464880D01*
X804683Y464825D01*
X804586Y464767D01*
X804491Y464705D01*
X804398Y464640D01*
X804308Y464572D01*
X804220Y464501D01*
X804134Y464426D01*
X804051Y464349D01*
X803971Y464269D01*
X803894Y464186D01*
X803819Y464100D01*
X803748Y464012D01*
X803680Y463922D01*
X803615Y463829D01*
X803553Y463734D01*
X803495Y463637D01*
X803440Y463538D01*
X803389Y463437D01*
X803341Y463334D01*
X803296Y463230D01*
X803256Y463124D01*
X803219Y463017D01*
X803186Y462909D01*
X803156Y462799D01*
X803131Y462689D01*
X803109Y462578D01*
X803092Y462466D01*
X803078Y462353D01*
X803068Y462240D01*
X803062Y462127D01*
X803060Y462014D01*
X803060Y456822D01*
X803062Y456709D01*
X803068Y456596D01*
X803078Y456483D01*
X803092Y456370D01*
X803109Y456258D01*
X803131Y456147D01*
X803156Y456037D01*
X803186Y455927D01*
X803219Y455819D01*
X803256Y455712D01*
X803296Y455606D01*
X803341Y455502D01*
X803389Y455399D01*
X803440Y455298D01*
X803495Y455199D01*
X803553Y455102D01*
X803615Y455007D01*
X803680Y454914D01*
X803748Y454824D01*
X803819Y454736D01*
X803894Y454650D01*
X803971Y454567D01*
X804051Y454487D01*
X804134Y454410D01*
X804220Y454335D01*
X804308Y454264D01*
X804398Y454196D01*
X804491Y454131D01*
X804586Y454069D01*
X804683Y454011D01*
X804782Y453956D01*
X804883Y453905D01*
X804986Y453857D01*
X805090Y453812D01*
X805196Y453772D01*
X805303Y453735D01*
X805411Y453702D01*
X805521Y453672D01*
X805631Y453647D01*
X805742Y453625D01*
X805854Y453608D01*
X805967Y453594D01*
X806080Y453584D01*
X806193Y453578D01*
X806306Y453576D01*
X806419Y453578D01*
X806532Y453584D01*
X806645Y453594D01*
X806758Y453608D01*
X806870Y453625D01*
X806981Y453647D01*
X807091Y453672D01*
X807201Y453702D01*
X807309Y453735D01*
X807416Y453772D01*
X807522Y453812D01*
X807626Y453857D01*
X807729Y453905D01*
X807830Y453956D01*
X807929Y454011D01*
X808026Y454069D01*
X808121Y454131D01*
X808214Y454196D01*
X808304Y454264D01*
X808392Y454335D01*
X808478Y454410D01*
X808561Y454487D01*
X808641Y454567D01*
X808718Y454650D01*
X808793Y454736D01*
X808864Y454824D01*
X808932Y454914D01*
X808997Y455007D01*
X809059Y455102D01*
X809117Y455199D01*
X809172Y455298D01*
X809223Y455399D01*
X809271Y455502D01*
X809316Y455606D01*
X809356Y455712D01*
X809393Y455819D01*
X809426Y455927D01*
X809456Y456037D01*
X809481Y456147D01*
X809503Y456258D01*
X809520Y456370D01*
X809534Y456483D01*
X809544Y456596D01*
X809550Y456709D01*
X809552Y456822D01*
X798121Y462664D02*
X794876Y465260D01*
X794876Y453576D01*
X798121Y453576D02*
X791630Y453576D01*
X828220Y473576D02*
X828220Y485260D01*
X824975Y485260D01*
X824862Y485258D01*
X824749Y485252D01*
X824636Y485242D01*
X824523Y485228D01*
X824411Y485211D01*
X824300Y485189D01*
X824190Y485164D01*
X824080Y485134D01*
X823972Y485101D01*
X823865Y485064D01*
X823759Y485024D01*
X823655Y484979D01*
X823552Y484931D01*
X823451Y484880D01*
X823352Y484825D01*
X823255Y484767D01*
X823160Y484705D01*
X823067Y484640D01*
X822977Y484572D01*
X822889Y484501D01*
X822803Y484426D01*
X822720Y484349D01*
X822640Y484269D01*
X822563Y484186D01*
X822488Y484100D01*
X822417Y484012D01*
X822349Y483922D01*
X822284Y483829D01*
X822222Y483734D01*
X822164Y483637D01*
X822109Y483538D01*
X822058Y483437D01*
X822010Y483334D01*
X821965Y483230D01*
X821925Y483124D01*
X821888Y483017D01*
X821855Y482909D01*
X821825Y482799D01*
X821800Y482689D01*
X821778Y482578D01*
X821761Y482466D01*
X821747Y482353D01*
X821737Y482240D01*
X821731Y482127D01*
X821729Y482014D01*
X821729Y476822D01*
X821731Y476709D01*
X821737Y476596D01*
X821747Y476483D01*
X821761Y476370D01*
X821778Y476258D01*
X821800Y476147D01*
X821825Y476037D01*
X821855Y475927D01*
X821888Y475819D01*
X821925Y475712D01*
X821965Y475606D01*
X822010Y475502D01*
X822058Y475399D01*
X822109Y475298D01*
X822164Y475199D01*
X822222Y475102D01*
X822284Y475007D01*
X822349Y474914D01*
X822417Y474824D01*
X822488Y474736D01*
X822563Y474650D01*
X822640Y474567D01*
X822720Y474487D01*
X822803Y474410D01*
X822889Y474335D01*
X822977Y474264D01*
X823067Y474196D01*
X823160Y474131D01*
X823255Y474069D01*
X823352Y474011D01*
X823451Y473956D01*
X823552Y473905D01*
X823655Y473857D01*
X823759Y473812D01*
X823865Y473772D01*
X823972Y473735D01*
X824080Y473702D01*
X824190Y473672D01*
X824300Y473647D01*
X824411Y473625D01*
X824523Y473608D01*
X824636Y473594D01*
X824749Y473584D01*
X824862Y473578D01*
X824975Y473576D01*
X828220Y473576D01*
X815450Y473576D02*
X815450Y485260D01*
X816748Y473576D02*
X814151Y473576D01*
X814151Y485260D02*
X816748Y485260D01*
X809551Y482014D02*
X809551Y476822D01*
X809552Y482014D02*
X809550Y482127D01*
X809544Y482240D01*
X809534Y482353D01*
X809520Y482466D01*
X809503Y482578D01*
X809481Y482689D01*
X809456Y482799D01*
X809426Y482909D01*
X809393Y483017D01*
X809356Y483124D01*
X809316Y483230D01*
X809271Y483334D01*
X809223Y483437D01*
X809172Y483538D01*
X809117Y483637D01*
X809059Y483734D01*
X808997Y483829D01*
X808932Y483922D01*
X808864Y484012D01*
X808793Y484100D01*
X808718Y484186D01*
X808641Y484269D01*
X808561Y484349D01*
X808478Y484426D01*
X808392Y484501D01*
X808304Y484572D01*
X808214Y484640D01*
X808121Y484705D01*
X808026Y484767D01*
X807929Y484825D01*
X807830Y484880D01*
X807729Y484931D01*
X807626Y484979D01*
X807522Y485024D01*
X807416Y485064D01*
X807309Y485101D01*
X807201Y485134D01*
X807091Y485164D01*
X806981Y485189D01*
X806870Y485211D01*
X806758Y485228D01*
X806645Y485242D01*
X806532Y485252D01*
X806419Y485258D01*
X806306Y485260D01*
X806193Y485258D01*
X806080Y485252D01*
X805967Y485242D01*
X805854Y485228D01*
X805742Y485211D01*
X805631Y485189D01*
X805521Y485164D01*
X805411Y485134D01*
X805303Y485101D01*
X805196Y485064D01*
X805090Y485024D01*
X804986Y484979D01*
X804883Y484931D01*
X804782Y484880D01*
X804683Y484825D01*
X804586Y484767D01*
X804491Y484705D01*
X804398Y484640D01*
X804308Y484572D01*
X804220Y484501D01*
X804134Y484426D01*
X804051Y484349D01*
X803971Y484269D01*
X803894Y484186D01*
X803819Y484100D01*
X803748Y484012D01*
X803680Y483922D01*
X803615Y483829D01*
X803553Y483734D01*
X803495Y483637D01*
X803440Y483538D01*
X803389Y483437D01*
X803341Y483334D01*
X803296Y483230D01*
X803256Y483124D01*
X803219Y483017D01*
X803186Y482909D01*
X803156Y482799D01*
X803131Y482689D01*
X803109Y482578D01*
X803092Y482466D01*
X803078Y482353D01*
X803068Y482240D01*
X803062Y482127D01*
X803060Y482014D01*
X803060Y476822D01*
X803062Y476709D01*
X803068Y476596D01*
X803078Y476483D01*
X803092Y476370D01*
X803109Y476258D01*
X803131Y476147D01*
X803156Y476037D01*
X803186Y475927D01*
X803219Y475819D01*
X803256Y475712D01*
X803296Y475606D01*
X803341Y475502D01*
X803389Y475399D01*
X803440Y475298D01*
X803495Y475199D01*
X803553Y475102D01*
X803615Y475007D01*
X803680Y474914D01*
X803748Y474824D01*
X803819Y474736D01*
X803894Y474650D01*
X803971Y474567D01*
X804051Y474487D01*
X804134Y474410D01*
X804220Y474335D01*
X804308Y474264D01*
X804398Y474196D01*
X804491Y474131D01*
X804586Y474069D01*
X804683Y474011D01*
X804782Y473956D01*
X804883Y473905D01*
X804986Y473857D01*
X805090Y473812D01*
X805196Y473772D01*
X805303Y473735D01*
X805411Y473702D01*
X805521Y473672D01*
X805631Y473647D01*
X805742Y473625D01*
X805854Y473608D01*
X805967Y473594D01*
X806080Y473584D01*
X806193Y473578D01*
X806306Y473576D01*
X806419Y473578D01*
X806532Y473584D01*
X806645Y473594D01*
X806758Y473608D01*
X806870Y473625D01*
X806981Y473647D01*
X807091Y473672D01*
X807201Y473702D01*
X807309Y473735D01*
X807416Y473772D01*
X807522Y473812D01*
X807626Y473857D01*
X807729Y473905D01*
X807830Y473956D01*
X807929Y474011D01*
X808026Y474069D01*
X808121Y474131D01*
X808214Y474196D01*
X808304Y474264D01*
X808392Y474335D01*
X808478Y474410D01*
X808561Y474487D01*
X808641Y474567D01*
X808718Y474650D01*
X808793Y474736D01*
X808864Y474824D01*
X808932Y474914D01*
X808997Y475007D01*
X809059Y475102D01*
X809117Y475199D01*
X809172Y475298D01*
X809223Y475399D01*
X809271Y475502D01*
X809316Y475606D01*
X809356Y475712D01*
X809393Y475819D01*
X809426Y475927D01*
X809456Y476037D01*
X809481Y476147D01*
X809503Y476258D01*
X809520Y476370D01*
X809534Y476483D01*
X809544Y476596D01*
X809550Y476709D01*
X809552Y476822D01*
X794551Y485260D02*
X794444Y485258D01*
X794338Y485252D01*
X794232Y485242D01*
X794126Y485229D01*
X794020Y485211D01*
X793916Y485190D01*
X793812Y485165D01*
X793709Y485136D01*
X793608Y485104D01*
X793508Y485067D01*
X793409Y485027D01*
X793311Y484984D01*
X793215Y484937D01*
X793121Y484886D01*
X793029Y484832D01*
X792939Y484775D01*
X792851Y484715D01*
X792766Y484651D01*
X792683Y484584D01*
X792602Y484514D01*
X792524Y484442D01*
X792448Y484366D01*
X792376Y484288D01*
X792306Y484207D01*
X792239Y484124D01*
X792175Y484039D01*
X792115Y483951D01*
X792058Y483861D01*
X792004Y483769D01*
X791953Y483675D01*
X791906Y483579D01*
X791863Y483481D01*
X791823Y483382D01*
X791786Y483282D01*
X791754Y483181D01*
X791725Y483078D01*
X791700Y482974D01*
X791679Y482870D01*
X791661Y482764D01*
X791648Y482658D01*
X791638Y482552D01*
X791632Y482446D01*
X791630Y482339D01*
X794551Y485260D02*
X794672Y485258D01*
X794793Y485252D01*
X794913Y485242D01*
X795034Y485229D01*
X795153Y485211D01*
X795273Y485190D01*
X795391Y485165D01*
X795508Y485136D01*
X795625Y485103D01*
X795740Y485067D01*
X795854Y485026D01*
X795967Y484983D01*
X796079Y484935D01*
X796188Y484884D01*
X796296Y484829D01*
X796403Y484771D01*
X796507Y484710D01*
X796609Y484645D01*
X796709Y484577D01*
X796807Y484506D01*
X796903Y484432D01*
X796996Y484355D01*
X797086Y484274D01*
X797174Y484191D01*
X797259Y484105D01*
X797342Y484016D01*
X797421Y483925D01*
X797498Y483831D01*
X797571Y483735D01*
X797641Y483637D01*
X797708Y483536D01*
X797772Y483433D01*
X797833Y483328D01*
X797890Y483221D01*
X797943Y483113D01*
X797993Y483003D01*
X798039Y482891D01*
X798082Y482778D01*
X798121Y482663D01*
X792604Y480067D02*
X792525Y480145D01*
X792449Y480225D01*
X792376Y480308D01*
X792306Y480394D01*
X792239Y480481D01*
X792175Y480572D01*
X792115Y480664D01*
X792057Y480758D01*
X792003Y480855D01*
X791953Y480953D01*
X791906Y481053D01*
X791862Y481154D01*
X791822Y481257D01*
X791786Y481362D01*
X791754Y481467D01*
X791725Y481574D01*
X791700Y481681D01*
X791678Y481790D01*
X791661Y481899D01*
X791647Y482008D01*
X791638Y482118D01*
X791632Y482229D01*
X791630Y482339D01*
X792604Y480067D02*
X798121Y473576D01*
X791630Y473576D01*
X828220Y493576D02*
X828220Y505260D01*
X824975Y505260D01*
X824862Y505258D01*
X824749Y505252D01*
X824636Y505242D01*
X824523Y505228D01*
X824411Y505211D01*
X824300Y505189D01*
X824190Y505164D01*
X824080Y505134D01*
X823972Y505101D01*
X823865Y505064D01*
X823759Y505024D01*
X823655Y504979D01*
X823552Y504931D01*
X823451Y504880D01*
X823352Y504825D01*
X823255Y504767D01*
X823160Y504705D01*
X823067Y504640D01*
X822977Y504572D01*
X822889Y504501D01*
X822803Y504426D01*
X822720Y504349D01*
X822640Y504269D01*
X822563Y504186D01*
X822488Y504100D01*
X822417Y504012D01*
X822349Y503922D01*
X822284Y503829D01*
X822222Y503734D01*
X822164Y503637D01*
X822109Y503538D01*
X822058Y503437D01*
X822010Y503334D01*
X821965Y503230D01*
X821925Y503124D01*
X821888Y503017D01*
X821855Y502909D01*
X821825Y502799D01*
X821800Y502689D01*
X821778Y502578D01*
X821761Y502466D01*
X821747Y502353D01*
X821737Y502240D01*
X821731Y502127D01*
X821729Y502014D01*
X821729Y496822D01*
X821731Y496709D01*
X821737Y496596D01*
X821747Y496483D01*
X821761Y496370D01*
X821778Y496258D01*
X821800Y496147D01*
X821825Y496037D01*
X821855Y495927D01*
X821888Y495819D01*
X821925Y495712D01*
X821965Y495606D01*
X822010Y495502D01*
X822058Y495399D01*
X822109Y495298D01*
X822164Y495199D01*
X822222Y495102D01*
X822284Y495007D01*
X822349Y494914D01*
X822417Y494824D01*
X822488Y494736D01*
X822563Y494650D01*
X822640Y494567D01*
X822720Y494487D01*
X822803Y494410D01*
X822889Y494335D01*
X822977Y494264D01*
X823067Y494196D01*
X823160Y494131D01*
X823255Y494069D01*
X823352Y494011D01*
X823451Y493956D01*
X823552Y493905D01*
X823655Y493857D01*
X823759Y493812D01*
X823865Y493772D01*
X823972Y493735D01*
X824080Y493702D01*
X824190Y493672D01*
X824300Y493647D01*
X824411Y493625D01*
X824523Y493608D01*
X824636Y493594D01*
X824749Y493584D01*
X824862Y493578D01*
X824975Y493576D01*
X828220Y493576D01*
X815450Y493576D02*
X815450Y505260D01*
X816748Y493576D02*
X814151Y493576D01*
X814151Y505260D02*
X816748Y505260D01*
X809551Y502014D02*
X809551Y496822D01*
X809552Y502014D02*
X809550Y502127D01*
X809544Y502240D01*
X809534Y502353D01*
X809520Y502466D01*
X809503Y502578D01*
X809481Y502689D01*
X809456Y502799D01*
X809426Y502909D01*
X809393Y503017D01*
X809356Y503124D01*
X809316Y503230D01*
X809271Y503334D01*
X809223Y503437D01*
X809172Y503538D01*
X809117Y503637D01*
X809059Y503734D01*
X808997Y503829D01*
X808932Y503922D01*
X808864Y504012D01*
X808793Y504100D01*
X808718Y504186D01*
X808641Y504269D01*
X808561Y504349D01*
X808478Y504426D01*
X808392Y504501D01*
X808304Y504572D01*
X808214Y504640D01*
X808121Y504705D01*
X808026Y504767D01*
X807929Y504825D01*
X807830Y504880D01*
X807729Y504931D01*
X807626Y504979D01*
X807522Y505024D01*
X807416Y505064D01*
X807309Y505101D01*
X807201Y505134D01*
X807091Y505164D01*
X806981Y505189D01*
X806870Y505211D01*
X806758Y505228D01*
X806645Y505242D01*
X806532Y505252D01*
X806419Y505258D01*
X806306Y505260D01*
X806193Y505258D01*
X806080Y505252D01*
X805967Y505242D01*
X805854Y505228D01*
X805742Y505211D01*
X805631Y505189D01*
X805521Y505164D01*
X805411Y505134D01*
X805303Y505101D01*
X805196Y505064D01*
X805090Y505024D01*
X804986Y504979D01*
X804883Y504931D01*
X804782Y504880D01*
X804683Y504825D01*
X804586Y504767D01*
X804491Y504705D01*
X804398Y504640D01*
X804308Y504572D01*
X804220Y504501D01*
X804134Y504426D01*
X804051Y504349D01*
X803971Y504269D01*
X803894Y504186D01*
X803819Y504100D01*
X803748Y504012D01*
X803680Y503922D01*
X803615Y503829D01*
X803553Y503734D01*
X803495Y503637D01*
X803440Y503538D01*
X803389Y503437D01*
X803341Y503334D01*
X803296Y503230D01*
X803256Y503124D01*
X803219Y503017D01*
X803186Y502909D01*
X803156Y502799D01*
X803131Y502689D01*
X803109Y502578D01*
X803092Y502466D01*
X803078Y502353D01*
X803068Y502240D01*
X803062Y502127D01*
X803060Y502014D01*
X803060Y496822D01*
X803062Y496709D01*
X803068Y496596D01*
X803078Y496483D01*
X803092Y496370D01*
X803109Y496258D01*
X803131Y496147D01*
X803156Y496037D01*
X803186Y495927D01*
X803219Y495819D01*
X803256Y495712D01*
X803296Y495606D01*
X803341Y495502D01*
X803389Y495399D01*
X803440Y495298D01*
X803495Y495199D01*
X803553Y495102D01*
X803615Y495007D01*
X803680Y494914D01*
X803748Y494824D01*
X803819Y494736D01*
X803894Y494650D01*
X803971Y494567D01*
X804051Y494487D01*
X804134Y494410D01*
X804220Y494335D01*
X804308Y494264D01*
X804398Y494196D01*
X804491Y494131D01*
X804586Y494069D01*
X804683Y494011D01*
X804782Y493956D01*
X804883Y493905D01*
X804986Y493857D01*
X805090Y493812D01*
X805196Y493772D01*
X805303Y493735D01*
X805411Y493702D01*
X805521Y493672D01*
X805631Y493647D01*
X805742Y493625D01*
X805854Y493608D01*
X805967Y493594D01*
X806080Y493584D01*
X806193Y493578D01*
X806306Y493576D01*
X806419Y493578D01*
X806532Y493584D01*
X806645Y493594D01*
X806758Y493608D01*
X806870Y493625D01*
X806981Y493647D01*
X807091Y493672D01*
X807201Y493702D01*
X807309Y493735D01*
X807416Y493772D01*
X807522Y493812D01*
X807626Y493857D01*
X807729Y493905D01*
X807830Y493956D01*
X807929Y494011D01*
X808026Y494069D01*
X808121Y494131D01*
X808214Y494196D01*
X808304Y494264D01*
X808392Y494335D01*
X808478Y494410D01*
X808561Y494487D01*
X808641Y494567D01*
X808718Y494650D01*
X808793Y494736D01*
X808864Y494824D01*
X808932Y494914D01*
X808997Y495007D01*
X809059Y495102D01*
X809117Y495199D01*
X809172Y495298D01*
X809223Y495399D01*
X809271Y495502D01*
X809316Y495606D01*
X809356Y495712D01*
X809393Y495819D01*
X809426Y495927D01*
X809456Y496037D01*
X809481Y496147D01*
X809503Y496258D01*
X809520Y496370D01*
X809534Y496483D01*
X809544Y496596D01*
X809550Y496709D01*
X809552Y496822D01*
X798121Y493576D02*
X794876Y493576D01*
X794763Y493578D01*
X794650Y493584D01*
X794537Y493594D01*
X794424Y493608D01*
X794312Y493625D01*
X794201Y493647D01*
X794091Y493672D01*
X793981Y493702D01*
X793873Y493735D01*
X793766Y493772D01*
X793660Y493812D01*
X793556Y493857D01*
X793453Y493905D01*
X793352Y493956D01*
X793253Y494011D01*
X793156Y494069D01*
X793061Y494131D01*
X792968Y494196D01*
X792878Y494264D01*
X792790Y494335D01*
X792704Y494410D01*
X792621Y494487D01*
X792541Y494567D01*
X792464Y494650D01*
X792389Y494736D01*
X792318Y494824D01*
X792250Y494914D01*
X792185Y495007D01*
X792123Y495102D01*
X792065Y495199D01*
X792010Y495298D01*
X791959Y495399D01*
X791911Y495502D01*
X791866Y495606D01*
X791826Y495712D01*
X791789Y495819D01*
X791756Y495927D01*
X791726Y496037D01*
X791701Y496147D01*
X791679Y496258D01*
X791662Y496370D01*
X791648Y496483D01*
X791638Y496596D01*
X791632Y496709D01*
X791630Y496822D01*
X791632Y496935D01*
X791638Y497048D01*
X791648Y497161D01*
X791662Y497274D01*
X791679Y497386D01*
X791701Y497497D01*
X791726Y497607D01*
X791756Y497717D01*
X791789Y497825D01*
X791826Y497932D01*
X791866Y498038D01*
X791911Y498142D01*
X791959Y498245D01*
X792010Y498346D01*
X792065Y498445D01*
X792123Y498542D01*
X792185Y498637D01*
X792250Y498730D01*
X792318Y498820D01*
X792389Y498908D01*
X792464Y498994D01*
X792541Y499077D01*
X792621Y499157D01*
X792704Y499234D01*
X792790Y499309D01*
X792878Y499380D01*
X792968Y499448D01*
X793061Y499513D01*
X793156Y499575D01*
X793253Y499633D01*
X793352Y499688D01*
X793453Y499739D01*
X793556Y499787D01*
X793660Y499832D01*
X793766Y499872D01*
X793873Y499909D01*
X793981Y499942D01*
X794091Y499972D01*
X794201Y499997D01*
X794312Y500019D01*
X794424Y500036D01*
X794537Y500050D01*
X794650Y500060D01*
X794763Y500066D01*
X794876Y500068D01*
X794226Y505260D02*
X798121Y505260D01*
X794226Y505260D02*
X794125Y505258D01*
X794025Y505252D01*
X793925Y505242D01*
X793825Y505229D01*
X793726Y505211D01*
X793627Y505190D01*
X793530Y505165D01*
X793433Y505136D01*
X793338Y505103D01*
X793244Y505067D01*
X793152Y505027D01*
X793061Y504984D01*
X792972Y504937D01*
X792885Y504887D01*
X792799Y504833D01*
X792716Y504776D01*
X792636Y504716D01*
X792557Y504653D01*
X792481Y504586D01*
X792408Y504517D01*
X792338Y504445D01*
X792270Y504371D01*
X792205Y504294D01*
X792144Y504214D01*
X792085Y504132D01*
X792030Y504048D01*
X791978Y503962D01*
X791929Y503874D01*
X791884Y503784D01*
X791842Y503692D01*
X791804Y503599D01*
X791770Y503504D01*
X791739Y503409D01*
X791712Y503312D01*
X791689Y503214D01*
X791669Y503115D01*
X791654Y503015D01*
X791642Y502915D01*
X791634Y502815D01*
X791630Y502714D01*
X791630Y502614D01*
X791634Y502513D01*
X791642Y502413D01*
X791654Y502313D01*
X791669Y502213D01*
X791689Y502114D01*
X791712Y502016D01*
X791739Y501919D01*
X791770Y501824D01*
X791804Y501729D01*
X791842Y501636D01*
X791884Y501544D01*
X791929Y501454D01*
X791978Y501366D01*
X792030Y501280D01*
X792085Y501196D01*
X792144Y501114D01*
X792205Y501034D01*
X792270Y500957D01*
X792338Y500883D01*
X792408Y500811D01*
X792481Y500742D01*
X792557Y500675D01*
X792636Y500612D01*
X792716Y500552D01*
X792799Y500495D01*
X792885Y500441D01*
X792972Y500391D01*
X793061Y500344D01*
X793152Y500301D01*
X793244Y500261D01*
X793338Y500225D01*
X793433Y500192D01*
X793530Y500163D01*
X793627Y500138D01*
X793726Y500117D01*
X793825Y500099D01*
X793925Y500086D01*
X794025Y500076D01*
X794125Y500070D01*
X794226Y500068D01*
X794226Y500067D02*
X796823Y500067D01*
X896014Y500067D02*
X897961Y500067D01*
X896014Y500067D02*
X896014Y493576D01*
X899909Y493576D01*
X900008Y493578D01*
X900108Y493584D01*
X900207Y493593D01*
X900305Y493606D01*
X900403Y493623D01*
X900501Y493644D01*
X900597Y493669D01*
X900692Y493697D01*
X900786Y493729D01*
X900879Y493764D01*
X900971Y493803D01*
X901061Y493846D01*
X901149Y493891D01*
X901236Y493941D01*
X901320Y493993D01*
X901403Y494049D01*
X901483Y494107D01*
X901561Y494169D01*
X901636Y494234D01*
X901709Y494302D01*
X901779Y494372D01*
X901847Y494445D01*
X901912Y494520D01*
X901974Y494598D01*
X902032Y494678D01*
X902088Y494761D01*
X902140Y494845D01*
X902190Y494932D01*
X902235Y495020D01*
X902278Y495110D01*
X902317Y495202D01*
X902352Y495295D01*
X902384Y495389D01*
X902412Y495484D01*
X902437Y495580D01*
X902458Y495678D01*
X902475Y495776D01*
X902488Y495874D01*
X902497Y495973D01*
X902503Y496073D01*
X902505Y496172D01*
X902505Y502664D01*
X902503Y502763D01*
X902497Y502863D01*
X902488Y502962D01*
X902475Y503060D01*
X902458Y503158D01*
X902437Y503256D01*
X902412Y503352D01*
X902384Y503447D01*
X902352Y503541D01*
X902317Y503634D01*
X902278Y503726D01*
X902235Y503816D01*
X902190Y503904D01*
X902140Y503991D01*
X902088Y504075D01*
X902032Y504158D01*
X901974Y504238D01*
X901912Y504316D01*
X901847Y504391D01*
X901779Y504464D01*
X901709Y504534D01*
X901636Y504602D01*
X901561Y504667D01*
X901483Y504729D01*
X901403Y504787D01*
X901320Y504843D01*
X901236Y504895D01*
X901149Y504945D01*
X901061Y504990D01*
X900971Y505033D01*
X900879Y505072D01*
X900786Y505107D01*
X900692Y505139D01*
X900597Y505167D01*
X900501Y505192D01*
X900403Y505213D01*
X900305Y505230D01*
X900207Y505243D01*
X900108Y505252D01*
X900008Y505258D01*
X899909Y505260D01*
X896014Y505260D01*
X890313Y505260D02*
X890313Y493576D01*
X883822Y493576D02*
X890313Y505260D01*
X883822Y505260D02*
X883822Y493576D01*
X878121Y493576D02*
X878121Y505260D01*
X874876Y505260D01*
X874763Y505258D01*
X874650Y505252D01*
X874537Y505242D01*
X874424Y505228D01*
X874312Y505211D01*
X874201Y505189D01*
X874091Y505164D01*
X873981Y505134D01*
X873873Y505101D01*
X873766Y505064D01*
X873660Y505024D01*
X873556Y504979D01*
X873453Y504931D01*
X873352Y504880D01*
X873253Y504825D01*
X873156Y504767D01*
X873061Y504705D01*
X872968Y504640D01*
X872878Y504572D01*
X872790Y504501D01*
X872704Y504426D01*
X872621Y504349D01*
X872541Y504269D01*
X872464Y504186D01*
X872389Y504100D01*
X872318Y504012D01*
X872250Y503922D01*
X872185Y503829D01*
X872123Y503734D01*
X872065Y503637D01*
X872010Y503538D01*
X871959Y503437D01*
X871911Y503334D01*
X871866Y503230D01*
X871826Y503124D01*
X871789Y503017D01*
X871756Y502909D01*
X871726Y502799D01*
X871701Y502689D01*
X871679Y502578D01*
X871662Y502466D01*
X871648Y502353D01*
X871638Y502240D01*
X871632Y502127D01*
X871630Y502014D01*
X871630Y496822D01*
X871632Y496709D01*
X871638Y496596D01*
X871648Y496483D01*
X871662Y496370D01*
X871679Y496258D01*
X871701Y496147D01*
X871726Y496037D01*
X871756Y495927D01*
X871789Y495819D01*
X871826Y495712D01*
X871866Y495606D01*
X871911Y495502D01*
X871959Y495399D01*
X872010Y495298D01*
X872065Y495199D01*
X872123Y495102D01*
X872185Y495007D01*
X872250Y494914D01*
X872318Y494824D01*
X872389Y494736D01*
X872464Y494650D01*
X872541Y494567D01*
X872621Y494487D01*
X872704Y494410D01*
X872790Y494335D01*
X872878Y494264D01*
X872968Y494196D01*
X873061Y494131D01*
X873156Y494069D01*
X873253Y494011D01*
X873352Y493956D01*
X873453Y493905D01*
X873556Y493857D01*
X873660Y493812D01*
X873766Y493772D01*
X873873Y493735D01*
X873981Y493702D01*
X874091Y493672D01*
X874201Y493647D01*
X874312Y493625D01*
X874424Y493608D01*
X874537Y493594D01*
X874650Y493584D01*
X874763Y493578D01*
X874876Y493576D01*
X878121Y493576D01*
X902220Y485260D02*
X902220Y473576D01*
X902220Y485260D02*
X898975Y485260D01*
X898862Y485258D01*
X898749Y485252D01*
X898636Y485242D01*
X898523Y485228D01*
X898411Y485211D01*
X898300Y485189D01*
X898190Y485164D01*
X898080Y485134D01*
X897972Y485101D01*
X897865Y485064D01*
X897759Y485024D01*
X897655Y484979D01*
X897552Y484931D01*
X897451Y484880D01*
X897352Y484825D01*
X897255Y484767D01*
X897160Y484705D01*
X897067Y484640D01*
X896977Y484572D01*
X896889Y484501D01*
X896803Y484426D01*
X896720Y484349D01*
X896640Y484269D01*
X896563Y484186D01*
X896488Y484100D01*
X896417Y484012D01*
X896349Y483922D01*
X896284Y483829D01*
X896222Y483734D01*
X896164Y483637D01*
X896109Y483538D01*
X896058Y483437D01*
X896010Y483334D01*
X895965Y483230D01*
X895925Y483124D01*
X895888Y483017D01*
X895855Y482909D01*
X895825Y482799D01*
X895800Y482689D01*
X895778Y482578D01*
X895761Y482466D01*
X895747Y482353D01*
X895737Y482240D01*
X895731Y482127D01*
X895729Y482014D01*
X895729Y476822D01*
X895731Y476709D01*
X895737Y476596D01*
X895747Y476483D01*
X895761Y476370D01*
X895778Y476258D01*
X895800Y476147D01*
X895825Y476037D01*
X895855Y475927D01*
X895888Y475819D01*
X895925Y475712D01*
X895965Y475606D01*
X896010Y475502D01*
X896058Y475399D01*
X896109Y475298D01*
X896164Y475199D01*
X896222Y475102D01*
X896284Y475007D01*
X896349Y474914D01*
X896417Y474824D01*
X896488Y474736D01*
X896563Y474650D01*
X896640Y474567D01*
X896720Y474487D01*
X896803Y474410D01*
X896889Y474335D01*
X896977Y474264D01*
X897067Y474196D01*
X897160Y474131D01*
X897255Y474069D01*
X897352Y474011D01*
X897451Y473956D01*
X897552Y473905D01*
X897655Y473857D01*
X897759Y473812D01*
X897865Y473772D01*
X897972Y473735D01*
X898080Y473702D01*
X898190Y473672D01*
X898300Y473647D01*
X898411Y473625D01*
X898523Y473608D01*
X898636Y473594D01*
X898749Y473584D01*
X898862Y473578D01*
X898975Y473576D01*
X902220Y473576D01*
X889450Y473576D02*
X889450Y485260D01*
X890748Y473576D02*
X888151Y473576D01*
X888151Y485260D02*
X890748Y485260D01*
X883551Y482014D02*
X883551Y476822D01*
X883552Y482014D02*
X883550Y482127D01*
X883544Y482240D01*
X883534Y482353D01*
X883520Y482466D01*
X883503Y482578D01*
X883481Y482689D01*
X883456Y482799D01*
X883426Y482909D01*
X883393Y483017D01*
X883356Y483124D01*
X883316Y483230D01*
X883271Y483334D01*
X883223Y483437D01*
X883172Y483538D01*
X883117Y483637D01*
X883059Y483734D01*
X882997Y483829D01*
X882932Y483922D01*
X882864Y484012D01*
X882793Y484100D01*
X882718Y484186D01*
X882641Y484269D01*
X882561Y484349D01*
X882478Y484426D01*
X882392Y484501D01*
X882304Y484572D01*
X882214Y484640D01*
X882121Y484705D01*
X882026Y484767D01*
X881929Y484825D01*
X881830Y484880D01*
X881729Y484931D01*
X881626Y484979D01*
X881522Y485024D01*
X881416Y485064D01*
X881309Y485101D01*
X881201Y485134D01*
X881091Y485164D01*
X880981Y485189D01*
X880870Y485211D01*
X880758Y485228D01*
X880645Y485242D01*
X880532Y485252D01*
X880419Y485258D01*
X880306Y485260D01*
X880193Y485258D01*
X880080Y485252D01*
X879967Y485242D01*
X879854Y485228D01*
X879742Y485211D01*
X879631Y485189D01*
X879521Y485164D01*
X879411Y485134D01*
X879303Y485101D01*
X879196Y485064D01*
X879090Y485024D01*
X878986Y484979D01*
X878883Y484931D01*
X878782Y484880D01*
X878683Y484825D01*
X878586Y484767D01*
X878491Y484705D01*
X878398Y484640D01*
X878308Y484572D01*
X878220Y484501D01*
X878134Y484426D01*
X878051Y484349D01*
X877971Y484269D01*
X877894Y484186D01*
X877819Y484100D01*
X877748Y484012D01*
X877680Y483922D01*
X877615Y483829D01*
X877553Y483734D01*
X877495Y483637D01*
X877440Y483538D01*
X877389Y483437D01*
X877341Y483334D01*
X877296Y483230D01*
X877256Y483124D01*
X877219Y483017D01*
X877186Y482909D01*
X877156Y482799D01*
X877131Y482689D01*
X877109Y482578D01*
X877092Y482466D01*
X877078Y482353D01*
X877068Y482240D01*
X877062Y482127D01*
X877060Y482014D01*
X877060Y476822D01*
X877062Y476709D01*
X877068Y476596D01*
X877078Y476483D01*
X877092Y476370D01*
X877109Y476258D01*
X877131Y476147D01*
X877156Y476037D01*
X877186Y475927D01*
X877219Y475819D01*
X877256Y475712D01*
X877296Y475606D01*
X877341Y475502D01*
X877389Y475399D01*
X877440Y475298D01*
X877495Y475199D01*
X877553Y475102D01*
X877615Y475007D01*
X877680Y474914D01*
X877748Y474824D01*
X877819Y474736D01*
X877894Y474650D01*
X877971Y474567D01*
X878051Y474487D01*
X878134Y474410D01*
X878220Y474335D01*
X878308Y474264D01*
X878398Y474196D01*
X878491Y474131D01*
X878586Y474069D01*
X878683Y474011D01*
X878782Y473956D01*
X878883Y473905D01*
X878986Y473857D01*
X879090Y473812D01*
X879196Y473772D01*
X879303Y473735D01*
X879411Y473702D01*
X879521Y473672D01*
X879631Y473647D01*
X879742Y473625D01*
X879854Y473608D01*
X879967Y473594D01*
X880080Y473584D01*
X880193Y473578D01*
X880306Y473576D01*
X880419Y473578D01*
X880532Y473584D01*
X880645Y473594D01*
X880758Y473608D01*
X880870Y473625D01*
X880981Y473647D01*
X881091Y473672D01*
X881201Y473702D01*
X881309Y473735D01*
X881416Y473772D01*
X881522Y473812D01*
X881626Y473857D01*
X881729Y473905D01*
X881830Y473956D01*
X881929Y474011D01*
X882026Y474069D01*
X882121Y474131D01*
X882214Y474196D01*
X882304Y474264D01*
X882392Y474335D01*
X882478Y474410D01*
X882561Y474487D01*
X882641Y474567D01*
X882718Y474650D01*
X882793Y474736D01*
X882864Y474824D01*
X882932Y474914D01*
X882997Y475007D01*
X883059Y475102D01*
X883117Y475199D01*
X883172Y475298D01*
X883223Y475399D01*
X883271Y475502D01*
X883316Y475606D01*
X883356Y475712D01*
X883393Y475819D01*
X883426Y475927D01*
X883456Y476037D01*
X883481Y476147D01*
X883503Y476258D01*
X883520Y476370D01*
X883534Y476483D01*
X883544Y476596D01*
X883550Y476709D01*
X883552Y476822D01*
X872121Y476172D02*
X869525Y485260D01*
X872121Y476172D02*
X865630Y476172D01*
X867577Y478769D02*
X867577Y473576D01*
X902220Y465260D02*
X902220Y453576D01*
X902220Y465260D02*
X898975Y465260D01*
X898862Y465258D01*
X898749Y465252D01*
X898636Y465242D01*
X898523Y465228D01*
X898411Y465211D01*
X898300Y465189D01*
X898190Y465164D01*
X898080Y465134D01*
X897972Y465101D01*
X897865Y465064D01*
X897759Y465024D01*
X897655Y464979D01*
X897552Y464931D01*
X897451Y464880D01*
X897352Y464825D01*
X897255Y464767D01*
X897160Y464705D01*
X897067Y464640D01*
X896977Y464572D01*
X896889Y464501D01*
X896803Y464426D01*
X896720Y464349D01*
X896640Y464269D01*
X896563Y464186D01*
X896488Y464100D01*
X896417Y464012D01*
X896349Y463922D01*
X896284Y463829D01*
X896222Y463734D01*
X896164Y463637D01*
X896109Y463538D01*
X896058Y463437D01*
X896010Y463334D01*
X895965Y463230D01*
X895925Y463124D01*
X895888Y463017D01*
X895855Y462909D01*
X895825Y462799D01*
X895800Y462689D01*
X895778Y462578D01*
X895761Y462466D01*
X895747Y462353D01*
X895737Y462240D01*
X895731Y462127D01*
X895729Y462014D01*
X895729Y456822D01*
X895731Y456709D01*
X895737Y456596D01*
X895747Y456483D01*
X895761Y456370D01*
X895778Y456258D01*
X895800Y456147D01*
X895825Y456037D01*
X895855Y455927D01*
X895888Y455819D01*
X895925Y455712D01*
X895965Y455606D01*
X896010Y455502D01*
X896058Y455399D01*
X896109Y455298D01*
X896164Y455199D01*
X896222Y455102D01*
X896284Y455007D01*
X896349Y454914D01*
X896417Y454824D01*
X896488Y454736D01*
X896563Y454650D01*
X896640Y454567D01*
X896720Y454487D01*
X896803Y454410D01*
X896889Y454335D01*
X896977Y454264D01*
X897067Y454196D01*
X897160Y454131D01*
X897255Y454069D01*
X897352Y454011D01*
X897451Y453956D01*
X897552Y453905D01*
X897655Y453857D01*
X897759Y453812D01*
X897865Y453772D01*
X897972Y453735D01*
X898080Y453702D01*
X898190Y453672D01*
X898300Y453647D01*
X898411Y453625D01*
X898523Y453608D01*
X898636Y453594D01*
X898749Y453584D01*
X898862Y453578D01*
X898975Y453576D01*
X902220Y453576D01*
X889450Y453576D02*
X889450Y465260D01*
X890748Y453576D02*
X888151Y453576D01*
X888151Y465260D02*
X890748Y465260D01*
X883551Y462014D02*
X883551Y456822D01*
X883552Y462014D02*
X883550Y462127D01*
X883544Y462240D01*
X883534Y462353D01*
X883520Y462466D01*
X883503Y462578D01*
X883481Y462689D01*
X883456Y462799D01*
X883426Y462909D01*
X883393Y463017D01*
X883356Y463124D01*
X883316Y463230D01*
X883271Y463334D01*
X883223Y463437D01*
X883172Y463538D01*
X883117Y463637D01*
X883059Y463734D01*
X882997Y463829D01*
X882932Y463922D01*
X882864Y464012D01*
X882793Y464100D01*
X882718Y464186D01*
X882641Y464269D01*
X882561Y464349D01*
X882478Y464426D01*
X882392Y464501D01*
X882304Y464572D01*
X882214Y464640D01*
X882121Y464705D01*
X882026Y464767D01*
X881929Y464825D01*
X881830Y464880D01*
X881729Y464931D01*
X881626Y464979D01*
X881522Y465024D01*
X881416Y465064D01*
X881309Y465101D01*
X881201Y465134D01*
X881091Y465164D01*
X880981Y465189D01*
X880870Y465211D01*
X880758Y465228D01*
X880645Y465242D01*
X880532Y465252D01*
X880419Y465258D01*
X880306Y465260D01*
X880193Y465258D01*
X880080Y465252D01*
X879967Y465242D01*
X879854Y465228D01*
X879742Y465211D01*
X879631Y465189D01*
X879521Y465164D01*
X879411Y465134D01*
X879303Y465101D01*
X879196Y465064D01*
X879090Y465024D01*
X878986Y464979D01*
X878883Y464931D01*
X878782Y464880D01*
X878683Y464825D01*
X878586Y464767D01*
X878491Y464705D01*
X878398Y464640D01*
X878308Y464572D01*
X878220Y464501D01*
X878134Y464426D01*
X878051Y464349D01*
X877971Y464269D01*
X877894Y464186D01*
X877819Y464100D01*
X877748Y464012D01*
X877680Y463922D01*
X877615Y463829D01*
X877553Y463734D01*
X877495Y463637D01*
X877440Y463538D01*
X877389Y463437D01*
X877341Y463334D01*
X877296Y463230D01*
X877256Y463124D01*
X877219Y463017D01*
X877186Y462909D01*
X877156Y462799D01*
X877131Y462689D01*
X877109Y462578D01*
X877092Y462466D01*
X877078Y462353D01*
X877068Y462240D01*
X877062Y462127D01*
X877060Y462014D01*
X877060Y456822D01*
X877062Y456709D01*
X877068Y456596D01*
X877078Y456483D01*
X877092Y456370D01*
X877109Y456258D01*
X877131Y456147D01*
X877156Y456037D01*
X877186Y455927D01*
X877219Y455819D01*
X877256Y455712D01*
X877296Y455606D01*
X877341Y455502D01*
X877389Y455399D01*
X877440Y455298D01*
X877495Y455199D01*
X877553Y455102D01*
X877615Y455007D01*
X877680Y454914D01*
X877748Y454824D01*
X877819Y454736D01*
X877894Y454650D01*
X877971Y454567D01*
X878051Y454487D01*
X878134Y454410D01*
X878220Y454335D01*
X878308Y454264D01*
X878398Y454196D01*
X878491Y454131D01*
X878586Y454069D01*
X878683Y454011D01*
X878782Y453956D01*
X878883Y453905D01*
X878986Y453857D01*
X879090Y453812D01*
X879196Y453772D01*
X879303Y453735D01*
X879411Y453702D01*
X879521Y453672D01*
X879631Y453647D01*
X879742Y453625D01*
X879854Y453608D01*
X879967Y453594D01*
X880080Y453584D01*
X880193Y453578D01*
X880306Y453576D01*
X880419Y453578D01*
X880532Y453584D01*
X880645Y453594D01*
X880758Y453608D01*
X880870Y453625D01*
X880981Y453647D01*
X881091Y453672D01*
X881201Y453702D01*
X881309Y453735D01*
X881416Y453772D01*
X881522Y453812D01*
X881626Y453857D01*
X881729Y453905D01*
X881830Y453956D01*
X881929Y454011D01*
X882026Y454069D01*
X882121Y454131D01*
X882214Y454196D01*
X882304Y454264D01*
X882392Y454335D01*
X882478Y454410D01*
X882561Y454487D01*
X882641Y454567D01*
X882718Y454650D01*
X882793Y454736D01*
X882864Y454824D01*
X882932Y454914D01*
X882997Y455007D01*
X883059Y455102D01*
X883117Y455199D01*
X883172Y455298D01*
X883223Y455399D01*
X883271Y455502D01*
X883316Y455606D01*
X883356Y455712D01*
X883393Y455819D01*
X883426Y455927D01*
X883456Y456037D01*
X883481Y456147D01*
X883503Y456258D01*
X883520Y456370D01*
X883534Y456483D01*
X883544Y456596D01*
X883550Y456709D01*
X883552Y456822D01*
X872121Y453576D02*
X868226Y453576D01*
X868127Y453578D01*
X868027Y453584D01*
X867928Y453593D01*
X867830Y453606D01*
X867732Y453623D01*
X867634Y453644D01*
X867538Y453669D01*
X867443Y453697D01*
X867349Y453729D01*
X867256Y453764D01*
X867164Y453803D01*
X867074Y453846D01*
X866986Y453891D01*
X866899Y453941D01*
X866815Y453993D01*
X866732Y454049D01*
X866652Y454107D01*
X866574Y454169D01*
X866499Y454234D01*
X866426Y454302D01*
X866356Y454372D01*
X866288Y454445D01*
X866223Y454520D01*
X866161Y454598D01*
X866103Y454678D01*
X866047Y454761D01*
X865995Y454845D01*
X865945Y454932D01*
X865900Y455020D01*
X865857Y455110D01*
X865818Y455202D01*
X865783Y455295D01*
X865751Y455389D01*
X865723Y455484D01*
X865698Y455580D01*
X865677Y455678D01*
X865660Y455776D01*
X865647Y455874D01*
X865638Y455973D01*
X865632Y456073D01*
X865630Y456172D01*
X865630Y457471D01*
X865632Y457570D01*
X865638Y457670D01*
X865647Y457769D01*
X865660Y457867D01*
X865677Y457965D01*
X865698Y458063D01*
X865723Y458159D01*
X865751Y458254D01*
X865783Y458348D01*
X865818Y458441D01*
X865857Y458533D01*
X865900Y458623D01*
X865945Y458711D01*
X865995Y458798D01*
X866047Y458882D01*
X866103Y458965D01*
X866161Y459045D01*
X866223Y459123D01*
X866288Y459198D01*
X866356Y459271D01*
X866426Y459341D01*
X866499Y459409D01*
X866574Y459474D01*
X866652Y459536D01*
X866732Y459594D01*
X866815Y459650D01*
X866899Y459702D01*
X866986Y459752D01*
X867074Y459797D01*
X867164Y459840D01*
X867256Y459879D01*
X867349Y459914D01*
X867443Y459946D01*
X867538Y459974D01*
X867634Y459999D01*
X867732Y460020D01*
X867830Y460037D01*
X867928Y460050D01*
X868027Y460059D01*
X868127Y460065D01*
X868226Y460067D01*
X872121Y460067D01*
X872121Y465260D01*
X865630Y465260D01*
X896755Y436172D02*
X896757Y436073D01*
X896763Y435973D01*
X896772Y435874D01*
X896785Y435776D01*
X896802Y435678D01*
X896823Y435580D01*
X896848Y435484D01*
X896876Y435389D01*
X896908Y435295D01*
X896943Y435202D01*
X896982Y435110D01*
X897025Y435020D01*
X897070Y434932D01*
X897120Y434845D01*
X897172Y434761D01*
X897228Y434678D01*
X897286Y434598D01*
X897348Y434520D01*
X897413Y434445D01*
X897481Y434372D01*
X897551Y434302D01*
X897624Y434234D01*
X897699Y434169D01*
X897777Y434107D01*
X897857Y434049D01*
X897940Y433993D01*
X898024Y433941D01*
X898111Y433891D01*
X898199Y433846D01*
X898289Y433803D01*
X898381Y433764D01*
X898474Y433729D01*
X898568Y433697D01*
X898663Y433669D01*
X898759Y433644D01*
X898857Y433623D01*
X898955Y433606D01*
X899053Y433593D01*
X899152Y433584D01*
X899252Y433578D01*
X899351Y433576D01*
X899495Y433578D01*
X899640Y433584D01*
X899784Y433593D01*
X899927Y433606D01*
X900071Y433623D01*
X900214Y433644D01*
X900356Y433669D01*
X900497Y433697D01*
X900638Y433729D01*
X900778Y433765D01*
X900917Y433804D01*
X901055Y433847D01*
X901191Y433894D01*
X901327Y433944D01*
X901461Y433998D01*
X901593Y434055D01*
X901724Y434116D01*
X901853Y434180D01*
X901981Y434248D01*
X902107Y434319D01*
X902231Y434393D01*
X902352Y434470D01*
X902472Y434551D01*
X902590Y434634D01*
X902705Y434721D01*
X902818Y434811D01*
X902929Y434904D01*
X903037Y434999D01*
X903143Y435098D01*
X903246Y435199D01*
X902920Y442664D02*
X902918Y442763D01*
X902912Y442863D01*
X902903Y442962D01*
X902890Y443060D01*
X902873Y443158D01*
X902852Y443256D01*
X902827Y443352D01*
X902799Y443447D01*
X902767Y443541D01*
X902732Y443634D01*
X902693Y443726D01*
X902650Y443816D01*
X902605Y443904D01*
X902555Y443991D01*
X902503Y444075D01*
X902447Y444158D01*
X902389Y444238D01*
X902327Y444316D01*
X902262Y444391D01*
X902194Y444464D01*
X902124Y444534D01*
X902051Y444602D01*
X901976Y444667D01*
X901898Y444729D01*
X901818Y444787D01*
X901735Y444843D01*
X901651Y444895D01*
X901564Y444945D01*
X901476Y444990D01*
X901386Y445033D01*
X901294Y445072D01*
X901201Y445107D01*
X901107Y445139D01*
X901012Y445167D01*
X900916Y445192D01*
X900818Y445213D01*
X900720Y445230D01*
X900622Y445243D01*
X900523Y445252D01*
X900423Y445258D01*
X900324Y445260D01*
X900188Y445258D01*
X900052Y445252D01*
X899916Y445243D01*
X899780Y445230D01*
X899645Y445212D01*
X899511Y445192D01*
X899377Y445167D01*
X899243Y445139D01*
X899111Y445106D01*
X898980Y445071D01*
X898849Y445031D01*
X898720Y444988D01*
X898592Y444942D01*
X898466Y444891D01*
X898340Y444838D01*
X898217Y444780D01*
X898095Y444720D01*
X897975Y444656D01*
X897856Y444588D01*
X897740Y444518D01*
X897626Y444444D01*
X897513Y444367D01*
X897403Y444286D01*
X901623Y440392D02*
X901709Y440445D01*
X901793Y440502D01*
X901875Y440561D01*
X901955Y440624D01*
X902032Y440690D01*
X902107Y440758D01*
X902179Y440830D01*
X902248Y440904D01*
X902314Y440981D01*
X902377Y441060D01*
X902437Y441142D01*
X902494Y441226D01*
X902548Y441312D01*
X902598Y441400D01*
X902645Y441490D01*
X902689Y441581D01*
X902728Y441675D01*
X902765Y441769D01*
X902797Y441865D01*
X902826Y441963D01*
X902851Y442061D01*
X902872Y442160D01*
X902890Y442260D01*
X902903Y442360D01*
X902913Y442461D01*
X902919Y442563D01*
X902921Y442664D01*
X898052Y438444D02*
X897966Y438391D01*
X897882Y438334D01*
X897800Y438275D01*
X897720Y438212D01*
X897643Y438146D01*
X897568Y438078D01*
X897496Y438006D01*
X897427Y437932D01*
X897361Y437855D01*
X897298Y437776D01*
X897238Y437694D01*
X897181Y437610D01*
X897127Y437524D01*
X897077Y437436D01*
X897030Y437346D01*
X896986Y437255D01*
X896947Y437161D01*
X896910Y437067D01*
X896878Y436971D01*
X896849Y436873D01*
X896824Y436775D01*
X896803Y436676D01*
X896785Y436576D01*
X896772Y436476D01*
X896762Y436375D01*
X896756Y436273D01*
X896754Y436172D01*
X898053Y438444D02*
X901623Y440392D01*
X889633Y433576D02*
X887037Y433576D01*
X889633Y433576D02*
X889732Y433578D01*
X889832Y433584D01*
X889931Y433593D01*
X890029Y433606D01*
X890127Y433623D01*
X890225Y433644D01*
X890321Y433669D01*
X890416Y433697D01*
X890510Y433729D01*
X890603Y433764D01*
X890695Y433803D01*
X890785Y433846D01*
X890873Y433891D01*
X890960Y433941D01*
X891044Y433993D01*
X891127Y434049D01*
X891207Y434107D01*
X891285Y434169D01*
X891360Y434234D01*
X891433Y434302D01*
X891503Y434372D01*
X891571Y434445D01*
X891636Y434520D01*
X891698Y434598D01*
X891756Y434678D01*
X891812Y434761D01*
X891864Y434845D01*
X891914Y434932D01*
X891959Y435020D01*
X892002Y435110D01*
X892041Y435202D01*
X892076Y435295D01*
X892108Y435389D01*
X892136Y435484D01*
X892161Y435580D01*
X892182Y435678D01*
X892199Y435776D01*
X892212Y435874D01*
X892221Y435973D01*
X892227Y436073D01*
X892229Y436172D01*
X892230Y436172D02*
X892230Y442664D01*
X892229Y442664D02*
X892227Y442763D01*
X892221Y442863D01*
X892212Y442962D01*
X892199Y443060D01*
X892182Y443158D01*
X892161Y443256D01*
X892136Y443352D01*
X892108Y443447D01*
X892076Y443541D01*
X892041Y443634D01*
X892002Y443726D01*
X891959Y443816D01*
X891914Y443904D01*
X891864Y443991D01*
X891812Y444075D01*
X891756Y444158D01*
X891698Y444238D01*
X891636Y444316D01*
X891571Y444391D01*
X891503Y444464D01*
X891433Y444534D01*
X891360Y444602D01*
X891285Y444667D01*
X891207Y444729D01*
X891127Y444787D01*
X891044Y444843D01*
X890960Y444895D01*
X890873Y444945D01*
X890785Y444990D01*
X890695Y445033D01*
X890603Y445072D01*
X890510Y445107D01*
X890416Y445139D01*
X890321Y445167D01*
X890225Y445192D01*
X890127Y445213D01*
X890029Y445230D01*
X889931Y445243D01*
X889832Y445252D01*
X889732Y445258D01*
X889633Y445260D01*
X887037Y445260D01*
X882121Y445260D02*
X882121Y433576D01*
X882121Y438120D02*
X875630Y445260D01*
X879525Y440716D02*
X875630Y433576D01*
X900869Y425260D02*
X900869Y413576D01*
X896975Y418769D02*
X900869Y425260D01*
X896975Y418769D02*
X893080Y425260D01*
X893080Y413576D01*
X886688Y413576D02*
X886688Y425260D01*
X887986Y413576D02*
X885389Y413576D01*
X885389Y425260D02*
X887986Y425260D01*
X877275Y413576D02*
X877176Y413578D01*
X877076Y413584D01*
X876977Y413593D01*
X876879Y413606D01*
X876781Y413623D01*
X876683Y413644D01*
X876587Y413669D01*
X876492Y413697D01*
X876398Y413729D01*
X876305Y413764D01*
X876213Y413803D01*
X876123Y413846D01*
X876035Y413891D01*
X875948Y413941D01*
X875864Y413993D01*
X875781Y414049D01*
X875701Y414107D01*
X875623Y414169D01*
X875548Y414234D01*
X875475Y414302D01*
X875405Y414372D01*
X875337Y414445D01*
X875272Y414520D01*
X875210Y414598D01*
X875152Y414678D01*
X875096Y414761D01*
X875044Y414845D01*
X874994Y414932D01*
X874949Y415020D01*
X874906Y415110D01*
X874867Y415202D01*
X874832Y415295D01*
X874800Y415389D01*
X874772Y415484D01*
X874747Y415580D01*
X874726Y415678D01*
X874709Y415776D01*
X874696Y415874D01*
X874687Y415973D01*
X874681Y416073D01*
X874679Y416172D01*
X877275Y413576D02*
X877419Y413578D01*
X877564Y413584D01*
X877708Y413593D01*
X877851Y413606D01*
X877995Y413623D01*
X878138Y413644D01*
X878280Y413669D01*
X878421Y413697D01*
X878562Y413729D01*
X878702Y413765D01*
X878841Y413804D01*
X878979Y413847D01*
X879115Y413894D01*
X879251Y413944D01*
X879385Y413998D01*
X879517Y414055D01*
X879648Y414116D01*
X879777Y414180D01*
X879905Y414248D01*
X880031Y414319D01*
X880155Y414393D01*
X880276Y414470D01*
X880396Y414551D01*
X880514Y414634D01*
X880629Y414721D01*
X880742Y414811D01*
X880853Y414904D01*
X880961Y414999D01*
X881067Y415098D01*
X881170Y415199D01*
X880845Y422664D02*
X880843Y422763D01*
X880837Y422863D01*
X880828Y422962D01*
X880815Y423060D01*
X880798Y423158D01*
X880777Y423256D01*
X880752Y423352D01*
X880724Y423447D01*
X880692Y423541D01*
X880657Y423634D01*
X880618Y423726D01*
X880575Y423816D01*
X880530Y423904D01*
X880480Y423991D01*
X880428Y424075D01*
X880372Y424158D01*
X880314Y424238D01*
X880252Y424316D01*
X880187Y424391D01*
X880119Y424464D01*
X880049Y424534D01*
X879976Y424602D01*
X879901Y424667D01*
X879823Y424729D01*
X879743Y424787D01*
X879660Y424843D01*
X879576Y424895D01*
X879489Y424945D01*
X879401Y424990D01*
X879311Y425033D01*
X879219Y425072D01*
X879126Y425107D01*
X879032Y425139D01*
X878937Y425167D01*
X878841Y425192D01*
X878743Y425213D01*
X878645Y425230D01*
X878547Y425243D01*
X878448Y425252D01*
X878348Y425258D01*
X878249Y425260D01*
X878113Y425258D01*
X877977Y425252D01*
X877841Y425243D01*
X877705Y425230D01*
X877570Y425212D01*
X877436Y425192D01*
X877302Y425167D01*
X877168Y425139D01*
X877036Y425106D01*
X876905Y425071D01*
X876774Y425031D01*
X876645Y424988D01*
X876517Y424942D01*
X876391Y424891D01*
X876265Y424838D01*
X876142Y424780D01*
X876020Y424720D01*
X875900Y424656D01*
X875781Y424588D01*
X875665Y424518D01*
X875551Y424444D01*
X875438Y424367D01*
X875328Y424286D01*
X879548Y420392D02*
X879634Y420445D01*
X879718Y420502D01*
X879800Y420561D01*
X879880Y420624D01*
X879957Y420690D01*
X880032Y420758D01*
X880104Y420830D01*
X880173Y420904D01*
X880239Y420981D01*
X880302Y421060D01*
X880362Y421142D01*
X880419Y421226D01*
X880473Y421312D01*
X880523Y421400D01*
X880570Y421490D01*
X880614Y421581D01*
X880653Y421675D01*
X880690Y421769D01*
X880722Y421865D01*
X880751Y421963D01*
X880776Y422061D01*
X880797Y422160D01*
X880815Y422260D01*
X880828Y422360D01*
X880838Y422461D01*
X880844Y422563D01*
X880846Y422664D01*
X875977Y418444D02*
X875891Y418391D01*
X875807Y418334D01*
X875725Y418275D01*
X875645Y418212D01*
X875568Y418146D01*
X875493Y418078D01*
X875421Y418006D01*
X875352Y417932D01*
X875286Y417855D01*
X875223Y417776D01*
X875163Y417694D01*
X875106Y417610D01*
X875052Y417524D01*
X875002Y417436D01*
X874955Y417346D01*
X874911Y417255D01*
X874872Y417161D01*
X874835Y417067D01*
X874803Y416971D01*
X874774Y416873D01*
X874749Y416775D01*
X874728Y416676D01*
X874710Y416576D01*
X874697Y416476D01*
X874687Y416375D01*
X874681Y416273D01*
X874679Y416172D01*
X875977Y418444D02*
X879547Y420392D01*
X870121Y422014D02*
X870121Y416822D01*
X870122Y422014D02*
X870120Y422127D01*
X870114Y422240D01*
X870104Y422353D01*
X870090Y422466D01*
X870073Y422578D01*
X870051Y422689D01*
X870026Y422799D01*
X869996Y422909D01*
X869963Y423017D01*
X869926Y423124D01*
X869886Y423230D01*
X869841Y423334D01*
X869793Y423437D01*
X869742Y423538D01*
X869687Y423637D01*
X869629Y423734D01*
X869567Y423829D01*
X869502Y423922D01*
X869434Y424012D01*
X869363Y424100D01*
X869288Y424186D01*
X869211Y424269D01*
X869131Y424349D01*
X869048Y424426D01*
X868962Y424501D01*
X868874Y424572D01*
X868784Y424640D01*
X868691Y424705D01*
X868596Y424767D01*
X868499Y424825D01*
X868400Y424880D01*
X868299Y424931D01*
X868196Y424979D01*
X868092Y425024D01*
X867986Y425064D01*
X867879Y425101D01*
X867771Y425134D01*
X867661Y425164D01*
X867551Y425189D01*
X867440Y425211D01*
X867328Y425228D01*
X867215Y425242D01*
X867102Y425252D01*
X866989Y425258D01*
X866876Y425260D01*
X866763Y425258D01*
X866650Y425252D01*
X866537Y425242D01*
X866424Y425228D01*
X866312Y425211D01*
X866201Y425189D01*
X866091Y425164D01*
X865981Y425134D01*
X865873Y425101D01*
X865766Y425064D01*
X865660Y425024D01*
X865556Y424979D01*
X865453Y424931D01*
X865352Y424880D01*
X865253Y424825D01*
X865156Y424767D01*
X865061Y424705D01*
X864968Y424640D01*
X864878Y424572D01*
X864790Y424501D01*
X864704Y424426D01*
X864621Y424349D01*
X864541Y424269D01*
X864464Y424186D01*
X864389Y424100D01*
X864318Y424012D01*
X864250Y423922D01*
X864185Y423829D01*
X864123Y423734D01*
X864065Y423637D01*
X864010Y423538D01*
X863959Y423437D01*
X863911Y423334D01*
X863866Y423230D01*
X863826Y423124D01*
X863789Y423017D01*
X863756Y422909D01*
X863726Y422799D01*
X863701Y422689D01*
X863679Y422578D01*
X863662Y422466D01*
X863648Y422353D01*
X863638Y422240D01*
X863632Y422127D01*
X863630Y422014D01*
X863630Y416822D01*
X863632Y416709D01*
X863638Y416596D01*
X863648Y416483D01*
X863662Y416370D01*
X863679Y416258D01*
X863701Y416147D01*
X863726Y416037D01*
X863756Y415927D01*
X863789Y415819D01*
X863826Y415712D01*
X863866Y415606D01*
X863911Y415502D01*
X863959Y415399D01*
X864010Y415298D01*
X864065Y415199D01*
X864123Y415102D01*
X864185Y415007D01*
X864250Y414914D01*
X864318Y414824D01*
X864389Y414736D01*
X864464Y414650D01*
X864541Y414567D01*
X864621Y414487D01*
X864704Y414410D01*
X864790Y414335D01*
X864878Y414264D01*
X864968Y414196D01*
X865061Y414131D01*
X865156Y414069D01*
X865253Y414011D01*
X865352Y413956D01*
X865453Y413905D01*
X865556Y413857D01*
X865660Y413812D01*
X865766Y413772D01*
X865873Y413735D01*
X865981Y413702D01*
X866091Y413672D01*
X866201Y413647D01*
X866312Y413625D01*
X866424Y413608D01*
X866537Y413594D01*
X866650Y413584D01*
X866763Y413578D01*
X866876Y413576D01*
X866989Y413578D01*
X867102Y413584D01*
X867215Y413594D01*
X867328Y413608D01*
X867440Y413625D01*
X867551Y413647D01*
X867661Y413672D01*
X867771Y413702D01*
X867879Y413735D01*
X867986Y413772D01*
X868092Y413812D01*
X868196Y413857D01*
X868299Y413905D01*
X868400Y413956D01*
X868499Y414011D01*
X868596Y414069D01*
X868691Y414131D01*
X868784Y414196D01*
X868874Y414264D01*
X868962Y414335D01*
X869048Y414410D01*
X869131Y414487D01*
X869211Y414567D01*
X869288Y414650D01*
X869363Y414736D01*
X869434Y414824D01*
X869502Y414914D01*
X869567Y415007D01*
X869629Y415102D01*
X869687Y415199D01*
X869742Y415298D01*
X869793Y415399D01*
X869841Y415502D01*
X869886Y415606D01*
X869926Y415712D01*
X869963Y415819D01*
X869996Y415927D01*
X870026Y416037D01*
X870051Y416147D01*
X870073Y416258D01*
X870090Y416370D01*
X870104Y416483D01*
X870114Y416596D01*
X870120Y416709D01*
X870122Y416822D01*
X901208Y405260D02*
X901208Y393576D01*
X897313Y398769D02*
X901208Y405260D01*
X897313Y398769D02*
X893419Y405260D01*
X893419Y393576D01*
X887986Y396822D02*
X887986Y402014D01*
X887984Y402127D01*
X887978Y402240D01*
X887968Y402353D01*
X887954Y402466D01*
X887937Y402578D01*
X887915Y402689D01*
X887890Y402799D01*
X887860Y402909D01*
X887827Y403017D01*
X887790Y403124D01*
X887750Y403230D01*
X887705Y403334D01*
X887657Y403437D01*
X887606Y403538D01*
X887551Y403637D01*
X887493Y403734D01*
X887431Y403829D01*
X887366Y403922D01*
X887298Y404012D01*
X887227Y404100D01*
X887152Y404186D01*
X887075Y404269D01*
X886995Y404349D01*
X886912Y404426D01*
X886826Y404501D01*
X886738Y404572D01*
X886648Y404640D01*
X886555Y404705D01*
X886460Y404767D01*
X886363Y404825D01*
X886264Y404880D01*
X886163Y404931D01*
X886060Y404979D01*
X885956Y405024D01*
X885850Y405064D01*
X885743Y405101D01*
X885635Y405134D01*
X885525Y405164D01*
X885415Y405189D01*
X885304Y405211D01*
X885192Y405228D01*
X885079Y405242D01*
X884966Y405252D01*
X884853Y405258D01*
X884740Y405260D01*
X884627Y405258D01*
X884514Y405252D01*
X884401Y405242D01*
X884288Y405228D01*
X884176Y405211D01*
X884065Y405189D01*
X883955Y405164D01*
X883845Y405134D01*
X883737Y405101D01*
X883630Y405064D01*
X883524Y405024D01*
X883420Y404979D01*
X883317Y404931D01*
X883216Y404880D01*
X883117Y404825D01*
X883020Y404767D01*
X882925Y404705D01*
X882832Y404640D01*
X882742Y404572D01*
X882654Y404501D01*
X882568Y404426D01*
X882485Y404349D01*
X882405Y404269D01*
X882328Y404186D01*
X882253Y404100D01*
X882182Y404012D01*
X882114Y403922D01*
X882049Y403829D01*
X881987Y403734D01*
X881929Y403637D01*
X881874Y403538D01*
X881823Y403437D01*
X881775Y403334D01*
X881730Y403230D01*
X881690Y403124D01*
X881653Y403017D01*
X881620Y402909D01*
X881590Y402799D01*
X881565Y402689D01*
X881543Y402578D01*
X881526Y402466D01*
X881512Y402353D01*
X881502Y402240D01*
X881496Y402127D01*
X881494Y402014D01*
X881495Y402014D02*
X881495Y396822D01*
X881494Y396822D02*
X881496Y396709D01*
X881502Y396596D01*
X881512Y396483D01*
X881526Y396370D01*
X881543Y396258D01*
X881565Y396147D01*
X881590Y396037D01*
X881620Y395927D01*
X881653Y395819D01*
X881690Y395712D01*
X881730Y395606D01*
X881775Y395502D01*
X881823Y395399D01*
X881874Y395298D01*
X881929Y395199D01*
X881987Y395102D01*
X882049Y395007D01*
X882114Y394914D01*
X882182Y394824D01*
X882253Y394736D01*
X882328Y394650D01*
X882405Y394567D01*
X882485Y394487D01*
X882568Y394410D01*
X882654Y394335D01*
X882742Y394264D01*
X882832Y394196D01*
X882925Y394131D01*
X883020Y394069D01*
X883117Y394011D01*
X883216Y393956D01*
X883317Y393905D01*
X883420Y393857D01*
X883524Y393812D01*
X883630Y393772D01*
X883737Y393735D01*
X883845Y393702D01*
X883955Y393672D01*
X884065Y393647D01*
X884176Y393625D01*
X884288Y393608D01*
X884401Y393594D01*
X884514Y393584D01*
X884627Y393578D01*
X884740Y393576D01*
X884853Y393578D01*
X884966Y393584D01*
X885079Y393594D01*
X885192Y393608D01*
X885304Y393625D01*
X885415Y393647D01*
X885525Y393672D01*
X885635Y393702D01*
X885743Y393735D01*
X885850Y393772D01*
X885956Y393812D01*
X886060Y393857D01*
X886163Y393905D01*
X886264Y393956D01*
X886363Y394011D01*
X886460Y394069D01*
X886555Y394131D01*
X886648Y394196D01*
X886738Y394264D01*
X886826Y394335D01*
X886912Y394410D01*
X886995Y394487D01*
X887075Y394567D01*
X887152Y394650D01*
X887227Y394736D01*
X887298Y394824D01*
X887366Y394914D01*
X887431Y395007D01*
X887493Y395102D01*
X887551Y395199D01*
X887606Y395298D01*
X887657Y395399D01*
X887705Y395502D01*
X887750Y395606D01*
X887790Y395712D01*
X887827Y395819D01*
X887860Y395927D01*
X887890Y396037D01*
X887915Y396147D01*
X887937Y396258D01*
X887954Y396370D01*
X887968Y396483D01*
X887978Y396596D01*
X887984Y396709D01*
X887986Y396822D01*
X873042Y393576D02*
X872943Y393578D01*
X872843Y393584D01*
X872744Y393593D01*
X872646Y393606D01*
X872548Y393623D01*
X872450Y393644D01*
X872354Y393669D01*
X872259Y393697D01*
X872165Y393729D01*
X872072Y393764D01*
X871980Y393803D01*
X871890Y393846D01*
X871802Y393891D01*
X871715Y393941D01*
X871631Y393993D01*
X871548Y394049D01*
X871468Y394107D01*
X871390Y394169D01*
X871315Y394234D01*
X871242Y394302D01*
X871172Y394372D01*
X871104Y394445D01*
X871039Y394520D01*
X870977Y394598D01*
X870919Y394678D01*
X870863Y394761D01*
X870811Y394845D01*
X870761Y394932D01*
X870716Y395020D01*
X870673Y395110D01*
X870634Y395202D01*
X870599Y395295D01*
X870567Y395389D01*
X870539Y395484D01*
X870514Y395580D01*
X870493Y395678D01*
X870476Y395776D01*
X870463Y395874D01*
X870454Y395973D01*
X870448Y396073D01*
X870446Y396172D01*
X873042Y393576D02*
X873186Y393578D01*
X873331Y393584D01*
X873475Y393593D01*
X873618Y393606D01*
X873762Y393623D01*
X873905Y393644D01*
X874047Y393669D01*
X874188Y393697D01*
X874329Y393729D01*
X874469Y393765D01*
X874608Y393804D01*
X874746Y393847D01*
X874882Y393894D01*
X875018Y393944D01*
X875152Y393998D01*
X875284Y394055D01*
X875415Y394116D01*
X875544Y394180D01*
X875672Y394248D01*
X875798Y394319D01*
X875922Y394393D01*
X876043Y394470D01*
X876163Y394551D01*
X876281Y394634D01*
X876396Y394721D01*
X876509Y394811D01*
X876620Y394904D01*
X876728Y394999D01*
X876834Y395098D01*
X876937Y395199D01*
X876612Y402664D02*
X876610Y402763D01*
X876604Y402863D01*
X876595Y402962D01*
X876582Y403060D01*
X876565Y403158D01*
X876544Y403256D01*
X876519Y403352D01*
X876491Y403447D01*
X876459Y403541D01*
X876424Y403634D01*
X876385Y403726D01*
X876342Y403816D01*
X876297Y403904D01*
X876247Y403991D01*
X876195Y404075D01*
X876139Y404158D01*
X876081Y404238D01*
X876019Y404316D01*
X875954Y404391D01*
X875886Y404464D01*
X875816Y404534D01*
X875743Y404602D01*
X875668Y404667D01*
X875590Y404729D01*
X875510Y404787D01*
X875427Y404843D01*
X875343Y404895D01*
X875256Y404945D01*
X875168Y404990D01*
X875078Y405033D01*
X874986Y405072D01*
X874893Y405107D01*
X874799Y405139D01*
X874704Y405167D01*
X874608Y405192D01*
X874510Y405213D01*
X874412Y405230D01*
X874314Y405243D01*
X874215Y405252D01*
X874115Y405258D01*
X874016Y405260D01*
X873880Y405258D01*
X873744Y405252D01*
X873608Y405243D01*
X873472Y405230D01*
X873337Y405212D01*
X873203Y405192D01*
X873069Y405167D01*
X872935Y405139D01*
X872803Y405106D01*
X872672Y405071D01*
X872541Y405031D01*
X872412Y404988D01*
X872284Y404942D01*
X872158Y404891D01*
X872032Y404838D01*
X871909Y404780D01*
X871787Y404720D01*
X871667Y404656D01*
X871548Y404588D01*
X871432Y404518D01*
X871318Y404444D01*
X871205Y404367D01*
X871095Y404286D01*
X875314Y400392D02*
X875400Y400445D01*
X875484Y400502D01*
X875566Y400561D01*
X875646Y400624D01*
X875723Y400690D01*
X875798Y400758D01*
X875870Y400830D01*
X875939Y400904D01*
X876005Y400981D01*
X876068Y401060D01*
X876128Y401142D01*
X876185Y401226D01*
X876239Y401312D01*
X876289Y401400D01*
X876336Y401490D01*
X876380Y401581D01*
X876419Y401675D01*
X876456Y401769D01*
X876488Y401865D01*
X876517Y401963D01*
X876542Y402061D01*
X876563Y402160D01*
X876581Y402260D01*
X876594Y402360D01*
X876604Y402461D01*
X876610Y402563D01*
X876612Y402664D01*
X871744Y398444D02*
X871658Y398391D01*
X871574Y398334D01*
X871492Y398275D01*
X871412Y398212D01*
X871335Y398146D01*
X871260Y398078D01*
X871188Y398006D01*
X871119Y397932D01*
X871053Y397855D01*
X870990Y397776D01*
X870930Y397694D01*
X870873Y397610D01*
X870819Y397524D01*
X870769Y397436D01*
X870722Y397346D01*
X870678Y397255D01*
X870639Y397161D01*
X870602Y397067D01*
X870570Y396971D01*
X870541Y396873D01*
X870516Y396775D01*
X870495Y396676D01*
X870477Y396576D01*
X870464Y396476D01*
X870454Y396375D01*
X870448Y396273D01*
X870446Y396172D01*
X871744Y398444D02*
X875314Y400392D01*
X864928Y405260D02*
X864928Y393576D01*
X866226Y393576D02*
X863630Y393576D01*
X863630Y405260D02*
X866226Y405260D01*
X904219Y385260D02*
X904219Y373576D01*
X897728Y373576D02*
X904219Y385260D01*
X897728Y385260D02*
X897728Y373576D01*
X888894Y373576D02*
X888795Y373578D01*
X888695Y373584D01*
X888596Y373593D01*
X888498Y373606D01*
X888400Y373623D01*
X888302Y373644D01*
X888206Y373669D01*
X888111Y373697D01*
X888017Y373729D01*
X887924Y373764D01*
X887832Y373803D01*
X887742Y373846D01*
X887654Y373891D01*
X887567Y373941D01*
X887483Y373993D01*
X887400Y374049D01*
X887320Y374107D01*
X887242Y374169D01*
X887167Y374234D01*
X887094Y374302D01*
X887024Y374372D01*
X886956Y374445D01*
X886891Y374520D01*
X886829Y374598D01*
X886771Y374678D01*
X886715Y374761D01*
X886663Y374845D01*
X886613Y374932D01*
X886568Y375020D01*
X886525Y375110D01*
X886486Y375202D01*
X886451Y375295D01*
X886419Y375389D01*
X886391Y375484D01*
X886366Y375580D01*
X886345Y375678D01*
X886328Y375776D01*
X886315Y375874D01*
X886306Y375973D01*
X886300Y376073D01*
X886298Y376172D01*
X888894Y373576D02*
X889038Y373578D01*
X889183Y373584D01*
X889327Y373593D01*
X889470Y373606D01*
X889614Y373623D01*
X889757Y373644D01*
X889899Y373669D01*
X890040Y373697D01*
X890181Y373729D01*
X890321Y373765D01*
X890460Y373804D01*
X890598Y373847D01*
X890734Y373894D01*
X890870Y373944D01*
X891004Y373998D01*
X891136Y374055D01*
X891267Y374116D01*
X891396Y374180D01*
X891524Y374248D01*
X891650Y374319D01*
X891774Y374393D01*
X891895Y374470D01*
X892015Y374551D01*
X892133Y374634D01*
X892248Y374721D01*
X892361Y374811D01*
X892472Y374904D01*
X892580Y374999D01*
X892686Y375098D01*
X892789Y375199D01*
X892464Y382664D02*
X892462Y382763D01*
X892456Y382863D01*
X892447Y382962D01*
X892434Y383060D01*
X892417Y383158D01*
X892396Y383256D01*
X892371Y383352D01*
X892343Y383447D01*
X892311Y383541D01*
X892276Y383634D01*
X892237Y383726D01*
X892194Y383816D01*
X892149Y383904D01*
X892099Y383991D01*
X892047Y384075D01*
X891991Y384158D01*
X891933Y384238D01*
X891871Y384316D01*
X891806Y384391D01*
X891738Y384464D01*
X891668Y384534D01*
X891595Y384602D01*
X891520Y384667D01*
X891442Y384729D01*
X891362Y384787D01*
X891279Y384843D01*
X891195Y384895D01*
X891108Y384945D01*
X891020Y384990D01*
X890930Y385033D01*
X890838Y385072D01*
X890745Y385107D01*
X890651Y385139D01*
X890556Y385167D01*
X890460Y385192D01*
X890362Y385213D01*
X890264Y385230D01*
X890166Y385243D01*
X890067Y385252D01*
X889967Y385258D01*
X889868Y385260D01*
X889732Y385258D01*
X889596Y385252D01*
X889460Y385243D01*
X889324Y385230D01*
X889189Y385212D01*
X889055Y385192D01*
X888921Y385167D01*
X888787Y385139D01*
X888655Y385106D01*
X888524Y385071D01*
X888393Y385031D01*
X888264Y384988D01*
X888136Y384942D01*
X888010Y384891D01*
X887884Y384838D01*
X887761Y384780D01*
X887639Y384720D01*
X887519Y384656D01*
X887400Y384588D01*
X887284Y384518D01*
X887170Y384444D01*
X887057Y384367D01*
X886947Y384286D01*
X891167Y380392D02*
X891253Y380445D01*
X891337Y380502D01*
X891419Y380561D01*
X891499Y380624D01*
X891576Y380690D01*
X891651Y380758D01*
X891723Y380830D01*
X891792Y380904D01*
X891858Y380981D01*
X891921Y381060D01*
X891981Y381142D01*
X892038Y381226D01*
X892092Y381312D01*
X892142Y381400D01*
X892189Y381490D01*
X892233Y381581D01*
X892272Y381675D01*
X892309Y381769D01*
X892341Y381865D01*
X892370Y381963D01*
X892395Y382061D01*
X892416Y382160D01*
X892434Y382260D01*
X892447Y382360D01*
X892457Y382461D01*
X892463Y382563D01*
X892465Y382664D01*
X887596Y378444D02*
X887510Y378391D01*
X887426Y378334D01*
X887344Y378275D01*
X887264Y378212D01*
X887187Y378146D01*
X887112Y378078D01*
X887040Y378006D01*
X886971Y377932D01*
X886905Y377855D01*
X886842Y377776D01*
X886782Y377694D01*
X886725Y377610D01*
X886671Y377524D01*
X886621Y377436D01*
X886574Y377346D01*
X886530Y377255D01*
X886491Y377161D01*
X886454Y377067D01*
X886422Y376971D01*
X886393Y376873D01*
X886368Y376775D01*
X886347Y376676D01*
X886329Y376576D01*
X886316Y376476D01*
X886306Y376375D01*
X886300Y376273D01*
X886298Y376172D01*
X887596Y378444D02*
X891166Y380392D01*
X878226Y373576D02*
X878127Y373578D01*
X878027Y373584D01*
X877928Y373593D01*
X877830Y373606D01*
X877732Y373623D01*
X877634Y373644D01*
X877538Y373669D01*
X877443Y373697D01*
X877349Y373729D01*
X877256Y373764D01*
X877164Y373803D01*
X877074Y373846D01*
X876986Y373891D01*
X876899Y373941D01*
X876815Y373993D01*
X876732Y374049D01*
X876652Y374107D01*
X876574Y374169D01*
X876499Y374234D01*
X876426Y374302D01*
X876356Y374372D01*
X876288Y374445D01*
X876223Y374520D01*
X876161Y374598D01*
X876103Y374678D01*
X876047Y374761D01*
X875995Y374845D01*
X875945Y374932D01*
X875900Y375020D01*
X875857Y375110D01*
X875818Y375202D01*
X875783Y375295D01*
X875751Y375389D01*
X875723Y375484D01*
X875698Y375580D01*
X875677Y375678D01*
X875660Y375776D01*
X875647Y375874D01*
X875638Y375973D01*
X875632Y376073D01*
X875630Y376172D01*
X878226Y373576D02*
X878370Y373578D01*
X878515Y373584D01*
X878659Y373593D01*
X878802Y373606D01*
X878946Y373623D01*
X879089Y373644D01*
X879231Y373669D01*
X879372Y373697D01*
X879513Y373729D01*
X879653Y373765D01*
X879792Y373804D01*
X879930Y373847D01*
X880066Y373894D01*
X880202Y373944D01*
X880336Y373998D01*
X880468Y374055D01*
X880599Y374116D01*
X880728Y374180D01*
X880856Y374248D01*
X880982Y374319D01*
X881106Y374393D01*
X881227Y374470D01*
X881347Y374551D01*
X881465Y374634D01*
X881580Y374721D01*
X881693Y374811D01*
X881804Y374904D01*
X881912Y374999D01*
X882018Y375098D01*
X882121Y375199D01*
X881796Y382664D02*
X881794Y382763D01*
X881788Y382863D01*
X881779Y382962D01*
X881766Y383060D01*
X881749Y383158D01*
X881728Y383256D01*
X881703Y383352D01*
X881675Y383447D01*
X881643Y383541D01*
X881608Y383634D01*
X881569Y383726D01*
X881526Y383816D01*
X881481Y383904D01*
X881431Y383991D01*
X881379Y384075D01*
X881323Y384158D01*
X881265Y384238D01*
X881203Y384316D01*
X881138Y384391D01*
X881070Y384464D01*
X881000Y384534D01*
X880927Y384602D01*
X880852Y384667D01*
X880774Y384729D01*
X880694Y384787D01*
X880611Y384843D01*
X880527Y384895D01*
X880440Y384945D01*
X880352Y384990D01*
X880262Y385033D01*
X880170Y385072D01*
X880077Y385107D01*
X879983Y385139D01*
X879888Y385167D01*
X879792Y385192D01*
X879694Y385213D01*
X879596Y385230D01*
X879498Y385243D01*
X879399Y385252D01*
X879299Y385258D01*
X879200Y385260D01*
X879064Y385258D01*
X878928Y385252D01*
X878792Y385243D01*
X878656Y385230D01*
X878521Y385212D01*
X878387Y385192D01*
X878253Y385167D01*
X878119Y385139D01*
X877987Y385106D01*
X877856Y385071D01*
X877725Y385031D01*
X877596Y384988D01*
X877468Y384942D01*
X877342Y384891D01*
X877216Y384838D01*
X877093Y384780D01*
X876971Y384720D01*
X876851Y384656D01*
X876732Y384588D01*
X876616Y384518D01*
X876502Y384444D01*
X876389Y384367D01*
X876279Y384286D01*
X880499Y380392D02*
X880585Y380445D01*
X880669Y380502D01*
X880751Y380561D01*
X880831Y380624D01*
X880908Y380690D01*
X880983Y380758D01*
X881055Y380830D01*
X881124Y380904D01*
X881190Y380981D01*
X881253Y381060D01*
X881313Y381142D01*
X881370Y381226D01*
X881424Y381312D01*
X881474Y381400D01*
X881521Y381490D01*
X881565Y381581D01*
X881604Y381675D01*
X881641Y381769D01*
X881673Y381865D01*
X881702Y381963D01*
X881727Y382061D01*
X881748Y382160D01*
X881766Y382260D01*
X881779Y382360D01*
X881789Y382461D01*
X881795Y382563D01*
X881797Y382664D01*
X876928Y378444D02*
X876842Y378391D01*
X876758Y378334D01*
X876676Y378275D01*
X876596Y378212D01*
X876519Y378146D01*
X876444Y378078D01*
X876372Y378006D01*
X876303Y377932D01*
X876237Y377855D01*
X876174Y377776D01*
X876114Y377694D01*
X876057Y377610D01*
X876003Y377524D01*
X875953Y377436D01*
X875906Y377346D01*
X875862Y377255D01*
X875823Y377161D01*
X875786Y377067D01*
X875754Y376971D01*
X875725Y376873D01*
X875700Y376775D01*
X875679Y376676D01*
X875661Y376576D01*
X875648Y376476D01*
X875638Y376375D01*
X875632Y376273D01*
X875630Y376172D01*
X876928Y378444D02*
X880498Y380392D01*
X896014Y362067D02*
X897961Y362067D01*
X896014Y362067D02*
X896014Y355576D01*
X899909Y355576D01*
X900008Y355578D01*
X900108Y355584D01*
X900207Y355593D01*
X900305Y355606D01*
X900403Y355623D01*
X900501Y355644D01*
X900597Y355669D01*
X900692Y355697D01*
X900786Y355729D01*
X900879Y355764D01*
X900971Y355803D01*
X901061Y355846D01*
X901149Y355891D01*
X901236Y355941D01*
X901320Y355993D01*
X901403Y356049D01*
X901483Y356107D01*
X901561Y356169D01*
X901636Y356234D01*
X901709Y356302D01*
X901779Y356372D01*
X901847Y356445D01*
X901912Y356520D01*
X901974Y356598D01*
X902032Y356678D01*
X902088Y356761D01*
X902140Y356845D01*
X902190Y356932D01*
X902235Y357020D01*
X902278Y357110D01*
X902317Y357202D01*
X902352Y357295D01*
X902384Y357389D01*
X902412Y357484D01*
X902437Y357580D01*
X902458Y357678D01*
X902475Y357776D01*
X902488Y357874D01*
X902497Y357973D01*
X902503Y358073D01*
X902505Y358172D01*
X902505Y364664D01*
X902503Y364763D01*
X902497Y364863D01*
X902488Y364962D01*
X902475Y365060D01*
X902458Y365158D01*
X902437Y365256D01*
X902412Y365352D01*
X902384Y365447D01*
X902352Y365541D01*
X902317Y365634D01*
X902278Y365726D01*
X902235Y365816D01*
X902190Y365904D01*
X902140Y365991D01*
X902088Y366075D01*
X902032Y366158D01*
X901974Y366238D01*
X901912Y366316D01*
X901847Y366391D01*
X901779Y366464D01*
X901709Y366534D01*
X901636Y366602D01*
X901561Y366667D01*
X901483Y366729D01*
X901403Y366787D01*
X901320Y366843D01*
X901236Y366895D01*
X901149Y366945D01*
X901061Y366990D01*
X900971Y367033D01*
X900879Y367072D01*
X900786Y367107D01*
X900692Y367139D01*
X900597Y367167D01*
X900501Y367192D01*
X900403Y367213D01*
X900305Y367230D01*
X900207Y367243D01*
X900108Y367252D01*
X900008Y367258D01*
X899909Y367260D01*
X896014Y367260D01*
X890313Y367260D02*
X890313Y355576D01*
X883822Y355576D02*
X890313Y367260D01*
X883822Y367260D02*
X883822Y355576D01*
X878121Y355576D02*
X878121Y367260D01*
X874876Y367260D01*
X874763Y367258D01*
X874650Y367252D01*
X874537Y367242D01*
X874424Y367228D01*
X874312Y367211D01*
X874201Y367189D01*
X874091Y367164D01*
X873981Y367134D01*
X873873Y367101D01*
X873766Y367064D01*
X873660Y367024D01*
X873556Y366979D01*
X873453Y366931D01*
X873352Y366880D01*
X873253Y366825D01*
X873156Y366767D01*
X873061Y366705D01*
X872968Y366640D01*
X872878Y366572D01*
X872790Y366501D01*
X872704Y366426D01*
X872621Y366349D01*
X872541Y366269D01*
X872464Y366186D01*
X872389Y366100D01*
X872318Y366012D01*
X872250Y365922D01*
X872185Y365829D01*
X872123Y365734D01*
X872065Y365637D01*
X872010Y365538D01*
X871959Y365437D01*
X871911Y365334D01*
X871866Y365230D01*
X871826Y365124D01*
X871789Y365017D01*
X871756Y364909D01*
X871726Y364799D01*
X871701Y364689D01*
X871679Y364578D01*
X871662Y364466D01*
X871648Y364353D01*
X871638Y364240D01*
X871632Y364127D01*
X871630Y364014D01*
X871630Y358822D01*
X871632Y358709D01*
X871638Y358596D01*
X871648Y358483D01*
X871662Y358370D01*
X871679Y358258D01*
X871701Y358147D01*
X871726Y358037D01*
X871756Y357927D01*
X871789Y357819D01*
X871826Y357712D01*
X871866Y357606D01*
X871911Y357502D01*
X871959Y357399D01*
X872010Y357298D01*
X872065Y357199D01*
X872123Y357102D01*
X872185Y357007D01*
X872250Y356914D01*
X872318Y356824D01*
X872389Y356736D01*
X872464Y356650D01*
X872541Y356567D01*
X872621Y356487D01*
X872704Y356410D01*
X872790Y356335D01*
X872878Y356264D01*
X872968Y356196D01*
X873061Y356131D01*
X873156Y356069D01*
X873253Y356011D01*
X873352Y355956D01*
X873453Y355905D01*
X873556Y355857D01*
X873660Y355812D01*
X873766Y355772D01*
X873873Y355735D01*
X873981Y355702D01*
X874091Y355672D01*
X874201Y355647D01*
X874312Y355625D01*
X874424Y355608D01*
X874537Y355594D01*
X874650Y355584D01*
X874763Y355578D01*
X874876Y355576D01*
X878121Y355576D01*
X859099Y337450D02*
X859099Y325766D01*
X859099Y337450D02*
X855854Y337450D01*
X855741Y337448D01*
X855628Y337442D01*
X855515Y337432D01*
X855402Y337418D01*
X855290Y337401D01*
X855179Y337379D01*
X855069Y337354D01*
X854959Y337324D01*
X854851Y337291D01*
X854744Y337254D01*
X854638Y337214D01*
X854534Y337169D01*
X854431Y337121D01*
X854330Y337070D01*
X854231Y337015D01*
X854134Y336957D01*
X854039Y336895D01*
X853946Y336830D01*
X853856Y336762D01*
X853768Y336691D01*
X853682Y336616D01*
X853599Y336539D01*
X853519Y336459D01*
X853442Y336376D01*
X853367Y336290D01*
X853296Y336202D01*
X853228Y336112D01*
X853163Y336019D01*
X853101Y335924D01*
X853043Y335827D01*
X852988Y335728D01*
X852937Y335627D01*
X852889Y335524D01*
X852844Y335420D01*
X852804Y335314D01*
X852767Y335207D01*
X852734Y335099D01*
X852704Y334989D01*
X852679Y334879D01*
X852657Y334768D01*
X852640Y334656D01*
X852626Y334543D01*
X852616Y334430D01*
X852610Y334317D01*
X852608Y334204D01*
X852610Y334091D01*
X852616Y333978D01*
X852626Y333865D01*
X852640Y333752D01*
X852657Y333640D01*
X852679Y333529D01*
X852704Y333419D01*
X852734Y333309D01*
X852767Y333201D01*
X852804Y333094D01*
X852844Y332988D01*
X852889Y332884D01*
X852937Y332781D01*
X852988Y332680D01*
X853043Y332581D01*
X853101Y332484D01*
X853163Y332389D01*
X853228Y332296D01*
X853296Y332206D01*
X853367Y332118D01*
X853442Y332032D01*
X853519Y331949D01*
X853599Y331869D01*
X853682Y331792D01*
X853768Y331717D01*
X853856Y331646D01*
X853946Y331578D01*
X854039Y331513D01*
X854134Y331451D01*
X854231Y331393D01*
X854330Y331338D01*
X854431Y331287D01*
X854534Y331239D01*
X854638Y331194D01*
X854744Y331154D01*
X854851Y331117D01*
X854959Y331084D01*
X855069Y331054D01*
X855179Y331029D01*
X855290Y331007D01*
X855402Y330990D01*
X855515Y330976D01*
X855628Y330966D01*
X855741Y330960D01*
X855854Y330958D01*
X855854Y330959D02*
X859099Y330959D01*
X855205Y330959D02*
X852608Y325766D01*
X848392Y325766D02*
X844498Y337450D01*
X840603Y325766D01*
X841577Y328687D02*
X847419Y328687D01*
X836313Y329012D02*
X836313Y334204D01*
X836314Y334204D02*
X836312Y334317D01*
X836306Y334430D01*
X836296Y334543D01*
X836282Y334656D01*
X836265Y334768D01*
X836243Y334879D01*
X836218Y334989D01*
X836188Y335099D01*
X836155Y335207D01*
X836118Y335314D01*
X836078Y335420D01*
X836033Y335524D01*
X835985Y335627D01*
X835934Y335728D01*
X835879Y335827D01*
X835821Y335924D01*
X835759Y336019D01*
X835694Y336112D01*
X835626Y336202D01*
X835555Y336290D01*
X835480Y336376D01*
X835403Y336459D01*
X835323Y336539D01*
X835240Y336616D01*
X835154Y336691D01*
X835066Y336762D01*
X834976Y336830D01*
X834883Y336895D01*
X834788Y336957D01*
X834691Y337015D01*
X834592Y337070D01*
X834491Y337121D01*
X834388Y337169D01*
X834284Y337214D01*
X834178Y337254D01*
X834071Y337291D01*
X833963Y337324D01*
X833853Y337354D01*
X833743Y337379D01*
X833632Y337401D01*
X833520Y337418D01*
X833407Y337432D01*
X833294Y337442D01*
X833181Y337448D01*
X833068Y337450D01*
X832955Y337448D01*
X832842Y337442D01*
X832729Y337432D01*
X832616Y337418D01*
X832504Y337401D01*
X832393Y337379D01*
X832283Y337354D01*
X832173Y337324D01*
X832065Y337291D01*
X831958Y337254D01*
X831852Y337214D01*
X831748Y337169D01*
X831645Y337121D01*
X831544Y337070D01*
X831445Y337015D01*
X831348Y336957D01*
X831253Y336895D01*
X831160Y336830D01*
X831070Y336762D01*
X830982Y336691D01*
X830896Y336616D01*
X830813Y336539D01*
X830733Y336459D01*
X830656Y336376D01*
X830581Y336290D01*
X830510Y336202D01*
X830442Y336112D01*
X830377Y336019D01*
X830315Y335924D01*
X830257Y335827D01*
X830202Y335728D01*
X830151Y335627D01*
X830103Y335524D01*
X830058Y335420D01*
X830018Y335314D01*
X829981Y335207D01*
X829948Y335099D01*
X829918Y334989D01*
X829893Y334879D01*
X829871Y334768D01*
X829854Y334656D01*
X829840Y334543D01*
X829830Y334430D01*
X829824Y334317D01*
X829822Y334204D01*
X829822Y329012D01*
X829824Y328899D01*
X829830Y328786D01*
X829840Y328673D01*
X829854Y328560D01*
X829871Y328448D01*
X829893Y328337D01*
X829918Y328227D01*
X829948Y328117D01*
X829981Y328009D01*
X830018Y327902D01*
X830058Y327796D01*
X830103Y327692D01*
X830151Y327589D01*
X830202Y327488D01*
X830257Y327389D01*
X830315Y327292D01*
X830377Y327197D01*
X830442Y327104D01*
X830510Y327014D01*
X830581Y326926D01*
X830656Y326840D01*
X830733Y326757D01*
X830813Y326677D01*
X830896Y326600D01*
X830982Y326525D01*
X831070Y326454D01*
X831160Y326386D01*
X831253Y326321D01*
X831348Y326259D01*
X831445Y326201D01*
X831544Y326146D01*
X831645Y326095D01*
X831748Y326047D01*
X831852Y326002D01*
X831958Y325962D01*
X832065Y325925D01*
X832173Y325892D01*
X832283Y325862D01*
X832393Y325837D01*
X832504Y325815D01*
X832616Y325798D01*
X832729Y325784D01*
X832842Y325774D01*
X832955Y325768D01*
X833068Y325766D01*
X833181Y325768D01*
X833294Y325774D01*
X833407Y325784D01*
X833520Y325798D01*
X833632Y325815D01*
X833743Y325837D01*
X833853Y325862D01*
X833963Y325892D01*
X834071Y325925D01*
X834178Y325962D01*
X834284Y326002D01*
X834388Y326047D01*
X834491Y326095D01*
X834592Y326146D01*
X834691Y326201D01*
X834788Y326259D01*
X834883Y326321D01*
X834976Y326386D01*
X835066Y326454D01*
X835154Y326525D01*
X835240Y326600D01*
X835323Y326677D01*
X835403Y326757D01*
X835480Y326840D01*
X835555Y326926D01*
X835626Y327014D01*
X835694Y327104D01*
X835759Y327197D01*
X835821Y327292D01*
X835879Y327389D01*
X835934Y327488D01*
X835985Y327589D01*
X836033Y327692D01*
X836078Y327796D01*
X836118Y327902D01*
X836155Y328009D01*
X836188Y328117D01*
X836218Y328227D01*
X836243Y328337D01*
X836265Y328448D01*
X836282Y328560D01*
X836296Y328673D01*
X836306Y328786D01*
X836312Y328899D01*
X836314Y329012D01*
X824883Y334854D02*
X821638Y337450D01*
X821638Y325766D01*
X824883Y325766D02*
X818392Y325766D01*
D12*
X690930Y397152D02*
X690930Y511152D01*
X856160Y511152D01*
X856160Y397152D01*
X690930Y397152D01*
D13*
X842144Y404570D02*
X842146Y404646D01*
X842152Y404721D01*
X842162Y404796D01*
X842176Y404870D01*
X842193Y404944D01*
X842215Y405016D01*
X842240Y405087D01*
X842269Y405157D01*
X842301Y405225D01*
X842337Y405292D01*
X842377Y405356D01*
X842420Y405418D01*
X842466Y405478D01*
X842515Y405536D01*
X842567Y405590D01*
X842621Y405642D01*
X842679Y405691D01*
X842739Y405737D01*
X842801Y405780D01*
X842866Y405820D01*
X842932Y405856D01*
X843000Y405888D01*
X843070Y405917D01*
X843141Y405942D01*
X843214Y405964D01*
X843287Y405981D01*
X843361Y405995D01*
X843436Y406005D01*
X843511Y406011D01*
X843587Y406013D01*
X842144Y404570D02*
X842146Y404461D01*
X842152Y404352D01*
X842162Y404243D01*
X842175Y404134D01*
X842193Y404026D01*
X842214Y403919D01*
X842240Y403813D01*
X842269Y403707D01*
X842302Y403603D01*
X842338Y403500D01*
X842378Y403398D01*
X842422Y403298D01*
X842470Y403199D01*
X842521Y403103D01*
X842575Y403008D01*
X842633Y402915D01*
X842694Y402824D01*
X842758Y402736D01*
X842825Y402650D01*
X842896Y402566D01*
X842969Y402485D01*
X843046Y402406D01*
X847193Y402586D02*
X847269Y402588D01*
X847344Y402594D01*
X847419Y402604D01*
X847493Y402618D01*
X847566Y402635D01*
X847639Y402657D01*
X847710Y402682D01*
X847780Y402711D01*
X847848Y402743D01*
X847915Y402779D01*
X847979Y402819D01*
X848041Y402862D01*
X848101Y402908D01*
X848159Y402957D01*
X848213Y403009D01*
X848265Y403063D01*
X848314Y403121D01*
X848360Y403181D01*
X848403Y403243D01*
X848443Y403308D01*
X848479Y403374D01*
X848511Y403442D01*
X848540Y403512D01*
X848565Y403583D01*
X848587Y403656D01*
X848604Y403729D01*
X848618Y403803D01*
X848628Y403878D01*
X848634Y403953D01*
X848636Y404029D01*
X848634Y404131D01*
X848628Y404234D01*
X848619Y404336D01*
X848605Y404437D01*
X848588Y404538D01*
X848567Y404638D01*
X848542Y404737D01*
X848513Y404836D01*
X848481Y404933D01*
X848445Y405029D01*
X848405Y405123D01*
X848362Y405216D01*
X848315Y405307D01*
X848265Y405396D01*
X848212Y405484D01*
X848155Y405569D01*
X848095Y405652D01*
X845931Y403307D02*
X845971Y403243D01*
X846015Y403180D01*
X846061Y403120D01*
X846111Y403063D01*
X846164Y403008D01*
X846220Y402956D01*
X846278Y402907D01*
X846338Y402861D01*
X846401Y402818D01*
X846466Y402779D01*
X846533Y402743D01*
X846602Y402711D01*
X846672Y402682D01*
X846744Y402657D01*
X846817Y402635D01*
X846891Y402617D01*
X846966Y402604D01*
X847041Y402594D01*
X847117Y402588D01*
X847193Y402586D01*
X844849Y405291D02*
X844809Y405355D01*
X844765Y405418D01*
X844719Y405478D01*
X844669Y405535D01*
X844616Y405590D01*
X844560Y405642D01*
X844502Y405691D01*
X844442Y405737D01*
X844379Y405780D01*
X844314Y405819D01*
X844247Y405855D01*
X844178Y405887D01*
X844108Y405916D01*
X844036Y405942D01*
X843963Y405963D01*
X843889Y405981D01*
X843814Y405994D01*
X843739Y406004D01*
X843663Y406010D01*
X843587Y406012D01*
X844849Y405291D02*
X845931Y403308D01*
X847915Y408496D02*
X848636Y408496D01*
X848636Y412103D01*
X842144Y410299D01*
X842144Y416599D02*
X848636Y414435D01*
X848636Y418763D02*
X842144Y416599D01*
X843947Y421096D02*
X844030Y421098D01*
X844113Y421104D01*
X844196Y421113D01*
X844278Y421127D01*
X844360Y421144D01*
X844440Y421165D01*
X844520Y421189D01*
X844598Y421218D01*
X844675Y421250D01*
X844751Y421285D01*
X844824Y421324D01*
X844896Y421366D01*
X844966Y421412D01*
X845034Y421460D01*
X845099Y421512D01*
X845162Y421567D01*
X845222Y421624D01*
X845279Y421684D01*
X845334Y421747D01*
X845386Y421812D01*
X845434Y421880D01*
X845480Y421950D01*
X845522Y422022D01*
X845561Y422095D01*
X845596Y422171D01*
X845628Y422248D01*
X845657Y422326D01*
X845681Y422406D01*
X845702Y422486D01*
X845719Y422568D01*
X845733Y422650D01*
X845742Y422733D01*
X845748Y422816D01*
X845750Y422899D01*
X845748Y422982D01*
X845742Y423065D01*
X845733Y423148D01*
X845719Y423230D01*
X845702Y423312D01*
X845681Y423392D01*
X845657Y423472D01*
X845628Y423550D01*
X845596Y423627D01*
X845561Y423703D01*
X845522Y423776D01*
X845480Y423848D01*
X845434Y423918D01*
X845386Y423986D01*
X845334Y424051D01*
X845279Y424114D01*
X845222Y424174D01*
X845162Y424231D01*
X845099Y424286D01*
X845034Y424338D01*
X844966Y424386D01*
X844896Y424432D01*
X844824Y424474D01*
X844751Y424513D01*
X844675Y424548D01*
X844598Y424580D01*
X844520Y424609D01*
X844440Y424633D01*
X844360Y424654D01*
X844278Y424671D01*
X844196Y424685D01*
X844113Y424694D01*
X844030Y424700D01*
X843947Y424702D01*
X843864Y424700D01*
X843781Y424694D01*
X843698Y424685D01*
X843616Y424671D01*
X843534Y424654D01*
X843454Y424633D01*
X843374Y424609D01*
X843296Y424580D01*
X843219Y424548D01*
X843143Y424513D01*
X843070Y424474D01*
X842998Y424432D01*
X842928Y424386D01*
X842860Y424338D01*
X842795Y424286D01*
X842732Y424231D01*
X842672Y424174D01*
X842615Y424114D01*
X842560Y424051D01*
X842508Y423986D01*
X842460Y423918D01*
X842414Y423848D01*
X842372Y423776D01*
X842333Y423703D01*
X842298Y423627D01*
X842266Y423550D01*
X842237Y423472D01*
X842213Y423392D01*
X842192Y423312D01*
X842175Y423230D01*
X842161Y423148D01*
X842152Y423065D01*
X842146Y422982D01*
X842144Y422899D01*
X842146Y422816D01*
X842152Y422733D01*
X842161Y422650D01*
X842175Y422568D01*
X842192Y422486D01*
X842213Y422406D01*
X842237Y422326D01*
X842266Y422248D01*
X842298Y422171D01*
X842333Y422095D01*
X842372Y422022D01*
X842414Y421950D01*
X842460Y421880D01*
X842508Y421812D01*
X842560Y421747D01*
X842615Y421684D01*
X842672Y421624D01*
X842732Y421567D01*
X842795Y421512D01*
X842860Y421460D01*
X842928Y421412D01*
X842998Y421366D01*
X843070Y421324D01*
X843143Y421285D01*
X843219Y421250D01*
X843296Y421218D01*
X843374Y421189D01*
X843454Y421165D01*
X843534Y421144D01*
X843616Y421127D01*
X843698Y421113D01*
X843781Y421104D01*
X843864Y421098D01*
X843947Y421096D01*
X847193Y421456D02*
X847269Y421458D01*
X847344Y421464D01*
X847419Y421474D01*
X847493Y421488D01*
X847566Y421505D01*
X847639Y421527D01*
X847710Y421552D01*
X847780Y421581D01*
X847848Y421613D01*
X847915Y421649D01*
X847979Y421689D01*
X848041Y421732D01*
X848101Y421778D01*
X848159Y421827D01*
X848213Y421879D01*
X848265Y421933D01*
X848314Y421991D01*
X848360Y422051D01*
X848403Y422113D01*
X848443Y422178D01*
X848479Y422244D01*
X848511Y422312D01*
X848540Y422382D01*
X848565Y422453D01*
X848587Y422526D01*
X848604Y422599D01*
X848618Y422673D01*
X848628Y422748D01*
X848634Y422823D01*
X848636Y422899D01*
X848634Y422975D01*
X848628Y423050D01*
X848618Y423125D01*
X848604Y423199D01*
X848587Y423272D01*
X848565Y423345D01*
X848540Y423416D01*
X848511Y423486D01*
X848479Y423554D01*
X848443Y423621D01*
X848403Y423685D01*
X848360Y423747D01*
X848314Y423807D01*
X848265Y423865D01*
X848213Y423919D01*
X848159Y423971D01*
X848101Y424020D01*
X848041Y424066D01*
X847979Y424109D01*
X847915Y424149D01*
X847848Y424185D01*
X847780Y424217D01*
X847710Y424246D01*
X847639Y424271D01*
X847566Y424293D01*
X847493Y424310D01*
X847419Y424324D01*
X847344Y424334D01*
X847269Y424340D01*
X847193Y424342D01*
X847117Y424340D01*
X847042Y424334D01*
X846967Y424324D01*
X846893Y424310D01*
X846820Y424293D01*
X846747Y424271D01*
X846676Y424246D01*
X846606Y424217D01*
X846538Y424185D01*
X846472Y424149D01*
X846407Y424109D01*
X846345Y424066D01*
X846285Y424020D01*
X846227Y423971D01*
X846173Y423919D01*
X846121Y423865D01*
X846072Y423807D01*
X846026Y423747D01*
X845983Y423685D01*
X845943Y423621D01*
X845907Y423554D01*
X845875Y423486D01*
X845846Y423416D01*
X845821Y423345D01*
X845799Y423272D01*
X845782Y423199D01*
X845768Y423125D01*
X845758Y423050D01*
X845752Y422975D01*
X845750Y422899D01*
X845752Y422823D01*
X845758Y422748D01*
X845768Y422673D01*
X845782Y422599D01*
X845799Y422526D01*
X845821Y422453D01*
X845846Y422382D01*
X845875Y422312D01*
X845907Y422244D01*
X845943Y422178D01*
X845983Y422113D01*
X846026Y422051D01*
X846072Y421991D01*
X846121Y421933D01*
X846173Y421879D01*
X846227Y421827D01*
X846285Y421778D01*
X846345Y421732D01*
X846407Y421689D01*
X846472Y421649D01*
X846538Y421613D01*
X846606Y421581D01*
X846676Y421552D01*
X846747Y421527D01*
X846820Y421505D01*
X846893Y421488D01*
X846967Y421474D01*
X847042Y421464D01*
X847117Y421458D01*
X847193Y421456D01*
X848636Y427618D02*
X842144Y427618D01*
X848636Y427618D02*
X848636Y430503D01*
X845751Y430503D02*
X845751Y427618D01*
X842144Y432856D02*
X842144Y434659D01*
X842146Y434742D01*
X842152Y434825D01*
X842161Y434908D01*
X842175Y434990D01*
X842192Y435072D01*
X842213Y435152D01*
X842237Y435232D01*
X842266Y435310D01*
X842298Y435387D01*
X842333Y435463D01*
X842372Y435536D01*
X842414Y435608D01*
X842460Y435678D01*
X842508Y435746D01*
X842560Y435811D01*
X842615Y435874D01*
X842672Y435934D01*
X842732Y435991D01*
X842795Y436046D01*
X842860Y436098D01*
X842928Y436146D01*
X842998Y436192D01*
X843070Y436234D01*
X843143Y436273D01*
X843219Y436308D01*
X843296Y436340D01*
X843374Y436369D01*
X843454Y436393D01*
X843534Y436414D01*
X843616Y436431D01*
X843698Y436445D01*
X843781Y436454D01*
X843864Y436460D01*
X843947Y436462D01*
X844030Y436460D01*
X844113Y436454D01*
X844196Y436445D01*
X844278Y436431D01*
X844360Y436414D01*
X844440Y436393D01*
X844520Y436369D01*
X844598Y436340D01*
X844675Y436308D01*
X844751Y436273D01*
X844824Y436234D01*
X844896Y436192D01*
X844966Y436146D01*
X845034Y436098D01*
X845099Y436046D01*
X845162Y435991D01*
X845222Y435934D01*
X845279Y435874D01*
X845334Y435811D01*
X845386Y435746D01*
X845434Y435678D01*
X845480Y435608D01*
X845522Y435536D01*
X845561Y435463D01*
X845596Y435387D01*
X845628Y435310D01*
X845657Y435232D01*
X845681Y435152D01*
X845702Y435072D01*
X845719Y434990D01*
X845733Y434908D01*
X845742Y434825D01*
X845748Y434742D01*
X845750Y434659D01*
X848636Y435020D02*
X848636Y432856D01*
X848636Y435020D02*
X848634Y435096D01*
X848628Y435171D01*
X848618Y435246D01*
X848604Y435320D01*
X848587Y435393D01*
X848565Y435466D01*
X848540Y435537D01*
X848511Y435607D01*
X848479Y435675D01*
X848443Y435742D01*
X848403Y435806D01*
X848360Y435868D01*
X848314Y435928D01*
X848265Y435986D01*
X848213Y436040D01*
X848159Y436092D01*
X848101Y436141D01*
X848041Y436187D01*
X847979Y436230D01*
X847915Y436270D01*
X847848Y436306D01*
X847780Y436338D01*
X847710Y436367D01*
X847639Y436392D01*
X847566Y436414D01*
X847493Y436431D01*
X847419Y436445D01*
X847344Y436455D01*
X847269Y436461D01*
X847193Y436463D01*
X847117Y436461D01*
X847042Y436455D01*
X846967Y436445D01*
X846893Y436431D01*
X846820Y436414D01*
X846747Y436392D01*
X846676Y436367D01*
X846606Y436338D01*
X846538Y436306D01*
X846472Y436270D01*
X846407Y436230D01*
X846345Y436187D01*
X846285Y436141D01*
X846227Y436092D01*
X846173Y436040D01*
X846121Y435986D01*
X846072Y435928D01*
X846026Y435868D01*
X845983Y435806D01*
X845943Y435742D01*
X845907Y435675D01*
X845875Y435607D01*
X845846Y435537D01*
X845821Y435466D01*
X845799Y435393D01*
X845782Y435320D01*
X845768Y435246D01*
X845758Y435171D01*
X845752Y435096D01*
X845750Y435020D01*
X845751Y435020D02*
X845751Y433577D01*
X836636Y401406D02*
X830144Y401406D01*
X836636Y401406D02*
X836636Y403209D01*
X836634Y403292D01*
X836628Y403375D01*
X836619Y403458D01*
X836605Y403540D01*
X836588Y403622D01*
X836567Y403702D01*
X836543Y403782D01*
X836514Y403860D01*
X836482Y403937D01*
X836447Y404013D01*
X836408Y404086D01*
X836366Y404158D01*
X836320Y404228D01*
X836272Y404296D01*
X836220Y404361D01*
X836165Y404424D01*
X836108Y404484D01*
X836048Y404541D01*
X835985Y404596D01*
X835920Y404648D01*
X835852Y404696D01*
X835782Y404742D01*
X835710Y404784D01*
X835637Y404823D01*
X835561Y404858D01*
X835484Y404890D01*
X835406Y404919D01*
X835326Y404943D01*
X835246Y404964D01*
X835164Y404981D01*
X835082Y404995D01*
X834999Y405004D01*
X834916Y405010D01*
X834833Y405012D01*
X834750Y405010D01*
X834667Y405004D01*
X834584Y404995D01*
X834502Y404981D01*
X834420Y404964D01*
X834340Y404943D01*
X834260Y404919D01*
X834182Y404890D01*
X834105Y404858D01*
X834029Y404823D01*
X833956Y404784D01*
X833884Y404742D01*
X833814Y404696D01*
X833746Y404648D01*
X833681Y404596D01*
X833618Y404541D01*
X833558Y404484D01*
X833501Y404424D01*
X833446Y404361D01*
X833394Y404296D01*
X833346Y404228D01*
X833300Y404158D01*
X833258Y404086D01*
X833219Y404013D01*
X833184Y403937D01*
X833152Y403860D01*
X833123Y403782D01*
X833099Y403702D01*
X833078Y403622D01*
X833061Y403540D01*
X833047Y403458D01*
X833038Y403375D01*
X833032Y403292D01*
X833030Y403209D01*
X833029Y403209D02*
X833029Y401406D01*
X833029Y407348D02*
X831587Y407348D01*
X833029Y407347D02*
X833105Y407349D01*
X833180Y407355D01*
X833255Y407365D01*
X833329Y407379D01*
X833402Y407396D01*
X833475Y407418D01*
X833546Y407443D01*
X833616Y407472D01*
X833684Y407504D01*
X833751Y407540D01*
X833815Y407580D01*
X833877Y407623D01*
X833937Y407669D01*
X833995Y407718D01*
X834049Y407770D01*
X834101Y407824D01*
X834150Y407882D01*
X834196Y407942D01*
X834239Y408004D01*
X834279Y408069D01*
X834315Y408135D01*
X834347Y408203D01*
X834376Y408273D01*
X834401Y408344D01*
X834423Y408417D01*
X834440Y408490D01*
X834454Y408564D01*
X834464Y408639D01*
X834470Y408714D01*
X834472Y408790D01*
X834470Y408866D01*
X834464Y408941D01*
X834454Y409016D01*
X834440Y409090D01*
X834423Y409163D01*
X834401Y409236D01*
X834376Y409307D01*
X834347Y409377D01*
X834315Y409445D01*
X834279Y409512D01*
X834239Y409576D01*
X834196Y409638D01*
X834150Y409698D01*
X834101Y409756D01*
X834049Y409810D01*
X833995Y409862D01*
X833937Y409911D01*
X833877Y409957D01*
X833815Y410000D01*
X833751Y410040D01*
X833684Y410076D01*
X833616Y410108D01*
X833546Y410137D01*
X833475Y410162D01*
X833402Y410184D01*
X833329Y410201D01*
X833255Y410215D01*
X833180Y410225D01*
X833105Y410231D01*
X833029Y410233D01*
X831587Y410233D01*
X831511Y410231D01*
X831436Y410225D01*
X831361Y410215D01*
X831287Y410201D01*
X831214Y410184D01*
X831141Y410162D01*
X831070Y410137D01*
X831000Y410108D01*
X830932Y410076D01*
X830866Y410040D01*
X830801Y410000D01*
X830739Y409957D01*
X830679Y409911D01*
X830621Y409862D01*
X830567Y409810D01*
X830515Y409756D01*
X830466Y409698D01*
X830420Y409638D01*
X830377Y409576D01*
X830337Y409512D01*
X830301Y409445D01*
X830269Y409377D01*
X830240Y409307D01*
X830215Y409236D01*
X830193Y409163D01*
X830176Y409090D01*
X830162Y409016D01*
X830152Y408941D01*
X830146Y408866D01*
X830144Y408790D01*
X830146Y408714D01*
X830152Y408639D01*
X830162Y408564D01*
X830176Y408490D01*
X830193Y408417D01*
X830215Y408344D01*
X830240Y408273D01*
X830269Y408203D01*
X830301Y408135D01*
X830337Y408069D01*
X830377Y408004D01*
X830420Y407942D01*
X830466Y407882D01*
X830515Y407824D01*
X830567Y407770D01*
X830621Y407718D01*
X830679Y407669D01*
X830739Y407623D01*
X830801Y407580D01*
X830866Y407540D01*
X830932Y407504D01*
X831000Y407472D01*
X831070Y407443D01*
X831141Y407418D01*
X831214Y407396D01*
X831287Y407379D01*
X831361Y407365D01*
X831436Y407355D01*
X831511Y407349D01*
X831587Y407347D01*
X831226Y412896D02*
X836636Y412896D01*
X831226Y412896D02*
X831163Y412898D01*
X831100Y412903D01*
X831038Y412912D01*
X830976Y412925D01*
X830916Y412941D01*
X830856Y412961D01*
X830797Y412984D01*
X830740Y413011D01*
X830685Y413041D01*
X830631Y413074D01*
X830580Y413110D01*
X830531Y413149D01*
X830483Y413191D01*
X830439Y413235D01*
X830397Y413283D01*
X830358Y413332D01*
X830322Y413383D01*
X830289Y413437D01*
X830259Y413492D01*
X830232Y413549D01*
X830209Y413608D01*
X830189Y413668D01*
X830173Y413728D01*
X830160Y413790D01*
X830151Y413852D01*
X830146Y413915D01*
X830144Y413978D01*
X831587Y416168D02*
X833029Y416168D01*
X833029Y416167D02*
X833105Y416169D01*
X833180Y416175D01*
X833255Y416185D01*
X833329Y416199D01*
X833402Y416216D01*
X833475Y416238D01*
X833546Y416263D01*
X833616Y416292D01*
X833684Y416324D01*
X833751Y416360D01*
X833815Y416400D01*
X833877Y416443D01*
X833937Y416489D01*
X833995Y416538D01*
X834049Y416590D01*
X834101Y416644D01*
X834150Y416702D01*
X834196Y416762D01*
X834239Y416824D01*
X834279Y416889D01*
X834315Y416955D01*
X834347Y417023D01*
X834376Y417093D01*
X834401Y417164D01*
X834423Y417237D01*
X834440Y417310D01*
X834454Y417384D01*
X834464Y417459D01*
X834470Y417534D01*
X834472Y417610D01*
X834470Y417686D01*
X834464Y417761D01*
X834454Y417836D01*
X834440Y417910D01*
X834423Y417983D01*
X834401Y418056D01*
X834376Y418127D01*
X834347Y418197D01*
X834315Y418265D01*
X834279Y418332D01*
X834239Y418396D01*
X834196Y418458D01*
X834150Y418518D01*
X834101Y418576D01*
X834049Y418630D01*
X833995Y418682D01*
X833937Y418731D01*
X833877Y418777D01*
X833815Y418820D01*
X833751Y418860D01*
X833684Y418896D01*
X833616Y418928D01*
X833546Y418957D01*
X833475Y418982D01*
X833402Y419004D01*
X833329Y419021D01*
X833255Y419035D01*
X833180Y419045D01*
X833105Y419051D01*
X833029Y419053D01*
X831587Y419053D01*
X831511Y419051D01*
X831436Y419045D01*
X831361Y419035D01*
X831287Y419021D01*
X831214Y419004D01*
X831141Y418982D01*
X831070Y418957D01*
X831000Y418928D01*
X830932Y418896D01*
X830866Y418860D01*
X830801Y418820D01*
X830739Y418777D01*
X830679Y418731D01*
X830621Y418682D01*
X830567Y418630D01*
X830515Y418576D01*
X830466Y418518D01*
X830420Y418458D01*
X830377Y418396D01*
X830337Y418332D01*
X830301Y418265D01*
X830269Y418197D01*
X830240Y418127D01*
X830215Y418056D01*
X830193Y417983D01*
X830176Y417910D01*
X830162Y417836D01*
X830152Y417761D01*
X830146Y417686D01*
X830144Y417610D01*
X830146Y417534D01*
X830152Y417459D01*
X830162Y417384D01*
X830176Y417310D01*
X830193Y417237D01*
X830215Y417164D01*
X830240Y417093D01*
X830269Y417023D01*
X830301Y416955D01*
X830337Y416889D01*
X830377Y416824D01*
X830420Y416762D01*
X830466Y416702D01*
X830515Y416644D01*
X830567Y416590D01*
X830621Y416538D01*
X830679Y416489D01*
X830739Y416443D01*
X830801Y416400D01*
X830866Y416360D01*
X830932Y416324D01*
X831000Y416292D01*
X831070Y416263D01*
X831141Y416238D01*
X831214Y416216D01*
X831287Y416199D01*
X831361Y416185D01*
X831436Y416175D01*
X831511Y416169D01*
X831587Y416167D01*
X831226Y421716D02*
X836636Y421716D01*
X831226Y421716D02*
X831163Y421718D01*
X831100Y421723D01*
X831038Y421732D01*
X830976Y421745D01*
X830916Y421761D01*
X830856Y421781D01*
X830797Y421804D01*
X830740Y421831D01*
X830685Y421861D01*
X830631Y421894D01*
X830580Y421930D01*
X830531Y421969D01*
X830483Y422011D01*
X830439Y422055D01*
X830397Y422103D01*
X830358Y422152D01*
X830322Y422203D01*
X830289Y422257D01*
X830259Y422312D01*
X830232Y422369D01*
X830209Y422428D01*
X830189Y422488D01*
X830173Y422548D01*
X830160Y422610D01*
X830151Y422672D01*
X830146Y422735D01*
X830144Y422798D01*
X831226Y425198D02*
X834472Y425198D01*
X831226Y425198D02*
X831163Y425200D01*
X831100Y425205D01*
X831038Y425214D01*
X830976Y425227D01*
X830916Y425243D01*
X830856Y425263D01*
X830797Y425286D01*
X830740Y425313D01*
X830685Y425343D01*
X830631Y425376D01*
X830580Y425412D01*
X830531Y425451D01*
X830483Y425493D01*
X830439Y425537D01*
X830397Y425585D01*
X830358Y425634D01*
X830322Y425685D01*
X830289Y425739D01*
X830259Y425794D01*
X830232Y425851D01*
X830209Y425910D01*
X830189Y425970D01*
X830173Y426030D01*
X830160Y426092D01*
X830151Y426154D01*
X830146Y426217D01*
X830144Y426280D01*
X830144Y428083D01*
X834472Y428083D01*
X836636Y433926D02*
X830144Y436090D01*
X836636Y438254D01*
X833029Y440528D02*
X831587Y440528D01*
X833029Y440527D02*
X833105Y440529D01*
X833180Y440535D01*
X833255Y440545D01*
X833329Y440559D01*
X833402Y440576D01*
X833475Y440598D01*
X833546Y440623D01*
X833616Y440652D01*
X833684Y440684D01*
X833751Y440720D01*
X833815Y440760D01*
X833877Y440803D01*
X833937Y440849D01*
X833995Y440898D01*
X834049Y440950D01*
X834101Y441004D01*
X834150Y441062D01*
X834196Y441122D01*
X834239Y441184D01*
X834279Y441249D01*
X834315Y441315D01*
X834347Y441383D01*
X834376Y441453D01*
X834401Y441524D01*
X834423Y441597D01*
X834440Y441670D01*
X834454Y441744D01*
X834464Y441819D01*
X834470Y441894D01*
X834472Y441970D01*
X834470Y442046D01*
X834464Y442121D01*
X834454Y442196D01*
X834440Y442270D01*
X834423Y442343D01*
X834401Y442416D01*
X834376Y442487D01*
X834347Y442557D01*
X834315Y442625D01*
X834279Y442692D01*
X834239Y442756D01*
X834196Y442818D01*
X834150Y442878D01*
X834101Y442936D01*
X834049Y442990D01*
X833995Y443042D01*
X833937Y443091D01*
X833877Y443137D01*
X833815Y443180D01*
X833751Y443220D01*
X833684Y443256D01*
X833616Y443288D01*
X833546Y443317D01*
X833475Y443342D01*
X833402Y443364D01*
X833329Y443381D01*
X833255Y443395D01*
X833180Y443405D01*
X833105Y443411D01*
X833029Y443413D01*
X831587Y443413D01*
X831511Y443411D01*
X831436Y443405D01*
X831361Y443395D01*
X831287Y443381D01*
X831214Y443364D01*
X831141Y443342D01*
X831070Y443317D01*
X831000Y443288D01*
X830932Y443256D01*
X830866Y443220D01*
X830801Y443180D01*
X830739Y443137D01*
X830679Y443091D01*
X830621Y443042D01*
X830567Y442990D01*
X830515Y442936D01*
X830466Y442878D01*
X830420Y442818D01*
X830377Y442756D01*
X830337Y442692D01*
X830301Y442625D01*
X830269Y442557D01*
X830240Y442487D01*
X830215Y442416D01*
X830193Y442343D01*
X830176Y442270D01*
X830162Y442196D01*
X830152Y442121D01*
X830146Y442046D01*
X830144Y441970D01*
X830146Y441894D01*
X830152Y441819D01*
X830162Y441744D01*
X830176Y441670D01*
X830193Y441597D01*
X830215Y441524D01*
X830240Y441453D01*
X830269Y441383D01*
X830301Y441315D01*
X830337Y441249D01*
X830377Y441184D01*
X830420Y441122D01*
X830466Y441062D01*
X830515Y441004D01*
X830567Y440950D01*
X830621Y440898D01*
X830679Y440849D01*
X830739Y440803D01*
X830801Y440760D01*
X830866Y440720D01*
X830932Y440684D01*
X831000Y440652D01*
X831070Y440623D01*
X831141Y440598D01*
X831214Y440576D01*
X831287Y440559D01*
X831361Y440545D01*
X831436Y440535D01*
X831511Y440529D01*
X831587Y440527D01*
X831226Y446076D02*
X836636Y446076D01*
X831226Y446076D02*
X831163Y446078D01*
X831100Y446083D01*
X831038Y446092D01*
X830976Y446105D01*
X830916Y446121D01*
X830856Y446141D01*
X830797Y446164D01*
X830740Y446191D01*
X830685Y446221D01*
X830631Y446254D01*
X830580Y446290D01*
X830531Y446329D01*
X830483Y446371D01*
X830439Y446415D01*
X830397Y446463D01*
X830358Y446512D01*
X830322Y446563D01*
X830289Y446617D01*
X830259Y446672D01*
X830232Y446729D01*
X830209Y446788D01*
X830189Y446848D01*
X830173Y446908D01*
X830160Y446970D01*
X830151Y447032D01*
X830146Y447095D01*
X830144Y447158D01*
X834472Y448820D02*
X834472Y450984D01*
X836636Y449541D02*
X831226Y449541D01*
X831163Y449543D01*
X831100Y449548D01*
X831038Y449557D01*
X830976Y449570D01*
X830916Y449586D01*
X830856Y449606D01*
X830797Y449629D01*
X830740Y449656D01*
X830685Y449686D01*
X830631Y449719D01*
X830580Y449755D01*
X830531Y449794D01*
X830483Y449836D01*
X830439Y449880D01*
X830397Y449928D01*
X830358Y449977D01*
X830322Y450028D01*
X830289Y450082D01*
X830259Y450137D01*
X830232Y450194D01*
X830209Y450253D01*
X830189Y450313D01*
X830173Y450373D01*
X830160Y450435D01*
X830151Y450497D01*
X830146Y450560D01*
X830144Y450623D01*
X830144Y450984D01*
X832669Y454569D02*
X832669Y456192D01*
X832668Y454569D02*
X832666Y454499D01*
X832660Y454430D01*
X832651Y454361D01*
X832637Y454293D01*
X832620Y454226D01*
X832600Y454159D01*
X832575Y454094D01*
X832547Y454030D01*
X832516Y453968D01*
X832481Y453908D01*
X832443Y453850D01*
X832402Y453794D01*
X832358Y453740D01*
X832311Y453689D01*
X832261Y453641D01*
X832208Y453595D01*
X832153Y453552D01*
X832096Y453512D01*
X832037Y453476D01*
X831976Y453443D01*
X831913Y453413D01*
X831849Y453387D01*
X831783Y453365D01*
X831716Y453346D01*
X831648Y453330D01*
X831579Y453319D01*
X831510Y453311D01*
X831441Y453307D01*
X831371Y453307D01*
X831302Y453311D01*
X831233Y453319D01*
X831164Y453330D01*
X831096Y453346D01*
X831029Y453365D01*
X830963Y453387D01*
X830899Y453413D01*
X830836Y453443D01*
X830775Y453476D01*
X830716Y453512D01*
X830659Y453552D01*
X830604Y453595D01*
X830551Y453641D01*
X830501Y453689D01*
X830454Y453740D01*
X830410Y453794D01*
X830369Y453850D01*
X830331Y453908D01*
X830296Y453968D01*
X830265Y454030D01*
X830237Y454094D01*
X830212Y454159D01*
X830192Y454226D01*
X830175Y454293D01*
X830161Y454361D01*
X830152Y454430D01*
X830146Y454499D01*
X830144Y454569D01*
X830144Y456192D01*
X833390Y456192D01*
X833453Y456190D01*
X833516Y456185D01*
X833578Y456176D01*
X833640Y456163D01*
X833700Y456147D01*
X833760Y456127D01*
X833819Y456104D01*
X833876Y456077D01*
X833931Y456047D01*
X833985Y456014D01*
X834036Y455978D01*
X834085Y455939D01*
X834133Y455897D01*
X834177Y455853D01*
X834219Y455805D01*
X834258Y455756D01*
X834294Y455705D01*
X834327Y455651D01*
X834357Y455596D01*
X834384Y455539D01*
X834407Y455480D01*
X834427Y455420D01*
X834443Y455360D01*
X834456Y455298D01*
X834465Y455236D01*
X834470Y455173D01*
X834472Y455110D01*
X834472Y453667D01*
X830144Y460059D02*
X830144Y461862D01*
X830144Y460059D02*
X830146Y459996D01*
X830151Y459933D01*
X830160Y459871D01*
X830173Y459809D01*
X830189Y459749D01*
X830209Y459689D01*
X830232Y459630D01*
X830259Y459573D01*
X830289Y459518D01*
X830322Y459464D01*
X830358Y459413D01*
X830397Y459364D01*
X830439Y459316D01*
X830483Y459272D01*
X830531Y459230D01*
X830580Y459191D01*
X830631Y459155D01*
X830685Y459122D01*
X830740Y459092D01*
X830797Y459065D01*
X830856Y459042D01*
X830916Y459022D01*
X830976Y459006D01*
X831038Y458993D01*
X831100Y458984D01*
X831163Y458979D01*
X831226Y458977D01*
X833390Y458977D01*
X833453Y458979D01*
X833516Y458984D01*
X833578Y458993D01*
X833640Y459006D01*
X833700Y459022D01*
X833760Y459042D01*
X833819Y459065D01*
X833876Y459092D01*
X833931Y459122D01*
X833985Y459155D01*
X834036Y459191D01*
X834085Y459230D01*
X834133Y459272D01*
X834177Y459316D01*
X834219Y459364D01*
X834258Y459413D01*
X834294Y459464D01*
X834327Y459518D01*
X834357Y459573D01*
X834384Y459630D01*
X834407Y459689D01*
X834427Y459749D01*
X834443Y459809D01*
X834456Y459871D01*
X834465Y459933D01*
X834470Y459996D01*
X834472Y460059D01*
X834472Y461862D01*
X829062Y461862D01*
X828999Y461860D01*
X828936Y461855D01*
X828874Y461846D01*
X828812Y461833D01*
X828752Y461817D01*
X828692Y461797D01*
X828633Y461774D01*
X828576Y461747D01*
X828521Y461717D01*
X828467Y461684D01*
X828416Y461648D01*
X828367Y461609D01*
X828319Y461567D01*
X828275Y461523D01*
X828233Y461475D01*
X828194Y461426D01*
X828158Y461375D01*
X828125Y461321D01*
X828095Y461266D01*
X828068Y461209D01*
X828045Y461150D01*
X828025Y461090D01*
X828009Y461030D01*
X827996Y460968D01*
X827987Y460906D01*
X827982Y460843D01*
X827980Y460780D01*
X827980Y459337D01*
X830144Y465759D02*
X830144Y467563D01*
X830144Y465759D02*
X830146Y465696D01*
X830151Y465633D01*
X830160Y465571D01*
X830173Y465509D01*
X830189Y465449D01*
X830209Y465389D01*
X830232Y465330D01*
X830259Y465273D01*
X830289Y465218D01*
X830322Y465164D01*
X830358Y465113D01*
X830397Y465064D01*
X830439Y465016D01*
X830483Y464972D01*
X830531Y464930D01*
X830580Y464891D01*
X830631Y464855D01*
X830685Y464822D01*
X830740Y464792D01*
X830797Y464765D01*
X830856Y464742D01*
X830916Y464722D01*
X830976Y464706D01*
X831038Y464693D01*
X831100Y464684D01*
X831163Y464679D01*
X831226Y464677D01*
X833029Y464677D01*
X833105Y464679D01*
X833180Y464685D01*
X833255Y464695D01*
X833329Y464709D01*
X833402Y464726D01*
X833475Y464748D01*
X833546Y464773D01*
X833616Y464802D01*
X833684Y464834D01*
X833751Y464870D01*
X833815Y464910D01*
X833877Y464953D01*
X833937Y464999D01*
X833995Y465048D01*
X834049Y465100D01*
X834101Y465154D01*
X834150Y465212D01*
X834196Y465272D01*
X834239Y465334D01*
X834279Y465399D01*
X834315Y465465D01*
X834347Y465533D01*
X834376Y465603D01*
X834401Y465674D01*
X834423Y465747D01*
X834440Y465820D01*
X834454Y465894D01*
X834464Y465969D01*
X834470Y466044D01*
X834472Y466120D01*
X834470Y466196D01*
X834464Y466271D01*
X834454Y466346D01*
X834440Y466420D01*
X834423Y466493D01*
X834401Y466566D01*
X834376Y466637D01*
X834347Y466707D01*
X834315Y466775D01*
X834279Y466842D01*
X834239Y466906D01*
X834196Y466968D01*
X834150Y467028D01*
X834101Y467086D01*
X834049Y467140D01*
X833995Y467192D01*
X833937Y467241D01*
X833877Y467287D01*
X833815Y467330D01*
X833751Y467370D01*
X833684Y467406D01*
X833616Y467438D01*
X833546Y467467D01*
X833475Y467492D01*
X833402Y467514D01*
X833329Y467531D01*
X833255Y467545D01*
X833180Y467555D01*
X833105Y467561D01*
X833029Y467563D01*
X832308Y467563D01*
X832308Y464677D01*
X830144Y474982D02*
X830144Y476425D01*
X830144Y474982D02*
X830146Y474906D01*
X830152Y474831D01*
X830162Y474756D01*
X830176Y474682D01*
X830193Y474609D01*
X830215Y474536D01*
X830240Y474465D01*
X830269Y474395D01*
X830301Y474327D01*
X830337Y474261D01*
X830377Y474196D01*
X830420Y474134D01*
X830466Y474074D01*
X830515Y474016D01*
X830567Y473962D01*
X830621Y473910D01*
X830679Y473861D01*
X830739Y473815D01*
X830801Y473772D01*
X830866Y473732D01*
X830932Y473696D01*
X831000Y473664D01*
X831070Y473635D01*
X831141Y473610D01*
X831214Y473588D01*
X831287Y473571D01*
X831361Y473557D01*
X831436Y473547D01*
X831511Y473541D01*
X831587Y473539D01*
X835193Y473539D01*
X835269Y473541D01*
X835344Y473547D01*
X835419Y473557D01*
X835493Y473571D01*
X835566Y473588D01*
X835639Y473610D01*
X835710Y473635D01*
X835780Y473664D01*
X835848Y473696D01*
X835914Y473732D01*
X835979Y473772D01*
X836041Y473815D01*
X836101Y473861D01*
X836159Y473910D01*
X836213Y473962D01*
X836265Y474016D01*
X836314Y474074D01*
X836360Y474134D01*
X836403Y474196D01*
X836443Y474260D01*
X836479Y474327D01*
X836511Y474395D01*
X836540Y474465D01*
X836565Y474536D01*
X836587Y474608D01*
X836604Y474682D01*
X836618Y474756D01*
X836628Y474831D01*
X836634Y474906D01*
X836636Y474982D01*
X836636Y476425D01*
X833029Y478747D02*
X831587Y478747D01*
X833029Y478747D02*
X833105Y478749D01*
X833180Y478755D01*
X833255Y478765D01*
X833329Y478779D01*
X833402Y478796D01*
X833475Y478818D01*
X833546Y478843D01*
X833616Y478872D01*
X833684Y478904D01*
X833751Y478940D01*
X833815Y478980D01*
X833877Y479023D01*
X833937Y479069D01*
X833995Y479118D01*
X834049Y479170D01*
X834101Y479224D01*
X834150Y479282D01*
X834196Y479342D01*
X834239Y479404D01*
X834279Y479469D01*
X834315Y479535D01*
X834347Y479603D01*
X834376Y479673D01*
X834401Y479744D01*
X834423Y479817D01*
X834440Y479890D01*
X834454Y479964D01*
X834464Y480039D01*
X834470Y480114D01*
X834472Y480190D01*
X834470Y480266D01*
X834464Y480341D01*
X834454Y480416D01*
X834440Y480490D01*
X834423Y480563D01*
X834401Y480636D01*
X834376Y480707D01*
X834347Y480777D01*
X834315Y480845D01*
X834279Y480912D01*
X834239Y480976D01*
X834196Y481038D01*
X834150Y481098D01*
X834101Y481156D01*
X834049Y481210D01*
X833995Y481262D01*
X833937Y481311D01*
X833877Y481357D01*
X833815Y481400D01*
X833751Y481440D01*
X833684Y481476D01*
X833616Y481508D01*
X833546Y481537D01*
X833475Y481562D01*
X833402Y481584D01*
X833329Y481601D01*
X833255Y481615D01*
X833180Y481625D01*
X833105Y481631D01*
X833029Y481633D01*
X831587Y481633D01*
X831511Y481631D01*
X831436Y481625D01*
X831361Y481615D01*
X831287Y481601D01*
X831214Y481584D01*
X831141Y481562D01*
X831070Y481537D01*
X831000Y481508D01*
X830932Y481476D01*
X830866Y481440D01*
X830801Y481400D01*
X830739Y481357D01*
X830679Y481311D01*
X830621Y481262D01*
X830567Y481210D01*
X830515Y481156D01*
X830466Y481098D01*
X830420Y481038D01*
X830377Y480976D01*
X830337Y480912D01*
X830301Y480845D01*
X830269Y480777D01*
X830240Y480707D01*
X830215Y480636D01*
X830193Y480563D01*
X830176Y480490D01*
X830162Y480416D01*
X830152Y480341D01*
X830146Y480266D01*
X830144Y480190D01*
X830146Y480114D01*
X830152Y480039D01*
X830162Y479964D01*
X830176Y479890D01*
X830193Y479817D01*
X830215Y479744D01*
X830240Y479673D01*
X830269Y479603D01*
X830301Y479535D01*
X830337Y479469D01*
X830377Y479404D01*
X830420Y479342D01*
X830466Y479282D01*
X830515Y479224D01*
X830567Y479170D01*
X830621Y479118D01*
X830679Y479069D01*
X830739Y479023D01*
X830801Y478980D01*
X830866Y478940D01*
X830932Y478904D01*
X831000Y478872D01*
X831070Y478843D01*
X831141Y478818D01*
X831214Y478796D01*
X831287Y478779D01*
X831361Y478765D01*
X831436Y478755D01*
X831511Y478749D01*
X831587Y478747D01*
X830144Y484417D02*
X834472Y484417D01*
X834472Y486221D01*
X834470Y486284D01*
X834465Y486347D01*
X834456Y486409D01*
X834443Y486471D01*
X834427Y486531D01*
X834407Y486591D01*
X834384Y486650D01*
X834357Y486707D01*
X834327Y486762D01*
X834294Y486816D01*
X834258Y486867D01*
X834219Y486916D01*
X834177Y486964D01*
X834133Y487008D01*
X834085Y487050D01*
X834036Y487089D01*
X833985Y487125D01*
X833931Y487158D01*
X833876Y487188D01*
X833819Y487215D01*
X833760Y487238D01*
X833700Y487258D01*
X833640Y487274D01*
X833578Y487287D01*
X833516Y487296D01*
X833453Y487301D01*
X833390Y487303D01*
X830144Y487303D01*
X830144Y491320D02*
X834472Y489877D01*
X834472Y492763D02*
X830144Y491320D01*
X830144Y496209D02*
X830144Y498013D01*
X830144Y496209D02*
X830146Y496146D01*
X830151Y496083D01*
X830160Y496021D01*
X830173Y495959D01*
X830189Y495899D01*
X830209Y495839D01*
X830232Y495780D01*
X830259Y495723D01*
X830289Y495668D01*
X830322Y495614D01*
X830358Y495563D01*
X830397Y495514D01*
X830439Y495466D01*
X830483Y495422D01*
X830531Y495380D01*
X830580Y495341D01*
X830631Y495305D01*
X830685Y495272D01*
X830740Y495242D01*
X830797Y495215D01*
X830856Y495192D01*
X830916Y495172D01*
X830976Y495156D01*
X831038Y495143D01*
X831100Y495134D01*
X831163Y495129D01*
X831226Y495127D01*
X833029Y495127D01*
X833105Y495129D01*
X833180Y495135D01*
X833255Y495145D01*
X833329Y495159D01*
X833402Y495176D01*
X833475Y495198D01*
X833546Y495223D01*
X833616Y495252D01*
X833684Y495284D01*
X833751Y495320D01*
X833815Y495360D01*
X833877Y495403D01*
X833937Y495449D01*
X833995Y495498D01*
X834049Y495550D01*
X834101Y495604D01*
X834150Y495662D01*
X834196Y495722D01*
X834239Y495784D01*
X834279Y495849D01*
X834315Y495915D01*
X834347Y495983D01*
X834376Y496053D01*
X834401Y496124D01*
X834423Y496197D01*
X834440Y496270D01*
X834454Y496344D01*
X834464Y496419D01*
X834470Y496494D01*
X834472Y496570D01*
X834470Y496646D01*
X834464Y496721D01*
X834454Y496796D01*
X834440Y496870D01*
X834423Y496943D01*
X834401Y497016D01*
X834376Y497087D01*
X834347Y497157D01*
X834315Y497225D01*
X834279Y497292D01*
X834239Y497356D01*
X834196Y497418D01*
X834150Y497478D01*
X834101Y497536D01*
X834049Y497590D01*
X833995Y497642D01*
X833937Y497691D01*
X833877Y497737D01*
X833815Y497780D01*
X833751Y497820D01*
X833684Y497856D01*
X833616Y497888D01*
X833546Y497917D01*
X833475Y497942D01*
X833402Y497964D01*
X833329Y497981D01*
X833255Y497995D01*
X833180Y498005D01*
X833105Y498011D01*
X833029Y498013D01*
X832308Y498013D01*
X832308Y495127D01*
X830144Y500832D02*
X834472Y500832D01*
X834472Y502996D01*
X833751Y502996D01*
X834472Y504470D02*
X834472Y506634D01*
X836636Y505191D02*
X831226Y505191D01*
X831163Y505193D01*
X831100Y505198D01*
X831038Y505207D01*
X830976Y505220D01*
X830916Y505236D01*
X830856Y505256D01*
X830797Y505279D01*
X830740Y505306D01*
X830685Y505336D01*
X830631Y505369D01*
X830580Y505405D01*
X830531Y505444D01*
X830483Y505486D01*
X830439Y505530D01*
X830397Y505578D01*
X830358Y505627D01*
X830322Y505678D01*
X830289Y505732D01*
X830259Y505787D01*
X830232Y505844D01*
X830209Y505903D01*
X830189Y505963D01*
X830173Y506023D01*
X830160Y506085D01*
X830151Y506147D01*
X830146Y506210D01*
X830144Y506273D01*
X830144Y506634D01*
X830144Y510069D02*
X830144Y511873D01*
X830144Y510069D02*
X830146Y510006D01*
X830151Y509943D01*
X830160Y509881D01*
X830173Y509819D01*
X830189Y509759D01*
X830209Y509699D01*
X830232Y509640D01*
X830259Y509583D01*
X830289Y509528D01*
X830322Y509474D01*
X830358Y509423D01*
X830397Y509374D01*
X830439Y509326D01*
X830483Y509282D01*
X830531Y509240D01*
X830580Y509201D01*
X830631Y509165D01*
X830685Y509132D01*
X830740Y509102D01*
X830797Y509075D01*
X830856Y509052D01*
X830916Y509032D01*
X830976Y509016D01*
X831038Y509003D01*
X831100Y508994D01*
X831163Y508989D01*
X831226Y508987D01*
X833029Y508987D01*
X833105Y508989D01*
X833180Y508995D01*
X833255Y509005D01*
X833329Y509019D01*
X833402Y509036D01*
X833475Y509058D01*
X833546Y509083D01*
X833616Y509112D01*
X833684Y509144D01*
X833751Y509180D01*
X833815Y509220D01*
X833877Y509263D01*
X833937Y509309D01*
X833995Y509358D01*
X834049Y509410D01*
X834101Y509464D01*
X834150Y509522D01*
X834196Y509582D01*
X834239Y509644D01*
X834279Y509709D01*
X834315Y509775D01*
X834347Y509843D01*
X834376Y509913D01*
X834401Y509984D01*
X834423Y510057D01*
X834440Y510130D01*
X834454Y510204D01*
X834464Y510279D01*
X834470Y510354D01*
X834472Y510430D01*
X834470Y510506D01*
X834464Y510581D01*
X834454Y510656D01*
X834440Y510730D01*
X834423Y510803D01*
X834401Y510876D01*
X834376Y510947D01*
X834347Y511017D01*
X834315Y511085D01*
X834279Y511152D01*
X834239Y511216D01*
X834196Y511278D01*
X834150Y511338D01*
X834101Y511396D01*
X834049Y511450D01*
X833995Y511502D01*
X833937Y511551D01*
X833877Y511597D01*
X833815Y511640D01*
X833751Y511680D01*
X833684Y511716D01*
X833616Y511748D01*
X833546Y511777D01*
X833475Y511802D01*
X833402Y511824D01*
X833329Y511841D01*
X833255Y511855D01*
X833180Y511865D01*
X833105Y511871D01*
X833029Y511873D01*
X832308Y511873D01*
X832308Y508987D01*
X830144Y514692D02*
X834472Y514692D01*
X834472Y516856D01*
X833751Y516856D01*
M02*
