G04 EAGLE Gerber RS-274X export*
G75*
%MOMM*%
%FSLAX34Y34*%
%LPD*%
%INSilkscreen Top*%
%IPPOS*%
%AMOC8*
5,1,8,0,0,1.08239X$1,22.5*%
G01*
%ADD10C,0.254000*%
%ADD11C,0.127000*%
%ADD12C,0.101600*%
%ADD13C,0.050800*%
%ADD14C,0.152400*%
%ADD15R,0.350000X0.250000*%


D10*
X622554Y353314D02*
X622554Y327914D01*
X673354Y327914D01*
X647954Y353314D02*
X622554Y353314D01*
X647954Y353314D02*
X673354Y353314D01*
X673354Y327914D01*
X647954Y327914D02*
X647954Y353314D01*
D11*
X625602Y365887D02*
X622427Y365887D01*
X625602Y365887D02*
X625713Y365885D01*
X625823Y365879D01*
X625934Y365870D01*
X626044Y365856D01*
X626153Y365839D01*
X626262Y365818D01*
X626370Y365793D01*
X626477Y365764D01*
X626583Y365732D01*
X626688Y365696D01*
X626791Y365656D01*
X626893Y365613D01*
X626994Y365566D01*
X627093Y365515D01*
X627190Y365462D01*
X627284Y365405D01*
X627377Y365344D01*
X627468Y365281D01*
X627557Y365214D01*
X627643Y365144D01*
X627726Y365071D01*
X627808Y364996D01*
X627886Y364918D01*
X627961Y364836D01*
X628034Y364753D01*
X628104Y364667D01*
X628171Y364578D01*
X628234Y364487D01*
X628295Y364394D01*
X628352Y364299D01*
X628405Y364203D01*
X628456Y364104D01*
X628503Y364003D01*
X628546Y363901D01*
X628586Y363798D01*
X628622Y363693D01*
X628654Y363587D01*
X628683Y363480D01*
X628708Y363372D01*
X628729Y363263D01*
X628746Y363154D01*
X628760Y363044D01*
X628769Y362933D01*
X628775Y362823D01*
X628777Y362712D01*
X628775Y362601D01*
X628769Y362491D01*
X628760Y362380D01*
X628746Y362270D01*
X628729Y362161D01*
X628708Y362052D01*
X628683Y361944D01*
X628654Y361837D01*
X628622Y361731D01*
X628586Y361626D01*
X628546Y361523D01*
X628503Y361421D01*
X628456Y361320D01*
X628405Y361221D01*
X628352Y361124D01*
X628295Y361030D01*
X628234Y360937D01*
X628171Y360846D01*
X628104Y360757D01*
X628034Y360671D01*
X627961Y360588D01*
X627886Y360506D01*
X627808Y360428D01*
X627726Y360353D01*
X627643Y360280D01*
X627557Y360210D01*
X627468Y360143D01*
X627377Y360080D01*
X627284Y360019D01*
X627190Y359962D01*
X627093Y359909D01*
X626994Y359858D01*
X626893Y359811D01*
X626791Y359768D01*
X626688Y359728D01*
X626583Y359692D01*
X626477Y359660D01*
X626370Y359631D01*
X626262Y359606D01*
X626153Y359585D01*
X626044Y359568D01*
X625934Y359554D01*
X625823Y359545D01*
X625713Y359539D01*
X625602Y359537D01*
X622427Y359537D01*
X622427Y370967D01*
X625602Y370967D01*
X625702Y370965D01*
X625801Y370959D01*
X625901Y370949D01*
X625999Y370936D01*
X626098Y370918D01*
X626195Y370897D01*
X626291Y370872D01*
X626387Y370843D01*
X626481Y370810D01*
X626574Y370774D01*
X626665Y370734D01*
X626755Y370690D01*
X626843Y370643D01*
X626929Y370593D01*
X627013Y370539D01*
X627095Y370482D01*
X627174Y370422D01*
X627252Y370358D01*
X627326Y370292D01*
X627398Y370223D01*
X627467Y370151D01*
X627533Y370077D01*
X627597Y369999D01*
X627657Y369920D01*
X627714Y369838D01*
X627768Y369754D01*
X627818Y369668D01*
X627865Y369580D01*
X627909Y369490D01*
X627949Y369399D01*
X627985Y369306D01*
X628018Y369212D01*
X628047Y369116D01*
X628072Y369020D01*
X628093Y368923D01*
X628111Y368824D01*
X628124Y368726D01*
X628134Y368626D01*
X628140Y368527D01*
X628142Y368427D01*
X628140Y368327D01*
X628134Y368228D01*
X628124Y368128D01*
X628111Y368030D01*
X628093Y367931D01*
X628072Y367834D01*
X628047Y367738D01*
X628018Y367642D01*
X627985Y367548D01*
X627949Y367455D01*
X627909Y367364D01*
X627865Y367274D01*
X627818Y367186D01*
X627768Y367100D01*
X627714Y367016D01*
X627657Y366934D01*
X627597Y366855D01*
X627533Y366777D01*
X627467Y366703D01*
X627398Y366631D01*
X627326Y366562D01*
X627252Y366496D01*
X627174Y366432D01*
X627095Y366372D01*
X627013Y366315D01*
X626929Y366261D01*
X626843Y366211D01*
X626755Y366164D01*
X626665Y366120D01*
X626574Y366080D01*
X626481Y366044D01*
X626387Y366011D01*
X626291Y365982D01*
X626195Y365957D01*
X626098Y365936D01*
X625999Y365918D01*
X625901Y365905D01*
X625801Y365895D01*
X625702Y365889D01*
X625602Y365887D01*
X632651Y359537D02*
X636461Y370967D01*
X640271Y359537D01*
X639318Y362395D02*
X633603Y362395D01*
X647129Y359537D02*
X647129Y370967D01*
X643954Y370967D02*
X650304Y370967D01*
X654622Y368427D02*
X657797Y370967D01*
X657797Y359537D01*
X654622Y359537D02*
X660972Y359537D01*
D10*
X1059180Y345186D02*
X1059180Y319786D01*
X1109980Y319786D01*
X1084580Y345186D02*
X1059180Y345186D01*
X1084580Y345186D02*
X1109980Y345186D01*
X1109980Y319786D01*
X1084580Y319786D02*
X1084580Y345186D01*
D11*
X1062228Y357759D02*
X1059053Y357759D01*
X1062228Y357759D02*
X1062339Y357757D01*
X1062449Y357751D01*
X1062560Y357742D01*
X1062670Y357728D01*
X1062779Y357711D01*
X1062888Y357690D01*
X1062996Y357665D01*
X1063103Y357636D01*
X1063209Y357604D01*
X1063314Y357568D01*
X1063417Y357528D01*
X1063519Y357485D01*
X1063620Y357438D01*
X1063719Y357387D01*
X1063816Y357334D01*
X1063910Y357277D01*
X1064003Y357216D01*
X1064094Y357153D01*
X1064183Y357086D01*
X1064269Y357016D01*
X1064352Y356943D01*
X1064434Y356868D01*
X1064512Y356790D01*
X1064587Y356708D01*
X1064660Y356625D01*
X1064730Y356539D01*
X1064797Y356450D01*
X1064860Y356359D01*
X1064921Y356266D01*
X1064978Y356171D01*
X1065031Y356075D01*
X1065082Y355976D01*
X1065129Y355875D01*
X1065172Y355773D01*
X1065212Y355670D01*
X1065248Y355565D01*
X1065280Y355459D01*
X1065309Y355352D01*
X1065334Y355244D01*
X1065355Y355135D01*
X1065372Y355026D01*
X1065386Y354916D01*
X1065395Y354805D01*
X1065401Y354695D01*
X1065403Y354584D01*
X1065401Y354473D01*
X1065395Y354363D01*
X1065386Y354252D01*
X1065372Y354142D01*
X1065355Y354033D01*
X1065334Y353924D01*
X1065309Y353816D01*
X1065280Y353709D01*
X1065248Y353603D01*
X1065212Y353498D01*
X1065172Y353395D01*
X1065129Y353293D01*
X1065082Y353192D01*
X1065031Y353093D01*
X1064978Y352996D01*
X1064921Y352902D01*
X1064860Y352809D01*
X1064797Y352718D01*
X1064730Y352629D01*
X1064660Y352543D01*
X1064587Y352460D01*
X1064512Y352378D01*
X1064434Y352300D01*
X1064352Y352225D01*
X1064269Y352152D01*
X1064183Y352082D01*
X1064094Y352015D01*
X1064003Y351952D01*
X1063910Y351891D01*
X1063816Y351834D01*
X1063719Y351781D01*
X1063620Y351730D01*
X1063519Y351683D01*
X1063417Y351640D01*
X1063314Y351600D01*
X1063209Y351564D01*
X1063103Y351532D01*
X1062996Y351503D01*
X1062888Y351478D01*
X1062779Y351457D01*
X1062670Y351440D01*
X1062560Y351426D01*
X1062449Y351417D01*
X1062339Y351411D01*
X1062228Y351409D01*
X1059053Y351409D01*
X1059053Y362839D01*
X1062228Y362839D01*
X1062328Y362837D01*
X1062427Y362831D01*
X1062527Y362821D01*
X1062625Y362808D01*
X1062724Y362790D01*
X1062821Y362769D01*
X1062917Y362744D01*
X1063013Y362715D01*
X1063107Y362682D01*
X1063200Y362646D01*
X1063291Y362606D01*
X1063381Y362562D01*
X1063469Y362515D01*
X1063555Y362465D01*
X1063639Y362411D01*
X1063721Y362354D01*
X1063800Y362294D01*
X1063878Y362230D01*
X1063952Y362164D01*
X1064024Y362095D01*
X1064093Y362023D01*
X1064159Y361949D01*
X1064223Y361871D01*
X1064283Y361792D01*
X1064340Y361710D01*
X1064394Y361626D01*
X1064444Y361540D01*
X1064491Y361452D01*
X1064535Y361362D01*
X1064575Y361271D01*
X1064611Y361178D01*
X1064644Y361084D01*
X1064673Y360988D01*
X1064698Y360892D01*
X1064719Y360795D01*
X1064737Y360696D01*
X1064750Y360598D01*
X1064760Y360498D01*
X1064766Y360399D01*
X1064768Y360299D01*
X1064766Y360199D01*
X1064760Y360100D01*
X1064750Y360000D01*
X1064737Y359902D01*
X1064719Y359803D01*
X1064698Y359706D01*
X1064673Y359610D01*
X1064644Y359514D01*
X1064611Y359420D01*
X1064575Y359327D01*
X1064535Y359236D01*
X1064491Y359146D01*
X1064444Y359058D01*
X1064394Y358972D01*
X1064340Y358888D01*
X1064283Y358806D01*
X1064223Y358727D01*
X1064159Y358649D01*
X1064093Y358575D01*
X1064024Y358503D01*
X1063952Y358434D01*
X1063878Y358368D01*
X1063800Y358304D01*
X1063721Y358244D01*
X1063639Y358187D01*
X1063555Y358133D01*
X1063469Y358083D01*
X1063381Y358036D01*
X1063291Y357992D01*
X1063200Y357952D01*
X1063107Y357916D01*
X1063013Y357883D01*
X1062917Y357854D01*
X1062821Y357829D01*
X1062724Y357808D01*
X1062625Y357790D01*
X1062527Y357777D01*
X1062427Y357767D01*
X1062328Y357761D01*
X1062228Y357759D01*
X1069277Y351409D02*
X1073087Y362839D01*
X1076897Y351409D01*
X1075944Y354267D02*
X1070229Y354267D01*
X1083755Y351409D02*
X1083755Y362839D01*
X1080580Y362839D02*
X1086930Y362839D01*
X1094740Y362840D02*
X1094844Y362838D01*
X1094949Y362832D01*
X1095053Y362823D01*
X1095156Y362810D01*
X1095259Y362792D01*
X1095361Y362772D01*
X1095463Y362747D01*
X1095563Y362719D01*
X1095663Y362687D01*
X1095761Y362651D01*
X1095858Y362612D01*
X1095953Y362570D01*
X1096047Y362524D01*
X1096139Y362474D01*
X1096229Y362422D01*
X1096317Y362366D01*
X1096403Y362306D01*
X1096487Y362244D01*
X1096568Y362179D01*
X1096647Y362111D01*
X1096724Y362039D01*
X1096797Y361966D01*
X1096869Y361889D01*
X1096937Y361810D01*
X1097002Y361729D01*
X1097064Y361645D01*
X1097124Y361559D01*
X1097180Y361471D01*
X1097232Y361381D01*
X1097282Y361289D01*
X1097328Y361195D01*
X1097370Y361100D01*
X1097409Y361003D01*
X1097445Y360905D01*
X1097477Y360805D01*
X1097505Y360705D01*
X1097530Y360603D01*
X1097550Y360501D01*
X1097568Y360398D01*
X1097581Y360295D01*
X1097590Y360191D01*
X1097596Y360086D01*
X1097598Y359982D01*
X1094740Y362839D02*
X1094622Y362837D01*
X1094503Y362831D01*
X1094385Y362822D01*
X1094268Y362809D01*
X1094151Y362791D01*
X1094034Y362771D01*
X1093918Y362746D01*
X1093803Y362718D01*
X1093690Y362685D01*
X1093577Y362650D01*
X1093465Y362610D01*
X1093355Y362568D01*
X1093246Y362521D01*
X1093138Y362471D01*
X1093033Y362418D01*
X1092929Y362361D01*
X1092827Y362301D01*
X1092727Y362238D01*
X1092629Y362171D01*
X1092533Y362102D01*
X1092440Y362029D01*
X1092349Y361953D01*
X1092260Y361875D01*
X1092174Y361793D01*
X1092091Y361709D01*
X1092010Y361623D01*
X1091933Y361533D01*
X1091858Y361442D01*
X1091786Y361348D01*
X1091717Y361251D01*
X1091652Y361153D01*
X1091589Y361052D01*
X1091530Y360949D01*
X1091474Y360845D01*
X1091422Y360739D01*
X1091373Y360631D01*
X1091328Y360522D01*
X1091286Y360411D01*
X1091248Y360299D01*
X1096645Y357760D02*
X1096721Y357835D01*
X1096796Y357914D01*
X1096867Y357995D01*
X1096936Y358079D01*
X1097001Y358165D01*
X1097063Y358253D01*
X1097123Y358343D01*
X1097179Y358435D01*
X1097232Y358530D01*
X1097281Y358626D01*
X1097327Y358724D01*
X1097370Y358823D01*
X1097409Y358924D01*
X1097444Y359026D01*
X1097476Y359129D01*
X1097504Y359233D01*
X1097529Y359338D01*
X1097550Y359445D01*
X1097567Y359551D01*
X1097580Y359658D01*
X1097589Y359766D01*
X1097595Y359874D01*
X1097597Y359982D01*
X1096645Y357759D02*
X1091248Y351409D01*
X1097598Y351409D01*
D12*
X734935Y411226D02*
X732338Y411226D01*
X732239Y411228D01*
X732139Y411234D01*
X732040Y411243D01*
X731942Y411256D01*
X731844Y411273D01*
X731746Y411294D01*
X731650Y411319D01*
X731555Y411347D01*
X731461Y411379D01*
X731368Y411414D01*
X731276Y411453D01*
X731186Y411496D01*
X731098Y411541D01*
X731011Y411591D01*
X730927Y411643D01*
X730844Y411699D01*
X730764Y411757D01*
X730686Y411819D01*
X730611Y411884D01*
X730538Y411952D01*
X730468Y412022D01*
X730400Y412095D01*
X730335Y412170D01*
X730273Y412248D01*
X730215Y412328D01*
X730159Y412411D01*
X730107Y412495D01*
X730057Y412582D01*
X730012Y412670D01*
X729969Y412760D01*
X729930Y412852D01*
X729895Y412945D01*
X729863Y413039D01*
X729835Y413134D01*
X729810Y413230D01*
X729789Y413328D01*
X729772Y413426D01*
X729759Y413524D01*
X729750Y413623D01*
X729744Y413723D01*
X729742Y413822D01*
X729742Y420314D01*
X729744Y420413D01*
X729750Y420513D01*
X729759Y420612D01*
X729772Y420710D01*
X729789Y420808D01*
X729810Y420906D01*
X729835Y421002D01*
X729863Y421097D01*
X729895Y421191D01*
X729930Y421284D01*
X729969Y421376D01*
X730012Y421466D01*
X730057Y421554D01*
X730107Y421641D01*
X730159Y421725D01*
X730215Y421808D01*
X730273Y421888D01*
X730335Y421966D01*
X730400Y422041D01*
X730468Y422114D01*
X730538Y422184D01*
X730611Y422252D01*
X730686Y422317D01*
X730764Y422379D01*
X730844Y422437D01*
X730927Y422493D01*
X731011Y422545D01*
X731098Y422595D01*
X731186Y422640D01*
X731276Y422683D01*
X731368Y422722D01*
X731460Y422757D01*
X731555Y422789D01*
X731650Y422817D01*
X731746Y422842D01*
X731844Y422863D01*
X731942Y422880D01*
X732040Y422893D01*
X732139Y422902D01*
X732239Y422908D01*
X732338Y422910D01*
X734935Y422910D01*
X739300Y420314D02*
X742546Y422910D01*
X742546Y411226D01*
X745791Y411226D02*
X739300Y411226D01*
X750731Y417068D02*
X750734Y417298D01*
X750742Y417528D01*
X750756Y417757D01*
X750775Y417986D01*
X750800Y418215D01*
X750830Y418442D01*
X750865Y418670D01*
X750906Y418896D01*
X750952Y419121D01*
X751004Y419345D01*
X751061Y419567D01*
X751123Y419789D01*
X751191Y420008D01*
X751264Y420226D01*
X751342Y420443D01*
X751425Y420657D01*
X751513Y420869D01*
X751606Y421079D01*
X751705Y421287D01*
X751704Y421287D02*
X751737Y421377D01*
X751773Y421466D01*
X751813Y421554D01*
X751857Y421639D01*
X751904Y421723D01*
X751954Y421805D01*
X752008Y421885D01*
X752064Y421962D01*
X752124Y422038D01*
X752187Y422111D01*
X752252Y422181D01*
X752321Y422249D01*
X752392Y422313D01*
X752465Y422375D01*
X752541Y422434D01*
X752619Y422490D01*
X752700Y422543D01*
X752782Y422592D01*
X752866Y422638D01*
X752953Y422681D01*
X753040Y422720D01*
X753130Y422756D01*
X753220Y422788D01*
X753312Y422816D01*
X753405Y422841D01*
X753499Y422862D01*
X753593Y422879D01*
X753688Y422893D01*
X753784Y422902D01*
X753880Y422908D01*
X753976Y422910D01*
X754072Y422908D01*
X754168Y422902D01*
X754264Y422893D01*
X754359Y422879D01*
X754453Y422862D01*
X754547Y422841D01*
X754640Y422816D01*
X754732Y422788D01*
X754822Y422756D01*
X754912Y422720D01*
X754999Y422681D01*
X755086Y422638D01*
X755170Y422592D01*
X755252Y422543D01*
X755333Y422490D01*
X755411Y422434D01*
X755487Y422375D01*
X755560Y422313D01*
X755631Y422249D01*
X755700Y422181D01*
X755765Y422111D01*
X755828Y422038D01*
X755888Y421962D01*
X755944Y421885D01*
X755998Y421805D01*
X756048Y421723D01*
X756095Y421639D01*
X756139Y421554D01*
X756179Y421466D01*
X756215Y421377D01*
X756248Y421287D01*
X756347Y421080D01*
X756440Y420870D01*
X756528Y420657D01*
X756611Y420443D01*
X756689Y420227D01*
X756762Y420009D01*
X756830Y419789D01*
X756892Y419568D01*
X756949Y419345D01*
X757001Y419121D01*
X757047Y418896D01*
X757088Y418670D01*
X757123Y418443D01*
X757153Y418215D01*
X757178Y417986D01*
X757197Y417757D01*
X757211Y417528D01*
X757219Y417298D01*
X757222Y417068D01*
X750730Y417068D02*
X750733Y416838D01*
X750741Y416608D01*
X750755Y416379D01*
X750774Y416150D01*
X750799Y415921D01*
X750829Y415693D01*
X750864Y415466D01*
X750905Y415240D01*
X750951Y415015D01*
X751003Y414791D01*
X751060Y414568D01*
X751122Y414347D01*
X751190Y414127D01*
X751263Y413909D01*
X751341Y413693D01*
X751424Y413479D01*
X751512Y413267D01*
X751605Y413056D01*
X751704Y412849D01*
X751737Y412759D01*
X751773Y412670D01*
X751814Y412582D01*
X751857Y412497D01*
X751904Y412413D01*
X751954Y412331D01*
X752008Y412251D01*
X752064Y412174D01*
X752124Y412098D01*
X752187Y412025D01*
X752252Y411955D01*
X752321Y411887D01*
X752392Y411823D01*
X752465Y411761D01*
X752541Y411702D01*
X752619Y411646D01*
X752700Y411593D01*
X752782Y411544D01*
X752866Y411498D01*
X752953Y411455D01*
X753040Y411416D01*
X753130Y411380D01*
X753220Y411348D01*
X753312Y411320D01*
X753405Y411295D01*
X753499Y411274D01*
X753593Y411257D01*
X753688Y411243D01*
X753784Y411234D01*
X753880Y411228D01*
X753976Y411226D01*
X756248Y412849D02*
X756347Y413056D01*
X756440Y413267D01*
X756528Y413479D01*
X756611Y413693D01*
X756689Y413909D01*
X756762Y414127D01*
X756830Y414347D01*
X756892Y414568D01*
X756949Y414791D01*
X757001Y415015D01*
X757047Y415240D01*
X757088Y415466D01*
X757123Y415693D01*
X757153Y415921D01*
X757178Y416150D01*
X757197Y416379D01*
X757211Y416608D01*
X757219Y416838D01*
X757222Y417068D01*
X756248Y412849D02*
X756215Y412759D01*
X756179Y412670D01*
X756139Y412582D01*
X756095Y412497D01*
X756048Y412413D01*
X755998Y412331D01*
X755944Y412251D01*
X755888Y412174D01*
X755828Y412098D01*
X755765Y412025D01*
X755700Y411955D01*
X755631Y411887D01*
X755560Y411823D01*
X755487Y411761D01*
X755411Y411702D01*
X755333Y411646D01*
X755252Y411593D01*
X755170Y411544D01*
X755086Y411498D01*
X754999Y411455D01*
X754912Y411416D01*
X754822Y411380D01*
X754732Y411348D01*
X754640Y411320D01*
X754547Y411295D01*
X754453Y411274D01*
X754359Y411257D01*
X754264Y411243D01*
X754168Y411234D01*
X754072Y411228D01*
X753976Y411226D01*
X751379Y413822D02*
X756572Y420314D01*
X624699Y520954D02*
X622102Y520954D01*
X622003Y520956D01*
X621903Y520962D01*
X621804Y520971D01*
X621706Y520984D01*
X621608Y521001D01*
X621510Y521022D01*
X621414Y521047D01*
X621319Y521075D01*
X621225Y521107D01*
X621132Y521142D01*
X621040Y521181D01*
X620950Y521224D01*
X620862Y521269D01*
X620775Y521319D01*
X620691Y521371D01*
X620608Y521427D01*
X620528Y521485D01*
X620450Y521547D01*
X620375Y521612D01*
X620302Y521680D01*
X620232Y521750D01*
X620164Y521823D01*
X620099Y521898D01*
X620037Y521976D01*
X619979Y522056D01*
X619923Y522139D01*
X619871Y522223D01*
X619821Y522310D01*
X619776Y522398D01*
X619733Y522488D01*
X619694Y522580D01*
X619659Y522673D01*
X619627Y522767D01*
X619599Y522862D01*
X619574Y522958D01*
X619553Y523056D01*
X619536Y523154D01*
X619523Y523252D01*
X619514Y523351D01*
X619508Y523451D01*
X619506Y523550D01*
X619506Y530042D01*
X619508Y530141D01*
X619514Y530241D01*
X619523Y530340D01*
X619536Y530438D01*
X619553Y530536D01*
X619574Y530634D01*
X619599Y530730D01*
X619627Y530825D01*
X619659Y530919D01*
X619694Y531012D01*
X619733Y531104D01*
X619776Y531194D01*
X619821Y531282D01*
X619871Y531369D01*
X619923Y531453D01*
X619979Y531536D01*
X620037Y531616D01*
X620099Y531694D01*
X620164Y531769D01*
X620232Y531842D01*
X620302Y531912D01*
X620375Y531980D01*
X620450Y532045D01*
X620528Y532107D01*
X620608Y532165D01*
X620691Y532221D01*
X620775Y532273D01*
X620862Y532323D01*
X620950Y532368D01*
X621040Y532411D01*
X621132Y532450D01*
X621224Y532485D01*
X621319Y532517D01*
X621414Y532545D01*
X621510Y532570D01*
X621608Y532591D01*
X621706Y532608D01*
X621804Y532621D01*
X621903Y532630D01*
X622003Y532636D01*
X622102Y532638D01*
X624699Y532638D01*
X632634Y532638D02*
X632741Y532636D01*
X632847Y532630D01*
X632953Y532620D01*
X633059Y532607D01*
X633165Y532589D01*
X633269Y532568D01*
X633373Y532543D01*
X633476Y532514D01*
X633577Y532482D01*
X633677Y532445D01*
X633776Y532405D01*
X633874Y532362D01*
X633970Y532315D01*
X634064Y532264D01*
X634156Y532210D01*
X634246Y532153D01*
X634334Y532093D01*
X634419Y532029D01*
X634502Y531962D01*
X634583Y531892D01*
X634661Y531820D01*
X634737Y531744D01*
X634809Y531666D01*
X634879Y531585D01*
X634946Y531502D01*
X635010Y531417D01*
X635070Y531329D01*
X635127Y531239D01*
X635181Y531147D01*
X635232Y531053D01*
X635279Y530957D01*
X635322Y530859D01*
X635362Y530760D01*
X635399Y530660D01*
X635431Y530559D01*
X635460Y530456D01*
X635485Y530352D01*
X635506Y530248D01*
X635524Y530142D01*
X635537Y530036D01*
X635547Y529930D01*
X635553Y529824D01*
X635555Y529717D01*
X632634Y532638D02*
X632513Y532636D01*
X632392Y532630D01*
X632272Y532620D01*
X632151Y532607D01*
X632032Y532589D01*
X631912Y532568D01*
X631794Y532543D01*
X631677Y532514D01*
X631560Y532481D01*
X631445Y532445D01*
X631331Y532404D01*
X631218Y532361D01*
X631106Y532313D01*
X630997Y532262D01*
X630889Y532207D01*
X630782Y532149D01*
X630678Y532088D01*
X630576Y532023D01*
X630476Y531955D01*
X630378Y531884D01*
X630282Y531810D01*
X630189Y531733D01*
X630099Y531652D01*
X630011Y531569D01*
X629926Y531483D01*
X629843Y531394D01*
X629764Y531303D01*
X629687Y531209D01*
X629614Y531113D01*
X629544Y531015D01*
X629477Y530914D01*
X629413Y530811D01*
X629353Y530706D01*
X629296Y530599D01*
X629242Y530491D01*
X629192Y530381D01*
X629146Y530269D01*
X629103Y530156D01*
X629064Y530041D01*
X634582Y527445D02*
X634661Y527522D01*
X634737Y527603D01*
X634810Y527686D01*
X634880Y527771D01*
X634947Y527859D01*
X635011Y527949D01*
X635071Y528041D01*
X635128Y528136D01*
X635182Y528232D01*
X635233Y528330D01*
X635280Y528430D01*
X635324Y528532D01*
X635364Y528635D01*
X635400Y528739D01*
X635432Y528845D01*
X635461Y528951D01*
X635486Y529059D01*
X635508Y529167D01*
X635525Y529277D01*
X635539Y529386D01*
X635548Y529496D01*
X635554Y529607D01*
X635556Y529717D01*
X634582Y527445D02*
X629064Y520954D01*
X635555Y520954D01*
X722884Y344791D02*
X722884Y342194D01*
X722882Y342095D01*
X722876Y341995D01*
X722867Y341896D01*
X722854Y341798D01*
X722837Y341700D01*
X722816Y341602D01*
X722791Y341506D01*
X722763Y341411D01*
X722731Y341317D01*
X722696Y341224D01*
X722657Y341132D01*
X722614Y341042D01*
X722569Y340954D01*
X722519Y340867D01*
X722467Y340783D01*
X722411Y340700D01*
X722353Y340620D01*
X722291Y340542D01*
X722226Y340467D01*
X722158Y340394D01*
X722088Y340324D01*
X722015Y340256D01*
X721940Y340191D01*
X721862Y340129D01*
X721782Y340071D01*
X721699Y340015D01*
X721615Y339963D01*
X721528Y339913D01*
X721440Y339868D01*
X721350Y339825D01*
X721258Y339786D01*
X721165Y339751D01*
X721071Y339719D01*
X720976Y339691D01*
X720880Y339666D01*
X720782Y339645D01*
X720684Y339628D01*
X720586Y339615D01*
X720487Y339606D01*
X720387Y339600D01*
X720288Y339598D01*
X713796Y339598D01*
X713697Y339600D01*
X713597Y339606D01*
X713498Y339615D01*
X713400Y339628D01*
X713302Y339646D01*
X713204Y339666D01*
X713108Y339691D01*
X713012Y339719D01*
X712918Y339751D01*
X712825Y339786D01*
X712734Y339825D01*
X712644Y339868D01*
X712555Y339913D01*
X712469Y339963D01*
X712384Y340015D01*
X712302Y340071D01*
X712222Y340130D01*
X712144Y340191D01*
X712068Y340256D01*
X711995Y340324D01*
X711925Y340394D01*
X711857Y340467D01*
X711792Y340543D01*
X711731Y340621D01*
X711672Y340701D01*
X711616Y340783D01*
X711564Y340868D01*
X711515Y340954D01*
X711469Y341043D01*
X711426Y341133D01*
X711387Y341224D01*
X711352Y341317D01*
X711320Y341411D01*
X711292Y341507D01*
X711267Y341603D01*
X711247Y341701D01*
X711229Y341799D01*
X711216Y341897D01*
X711207Y341996D01*
X711201Y342095D01*
X711199Y342195D01*
X711200Y342194D02*
X711200Y344791D01*
X722884Y349156D02*
X722884Y352402D01*
X722882Y352515D01*
X722876Y352628D01*
X722866Y352741D01*
X722852Y352854D01*
X722835Y352966D01*
X722813Y353077D01*
X722788Y353187D01*
X722758Y353297D01*
X722725Y353405D01*
X722688Y353512D01*
X722648Y353618D01*
X722603Y353722D01*
X722555Y353825D01*
X722504Y353926D01*
X722449Y354025D01*
X722391Y354122D01*
X722329Y354217D01*
X722264Y354310D01*
X722196Y354400D01*
X722125Y354488D01*
X722050Y354574D01*
X721973Y354657D01*
X721893Y354737D01*
X721810Y354814D01*
X721724Y354889D01*
X721636Y354960D01*
X721546Y355028D01*
X721453Y355093D01*
X721358Y355155D01*
X721261Y355213D01*
X721162Y355268D01*
X721061Y355319D01*
X720958Y355367D01*
X720854Y355412D01*
X720748Y355452D01*
X720641Y355489D01*
X720533Y355522D01*
X720423Y355552D01*
X720313Y355577D01*
X720202Y355599D01*
X720090Y355616D01*
X719977Y355630D01*
X719864Y355640D01*
X719751Y355646D01*
X719638Y355648D01*
X719525Y355646D01*
X719412Y355640D01*
X719299Y355630D01*
X719186Y355616D01*
X719074Y355599D01*
X718963Y355577D01*
X718853Y355552D01*
X718743Y355522D01*
X718635Y355489D01*
X718528Y355452D01*
X718422Y355412D01*
X718318Y355367D01*
X718215Y355319D01*
X718114Y355268D01*
X718015Y355213D01*
X717918Y355155D01*
X717823Y355093D01*
X717730Y355028D01*
X717640Y354960D01*
X717552Y354889D01*
X717466Y354814D01*
X717383Y354737D01*
X717303Y354657D01*
X717226Y354574D01*
X717151Y354488D01*
X717080Y354400D01*
X717012Y354310D01*
X716947Y354217D01*
X716885Y354122D01*
X716827Y354025D01*
X716772Y353926D01*
X716721Y353825D01*
X716673Y353722D01*
X716628Y353618D01*
X716588Y353512D01*
X716551Y353405D01*
X716518Y353297D01*
X716488Y353187D01*
X716463Y353077D01*
X716441Y352966D01*
X716424Y352854D01*
X716410Y352741D01*
X716400Y352628D01*
X716394Y352515D01*
X716392Y352402D01*
X711200Y353051D02*
X711200Y349156D01*
X711200Y353051D02*
X711202Y353152D01*
X711208Y353252D01*
X711218Y353352D01*
X711231Y353452D01*
X711249Y353551D01*
X711270Y353650D01*
X711295Y353747D01*
X711324Y353844D01*
X711357Y353939D01*
X711393Y354033D01*
X711433Y354125D01*
X711476Y354216D01*
X711523Y354305D01*
X711573Y354392D01*
X711627Y354478D01*
X711684Y354561D01*
X711744Y354641D01*
X711807Y354720D01*
X711874Y354796D01*
X711943Y354869D01*
X712015Y354939D01*
X712089Y355007D01*
X712166Y355072D01*
X712246Y355133D01*
X712328Y355192D01*
X712412Y355247D01*
X712498Y355299D01*
X712586Y355348D01*
X712676Y355393D01*
X712768Y355435D01*
X712861Y355473D01*
X712956Y355507D01*
X713051Y355538D01*
X713148Y355565D01*
X713246Y355588D01*
X713345Y355608D01*
X713445Y355623D01*
X713545Y355635D01*
X713645Y355643D01*
X713746Y355647D01*
X713846Y355647D01*
X713947Y355643D01*
X714047Y355635D01*
X714147Y355623D01*
X714247Y355608D01*
X714346Y355588D01*
X714444Y355565D01*
X714541Y355538D01*
X714636Y355507D01*
X714731Y355473D01*
X714824Y355435D01*
X714916Y355393D01*
X715006Y355348D01*
X715094Y355299D01*
X715180Y355247D01*
X715264Y355192D01*
X715346Y355133D01*
X715426Y355072D01*
X715503Y355007D01*
X715577Y354939D01*
X715649Y354869D01*
X715718Y354796D01*
X715785Y354720D01*
X715848Y354641D01*
X715908Y354561D01*
X715965Y354478D01*
X716019Y354392D01*
X716069Y354305D01*
X716116Y354216D01*
X716159Y354125D01*
X716199Y354033D01*
X716235Y353939D01*
X716268Y353844D01*
X716297Y353747D01*
X716322Y353650D01*
X716343Y353551D01*
X716361Y353452D01*
X716374Y353352D01*
X716384Y353252D01*
X716390Y353152D01*
X716392Y353051D01*
X716393Y353051D02*
X716393Y350454D01*
X1122482Y369570D02*
X1125079Y369570D01*
X1122482Y369570D02*
X1122383Y369572D01*
X1122283Y369578D01*
X1122184Y369587D01*
X1122086Y369600D01*
X1121988Y369617D01*
X1121890Y369638D01*
X1121794Y369663D01*
X1121699Y369691D01*
X1121605Y369723D01*
X1121512Y369758D01*
X1121420Y369797D01*
X1121330Y369840D01*
X1121242Y369885D01*
X1121155Y369935D01*
X1121071Y369987D01*
X1120988Y370043D01*
X1120908Y370101D01*
X1120830Y370163D01*
X1120755Y370228D01*
X1120682Y370296D01*
X1120612Y370366D01*
X1120544Y370439D01*
X1120479Y370514D01*
X1120417Y370592D01*
X1120359Y370672D01*
X1120303Y370755D01*
X1120251Y370839D01*
X1120201Y370926D01*
X1120156Y371014D01*
X1120113Y371104D01*
X1120074Y371196D01*
X1120039Y371289D01*
X1120007Y371383D01*
X1119979Y371478D01*
X1119954Y371574D01*
X1119933Y371672D01*
X1119916Y371770D01*
X1119903Y371868D01*
X1119894Y371967D01*
X1119888Y372067D01*
X1119886Y372166D01*
X1119886Y378658D01*
X1119888Y378757D01*
X1119894Y378857D01*
X1119903Y378956D01*
X1119916Y379054D01*
X1119933Y379152D01*
X1119954Y379250D01*
X1119979Y379346D01*
X1120007Y379441D01*
X1120039Y379535D01*
X1120074Y379628D01*
X1120113Y379720D01*
X1120156Y379810D01*
X1120201Y379898D01*
X1120251Y379985D01*
X1120303Y380069D01*
X1120359Y380152D01*
X1120417Y380232D01*
X1120479Y380310D01*
X1120544Y380385D01*
X1120612Y380458D01*
X1120682Y380528D01*
X1120755Y380596D01*
X1120830Y380661D01*
X1120908Y380723D01*
X1120988Y380781D01*
X1121071Y380837D01*
X1121155Y380889D01*
X1121242Y380939D01*
X1121330Y380984D01*
X1121420Y381027D01*
X1121512Y381066D01*
X1121604Y381101D01*
X1121699Y381133D01*
X1121794Y381161D01*
X1121890Y381186D01*
X1121988Y381207D01*
X1122086Y381224D01*
X1122184Y381237D01*
X1122283Y381246D01*
X1122383Y381252D01*
X1122482Y381254D01*
X1125079Y381254D01*
X1132041Y381254D02*
X1129444Y372166D01*
X1135935Y372166D01*
X1133988Y374763D02*
X1133988Y369570D01*
X730617Y437896D02*
X728020Y437896D01*
X727921Y437898D01*
X727821Y437904D01*
X727722Y437913D01*
X727624Y437926D01*
X727526Y437943D01*
X727428Y437964D01*
X727332Y437989D01*
X727237Y438017D01*
X727143Y438049D01*
X727050Y438084D01*
X726958Y438123D01*
X726868Y438166D01*
X726780Y438211D01*
X726693Y438261D01*
X726609Y438313D01*
X726526Y438369D01*
X726446Y438427D01*
X726368Y438489D01*
X726293Y438554D01*
X726220Y438622D01*
X726150Y438692D01*
X726082Y438765D01*
X726017Y438840D01*
X725955Y438918D01*
X725897Y438998D01*
X725841Y439081D01*
X725789Y439165D01*
X725739Y439252D01*
X725694Y439340D01*
X725651Y439430D01*
X725612Y439522D01*
X725577Y439615D01*
X725545Y439709D01*
X725517Y439804D01*
X725492Y439900D01*
X725471Y439998D01*
X725454Y440096D01*
X725441Y440194D01*
X725432Y440293D01*
X725426Y440393D01*
X725424Y440492D01*
X725424Y446984D01*
X725426Y447083D01*
X725432Y447183D01*
X725441Y447282D01*
X725454Y447380D01*
X725471Y447478D01*
X725492Y447576D01*
X725517Y447672D01*
X725545Y447767D01*
X725577Y447861D01*
X725612Y447954D01*
X725651Y448046D01*
X725694Y448136D01*
X725739Y448224D01*
X725789Y448311D01*
X725841Y448395D01*
X725897Y448478D01*
X725955Y448558D01*
X726017Y448636D01*
X726082Y448711D01*
X726150Y448784D01*
X726220Y448854D01*
X726293Y448922D01*
X726368Y448987D01*
X726446Y449049D01*
X726526Y449107D01*
X726609Y449163D01*
X726693Y449215D01*
X726780Y449265D01*
X726868Y449310D01*
X726958Y449353D01*
X727050Y449392D01*
X727142Y449427D01*
X727237Y449459D01*
X727332Y449487D01*
X727428Y449512D01*
X727526Y449533D01*
X727624Y449550D01*
X727722Y449563D01*
X727821Y449572D01*
X727921Y449578D01*
X728020Y449580D01*
X730617Y449580D01*
X734982Y441142D02*
X734984Y441255D01*
X734990Y441368D01*
X735000Y441481D01*
X735014Y441594D01*
X735031Y441706D01*
X735053Y441817D01*
X735078Y441927D01*
X735108Y442037D01*
X735141Y442145D01*
X735178Y442252D01*
X735218Y442358D01*
X735263Y442462D01*
X735311Y442565D01*
X735362Y442666D01*
X735417Y442765D01*
X735475Y442862D01*
X735537Y442957D01*
X735602Y443050D01*
X735670Y443140D01*
X735741Y443228D01*
X735816Y443314D01*
X735893Y443397D01*
X735973Y443477D01*
X736056Y443554D01*
X736142Y443629D01*
X736230Y443700D01*
X736320Y443768D01*
X736413Y443833D01*
X736508Y443895D01*
X736605Y443953D01*
X736704Y444008D01*
X736805Y444059D01*
X736908Y444107D01*
X737012Y444152D01*
X737118Y444192D01*
X737225Y444229D01*
X737333Y444262D01*
X737443Y444292D01*
X737553Y444317D01*
X737664Y444339D01*
X737776Y444356D01*
X737889Y444370D01*
X738002Y444380D01*
X738115Y444386D01*
X738228Y444388D01*
X738341Y444386D01*
X738454Y444380D01*
X738567Y444370D01*
X738680Y444356D01*
X738792Y444339D01*
X738903Y444317D01*
X739013Y444292D01*
X739123Y444262D01*
X739231Y444229D01*
X739338Y444192D01*
X739444Y444152D01*
X739548Y444107D01*
X739651Y444059D01*
X739752Y444008D01*
X739851Y443953D01*
X739948Y443895D01*
X740043Y443833D01*
X740136Y443768D01*
X740226Y443700D01*
X740314Y443629D01*
X740400Y443554D01*
X740483Y443477D01*
X740563Y443397D01*
X740640Y443314D01*
X740715Y443228D01*
X740786Y443140D01*
X740854Y443050D01*
X740919Y442957D01*
X740981Y442862D01*
X741039Y442765D01*
X741094Y442666D01*
X741145Y442565D01*
X741193Y442462D01*
X741238Y442358D01*
X741278Y442252D01*
X741315Y442145D01*
X741348Y442037D01*
X741378Y441927D01*
X741403Y441817D01*
X741425Y441706D01*
X741442Y441594D01*
X741456Y441481D01*
X741466Y441368D01*
X741472Y441255D01*
X741474Y441142D01*
X741472Y441029D01*
X741466Y440916D01*
X741456Y440803D01*
X741442Y440690D01*
X741425Y440578D01*
X741403Y440467D01*
X741378Y440357D01*
X741348Y440247D01*
X741315Y440139D01*
X741278Y440032D01*
X741238Y439926D01*
X741193Y439822D01*
X741145Y439719D01*
X741094Y439618D01*
X741039Y439519D01*
X740981Y439422D01*
X740919Y439327D01*
X740854Y439234D01*
X740786Y439144D01*
X740715Y439056D01*
X740640Y438970D01*
X740563Y438887D01*
X740483Y438807D01*
X740400Y438730D01*
X740314Y438655D01*
X740226Y438584D01*
X740136Y438516D01*
X740043Y438451D01*
X739948Y438389D01*
X739851Y438331D01*
X739752Y438276D01*
X739651Y438225D01*
X739548Y438177D01*
X739444Y438132D01*
X739338Y438092D01*
X739231Y438055D01*
X739123Y438022D01*
X739013Y437992D01*
X738903Y437967D01*
X738792Y437945D01*
X738680Y437928D01*
X738567Y437914D01*
X738454Y437904D01*
X738341Y437898D01*
X738228Y437896D01*
X738115Y437898D01*
X738002Y437904D01*
X737889Y437914D01*
X737776Y437928D01*
X737664Y437945D01*
X737553Y437967D01*
X737443Y437992D01*
X737333Y438022D01*
X737225Y438055D01*
X737118Y438092D01*
X737012Y438132D01*
X736908Y438177D01*
X736805Y438225D01*
X736704Y438276D01*
X736605Y438331D01*
X736508Y438389D01*
X736413Y438451D01*
X736320Y438516D01*
X736230Y438584D01*
X736142Y438655D01*
X736056Y438730D01*
X735973Y438807D01*
X735893Y438887D01*
X735816Y438970D01*
X735741Y439056D01*
X735670Y439144D01*
X735602Y439234D01*
X735537Y439327D01*
X735475Y439422D01*
X735417Y439519D01*
X735362Y439618D01*
X735311Y439719D01*
X735263Y439822D01*
X735218Y439926D01*
X735178Y440032D01*
X735141Y440139D01*
X735108Y440247D01*
X735078Y440357D01*
X735053Y440467D01*
X735031Y440578D01*
X735014Y440690D01*
X735000Y440803D01*
X734990Y440916D01*
X734984Y441029D01*
X734982Y441142D01*
X735632Y446984D02*
X735634Y447085D01*
X735640Y447185D01*
X735650Y447285D01*
X735663Y447385D01*
X735681Y447484D01*
X735702Y447583D01*
X735727Y447680D01*
X735756Y447777D01*
X735789Y447872D01*
X735825Y447966D01*
X735865Y448058D01*
X735908Y448149D01*
X735955Y448238D01*
X736005Y448325D01*
X736059Y448411D01*
X736116Y448494D01*
X736176Y448574D01*
X736239Y448653D01*
X736306Y448729D01*
X736375Y448802D01*
X736447Y448872D01*
X736521Y448940D01*
X736598Y449005D01*
X736678Y449066D01*
X736760Y449125D01*
X736844Y449180D01*
X736930Y449232D01*
X737018Y449281D01*
X737108Y449326D01*
X737200Y449368D01*
X737293Y449406D01*
X737388Y449440D01*
X737483Y449471D01*
X737580Y449498D01*
X737678Y449521D01*
X737777Y449541D01*
X737877Y449556D01*
X737977Y449568D01*
X738077Y449576D01*
X738178Y449580D01*
X738278Y449580D01*
X738379Y449576D01*
X738479Y449568D01*
X738579Y449556D01*
X738679Y449541D01*
X738778Y449521D01*
X738876Y449498D01*
X738973Y449471D01*
X739068Y449440D01*
X739163Y449406D01*
X739256Y449368D01*
X739348Y449326D01*
X739438Y449281D01*
X739526Y449232D01*
X739612Y449180D01*
X739696Y449125D01*
X739778Y449066D01*
X739858Y449005D01*
X739935Y448940D01*
X740009Y448872D01*
X740081Y448802D01*
X740150Y448729D01*
X740217Y448653D01*
X740280Y448574D01*
X740340Y448494D01*
X740397Y448411D01*
X740451Y448325D01*
X740501Y448238D01*
X740548Y448149D01*
X740591Y448058D01*
X740631Y447966D01*
X740667Y447872D01*
X740700Y447777D01*
X740729Y447680D01*
X740754Y447583D01*
X740775Y447484D01*
X740793Y447385D01*
X740806Y447285D01*
X740816Y447185D01*
X740822Y447085D01*
X740824Y446984D01*
X740822Y446883D01*
X740816Y446783D01*
X740806Y446683D01*
X740793Y446583D01*
X740775Y446484D01*
X740754Y446385D01*
X740729Y446288D01*
X740700Y446191D01*
X740667Y446096D01*
X740631Y446002D01*
X740591Y445910D01*
X740548Y445819D01*
X740501Y445730D01*
X740451Y445643D01*
X740397Y445557D01*
X740340Y445474D01*
X740280Y445394D01*
X740217Y445315D01*
X740150Y445239D01*
X740081Y445166D01*
X740009Y445096D01*
X739935Y445028D01*
X739858Y444963D01*
X739778Y444902D01*
X739696Y444843D01*
X739612Y444788D01*
X739526Y444736D01*
X739438Y444687D01*
X739348Y444642D01*
X739256Y444600D01*
X739163Y444562D01*
X739068Y444528D01*
X738973Y444497D01*
X738876Y444470D01*
X738778Y444447D01*
X738679Y444427D01*
X738579Y444412D01*
X738479Y444400D01*
X738379Y444392D01*
X738278Y444388D01*
X738178Y444388D01*
X738077Y444392D01*
X737977Y444400D01*
X737877Y444412D01*
X737777Y444427D01*
X737678Y444447D01*
X737580Y444470D01*
X737483Y444497D01*
X737388Y444528D01*
X737293Y444562D01*
X737200Y444600D01*
X737108Y444642D01*
X737018Y444687D01*
X736930Y444736D01*
X736844Y444788D01*
X736760Y444843D01*
X736678Y444902D01*
X736598Y444963D01*
X736521Y445028D01*
X736447Y445096D01*
X736375Y445166D01*
X736306Y445239D01*
X736239Y445315D01*
X736176Y445394D01*
X736116Y445474D01*
X736059Y445557D01*
X736005Y445643D01*
X735955Y445730D01*
X735908Y445819D01*
X735865Y445910D01*
X735825Y446002D01*
X735789Y446096D01*
X735756Y446191D01*
X735727Y446288D01*
X735702Y446385D01*
X735681Y446484D01*
X735663Y446583D01*
X735650Y446683D01*
X735640Y446783D01*
X735634Y446883D01*
X735632Y446984D01*
D11*
X649859Y363537D02*
X643509Y368300D01*
X649859Y368300D02*
X649859Y363537D01*
X649859Y368300D02*
X649859Y373063D01*
X643509Y368300D01*
X643509Y363537D01*
X643509Y368300D02*
X643509Y373063D01*
X649859Y368300D02*
X652297Y368300D01*
X643509Y368300D02*
X641071Y368300D01*
D12*
X616712Y380238D02*
X616712Y391922D01*
X619958Y391922D01*
X620071Y391920D01*
X620184Y391914D01*
X620297Y391904D01*
X620410Y391890D01*
X620522Y391873D01*
X620633Y391851D01*
X620743Y391826D01*
X620853Y391796D01*
X620961Y391763D01*
X621068Y391726D01*
X621174Y391686D01*
X621278Y391641D01*
X621381Y391593D01*
X621482Y391542D01*
X621581Y391487D01*
X621678Y391429D01*
X621773Y391367D01*
X621866Y391302D01*
X621956Y391234D01*
X622044Y391163D01*
X622130Y391088D01*
X622213Y391011D01*
X622293Y390931D01*
X622370Y390848D01*
X622445Y390762D01*
X622516Y390674D01*
X622584Y390584D01*
X622649Y390491D01*
X622711Y390396D01*
X622769Y390299D01*
X622824Y390200D01*
X622875Y390099D01*
X622923Y389996D01*
X622968Y389892D01*
X623008Y389786D01*
X623045Y389679D01*
X623078Y389571D01*
X623108Y389461D01*
X623133Y389351D01*
X623155Y389240D01*
X623172Y389128D01*
X623186Y389015D01*
X623196Y388902D01*
X623202Y388789D01*
X623204Y388676D01*
X623203Y388676D02*
X623203Y383484D01*
X623204Y383484D02*
X623202Y383371D01*
X623196Y383258D01*
X623186Y383145D01*
X623172Y383032D01*
X623155Y382920D01*
X623133Y382809D01*
X623108Y382699D01*
X623078Y382589D01*
X623045Y382481D01*
X623008Y382374D01*
X622968Y382268D01*
X622923Y382164D01*
X622875Y382061D01*
X622824Y381960D01*
X622769Y381861D01*
X622711Y381764D01*
X622649Y381669D01*
X622584Y381576D01*
X622516Y381486D01*
X622445Y381398D01*
X622370Y381312D01*
X622293Y381229D01*
X622213Y381149D01*
X622130Y381072D01*
X622044Y380997D01*
X621956Y380926D01*
X621866Y380858D01*
X621773Y380793D01*
X621678Y380731D01*
X621581Y380673D01*
X621482Y380618D01*
X621381Y380567D01*
X621278Y380519D01*
X621174Y380474D01*
X621068Y380434D01*
X620961Y380397D01*
X620853Y380364D01*
X620743Y380334D01*
X620633Y380309D01*
X620522Y380287D01*
X620410Y380270D01*
X620297Y380256D01*
X620184Y380246D01*
X620071Y380240D01*
X619958Y380238D01*
X616712Y380238D01*
X628523Y389326D02*
X631769Y391922D01*
X631769Y380238D01*
X635014Y380238D02*
X628523Y380238D01*
D11*
X1078611Y371602D02*
X1084961Y366839D01*
X1084961Y371602D01*
X1084961Y376365D01*
X1078611Y371602D01*
X1078611Y366839D01*
X1078611Y371602D02*
X1078611Y376365D01*
X1084961Y371602D02*
X1087399Y371602D01*
X1078611Y371602D02*
X1076173Y371602D01*
D12*
X1051814Y383540D02*
X1051814Y395224D01*
X1055060Y395224D01*
X1055173Y395222D01*
X1055286Y395216D01*
X1055399Y395206D01*
X1055512Y395192D01*
X1055624Y395175D01*
X1055735Y395153D01*
X1055845Y395128D01*
X1055955Y395098D01*
X1056063Y395065D01*
X1056170Y395028D01*
X1056276Y394988D01*
X1056380Y394943D01*
X1056483Y394895D01*
X1056584Y394844D01*
X1056683Y394789D01*
X1056780Y394731D01*
X1056875Y394669D01*
X1056968Y394604D01*
X1057058Y394536D01*
X1057146Y394465D01*
X1057232Y394390D01*
X1057315Y394313D01*
X1057395Y394233D01*
X1057472Y394150D01*
X1057547Y394064D01*
X1057618Y393976D01*
X1057686Y393886D01*
X1057751Y393793D01*
X1057813Y393698D01*
X1057871Y393601D01*
X1057926Y393502D01*
X1057977Y393401D01*
X1058025Y393298D01*
X1058070Y393194D01*
X1058110Y393088D01*
X1058147Y392981D01*
X1058180Y392873D01*
X1058210Y392763D01*
X1058235Y392653D01*
X1058257Y392542D01*
X1058274Y392430D01*
X1058288Y392317D01*
X1058298Y392204D01*
X1058304Y392091D01*
X1058306Y391978D01*
X1058305Y391978D02*
X1058305Y386786D01*
X1058306Y386786D02*
X1058304Y386673D01*
X1058298Y386560D01*
X1058288Y386447D01*
X1058274Y386334D01*
X1058257Y386222D01*
X1058235Y386111D01*
X1058210Y386001D01*
X1058180Y385891D01*
X1058147Y385783D01*
X1058110Y385676D01*
X1058070Y385570D01*
X1058025Y385466D01*
X1057977Y385363D01*
X1057926Y385262D01*
X1057871Y385163D01*
X1057813Y385066D01*
X1057751Y384971D01*
X1057686Y384878D01*
X1057618Y384788D01*
X1057547Y384700D01*
X1057472Y384614D01*
X1057395Y384531D01*
X1057315Y384451D01*
X1057232Y384374D01*
X1057146Y384299D01*
X1057058Y384228D01*
X1056968Y384160D01*
X1056875Y384095D01*
X1056780Y384033D01*
X1056683Y383975D01*
X1056584Y383920D01*
X1056483Y383869D01*
X1056380Y383821D01*
X1056276Y383776D01*
X1056170Y383736D01*
X1056063Y383699D01*
X1055955Y383666D01*
X1055845Y383636D01*
X1055735Y383611D01*
X1055624Y383589D01*
X1055512Y383572D01*
X1055399Y383558D01*
X1055286Y383548D01*
X1055173Y383542D01*
X1055060Y383540D01*
X1051814Y383540D01*
X1063625Y386136D02*
X1066221Y395224D01*
X1063625Y386136D02*
X1070116Y386136D01*
X1068169Y388733D02*
X1068169Y383540D01*
D10*
X989330Y337566D02*
X989330Y312166D01*
X1040130Y312166D01*
X1014730Y337566D02*
X989330Y337566D01*
X1014730Y337566D02*
X1040130Y337566D01*
X1040130Y312166D01*
X1014730Y312166D02*
X1014730Y337566D01*
D11*
X989203Y343789D02*
X989203Y355219D01*
X994283Y355219D01*
X994283Y350139D02*
X989203Y350139D01*
X999084Y346964D02*
X999084Y355219D01*
X999084Y346964D02*
X999086Y346853D01*
X999092Y346743D01*
X999101Y346632D01*
X999115Y346522D01*
X999132Y346413D01*
X999153Y346304D01*
X999178Y346196D01*
X999207Y346089D01*
X999239Y345983D01*
X999275Y345878D01*
X999315Y345775D01*
X999358Y345673D01*
X999405Y345572D01*
X999456Y345473D01*
X999509Y345377D01*
X999566Y345282D01*
X999627Y345189D01*
X999690Y345098D01*
X999757Y345009D01*
X999827Y344923D01*
X999900Y344840D01*
X999975Y344758D01*
X1000053Y344680D01*
X1000135Y344605D01*
X1000218Y344532D01*
X1000304Y344462D01*
X1000393Y344395D01*
X1000484Y344332D01*
X1000577Y344271D01*
X1000672Y344214D01*
X1000768Y344161D01*
X1000867Y344110D01*
X1000968Y344063D01*
X1001070Y344020D01*
X1001173Y343980D01*
X1001278Y343944D01*
X1001384Y343912D01*
X1001491Y343883D01*
X1001599Y343858D01*
X1001708Y343837D01*
X1001817Y343820D01*
X1001927Y343806D01*
X1002038Y343797D01*
X1002148Y343791D01*
X1002259Y343789D01*
X1002370Y343791D01*
X1002480Y343797D01*
X1002591Y343806D01*
X1002701Y343820D01*
X1002810Y343837D01*
X1002919Y343858D01*
X1003027Y343883D01*
X1003134Y343912D01*
X1003240Y343944D01*
X1003345Y343980D01*
X1003448Y344020D01*
X1003550Y344063D01*
X1003651Y344110D01*
X1003750Y344161D01*
X1003847Y344214D01*
X1003941Y344271D01*
X1004034Y344332D01*
X1004125Y344395D01*
X1004214Y344462D01*
X1004300Y344532D01*
X1004383Y344605D01*
X1004465Y344680D01*
X1004543Y344758D01*
X1004618Y344840D01*
X1004691Y344923D01*
X1004761Y345009D01*
X1004828Y345098D01*
X1004891Y345189D01*
X1004952Y345282D01*
X1005009Y345376D01*
X1005062Y345473D01*
X1005113Y345572D01*
X1005160Y345673D01*
X1005203Y345775D01*
X1005243Y345878D01*
X1005279Y345983D01*
X1005311Y346089D01*
X1005340Y346196D01*
X1005365Y346304D01*
X1005386Y346413D01*
X1005403Y346522D01*
X1005417Y346632D01*
X1005426Y346743D01*
X1005432Y346853D01*
X1005434Y346964D01*
X1005434Y355219D01*
X1014324Y343789D02*
X1014424Y343791D01*
X1014523Y343797D01*
X1014623Y343807D01*
X1014721Y343820D01*
X1014820Y343838D01*
X1014917Y343859D01*
X1015013Y343884D01*
X1015109Y343913D01*
X1015203Y343946D01*
X1015296Y343982D01*
X1015387Y344022D01*
X1015477Y344066D01*
X1015565Y344113D01*
X1015651Y344163D01*
X1015735Y344217D01*
X1015817Y344274D01*
X1015896Y344334D01*
X1015974Y344398D01*
X1016048Y344464D01*
X1016120Y344533D01*
X1016189Y344605D01*
X1016255Y344679D01*
X1016319Y344757D01*
X1016379Y344836D01*
X1016436Y344918D01*
X1016490Y345002D01*
X1016540Y345088D01*
X1016587Y345176D01*
X1016631Y345266D01*
X1016671Y345357D01*
X1016707Y345450D01*
X1016740Y345544D01*
X1016769Y345640D01*
X1016794Y345736D01*
X1016815Y345833D01*
X1016833Y345932D01*
X1016846Y346030D01*
X1016856Y346130D01*
X1016862Y346229D01*
X1016864Y346329D01*
X1014324Y343789D02*
X1014183Y343791D01*
X1014042Y343796D01*
X1013901Y343806D01*
X1013760Y343819D01*
X1013620Y343835D01*
X1013480Y343856D01*
X1013341Y343880D01*
X1013202Y343908D01*
X1013065Y343939D01*
X1012928Y343974D01*
X1012792Y344012D01*
X1012657Y344054D01*
X1012524Y344100D01*
X1012391Y344149D01*
X1012260Y344202D01*
X1012131Y344258D01*
X1012002Y344317D01*
X1011876Y344380D01*
X1011751Y344446D01*
X1011628Y344515D01*
X1011507Y344588D01*
X1011388Y344664D01*
X1011270Y344743D01*
X1011155Y344824D01*
X1011043Y344909D01*
X1010932Y344997D01*
X1010824Y345088D01*
X1010718Y345181D01*
X1010615Y345278D01*
X1010514Y345377D01*
X1010831Y352679D02*
X1010833Y352779D01*
X1010839Y352878D01*
X1010849Y352978D01*
X1010862Y353076D01*
X1010880Y353175D01*
X1010901Y353272D01*
X1010926Y353368D01*
X1010955Y353464D01*
X1010988Y353558D01*
X1011024Y353651D01*
X1011064Y353742D01*
X1011108Y353832D01*
X1011155Y353920D01*
X1011205Y354006D01*
X1011259Y354090D01*
X1011316Y354172D01*
X1011376Y354251D01*
X1011440Y354329D01*
X1011506Y354403D01*
X1011575Y354475D01*
X1011647Y354544D01*
X1011721Y354610D01*
X1011799Y354674D01*
X1011878Y354734D01*
X1011960Y354791D01*
X1012044Y354845D01*
X1012130Y354895D01*
X1012218Y354942D01*
X1012308Y354986D01*
X1012399Y355026D01*
X1012492Y355062D01*
X1012586Y355095D01*
X1012682Y355124D01*
X1012778Y355149D01*
X1012875Y355170D01*
X1012974Y355188D01*
X1013072Y355201D01*
X1013172Y355211D01*
X1013271Y355217D01*
X1013371Y355219D01*
X1013371Y355220D02*
X1013504Y355218D01*
X1013637Y355213D01*
X1013770Y355203D01*
X1013903Y355190D01*
X1014035Y355173D01*
X1014167Y355153D01*
X1014298Y355129D01*
X1014428Y355101D01*
X1014558Y355070D01*
X1014686Y355035D01*
X1014814Y354996D01*
X1014940Y354954D01*
X1015065Y354908D01*
X1015189Y354859D01*
X1015312Y354807D01*
X1015433Y354751D01*
X1015552Y354691D01*
X1015670Y354629D01*
X1015785Y354563D01*
X1015899Y354494D01*
X1016011Y354421D01*
X1016121Y354346D01*
X1016229Y354267D01*
X1012101Y350456D02*
X1012017Y350508D01*
X1011934Y350563D01*
X1011854Y350622D01*
X1011776Y350683D01*
X1011701Y350747D01*
X1011628Y350815D01*
X1011557Y350885D01*
X1011490Y350957D01*
X1011425Y351032D01*
X1011363Y351110D01*
X1011304Y351190D01*
X1011248Y351272D01*
X1011196Y351356D01*
X1011147Y351442D01*
X1011101Y351530D01*
X1011058Y351620D01*
X1011019Y351711D01*
X1010984Y351804D01*
X1010952Y351898D01*
X1010924Y351993D01*
X1010899Y352089D01*
X1010879Y352186D01*
X1010861Y352284D01*
X1010848Y352382D01*
X1010839Y352481D01*
X1010833Y352580D01*
X1010831Y352679D01*
X1015594Y348552D02*
X1015678Y348500D01*
X1015761Y348445D01*
X1015841Y348386D01*
X1015919Y348325D01*
X1015994Y348261D01*
X1016067Y348193D01*
X1016138Y348123D01*
X1016205Y348051D01*
X1016270Y347976D01*
X1016332Y347898D01*
X1016391Y347818D01*
X1016447Y347736D01*
X1016499Y347652D01*
X1016548Y347566D01*
X1016594Y347478D01*
X1016637Y347388D01*
X1016676Y347297D01*
X1016711Y347204D01*
X1016743Y347110D01*
X1016771Y347015D01*
X1016796Y346919D01*
X1016816Y346822D01*
X1016834Y346724D01*
X1016847Y346626D01*
X1016856Y346527D01*
X1016862Y346428D01*
X1016864Y346329D01*
X1015594Y348552D02*
X1012101Y350457D01*
X1021969Y343789D02*
X1027049Y343789D01*
X1021969Y343789D02*
X1021969Y355219D01*
X1027049Y355219D01*
X1025779Y350139D02*
X1021969Y350139D01*
X1034961Y355220D02*
X1035065Y355218D01*
X1035170Y355212D01*
X1035274Y355203D01*
X1035377Y355190D01*
X1035480Y355172D01*
X1035582Y355152D01*
X1035684Y355127D01*
X1035784Y355099D01*
X1035884Y355067D01*
X1035982Y355031D01*
X1036079Y354992D01*
X1036174Y354950D01*
X1036268Y354904D01*
X1036360Y354854D01*
X1036450Y354802D01*
X1036538Y354746D01*
X1036624Y354686D01*
X1036708Y354624D01*
X1036789Y354559D01*
X1036868Y354491D01*
X1036945Y354419D01*
X1037018Y354346D01*
X1037090Y354269D01*
X1037158Y354190D01*
X1037223Y354109D01*
X1037285Y354025D01*
X1037345Y353939D01*
X1037401Y353851D01*
X1037453Y353761D01*
X1037503Y353669D01*
X1037549Y353575D01*
X1037591Y353480D01*
X1037630Y353383D01*
X1037666Y353285D01*
X1037698Y353185D01*
X1037726Y353085D01*
X1037751Y352983D01*
X1037771Y352881D01*
X1037789Y352778D01*
X1037802Y352675D01*
X1037811Y352571D01*
X1037817Y352466D01*
X1037819Y352362D01*
X1034961Y355219D02*
X1034843Y355217D01*
X1034724Y355211D01*
X1034606Y355202D01*
X1034489Y355189D01*
X1034372Y355171D01*
X1034255Y355151D01*
X1034139Y355126D01*
X1034024Y355098D01*
X1033911Y355065D01*
X1033798Y355030D01*
X1033686Y354990D01*
X1033576Y354948D01*
X1033467Y354901D01*
X1033359Y354851D01*
X1033254Y354798D01*
X1033150Y354741D01*
X1033048Y354681D01*
X1032948Y354618D01*
X1032850Y354551D01*
X1032754Y354482D01*
X1032661Y354409D01*
X1032570Y354333D01*
X1032481Y354255D01*
X1032395Y354173D01*
X1032312Y354089D01*
X1032231Y354003D01*
X1032154Y353913D01*
X1032079Y353822D01*
X1032007Y353728D01*
X1031938Y353631D01*
X1031873Y353533D01*
X1031810Y353432D01*
X1031751Y353329D01*
X1031695Y353225D01*
X1031643Y353119D01*
X1031594Y353011D01*
X1031549Y352902D01*
X1031507Y352791D01*
X1031469Y352679D01*
X1036866Y350140D02*
X1036942Y350215D01*
X1037017Y350294D01*
X1037088Y350375D01*
X1037157Y350459D01*
X1037222Y350545D01*
X1037284Y350633D01*
X1037344Y350723D01*
X1037400Y350815D01*
X1037453Y350910D01*
X1037502Y351006D01*
X1037548Y351104D01*
X1037591Y351203D01*
X1037630Y351304D01*
X1037665Y351406D01*
X1037697Y351509D01*
X1037725Y351613D01*
X1037750Y351718D01*
X1037771Y351825D01*
X1037788Y351931D01*
X1037801Y352038D01*
X1037810Y352146D01*
X1037816Y352254D01*
X1037818Y352362D01*
X1036866Y350139D02*
X1031469Y343789D01*
X1037819Y343789D01*
D12*
X573825Y509505D02*
X571878Y509505D01*
X573825Y509505D02*
X573825Y503014D01*
X569930Y503014D01*
X569831Y503016D01*
X569731Y503022D01*
X569632Y503031D01*
X569534Y503044D01*
X569436Y503061D01*
X569338Y503082D01*
X569242Y503107D01*
X569147Y503135D01*
X569053Y503167D01*
X568960Y503202D01*
X568868Y503241D01*
X568778Y503284D01*
X568690Y503329D01*
X568603Y503379D01*
X568519Y503431D01*
X568436Y503487D01*
X568356Y503545D01*
X568278Y503607D01*
X568203Y503672D01*
X568130Y503740D01*
X568060Y503810D01*
X567992Y503883D01*
X567927Y503958D01*
X567865Y504036D01*
X567807Y504116D01*
X567751Y504199D01*
X567699Y504283D01*
X567649Y504370D01*
X567604Y504458D01*
X567561Y504548D01*
X567522Y504640D01*
X567487Y504733D01*
X567455Y504827D01*
X567427Y504922D01*
X567402Y505018D01*
X567381Y505116D01*
X567364Y505214D01*
X567351Y505312D01*
X567342Y505411D01*
X567336Y505511D01*
X567334Y505610D01*
X567334Y512102D01*
X567336Y512201D01*
X567342Y512301D01*
X567351Y512400D01*
X567364Y512498D01*
X567381Y512596D01*
X567402Y512694D01*
X567427Y512790D01*
X567455Y512885D01*
X567487Y512979D01*
X567522Y513072D01*
X567561Y513164D01*
X567604Y513254D01*
X567649Y513342D01*
X567699Y513429D01*
X567751Y513513D01*
X567807Y513596D01*
X567865Y513676D01*
X567927Y513754D01*
X567992Y513829D01*
X568060Y513902D01*
X568130Y513972D01*
X568203Y514040D01*
X568278Y514105D01*
X568356Y514167D01*
X568436Y514225D01*
X568519Y514281D01*
X568603Y514333D01*
X568690Y514383D01*
X568778Y514428D01*
X568868Y514471D01*
X568960Y514510D01*
X569052Y514545D01*
X569147Y514577D01*
X569242Y514605D01*
X569338Y514630D01*
X569436Y514651D01*
X569534Y514668D01*
X569632Y514681D01*
X569731Y514690D01*
X569831Y514696D01*
X569930Y514698D01*
X573825Y514698D01*
X579526Y514698D02*
X579526Y503014D01*
X586017Y503014D02*
X579526Y514698D01*
X586017Y514698D02*
X586017Y503014D01*
X591718Y503014D02*
X591718Y514698D01*
X594963Y514698D01*
X595076Y514696D01*
X595189Y514690D01*
X595302Y514680D01*
X595415Y514666D01*
X595527Y514649D01*
X595638Y514627D01*
X595748Y514602D01*
X595858Y514572D01*
X595966Y514539D01*
X596073Y514502D01*
X596179Y514462D01*
X596283Y514417D01*
X596386Y514369D01*
X596487Y514318D01*
X596586Y514263D01*
X596683Y514205D01*
X596778Y514143D01*
X596871Y514078D01*
X596961Y514010D01*
X597049Y513939D01*
X597135Y513864D01*
X597218Y513787D01*
X597298Y513707D01*
X597375Y513624D01*
X597450Y513538D01*
X597521Y513450D01*
X597589Y513360D01*
X597654Y513267D01*
X597716Y513172D01*
X597774Y513075D01*
X597829Y512976D01*
X597880Y512875D01*
X597928Y512772D01*
X597973Y512668D01*
X598013Y512562D01*
X598050Y512455D01*
X598083Y512347D01*
X598113Y512237D01*
X598138Y512127D01*
X598160Y512016D01*
X598177Y511904D01*
X598191Y511791D01*
X598201Y511678D01*
X598207Y511565D01*
X598209Y511452D01*
X598209Y506260D01*
X598210Y506260D02*
X598208Y506147D01*
X598202Y506034D01*
X598192Y505921D01*
X598178Y505808D01*
X598161Y505696D01*
X598139Y505585D01*
X598114Y505475D01*
X598084Y505365D01*
X598051Y505257D01*
X598014Y505150D01*
X597974Y505044D01*
X597929Y504940D01*
X597881Y504837D01*
X597830Y504736D01*
X597775Y504637D01*
X597717Y504540D01*
X597655Y504445D01*
X597590Y504352D01*
X597522Y504262D01*
X597451Y504174D01*
X597376Y504088D01*
X597299Y504005D01*
X597219Y503925D01*
X597136Y503848D01*
X597050Y503773D01*
X596962Y503702D01*
X596872Y503634D01*
X596779Y503569D01*
X596684Y503507D01*
X596587Y503449D01*
X596488Y503394D01*
X596387Y503343D01*
X596284Y503295D01*
X596180Y503250D01*
X596074Y503210D01*
X595967Y503173D01*
X595859Y503140D01*
X595749Y503110D01*
X595639Y503085D01*
X595528Y503063D01*
X595416Y503046D01*
X595303Y503032D01*
X595190Y503022D01*
X595077Y503016D01*
X594964Y503014D01*
X594963Y503014D02*
X591718Y503014D01*
D11*
X757708Y295638D02*
X757708Y282538D01*
X919708Y282538D01*
X919708Y295638D01*
X788908Y320538D02*
X757708Y320538D01*
X757708Y312538D01*
X887908Y320538D02*
X919708Y320538D01*
X919708Y312738D01*
X787708Y324038D02*
X787710Y324101D01*
X787716Y324163D01*
X787726Y324225D01*
X787739Y324287D01*
X787757Y324347D01*
X787778Y324406D01*
X787803Y324464D01*
X787832Y324520D01*
X787864Y324574D01*
X787899Y324626D01*
X787937Y324675D01*
X787979Y324723D01*
X788023Y324767D01*
X788071Y324809D01*
X788120Y324847D01*
X788172Y324882D01*
X788226Y324914D01*
X788282Y324943D01*
X788340Y324968D01*
X788399Y324989D01*
X788459Y325007D01*
X788521Y325020D01*
X788583Y325030D01*
X788645Y325036D01*
X788708Y325038D01*
X788771Y325036D01*
X788833Y325030D01*
X788895Y325020D01*
X788957Y325007D01*
X789017Y324989D01*
X789076Y324968D01*
X789134Y324943D01*
X789190Y324914D01*
X789244Y324882D01*
X789296Y324847D01*
X789345Y324809D01*
X789393Y324767D01*
X789437Y324723D01*
X789479Y324675D01*
X789517Y324626D01*
X789552Y324574D01*
X789584Y324520D01*
X789613Y324464D01*
X789638Y324406D01*
X789659Y324347D01*
X789677Y324287D01*
X789690Y324225D01*
X789700Y324163D01*
X789706Y324101D01*
X789708Y324038D01*
X789706Y323975D01*
X789700Y323913D01*
X789690Y323851D01*
X789677Y323789D01*
X789659Y323729D01*
X789638Y323670D01*
X789613Y323612D01*
X789584Y323556D01*
X789552Y323502D01*
X789517Y323450D01*
X789479Y323401D01*
X789437Y323353D01*
X789393Y323309D01*
X789345Y323267D01*
X789296Y323229D01*
X789244Y323194D01*
X789190Y323162D01*
X789134Y323133D01*
X789076Y323108D01*
X789017Y323087D01*
X788957Y323069D01*
X788895Y323056D01*
X788833Y323046D01*
X788771Y323040D01*
X788708Y323038D01*
X788645Y323040D01*
X788583Y323046D01*
X788521Y323056D01*
X788459Y323069D01*
X788399Y323087D01*
X788340Y323108D01*
X788282Y323133D01*
X788226Y323162D01*
X788172Y323194D01*
X788120Y323229D01*
X788071Y323267D01*
X788023Y323309D01*
X787979Y323353D01*
X787937Y323401D01*
X787899Y323450D01*
X787864Y323502D01*
X787832Y323556D01*
X787803Y323612D01*
X787778Y323670D01*
X787757Y323729D01*
X787739Y323789D01*
X787726Y323851D01*
X787716Y323913D01*
X787710Y323975D01*
X787708Y324038D01*
D12*
X846459Y310014D02*
X846459Y300926D01*
X846458Y300926D02*
X846456Y300827D01*
X846450Y300727D01*
X846441Y300628D01*
X846428Y300530D01*
X846411Y300432D01*
X846390Y300334D01*
X846365Y300238D01*
X846337Y300143D01*
X846305Y300049D01*
X846270Y299956D01*
X846231Y299864D01*
X846188Y299774D01*
X846143Y299686D01*
X846093Y299599D01*
X846041Y299515D01*
X845985Y299432D01*
X845927Y299352D01*
X845865Y299274D01*
X845800Y299199D01*
X845732Y299126D01*
X845662Y299056D01*
X845589Y298988D01*
X845514Y298923D01*
X845436Y298861D01*
X845356Y298803D01*
X845273Y298747D01*
X845189Y298695D01*
X845102Y298645D01*
X845014Y298600D01*
X844924Y298557D01*
X844832Y298518D01*
X844739Y298483D01*
X844645Y298451D01*
X844550Y298423D01*
X844454Y298398D01*
X844356Y298377D01*
X844258Y298360D01*
X844160Y298347D01*
X844061Y298338D01*
X843961Y298332D01*
X843862Y298330D01*
X842564Y298330D01*
X855302Y310014D02*
X855409Y310012D01*
X855515Y310006D01*
X855621Y309996D01*
X855727Y309983D01*
X855833Y309965D01*
X855937Y309944D01*
X856041Y309919D01*
X856144Y309890D01*
X856245Y309858D01*
X856345Y309821D01*
X856444Y309781D01*
X856542Y309738D01*
X856638Y309691D01*
X856732Y309640D01*
X856824Y309586D01*
X856914Y309529D01*
X857002Y309469D01*
X857087Y309405D01*
X857170Y309338D01*
X857251Y309268D01*
X857329Y309196D01*
X857405Y309120D01*
X857477Y309042D01*
X857547Y308961D01*
X857614Y308878D01*
X857678Y308793D01*
X857738Y308705D01*
X857795Y308615D01*
X857849Y308523D01*
X857900Y308429D01*
X857947Y308333D01*
X857990Y308235D01*
X858030Y308136D01*
X858067Y308036D01*
X858099Y307935D01*
X858128Y307832D01*
X858153Y307728D01*
X858174Y307624D01*
X858192Y307518D01*
X858205Y307412D01*
X858215Y307306D01*
X858221Y307200D01*
X858223Y307093D01*
X855302Y310014D02*
X855181Y310012D01*
X855060Y310006D01*
X854940Y309996D01*
X854819Y309983D01*
X854700Y309965D01*
X854580Y309944D01*
X854462Y309919D01*
X854345Y309890D01*
X854228Y309857D01*
X854113Y309821D01*
X853999Y309780D01*
X853886Y309737D01*
X853774Y309689D01*
X853665Y309638D01*
X853557Y309583D01*
X853450Y309525D01*
X853346Y309464D01*
X853244Y309399D01*
X853144Y309331D01*
X853046Y309260D01*
X852950Y309186D01*
X852857Y309109D01*
X852767Y309028D01*
X852679Y308945D01*
X852594Y308859D01*
X852511Y308770D01*
X852432Y308679D01*
X852355Y308585D01*
X852282Y308489D01*
X852212Y308391D01*
X852145Y308290D01*
X852081Y308187D01*
X852021Y308082D01*
X851964Y307975D01*
X851910Y307867D01*
X851860Y307757D01*
X851814Y307645D01*
X851771Y307532D01*
X851732Y307417D01*
X857250Y304821D02*
X857329Y304898D01*
X857405Y304979D01*
X857478Y305062D01*
X857548Y305147D01*
X857615Y305235D01*
X857679Y305325D01*
X857739Y305417D01*
X857796Y305512D01*
X857850Y305608D01*
X857901Y305706D01*
X857948Y305806D01*
X857992Y305908D01*
X858032Y306011D01*
X858068Y306115D01*
X858100Y306221D01*
X858129Y306327D01*
X858154Y306435D01*
X858176Y306543D01*
X858193Y306653D01*
X858207Y306762D01*
X858216Y306872D01*
X858222Y306983D01*
X858224Y307093D01*
X857250Y304821D02*
X851732Y298330D01*
X858223Y298330D01*
D11*
X1207280Y327244D02*
X1220380Y327244D01*
X1220380Y529244D01*
X1207280Y529244D01*
X1182380Y359044D02*
X1182380Y327244D01*
X1189880Y327244D01*
X1182380Y496944D02*
X1182380Y529144D01*
X1189480Y529144D01*
X1177880Y358244D02*
X1177882Y358307D01*
X1177888Y358369D01*
X1177898Y358431D01*
X1177911Y358493D01*
X1177929Y358553D01*
X1177950Y358612D01*
X1177975Y358670D01*
X1178004Y358726D01*
X1178036Y358780D01*
X1178071Y358832D01*
X1178109Y358881D01*
X1178151Y358929D01*
X1178195Y358973D01*
X1178243Y359015D01*
X1178292Y359053D01*
X1178344Y359088D01*
X1178398Y359120D01*
X1178454Y359149D01*
X1178512Y359174D01*
X1178571Y359195D01*
X1178631Y359213D01*
X1178693Y359226D01*
X1178755Y359236D01*
X1178817Y359242D01*
X1178880Y359244D01*
X1178943Y359242D01*
X1179005Y359236D01*
X1179067Y359226D01*
X1179129Y359213D01*
X1179189Y359195D01*
X1179248Y359174D01*
X1179306Y359149D01*
X1179362Y359120D01*
X1179416Y359088D01*
X1179468Y359053D01*
X1179517Y359015D01*
X1179565Y358973D01*
X1179609Y358929D01*
X1179651Y358881D01*
X1179689Y358832D01*
X1179724Y358780D01*
X1179756Y358726D01*
X1179785Y358670D01*
X1179810Y358612D01*
X1179831Y358553D01*
X1179849Y358493D01*
X1179862Y358431D01*
X1179872Y358369D01*
X1179878Y358307D01*
X1179880Y358244D01*
X1179878Y358181D01*
X1179872Y358119D01*
X1179862Y358057D01*
X1179849Y357995D01*
X1179831Y357935D01*
X1179810Y357876D01*
X1179785Y357818D01*
X1179756Y357762D01*
X1179724Y357708D01*
X1179689Y357656D01*
X1179651Y357607D01*
X1179609Y357559D01*
X1179565Y357515D01*
X1179517Y357473D01*
X1179468Y357435D01*
X1179416Y357400D01*
X1179362Y357368D01*
X1179306Y357339D01*
X1179248Y357314D01*
X1179189Y357293D01*
X1179129Y357275D01*
X1179067Y357262D01*
X1179005Y357252D01*
X1178943Y357246D01*
X1178880Y357244D01*
X1178817Y357246D01*
X1178755Y357252D01*
X1178693Y357262D01*
X1178631Y357275D01*
X1178571Y357293D01*
X1178512Y357314D01*
X1178454Y357339D01*
X1178398Y357368D01*
X1178344Y357400D01*
X1178292Y357435D01*
X1178243Y357473D01*
X1178195Y357515D01*
X1178151Y357559D01*
X1178109Y357607D01*
X1178071Y357656D01*
X1178036Y357708D01*
X1178004Y357762D01*
X1177975Y357818D01*
X1177950Y357876D01*
X1177929Y357935D01*
X1177911Y357995D01*
X1177898Y358057D01*
X1177888Y358119D01*
X1177882Y358181D01*
X1177880Y358244D01*
D12*
X1161876Y406547D02*
X1152788Y406547D01*
X1161876Y406546D02*
X1161975Y406544D01*
X1162075Y406538D01*
X1162174Y406529D01*
X1162272Y406516D01*
X1162370Y406499D01*
X1162468Y406478D01*
X1162564Y406453D01*
X1162659Y406425D01*
X1162753Y406393D01*
X1162846Y406358D01*
X1162938Y406319D01*
X1163028Y406276D01*
X1163116Y406231D01*
X1163203Y406181D01*
X1163287Y406129D01*
X1163370Y406073D01*
X1163450Y406015D01*
X1163528Y405953D01*
X1163603Y405888D01*
X1163676Y405820D01*
X1163746Y405750D01*
X1163814Y405677D01*
X1163879Y405602D01*
X1163941Y405524D01*
X1163999Y405444D01*
X1164055Y405361D01*
X1164107Y405277D01*
X1164157Y405190D01*
X1164202Y405102D01*
X1164245Y405012D01*
X1164284Y404920D01*
X1164319Y404827D01*
X1164351Y404733D01*
X1164379Y404638D01*
X1164404Y404542D01*
X1164425Y404444D01*
X1164442Y404346D01*
X1164455Y404248D01*
X1164464Y404149D01*
X1164470Y404049D01*
X1164472Y403950D01*
X1164472Y402652D01*
X1164472Y411820D02*
X1164472Y415066D01*
X1164470Y415179D01*
X1164464Y415292D01*
X1164454Y415405D01*
X1164440Y415518D01*
X1164423Y415630D01*
X1164401Y415741D01*
X1164376Y415851D01*
X1164346Y415961D01*
X1164313Y416069D01*
X1164276Y416176D01*
X1164236Y416282D01*
X1164191Y416386D01*
X1164143Y416489D01*
X1164092Y416590D01*
X1164037Y416689D01*
X1163979Y416786D01*
X1163917Y416881D01*
X1163852Y416974D01*
X1163784Y417064D01*
X1163713Y417152D01*
X1163638Y417238D01*
X1163561Y417321D01*
X1163481Y417401D01*
X1163398Y417478D01*
X1163312Y417553D01*
X1163224Y417624D01*
X1163134Y417692D01*
X1163041Y417757D01*
X1162946Y417819D01*
X1162849Y417877D01*
X1162750Y417932D01*
X1162649Y417983D01*
X1162546Y418031D01*
X1162442Y418076D01*
X1162336Y418116D01*
X1162229Y418153D01*
X1162121Y418186D01*
X1162011Y418216D01*
X1161901Y418241D01*
X1161790Y418263D01*
X1161678Y418280D01*
X1161565Y418294D01*
X1161452Y418304D01*
X1161339Y418310D01*
X1161226Y418312D01*
X1161113Y418310D01*
X1161000Y418304D01*
X1160887Y418294D01*
X1160774Y418280D01*
X1160662Y418263D01*
X1160551Y418241D01*
X1160441Y418216D01*
X1160331Y418186D01*
X1160223Y418153D01*
X1160116Y418116D01*
X1160010Y418076D01*
X1159906Y418031D01*
X1159803Y417983D01*
X1159702Y417932D01*
X1159603Y417877D01*
X1159506Y417819D01*
X1159411Y417757D01*
X1159318Y417692D01*
X1159228Y417624D01*
X1159140Y417553D01*
X1159054Y417478D01*
X1158971Y417401D01*
X1158891Y417321D01*
X1158814Y417238D01*
X1158739Y417152D01*
X1158668Y417064D01*
X1158600Y416974D01*
X1158535Y416881D01*
X1158473Y416786D01*
X1158415Y416689D01*
X1158360Y416590D01*
X1158309Y416489D01*
X1158261Y416386D01*
X1158216Y416282D01*
X1158176Y416176D01*
X1158139Y416069D01*
X1158106Y415961D01*
X1158076Y415851D01*
X1158051Y415741D01*
X1158029Y415630D01*
X1158012Y415518D01*
X1157998Y415405D01*
X1157988Y415292D01*
X1157982Y415179D01*
X1157980Y415066D01*
X1152788Y415715D02*
X1152788Y411820D01*
X1152788Y415715D02*
X1152790Y415816D01*
X1152796Y415916D01*
X1152806Y416016D01*
X1152819Y416116D01*
X1152837Y416215D01*
X1152858Y416314D01*
X1152883Y416411D01*
X1152912Y416508D01*
X1152945Y416603D01*
X1152981Y416697D01*
X1153021Y416789D01*
X1153064Y416880D01*
X1153111Y416969D01*
X1153161Y417056D01*
X1153215Y417142D01*
X1153272Y417225D01*
X1153332Y417305D01*
X1153395Y417384D01*
X1153462Y417460D01*
X1153531Y417533D01*
X1153603Y417603D01*
X1153677Y417671D01*
X1153754Y417736D01*
X1153834Y417797D01*
X1153916Y417856D01*
X1154000Y417911D01*
X1154086Y417963D01*
X1154174Y418012D01*
X1154264Y418057D01*
X1154356Y418099D01*
X1154449Y418137D01*
X1154544Y418171D01*
X1154639Y418202D01*
X1154736Y418229D01*
X1154834Y418252D01*
X1154933Y418272D01*
X1155033Y418287D01*
X1155133Y418299D01*
X1155233Y418307D01*
X1155334Y418311D01*
X1155434Y418311D01*
X1155535Y418307D01*
X1155635Y418299D01*
X1155735Y418287D01*
X1155835Y418272D01*
X1155934Y418252D01*
X1156032Y418229D01*
X1156129Y418202D01*
X1156224Y418171D01*
X1156319Y418137D01*
X1156412Y418099D01*
X1156504Y418057D01*
X1156594Y418012D01*
X1156682Y417963D01*
X1156768Y417911D01*
X1156852Y417856D01*
X1156934Y417797D01*
X1157014Y417736D01*
X1157091Y417671D01*
X1157165Y417603D01*
X1157237Y417533D01*
X1157306Y417460D01*
X1157373Y417384D01*
X1157436Y417305D01*
X1157496Y417225D01*
X1157553Y417142D01*
X1157607Y417056D01*
X1157657Y416969D01*
X1157704Y416880D01*
X1157747Y416789D01*
X1157787Y416697D01*
X1157823Y416603D01*
X1157856Y416508D01*
X1157885Y416411D01*
X1157910Y416314D01*
X1157931Y416215D01*
X1157949Y416116D01*
X1157962Y416016D01*
X1157972Y415916D01*
X1157978Y415816D01*
X1157980Y415715D01*
X1157981Y415715D02*
X1157981Y413118D01*
X921258Y255016D02*
X909574Y255016D01*
X909574Y258262D01*
X909576Y258375D01*
X909582Y258488D01*
X909592Y258601D01*
X909606Y258714D01*
X909623Y258826D01*
X909645Y258937D01*
X909670Y259047D01*
X909700Y259157D01*
X909733Y259265D01*
X909770Y259372D01*
X909810Y259478D01*
X909855Y259582D01*
X909903Y259685D01*
X909954Y259786D01*
X910009Y259885D01*
X910067Y259982D01*
X910129Y260077D01*
X910194Y260170D01*
X910262Y260260D01*
X910333Y260348D01*
X910408Y260434D01*
X910485Y260517D01*
X910565Y260597D01*
X910648Y260674D01*
X910734Y260749D01*
X910822Y260820D01*
X910912Y260888D01*
X911005Y260953D01*
X911100Y261015D01*
X911197Y261073D01*
X911296Y261128D01*
X911397Y261179D01*
X911500Y261227D01*
X911604Y261272D01*
X911710Y261312D01*
X911817Y261349D01*
X911925Y261382D01*
X912035Y261412D01*
X912145Y261437D01*
X912256Y261459D01*
X912368Y261476D01*
X912481Y261490D01*
X912594Y261500D01*
X912707Y261506D01*
X912820Y261508D01*
X912933Y261506D01*
X913046Y261500D01*
X913159Y261490D01*
X913272Y261476D01*
X913384Y261459D01*
X913495Y261437D01*
X913605Y261412D01*
X913715Y261382D01*
X913823Y261349D01*
X913930Y261312D01*
X914036Y261272D01*
X914140Y261227D01*
X914243Y261179D01*
X914344Y261128D01*
X914443Y261073D01*
X914540Y261015D01*
X914635Y260953D01*
X914728Y260888D01*
X914818Y260820D01*
X914906Y260749D01*
X914992Y260674D01*
X915075Y260597D01*
X915155Y260517D01*
X915232Y260434D01*
X915307Y260348D01*
X915378Y260260D01*
X915446Y260170D01*
X915511Y260077D01*
X915573Y259982D01*
X915631Y259885D01*
X915686Y259786D01*
X915737Y259685D01*
X915785Y259582D01*
X915830Y259478D01*
X915870Y259372D01*
X915907Y259265D01*
X915940Y259157D01*
X915970Y259047D01*
X915995Y258937D01*
X916017Y258826D01*
X916034Y258714D01*
X916048Y258601D01*
X916058Y258488D01*
X916064Y258375D01*
X916066Y258262D01*
X916065Y258262D02*
X916065Y255016D01*
X916065Y258911D02*
X921258Y261507D01*
X912170Y266372D02*
X909574Y269618D01*
X921258Y269618D01*
X921258Y272863D02*
X921258Y266372D01*
X712470Y308356D02*
X712470Y320040D01*
X715716Y320040D01*
X715829Y320038D01*
X715942Y320032D01*
X716055Y320022D01*
X716168Y320008D01*
X716280Y319991D01*
X716391Y319969D01*
X716501Y319944D01*
X716611Y319914D01*
X716719Y319881D01*
X716826Y319844D01*
X716932Y319804D01*
X717036Y319759D01*
X717139Y319711D01*
X717240Y319660D01*
X717339Y319605D01*
X717436Y319547D01*
X717531Y319485D01*
X717624Y319420D01*
X717714Y319352D01*
X717802Y319281D01*
X717888Y319206D01*
X717971Y319129D01*
X718051Y319049D01*
X718128Y318966D01*
X718203Y318880D01*
X718274Y318792D01*
X718342Y318702D01*
X718407Y318609D01*
X718469Y318514D01*
X718527Y318417D01*
X718582Y318318D01*
X718633Y318217D01*
X718681Y318114D01*
X718726Y318010D01*
X718766Y317904D01*
X718803Y317797D01*
X718836Y317689D01*
X718866Y317579D01*
X718891Y317469D01*
X718913Y317358D01*
X718930Y317246D01*
X718944Y317133D01*
X718954Y317020D01*
X718960Y316907D01*
X718962Y316794D01*
X718960Y316681D01*
X718954Y316568D01*
X718944Y316455D01*
X718930Y316342D01*
X718913Y316230D01*
X718891Y316119D01*
X718866Y316009D01*
X718836Y315899D01*
X718803Y315791D01*
X718766Y315684D01*
X718726Y315578D01*
X718681Y315474D01*
X718633Y315371D01*
X718582Y315270D01*
X718527Y315171D01*
X718469Y315074D01*
X718407Y314979D01*
X718342Y314886D01*
X718274Y314796D01*
X718203Y314708D01*
X718128Y314622D01*
X718051Y314539D01*
X717971Y314459D01*
X717888Y314382D01*
X717802Y314307D01*
X717714Y314236D01*
X717624Y314168D01*
X717531Y314103D01*
X717436Y314041D01*
X717339Y313983D01*
X717240Y313928D01*
X717139Y313877D01*
X717036Y313829D01*
X716932Y313784D01*
X716826Y313744D01*
X716719Y313707D01*
X716611Y313674D01*
X716501Y313644D01*
X716391Y313619D01*
X716280Y313597D01*
X716168Y313580D01*
X716055Y313566D01*
X715942Y313556D01*
X715829Y313550D01*
X715716Y313548D01*
X715716Y313549D02*
X712470Y313549D01*
X716365Y313549D02*
X718961Y308356D01*
X730317Y317119D02*
X730315Y317226D01*
X730309Y317332D01*
X730299Y317438D01*
X730286Y317544D01*
X730268Y317650D01*
X730247Y317754D01*
X730222Y317858D01*
X730193Y317961D01*
X730161Y318062D01*
X730124Y318162D01*
X730084Y318261D01*
X730041Y318359D01*
X729994Y318455D01*
X729943Y318549D01*
X729889Y318641D01*
X729832Y318731D01*
X729772Y318819D01*
X729708Y318904D01*
X729641Y318987D01*
X729571Y319068D01*
X729499Y319146D01*
X729423Y319222D01*
X729345Y319294D01*
X729264Y319364D01*
X729181Y319431D01*
X729096Y319495D01*
X729008Y319555D01*
X728918Y319612D01*
X728826Y319666D01*
X728732Y319717D01*
X728636Y319764D01*
X728538Y319807D01*
X728439Y319847D01*
X728339Y319884D01*
X728238Y319916D01*
X728135Y319945D01*
X728031Y319970D01*
X727927Y319991D01*
X727821Y320009D01*
X727715Y320022D01*
X727609Y320032D01*
X727503Y320038D01*
X727396Y320040D01*
X727275Y320038D01*
X727154Y320032D01*
X727034Y320022D01*
X726913Y320009D01*
X726794Y319991D01*
X726674Y319970D01*
X726556Y319945D01*
X726439Y319916D01*
X726322Y319883D01*
X726207Y319847D01*
X726093Y319806D01*
X725980Y319763D01*
X725868Y319715D01*
X725759Y319664D01*
X725651Y319609D01*
X725544Y319551D01*
X725440Y319490D01*
X725338Y319425D01*
X725238Y319357D01*
X725140Y319286D01*
X725044Y319212D01*
X724951Y319135D01*
X724861Y319054D01*
X724773Y318971D01*
X724688Y318885D01*
X724605Y318796D01*
X724526Y318705D01*
X724449Y318611D01*
X724376Y318515D01*
X724306Y318417D01*
X724239Y318316D01*
X724175Y318213D01*
X724115Y318108D01*
X724058Y318001D01*
X724004Y317893D01*
X723954Y317783D01*
X723908Y317671D01*
X723865Y317558D01*
X723826Y317443D01*
X729344Y314847D02*
X729423Y314924D01*
X729499Y315005D01*
X729572Y315088D01*
X729642Y315173D01*
X729709Y315261D01*
X729773Y315351D01*
X729833Y315443D01*
X729890Y315538D01*
X729944Y315634D01*
X729995Y315732D01*
X730042Y315832D01*
X730086Y315934D01*
X730126Y316037D01*
X730162Y316141D01*
X730194Y316247D01*
X730223Y316353D01*
X730248Y316461D01*
X730270Y316569D01*
X730287Y316679D01*
X730301Y316788D01*
X730310Y316898D01*
X730316Y317009D01*
X730318Y317119D01*
X729344Y314847D02*
X723826Y308356D01*
X730317Y308356D01*
D11*
X617100Y544400D02*
X617100Y569800D01*
X617100Y544400D02*
X617100Y519000D01*
X626625Y519000D01*
X632975Y519000D01*
X642500Y519000D01*
X1125100Y519000D01*
X1125100Y569800D01*
X617100Y569800D01*
X617100Y544400D02*
X642500Y544400D01*
X642500Y519000D01*
X626625Y519000D02*
X626625Y515825D01*
X632975Y515825D01*
X632975Y519000D01*
D12*
X629673Y512777D02*
X627133Y510745D01*
X629673Y512777D02*
X629673Y503633D01*
X627133Y503633D02*
X632213Y503633D01*
D11*
X983438Y495404D02*
X983438Y381404D01*
X983438Y495404D02*
X818208Y495404D01*
X818208Y381404D01*
X983438Y381404D01*
D13*
X832224Y388822D02*
X832222Y388898D01*
X832216Y388973D01*
X832206Y389048D01*
X832192Y389122D01*
X832175Y389195D01*
X832153Y389268D01*
X832128Y389339D01*
X832099Y389409D01*
X832067Y389477D01*
X832031Y389544D01*
X831991Y389608D01*
X831948Y389670D01*
X831902Y389730D01*
X831853Y389788D01*
X831801Y389842D01*
X831747Y389894D01*
X831689Y389943D01*
X831629Y389989D01*
X831567Y390032D01*
X831503Y390072D01*
X831436Y390108D01*
X831368Y390140D01*
X831298Y390169D01*
X831227Y390194D01*
X831154Y390216D01*
X831081Y390233D01*
X831007Y390247D01*
X830932Y390257D01*
X830857Y390263D01*
X830781Y390265D01*
X832224Y388822D02*
X832222Y388713D01*
X832216Y388603D01*
X832206Y388494D01*
X832193Y388386D01*
X832175Y388278D01*
X832154Y388171D01*
X832128Y388064D01*
X832099Y387959D01*
X832066Y387855D01*
X832030Y387751D01*
X831990Y387650D01*
X831946Y387550D01*
X831898Y387451D01*
X831847Y387354D01*
X831793Y387259D01*
X831735Y387166D01*
X831674Y387076D01*
X831610Y386987D01*
X831542Y386901D01*
X831472Y386817D01*
X831399Y386736D01*
X831322Y386658D01*
X827175Y386838D02*
X827099Y386840D01*
X827024Y386846D01*
X826949Y386856D01*
X826875Y386870D01*
X826802Y386887D01*
X826729Y386909D01*
X826658Y386934D01*
X826588Y386963D01*
X826520Y386995D01*
X826454Y387031D01*
X826389Y387071D01*
X826327Y387114D01*
X826267Y387160D01*
X826209Y387209D01*
X826155Y387261D01*
X826103Y387315D01*
X826054Y387373D01*
X826008Y387433D01*
X825965Y387495D01*
X825925Y387560D01*
X825889Y387626D01*
X825857Y387694D01*
X825828Y387764D01*
X825803Y387835D01*
X825781Y387908D01*
X825764Y387981D01*
X825750Y388055D01*
X825740Y388130D01*
X825734Y388205D01*
X825732Y388281D01*
X825734Y388383D01*
X825740Y388486D01*
X825749Y388588D01*
X825763Y388689D01*
X825780Y388790D01*
X825801Y388890D01*
X825826Y388989D01*
X825855Y389088D01*
X825887Y389185D01*
X825923Y389281D01*
X825963Y389375D01*
X826006Y389468D01*
X826053Y389559D01*
X826103Y389648D01*
X826156Y389736D01*
X826213Y389821D01*
X826273Y389904D01*
X828437Y387559D02*
X828397Y387495D01*
X828353Y387432D01*
X828307Y387372D01*
X828257Y387315D01*
X828204Y387260D01*
X828148Y387208D01*
X828090Y387159D01*
X828030Y387113D01*
X827967Y387070D01*
X827902Y387031D01*
X827835Y386995D01*
X827766Y386963D01*
X827696Y386934D01*
X827624Y386909D01*
X827551Y386887D01*
X827477Y386869D01*
X827402Y386856D01*
X827327Y386846D01*
X827251Y386840D01*
X827175Y386838D01*
X829519Y389543D02*
X829559Y389607D01*
X829603Y389670D01*
X829650Y389730D01*
X829699Y389787D01*
X829752Y389842D01*
X829808Y389894D01*
X829866Y389943D01*
X829926Y389989D01*
X829989Y390032D01*
X830054Y390071D01*
X830121Y390107D01*
X830190Y390139D01*
X830260Y390168D01*
X830332Y390194D01*
X830405Y390215D01*
X830479Y390233D01*
X830554Y390246D01*
X830629Y390256D01*
X830705Y390262D01*
X830781Y390264D01*
X829519Y389543D02*
X828437Y387560D01*
X826453Y392748D02*
X825732Y392748D01*
X825732Y396355D01*
X832224Y394551D01*
X832224Y400851D02*
X825732Y398687D01*
X825732Y403015D02*
X832224Y400851D01*
X830421Y405348D02*
X830338Y405350D01*
X830255Y405356D01*
X830172Y405365D01*
X830090Y405379D01*
X830008Y405396D01*
X829928Y405417D01*
X829848Y405441D01*
X829770Y405470D01*
X829693Y405502D01*
X829617Y405537D01*
X829544Y405576D01*
X829472Y405618D01*
X829402Y405664D01*
X829334Y405712D01*
X829269Y405764D01*
X829206Y405819D01*
X829146Y405876D01*
X829089Y405936D01*
X829034Y405999D01*
X828982Y406064D01*
X828934Y406132D01*
X828888Y406202D01*
X828846Y406274D01*
X828807Y406347D01*
X828772Y406423D01*
X828740Y406500D01*
X828711Y406578D01*
X828687Y406658D01*
X828666Y406738D01*
X828649Y406820D01*
X828635Y406902D01*
X828626Y406985D01*
X828620Y407068D01*
X828618Y407151D01*
X828620Y407234D01*
X828626Y407317D01*
X828635Y407400D01*
X828649Y407482D01*
X828666Y407564D01*
X828687Y407644D01*
X828711Y407724D01*
X828740Y407802D01*
X828772Y407879D01*
X828807Y407955D01*
X828846Y408028D01*
X828888Y408100D01*
X828934Y408170D01*
X828982Y408238D01*
X829034Y408303D01*
X829089Y408366D01*
X829146Y408426D01*
X829206Y408483D01*
X829269Y408538D01*
X829334Y408590D01*
X829402Y408638D01*
X829472Y408684D01*
X829544Y408726D01*
X829617Y408765D01*
X829693Y408800D01*
X829770Y408832D01*
X829848Y408861D01*
X829928Y408885D01*
X830008Y408906D01*
X830090Y408923D01*
X830172Y408937D01*
X830255Y408946D01*
X830338Y408952D01*
X830421Y408954D01*
X830504Y408952D01*
X830587Y408946D01*
X830670Y408937D01*
X830752Y408923D01*
X830834Y408906D01*
X830914Y408885D01*
X830994Y408861D01*
X831072Y408832D01*
X831149Y408800D01*
X831225Y408765D01*
X831298Y408726D01*
X831370Y408684D01*
X831440Y408638D01*
X831508Y408590D01*
X831573Y408538D01*
X831636Y408483D01*
X831696Y408426D01*
X831753Y408366D01*
X831808Y408303D01*
X831860Y408238D01*
X831908Y408170D01*
X831954Y408100D01*
X831996Y408028D01*
X832035Y407955D01*
X832070Y407879D01*
X832102Y407802D01*
X832131Y407724D01*
X832155Y407644D01*
X832176Y407564D01*
X832193Y407482D01*
X832207Y407400D01*
X832216Y407317D01*
X832222Y407234D01*
X832224Y407151D01*
X832222Y407068D01*
X832216Y406985D01*
X832207Y406902D01*
X832193Y406820D01*
X832176Y406738D01*
X832155Y406658D01*
X832131Y406578D01*
X832102Y406500D01*
X832070Y406423D01*
X832035Y406347D01*
X831996Y406274D01*
X831954Y406202D01*
X831908Y406132D01*
X831860Y406064D01*
X831808Y405999D01*
X831753Y405936D01*
X831696Y405876D01*
X831636Y405819D01*
X831573Y405764D01*
X831508Y405712D01*
X831440Y405664D01*
X831370Y405618D01*
X831298Y405576D01*
X831225Y405537D01*
X831149Y405502D01*
X831072Y405470D01*
X830994Y405441D01*
X830914Y405417D01*
X830834Y405396D01*
X830752Y405379D01*
X830670Y405365D01*
X830587Y405356D01*
X830504Y405350D01*
X830421Y405348D01*
X827175Y405708D02*
X827099Y405710D01*
X827024Y405716D01*
X826949Y405726D01*
X826875Y405740D01*
X826802Y405757D01*
X826729Y405779D01*
X826658Y405804D01*
X826588Y405833D01*
X826520Y405865D01*
X826454Y405901D01*
X826389Y405941D01*
X826327Y405984D01*
X826267Y406030D01*
X826209Y406079D01*
X826155Y406131D01*
X826103Y406185D01*
X826054Y406243D01*
X826008Y406303D01*
X825965Y406365D01*
X825925Y406430D01*
X825889Y406496D01*
X825857Y406564D01*
X825828Y406634D01*
X825803Y406705D01*
X825781Y406778D01*
X825764Y406851D01*
X825750Y406925D01*
X825740Y407000D01*
X825734Y407075D01*
X825732Y407151D01*
X825734Y407227D01*
X825740Y407302D01*
X825750Y407377D01*
X825764Y407451D01*
X825781Y407524D01*
X825803Y407597D01*
X825828Y407668D01*
X825857Y407738D01*
X825889Y407806D01*
X825925Y407873D01*
X825965Y407937D01*
X826008Y407999D01*
X826054Y408059D01*
X826103Y408117D01*
X826155Y408171D01*
X826209Y408223D01*
X826267Y408272D01*
X826327Y408318D01*
X826389Y408361D01*
X826454Y408401D01*
X826520Y408437D01*
X826588Y408469D01*
X826658Y408498D01*
X826729Y408523D01*
X826802Y408545D01*
X826875Y408562D01*
X826949Y408576D01*
X827024Y408586D01*
X827099Y408592D01*
X827175Y408594D01*
X827251Y408592D01*
X827326Y408586D01*
X827401Y408576D01*
X827475Y408562D01*
X827548Y408545D01*
X827621Y408523D01*
X827692Y408498D01*
X827762Y408469D01*
X827830Y408437D01*
X827897Y408401D01*
X827961Y408361D01*
X828023Y408318D01*
X828083Y408272D01*
X828141Y408223D01*
X828195Y408171D01*
X828247Y408117D01*
X828296Y408059D01*
X828342Y407999D01*
X828385Y407937D01*
X828425Y407873D01*
X828461Y407806D01*
X828493Y407738D01*
X828522Y407668D01*
X828547Y407597D01*
X828569Y407524D01*
X828586Y407451D01*
X828600Y407377D01*
X828610Y407302D01*
X828616Y407227D01*
X828618Y407151D01*
X828616Y407075D01*
X828610Y407000D01*
X828600Y406925D01*
X828586Y406851D01*
X828569Y406778D01*
X828547Y406705D01*
X828522Y406634D01*
X828493Y406564D01*
X828461Y406496D01*
X828425Y406430D01*
X828385Y406365D01*
X828342Y406303D01*
X828296Y406243D01*
X828247Y406185D01*
X828195Y406131D01*
X828141Y406079D01*
X828083Y406030D01*
X828023Y405984D01*
X827961Y405941D01*
X827897Y405901D01*
X827830Y405865D01*
X827762Y405833D01*
X827692Y405804D01*
X827621Y405779D01*
X827548Y405757D01*
X827475Y405740D01*
X827401Y405726D01*
X827326Y405716D01*
X827251Y405710D01*
X827175Y405708D01*
X825732Y411870D02*
X832224Y411870D01*
X825732Y411870D02*
X825732Y414755D01*
X828617Y414755D02*
X828617Y411870D01*
X832224Y417108D02*
X832224Y418911D01*
X832222Y418994D01*
X832216Y419077D01*
X832207Y419160D01*
X832193Y419242D01*
X832176Y419324D01*
X832155Y419404D01*
X832131Y419484D01*
X832102Y419562D01*
X832070Y419639D01*
X832035Y419715D01*
X831996Y419788D01*
X831954Y419860D01*
X831908Y419930D01*
X831860Y419998D01*
X831808Y420063D01*
X831753Y420126D01*
X831696Y420186D01*
X831636Y420243D01*
X831573Y420298D01*
X831508Y420350D01*
X831440Y420398D01*
X831370Y420444D01*
X831298Y420486D01*
X831225Y420525D01*
X831149Y420560D01*
X831072Y420592D01*
X830994Y420621D01*
X830914Y420645D01*
X830834Y420666D01*
X830752Y420683D01*
X830670Y420697D01*
X830587Y420706D01*
X830504Y420712D01*
X830421Y420714D01*
X830338Y420712D01*
X830255Y420706D01*
X830172Y420697D01*
X830090Y420683D01*
X830008Y420666D01*
X829928Y420645D01*
X829848Y420621D01*
X829770Y420592D01*
X829693Y420560D01*
X829617Y420525D01*
X829544Y420486D01*
X829472Y420444D01*
X829402Y420398D01*
X829334Y420350D01*
X829269Y420298D01*
X829206Y420243D01*
X829146Y420186D01*
X829089Y420126D01*
X829034Y420063D01*
X828982Y419998D01*
X828934Y419930D01*
X828888Y419860D01*
X828846Y419788D01*
X828807Y419715D01*
X828772Y419639D01*
X828740Y419562D01*
X828711Y419484D01*
X828687Y419404D01*
X828666Y419324D01*
X828649Y419242D01*
X828635Y419160D01*
X828626Y419077D01*
X828620Y418994D01*
X828618Y418911D01*
X825732Y419272D02*
X825732Y417108D01*
X825732Y419272D02*
X825734Y419348D01*
X825740Y419423D01*
X825750Y419498D01*
X825764Y419572D01*
X825781Y419645D01*
X825803Y419718D01*
X825828Y419789D01*
X825857Y419859D01*
X825889Y419927D01*
X825925Y419994D01*
X825965Y420058D01*
X826008Y420120D01*
X826054Y420180D01*
X826103Y420238D01*
X826155Y420292D01*
X826209Y420344D01*
X826267Y420393D01*
X826327Y420439D01*
X826389Y420482D01*
X826454Y420522D01*
X826520Y420558D01*
X826588Y420590D01*
X826658Y420619D01*
X826729Y420644D01*
X826802Y420666D01*
X826875Y420683D01*
X826949Y420697D01*
X827024Y420707D01*
X827099Y420713D01*
X827175Y420715D01*
X827251Y420713D01*
X827326Y420707D01*
X827401Y420697D01*
X827475Y420683D01*
X827548Y420666D01*
X827621Y420644D01*
X827692Y420619D01*
X827762Y420590D01*
X827830Y420558D01*
X827897Y420522D01*
X827961Y420482D01*
X828023Y420439D01*
X828083Y420393D01*
X828141Y420344D01*
X828195Y420292D01*
X828247Y420238D01*
X828296Y420180D01*
X828342Y420120D01*
X828385Y420058D01*
X828425Y419994D01*
X828461Y419927D01*
X828493Y419859D01*
X828522Y419789D01*
X828547Y419718D01*
X828569Y419645D01*
X828586Y419572D01*
X828600Y419498D01*
X828610Y419423D01*
X828616Y419348D01*
X828618Y419272D01*
X828617Y419272D02*
X828617Y417829D01*
X837732Y385658D02*
X844224Y385658D01*
X837732Y385658D02*
X837732Y387461D01*
X837734Y387544D01*
X837740Y387627D01*
X837749Y387710D01*
X837763Y387792D01*
X837780Y387874D01*
X837801Y387954D01*
X837825Y388034D01*
X837854Y388112D01*
X837886Y388189D01*
X837921Y388265D01*
X837960Y388338D01*
X838002Y388410D01*
X838048Y388480D01*
X838096Y388548D01*
X838148Y388613D01*
X838203Y388676D01*
X838260Y388736D01*
X838320Y388793D01*
X838383Y388848D01*
X838448Y388900D01*
X838516Y388948D01*
X838586Y388994D01*
X838658Y389036D01*
X838731Y389075D01*
X838807Y389110D01*
X838884Y389142D01*
X838962Y389171D01*
X839042Y389195D01*
X839122Y389216D01*
X839204Y389233D01*
X839286Y389247D01*
X839369Y389256D01*
X839452Y389262D01*
X839535Y389264D01*
X839618Y389262D01*
X839701Y389256D01*
X839784Y389247D01*
X839866Y389233D01*
X839948Y389216D01*
X840028Y389195D01*
X840108Y389171D01*
X840186Y389142D01*
X840263Y389110D01*
X840339Y389075D01*
X840412Y389036D01*
X840484Y388994D01*
X840554Y388948D01*
X840622Y388900D01*
X840687Y388848D01*
X840750Y388793D01*
X840810Y388736D01*
X840867Y388676D01*
X840922Y388613D01*
X840974Y388548D01*
X841022Y388480D01*
X841068Y388410D01*
X841110Y388338D01*
X841149Y388265D01*
X841184Y388189D01*
X841216Y388112D01*
X841245Y388034D01*
X841269Y387954D01*
X841290Y387874D01*
X841307Y387792D01*
X841321Y387710D01*
X841330Y387627D01*
X841336Y387544D01*
X841338Y387461D01*
X841339Y387461D02*
X841339Y385658D01*
X841339Y391600D02*
X842781Y391600D01*
X841339Y391599D02*
X841263Y391601D01*
X841188Y391607D01*
X841113Y391617D01*
X841039Y391631D01*
X840966Y391648D01*
X840893Y391670D01*
X840822Y391695D01*
X840752Y391724D01*
X840684Y391756D01*
X840618Y391792D01*
X840553Y391832D01*
X840491Y391875D01*
X840431Y391921D01*
X840373Y391970D01*
X840319Y392022D01*
X840267Y392076D01*
X840218Y392134D01*
X840172Y392194D01*
X840129Y392256D01*
X840089Y392321D01*
X840053Y392387D01*
X840021Y392455D01*
X839992Y392525D01*
X839967Y392596D01*
X839945Y392669D01*
X839928Y392742D01*
X839914Y392816D01*
X839904Y392891D01*
X839898Y392966D01*
X839896Y393042D01*
X839898Y393118D01*
X839904Y393193D01*
X839914Y393268D01*
X839928Y393342D01*
X839945Y393415D01*
X839967Y393488D01*
X839992Y393559D01*
X840021Y393629D01*
X840053Y393697D01*
X840089Y393764D01*
X840129Y393828D01*
X840172Y393890D01*
X840218Y393950D01*
X840267Y394008D01*
X840319Y394062D01*
X840373Y394114D01*
X840431Y394163D01*
X840491Y394209D01*
X840553Y394252D01*
X840618Y394292D01*
X840684Y394328D01*
X840752Y394360D01*
X840822Y394389D01*
X840893Y394414D01*
X840966Y394436D01*
X841039Y394453D01*
X841113Y394467D01*
X841188Y394477D01*
X841263Y394483D01*
X841339Y394485D01*
X842781Y394485D01*
X842857Y394483D01*
X842932Y394477D01*
X843007Y394467D01*
X843081Y394453D01*
X843154Y394436D01*
X843227Y394414D01*
X843298Y394389D01*
X843368Y394360D01*
X843436Y394328D01*
X843503Y394292D01*
X843567Y394252D01*
X843629Y394209D01*
X843689Y394163D01*
X843747Y394114D01*
X843801Y394062D01*
X843853Y394008D01*
X843902Y393950D01*
X843948Y393890D01*
X843991Y393828D01*
X844031Y393764D01*
X844067Y393697D01*
X844099Y393629D01*
X844128Y393559D01*
X844153Y393488D01*
X844175Y393415D01*
X844192Y393342D01*
X844206Y393268D01*
X844216Y393193D01*
X844222Y393118D01*
X844224Y393042D01*
X844222Y392966D01*
X844216Y392891D01*
X844206Y392816D01*
X844192Y392742D01*
X844175Y392669D01*
X844153Y392596D01*
X844128Y392525D01*
X844099Y392455D01*
X844067Y392387D01*
X844031Y392321D01*
X843991Y392256D01*
X843948Y392194D01*
X843902Y392134D01*
X843853Y392076D01*
X843801Y392022D01*
X843747Y391970D01*
X843689Y391921D01*
X843629Y391875D01*
X843567Y391832D01*
X843503Y391792D01*
X843436Y391756D01*
X843368Y391724D01*
X843298Y391695D01*
X843227Y391670D01*
X843154Y391648D01*
X843081Y391631D01*
X843007Y391617D01*
X842932Y391607D01*
X842857Y391601D01*
X842781Y391599D01*
X843142Y397148D02*
X837732Y397148D01*
X843142Y397148D02*
X843205Y397150D01*
X843268Y397155D01*
X843330Y397164D01*
X843392Y397177D01*
X843452Y397193D01*
X843512Y397213D01*
X843571Y397236D01*
X843628Y397263D01*
X843683Y397293D01*
X843737Y397326D01*
X843788Y397362D01*
X843837Y397401D01*
X843885Y397443D01*
X843929Y397487D01*
X843971Y397535D01*
X844010Y397584D01*
X844046Y397635D01*
X844079Y397689D01*
X844109Y397744D01*
X844136Y397801D01*
X844159Y397860D01*
X844179Y397920D01*
X844195Y397980D01*
X844208Y398042D01*
X844217Y398104D01*
X844222Y398167D01*
X844224Y398230D01*
X842781Y400420D02*
X841339Y400420D01*
X841339Y400419D02*
X841263Y400421D01*
X841188Y400427D01*
X841113Y400437D01*
X841039Y400451D01*
X840966Y400468D01*
X840893Y400490D01*
X840822Y400515D01*
X840752Y400544D01*
X840684Y400576D01*
X840618Y400612D01*
X840553Y400652D01*
X840491Y400695D01*
X840431Y400741D01*
X840373Y400790D01*
X840319Y400842D01*
X840267Y400896D01*
X840218Y400954D01*
X840172Y401014D01*
X840129Y401076D01*
X840089Y401141D01*
X840053Y401207D01*
X840021Y401275D01*
X839992Y401345D01*
X839967Y401416D01*
X839945Y401489D01*
X839928Y401562D01*
X839914Y401636D01*
X839904Y401711D01*
X839898Y401786D01*
X839896Y401862D01*
X839898Y401938D01*
X839904Y402013D01*
X839914Y402088D01*
X839928Y402162D01*
X839945Y402235D01*
X839967Y402308D01*
X839992Y402379D01*
X840021Y402449D01*
X840053Y402517D01*
X840089Y402584D01*
X840129Y402648D01*
X840172Y402710D01*
X840218Y402770D01*
X840267Y402828D01*
X840319Y402882D01*
X840373Y402934D01*
X840431Y402983D01*
X840491Y403029D01*
X840553Y403072D01*
X840618Y403112D01*
X840684Y403148D01*
X840752Y403180D01*
X840822Y403209D01*
X840893Y403234D01*
X840966Y403256D01*
X841039Y403273D01*
X841113Y403287D01*
X841188Y403297D01*
X841263Y403303D01*
X841339Y403305D01*
X842781Y403305D01*
X842857Y403303D01*
X842932Y403297D01*
X843007Y403287D01*
X843081Y403273D01*
X843154Y403256D01*
X843227Y403234D01*
X843298Y403209D01*
X843368Y403180D01*
X843436Y403148D01*
X843503Y403112D01*
X843567Y403072D01*
X843629Y403029D01*
X843689Y402983D01*
X843747Y402934D01*
X843801Y402882D01*
X843853Y402828D01*
X843902Y402770D01*
X843948Y402710D01*
X843991Y402648D01*
X844031Y402584D01*
X844067Y402517D01*
X844099Y402449D01*
X844128Y402379D01*
X844153Y402308D01*
X844175Y402235D01*
X844192Y402162D01*
X844206Y402088D01*
X844216Y402013D01*
X844222Y401938D01*
X844224Y401862D01*
X844222Y401786D01*
X844216Y401711D01*
X844206Y401636D01*
X844192Y401562D01*
X844175Y401489D01*
X844153Y401416D01*
X844128Y401345D01*
X844099Y401275D01*
X844067Y401207D01*
X844031Y401141D01*
X843991Y401076D01*
X843948Y401014D01*
X843902Y400954D01*
X843853Y400896D01*
X843801Y400842D01*
X843747Y400790D01*
X843689Y400741D01*
X843629Y400695D01*
X843567Y400652D01*
X843503Y400612D01*
X843436Y400576D01*
X843368Y400544D01*
X843298Y400515D01*
X843227Y400490D01*
X843154Y400468D01*
X843081Y400451D01*
X843007Y400437D01*
X842932Y400427D01*
X842857Y400421D01*
X842781Y400419D01*
X843142Y405968D02*
X837732Y405968D01*
X843142Y405968D02*
X843205Y405970D01*
X843268Y405975D01*
X843330Y405984D01*
X843392Y405997D01*
X843452Y406013D01*
X843512Y406033D01*
X843571Y406056D01*
X843628Y406083D01*
X843683Y406113D01*
X843737Y406146D01*
X843788Y406182D01*
X843837Y406221D01*
X843885Y406263D01*
X843929Y406307D01*
X843971Y406355D01*
X844010Y406404D01*
X844046Y406455D01*
X844079Y406509D01*
X844109Y406564D01*
X844136Y406621D01*
X844159Y406680D01*
X844179Y406740D01*
X844195Y406800D01*
X844208Y406862D01*
X844217Y406924D01*
X844222Y406987D01*
X844224Y407050D01*
X843142Y409450D02*
X839896Y409450D01*
X843142Y409450D02*
X843205Y409452D01*
X843268Y409457D01*
X843330Y409466D01*
X843392Y409479D01*
X843452Y409495D01*
X843512Y409515D01*
X843571Y409538D01*
X843628Y409565D01*
X843683Y409595D01*
X843737Y409628D01*
X843788Y409664D01*
X843837Y409703D01*
X843885Y409745D01*
X843929Y409789D01*
X843971Y409837D01*
X844010Y409886D01*
X844046Y409937D01*
X844079Y409991D01*
X844109Y410046D01*
X844136Y410103D01*
X844159Y410162D01*
X844179Y410222D01*
X844195Y410282D01*
X844208Y410344D01*
X844217Y410406D01*
X844222Y410469D01*
X844224Y410532D01*
X844224Y412335D01*
X839896Y412335D01*
X837732Y418178D02*
X844224Y420342D01*
X837732Y422506D01*
X841339Y424780D02*
X842781Y424780D01*
X841339Y424779D02*
X841263Y424781D01*
X841188Y424787D01*
X841113Y424797D01*
X841039Y424811D01*
X840966Y424828D01*
X840893Y424850D01*
X840822Y424875D01*
X840752Y424904D01*
X840684Y424936D01*
X840618Y424972D01*
X840553Y425012D01*
X840491Y425055D01*
X840431Y425101D01*
X840373Y425150D01*
X840319Y425202D01*
X840267Y425256D01*
X840218Y425314D01*
X840172Y425374D01*
X840129Y425436D01*
X840089Y425501D01*
X840053Y425567D01*
X840021Y425635D01*
X839992Y425705D01*
X839967Y425776D01*
X839945Y425849D01*
X839928Y425922D01*
X839914Y425996D01*
X839904Y426071D01*
X839898Y426146D01*
X839896Y426222D01*
X839898Y426298D01*
X839904Y426373D01*
X839914Y426448D01*
X839928Y426522D01*
X839945Y426595D01*
X839967Y426668D01*
X839992Y426739D01*
X840021Y426809D01*
X840053Y426877D01*
X840089Y426944D01*
X840129Y427008D01*
X840172Y427070D01*
X840218Y427130D01*
X840267Y427188D01*
X840319Y427242D01*
X840373Y427294D01*
X840431Y427343D01*
X840491Y427389D01*
X840553Y427432D01*
X840618Y427472D01*
X840684Y427508D01*
X840752Y427540D01*
X840822Y427569D01*
X840893Y427594D01*
X840966Y427616D01*
X841039Y427633D01*
X841113Y427647D01*
X841188Y427657D01*
X841263Y427663D01*
X841339Y427665D01*
X842781Y427665D01*
X842857Y427663D01*
X842932Y427657D01*
X843007Y427647D01*
X843081Y427633D01*
X843154Y427616D01*
X843227Y427594D01*
X843298Y427569D01*
X843368Y427540D01*
X843436Y427508D01*
X843503Y427472D01*
X843567Y427432D01*
X843629Y427389D01*
X843689Y427343D01*
X843747Y427294D01*
X843801Y427242D01*
X843853Y427188D01*
X843902Y427130D01*
X843948Y427070D01*
X843991Y427008D01*
X844031Y426944D01*
X844067Y426877D01*
X844099Y426809D01*
X844128Y426739D01*
X844153Y426668D01*
X844175Y426595D01*
X844192Y426522D01*
X844206Y426448D01*
X844216Y426373D01*
X844222Y426298D01*
X844224Y426222D01*
X844222Y426146D01*
X844216Y426071D01*
X844206Y425996D01*
X844192Y425922D01*
X844175Y425849D01*
X844153Y425776D01*
X844128Y425705D01*
X844099Y425635D01*
X844067Y425567D01*
X844031Y425501D01*
X843991Y425436D01*
X843948Y425374D01*
X843902Y425314D01*
X843853Y425256D01*
X843801Y425202D01*
X843747Y425150D01*
X843689Y425101D01*
X843629Y425055D01*
X843567Y425012D01*
X843503Y424972D01*
X843436Y424936D01*
X843368Y424904D01*
X843298Y424875D01*
X843227Y424850D01*
X843154Y424828D01*
X843081Y424811D01*
X843007Y424797D01*
X842932Y424787D01*
X842857Y424781D01*
X842781Y424779D01*
X843142Y430328D02*
X837732Y430328D01*
X843142Y430328D02*
X843205Y430330D01*
X843268Y430335D01*
X843330Y430344D01*
X843392Y430357D01*
X843452Y430373D01*
X843512Y430393D01*
X843571Y430416D01*
X843628Y430443D01*
X843683Y430473D01*
X843737Y430506D01*
X843788Y430542D01*
X843837Y430581D01*
X843885Y430623D01*
X843929Y430667D01*
X843971Y430715D01*
X844010Y430764D01*
X844046Y430815D01*
X844079Y430869D01*
X844109Y430924D01*
X844136Y430981D01*
X844159Y431040D01*
X844179Y431100D01*
X844195Y431160D01*
X844208Y431222D01*
X844217Y431284D01*
X844222Y431347D01*
X844224Y431410D01*
X839896Y433072D02*
X839896Y435236D01*
X837732Y433793D02*
X843142Y433793D01*
X843205Y433795D01*
X843268Y433800D01*
X843330Y433809D01*
X843392Y433822D01*
X843452Y433838D01*
X843512Y433858D01*
X843571Y433881D01*
X843628Y433908D01*
X843683Y433938D01*
X843737Y433971D01*
X843788Y434007D01*
X843837Y434046D01*
X843885Y434088D01*
X843929Y434132D01*
X843971Y434180D01*
X844010Y434229D01*
X844046Y434280D01*
X844079Y434334D01*
X844109Y434389D01*
X844136Y434446D01*
X844159Y434505D01*
X844179Y434565D01*
X844195Y434625D01*
X844208Y434687D01*
X844217Y434749D01*
X844222Y434812D01*
X844224Y434875D01*
X844224Y435236D01*
X841699Y438821D02*
X841699Y440444D01*
X841700Y438821D02*
X841702Y438751D01*
X841708Y438682D01*
X841717Y438613D01*
X841731Y438545D01*
X841748Y438478D01*
X841768Y438411D01*
X841793Y438346D01*
X841821Y438282D01*
X841852Y438220D01*
X841887Y438160D01*
X841925Y438102D01*
X841966Y438046D01*
X842010Y437992D01*
X842057Y437941D01*
X842107Y437893D01*
X842160Y437847D01*
X842215Y437804D01*
X842272Y437764D01*
X842331Y437728D01*
X842392Y437695D01*
X842455Y437665D01*
X842519Y437639D01*
X842585Y437617D01*
X842652Y437598D01*
X842720Y437582D01*
X842789Y437571D01*
X842858Y437563D01*
X842927Y437559D01*
X842997Y437559D01*
X843066Y437563D01*
X843135Y437571D01*
X843204Y437582D01*
X843272Y437598D01*
X843339Y437617D01*
X843405Y437639D01*
X843469Y437665D01*
X843532Y437695D01*
X843593Y437728D01*
X843652Y437764D01*
X843709Y437804D01*
X843764Y437847D01*
X843817Y437893D01*
X843867Y437941D01*
X843914Y437992D01*
X843958Y438046D01*
X843999Y438102D01*
X844037Y438160D01*
X844072Y438220D01*
X844103Y438282D01*
X844131Y438346D01*
X844156Y438411D01*
X844176Y438478D01*
X844193Y438545D01*
X844207Y438613D01*
X844216Y438682D01*
X844222Y438751D01*
X844224Y438821D01*
X844224Y440444D01*
X840978Y440444D01*
X840915Y440442D01*
X840852Y440437D01*
X840790Y440428D01*
X840728Y440415D01*
X840668Y440399D01*
X840608Y440379D01*
X840549Y440356D01*
X840492Y440329D01*
X840437Y440299D01*
X840383Y440266D01*
X840332Y440230D01*
X840283Y440191D01*
X840235Y440149D01*
X840191Y440105D01*
X840149Y440057D01*
X840110Y440008D01*
X840074Y439957D01*
X840041Y439903D01*
X840011Y439848D01*
X839984Y439791D01*
X839961Y439732D01*
X839941Y439672D01*
X839925Y439612D01*
X839912Y439550D01*
X839903Y439488D01*
X839898Y439425D01*
X839896Y439362D01*
X839896Y437919D01*
X844224Y444311D02*
X844224Y446114D01*
X844224Y444311D02*
X844222Y444248D01*
X844217Y444185D01*
X844208Y444123D01*
X844195Y444061D01*
X844179Y444001D01*
X844159Y443941D01*
X844136Y443882D01*
X844109Y443825D01*
X844079Y443770D01*
X844046Y443716D01*
X844010Y443665D01*
X843971Y443616D01*
X843929Y443568D01*
X843885Y443524D01*
X843837Y443482D01*
X843788Y443443D01*
X843737Y443407D01*
X843683Y443374D01*
X843628Y443344D01*
X843571Y443317D01*
X843512Y443294D01*
X843452Y443274D01*
X843392Y443258D01*
X843330Y443245D01*
X843268Y443236D01*
X843205Y443231D01*
X843142Y443229D01*
X840978Y443229D01*
X840915Y443231D01*
X840852Y443236D01*
X840790Y443245D01*
X840728Y443258D01*
X840668Y443274D01*
X840608Y443294D01*
X840549Y443317D01*
X840492Y443344D01*
X840437Y443374D01*
X840383Y443407D01*
X840332Y443443D01*
X840283Y443482D01*
X840235Y443524D01*
X840191Y443568D01*
X840149Y443616D01*
X840110Y443665D01*
X840074Y443716D01*
X840041Y443770D01*
X840011Y443825D01*
X839984Y443882D01*
X839961Y443941D01*
X839941Y444001D01*
X839925Y444061D01*
X839912Y444123D01*
X839903Y444185D01*
X839898Y444248D01*
X839896Y444311D01*
X839896Y446114D01*
X845306Y446114D01*
X845369Y446112D01*
X845432Y446107D01*
X845494Y446098D01*
X845556Y446085D01*
X845616Y446069D01*
X845676Y446049D01*
X845735Y446026D01*
X845792Y445999D01*
X845847Y445969D01*
X845901Y445936D01*
X845952Y445900D01*
X846001Y445861D01*
X846049Y445819D01*
X846093Y445775D01*
X846135Y445727D01*
X846174Y445678D01*
X846210Y445627D01*
X846243Y445573D01*
X846273Y445518D01*
X846300Y445461D01*
X846323Y445402D01*
X846343Y445342D01*
X846359Y445282D01*
X846372Y445220D01*
X846381Y445158D01*
X846386Y445095D01*
X846388Y445032D01*
X846388Y443589D01*
X844224Y450011D02*
X844224Y451815D01*
X844224Y450011D02*
X844222Y449948D01*
X844217Y449885D01*
X844208Y449823D01*
X844195Y449761D01*
X844179Y449701D01*
X844159Y449641D01*
X844136Y449582D01*
X844109Y449525D01*
X844079Y449470D01*
X844046Y449416D01*
X844010Y449365D01*
X843971Y449316D01*
X843929Y449268D01*
X843885Y449224D01*
X843837Y449182D01*
X843788Y449143D01*
X843737Y449107D01*
X843683Y449074D01*
X843628Y449044D01*
X843571Y449017D01*
X843512Y448994D01*
X843452Y448974D01*
X843392Y448958D01*
X843330Y448945D01*
X843268Y448936D01*
X843205Y448931D01*
X843142Y448929D01*
X841339Y448929D01*
X841263Y448931D01*
X841188Y448937D01*
X841113Y448947D01*
X841039Y448961D01*
X840966Y448978D01*
X840893Y449000D01*
X840822Y449025D01*
X840752Y449054D01*
X840684Y449086D01*
X840618Y449122D01*
X840553Y449162D01*
X840491Y449205D01*
X840431Y449251D01*
X840373Y449300D01*
X840319Y449352D01*
X840267Y449406D01*
X840218Y449464D01*
X840172Y449524D01*
X840129Y449586D01*
X840089Y449651D01*
X840053Y449717D01*
X840021Y449785D01*
X839992Y449855D01*
X839967Y449926D01*
X839945Y449999D01*
X839928Y450072D01*
X839914Y450146D01*
X839904Y450221D01*
X839898Y450296D01*
X839896Y450372D01*
X839898Y450448D01*
X839904Y450523D01*
X839914Y450598D01*
X839928Y450672D01*
X839945Y450745D01*
X839967Y450818D01*
X839992Y450889D01*
X840021Y450959D01*
X840053Y451027D01*
X840089Y451094D01*
X840129Y451158D01*
X840172Y451220D01*
X840218Y451280D01*
X840267Y451338D01*
X840319Y451392D01*
X840373Y451444D01*
X840431Y451493D01*
X840491Y451539D01*
X840553Y451582D01*
X840618Y451622D01*
X840684Y451658D01*
X840752Y451690D01*
X840822Y451719D01*
X840893Y451744D01*
X840966Y451766D01*
X841039Y451783D01*
X841113Y451797D01*
X841188Y451807D01*
X841263Y451813D01*
X841339Y451815D01*
X842060Y451815D01*
X842060Y448929D01*
X844224Y459234D02*
X844224Y460677D01*
X844224Y459234D02*
X844222Y459158D01*
X844216Y459083D01*
X844206Y459008D01*
X844192Y458934D01*
X844175Y458861D01*
X844153Y458788D01*
X844128Y458717D01*
X844099Y458647D01*
X844067Y458579D01*
X844031Y458513D01*
X843991Y458448D01*
X843948Y458386D01*
X843902Y458326D01*
X843853Y458268D01*
X843801Y458214D01*
X843747Y458162D01*
X843689Y458113D01*
X843629Y458067D01*
X843567Y458024D01*
X843503Y457984D01*
X843436Y457948D01*
X843368Y457916D01*
X843298Y457887D01*
X843227Y457862D01*
X843155Y457840D01*
X843081Y457823D01*
X843007Y457809D01*
X842932Y457799D01*
X842857Y457793D01*
X842781Y457791D01*
X839175Y457791D01*
X839099Y457793D01*
X839024Y457799D01*
X838949Y457809D01*
X838875Y457823D01*
X838802Y457840D01*
X838729Y457862D01*
X838658Y457887D01*
X838588Y457916D01*
X838520Y457948D01*
X838454Y457984D01*
X838389Y458024D01*
X838327Y458067D01*
X838267Y458113D01*
X838209Y458162D01*
X838155Y458214D01*
X838103Y458268D01*
X838054Y458326D01*
X838008Y458386D01*
X837965Y458448D01*
X837925Y458512D01*
X837889Y458579D01*
X837857Y458647D01*
X837828Y458717D01*
X837803Y458788D01*
X837781Y458860D01*
X837764Y458934D01*
X837750Y459008D01*
X837740Y459083D01*
X837734Y459158D01*
X837732Y459234D01*
X837732Y460677D01*
X841339Y462999D02*
X842781Y462999D01*
X841339Y462999D02*
X841263Y463001D01*
X841188Y463007D01*
X841113Y463017D01*
X841039Y463031D01*
X840966Y463048D01*
X840893Y463070D01*
X840822Y463095D01*
X840752Y463124D01*
X840684Y463156D01*
X840618Y463192D01*
X840553Y463232D01*
X840491Y463275D01*
X840431Y463321D01*
X840373Y463370D01*
X840319Y463422D01*
X840267Y463476D01*
X840218Y463534D01*
X840172Y463594D01*
X840129Y463656D01*
X840089Y463721D01*
X840053Y463787D01*
X840021Y463855D01*
X839992Y463925D01*
X839967Y463996D01*
X839945Y464069D01*
X839928Y464142D01*
X839914Y464216D01*
X839904Y464291D01*
X839898Y464366D01*
X839896Y464442D01*
X839898Y464518D01*
X839904Y464593D01*
X839914Y464668D01*
X839928Y464742D01*
X839945Y464815D01*
X839967Y464888D01*
X839992Y464959D01*
X840021Y465029D01*
X840053Y465097D01*
X840089Y465164D01*
X840129Y465228D01*
X840172Y465290D01*
X840218Y465350D01*
X840267Y465408D01*
X840319Y465462D01*
X840373Y465514D01*
X840431Y465563D01*
X840491Y465609D01*
X840553Y465652D01*
X840618Y465692D01*
X840684Y465728D01*
X840752Y465760D01*
X840822Y465789D01*
X840893Y465814D01*
X840966Y465836D01*
X841039Y465853D01*
X841113Y465867D01*
X841188Y465877D01*
X841263Y465883D01*
X841339Y465885D01*
X842781Y465885D01*
X842857Y465883D01*
X842932Y465877D01*
X843007Y465867D01*
X843081Y465853D01*
X843154Y465836D01*
X843227Y465814D01*
X843298Y465789D01*
X843368Y465760D01*
X843436Y465728D01*
X843503Y465692D01*
X843567Y465652D01*
X843629Y465609D01*
X843689Y465563D01*
X843747Y465514D01*
X843801Y465462D01*
X843853Y465408D01*
X843902Y465350D01*
X843948Y465290D01*
X843991Y465228D01*
X844031Y465164D01*
X844067Y465097D01*
X844099Y465029D01*
X844128Y464959D01*
X844153Y464888D01*
X844175Y464815D01*
X844192Y464742D01*
X844206Y464668D01*
X844216Y464593D01*
X844222Y464518D01*
X844224Y464442D01*
X844222Y464366D01*
X844216Y464291D01*
X844206Y464216D01*
X844192Y464142D01*
X844175Y464069D01*
X844153Y463996D01*
X844128Y463925D01*
X844099Y463855D01*
X844067Y463787D01*
X844031Y463721D01*
X843991Y463656D01*
X843948Y463594D01*
X843902Y463534D01*
X843853Y463476D01*
X843801Y463422D01*
X843747Y463370D01*
X843689Y463321D01*
X843629Y463275D01*
X843567Y463232D01*
X843503Y463192D01*
X843436Y463156D01*
X843368Y463124D01*
X843298Y463095D01*
X843227Y463070D01*
X843154Y463048D01*
X843081Y463031D01*
X843007Y463017D01*
X842932Y463007D01*
X842857Y463001D01*
X842781Y462999D01*
X844224Y468669D02*
X839896Y468669D01*
X839896Y470473D01*
X839898Y470536D01*
X839903Y470599D01*
X839912Y470661D01*
X839925Y470723D01*
X839941Y470783D01*
X839961Y470843D01*
X839984Y470902D01*
X840011Y470959D01*
X840041Y471014D01*
X840074Y471068D01*
X840110Y471119D01*
X840149Y471168D01*
X840191Y471216D01*
X840235Y471260D01*
X840283Y471302D01*
X840332Y471341D01*
X840383Y471377D01*
X840437Y471410D01*
X840492Y471440D01*
X840549Y471467D01*
X840608Y471490D01*
X840668Y471510D01*
X840728Y471526D01*
X840790Y471539D01*
X840852Y471548D01*
X840915Y471553D01*
X840978Y471555D01*
X844224Y471555D01*
X844224Y475572D02*
X839896Y474129D01*
X839896Y477015D02*
X844224Y475572D01*
X844224Y480461D02*
X844224Y482265D01*
X844224Y480461D02*
X844222Y480398D01*
X844217Y480335D01*
X844208Y480273D01*
X844195Y480211D01*
X844179Y480151D01*
X844159Y480091D01*
X844136Y480032D01*
X844109Y479975D01*
X844079Y479920D01*
X844046Y479866D01*
X844010Y479815D01*
X843971Y479766D01*
X843929Y479718D01*
X843885Y479674D01*
X843837Y479632D01*
X843788Y479593D01*
X843737Y479557D01*
X843683Y479524D01*
X843628Y479494D01*
X843571Y479467D01*
X843512Y479444D01*
X843452Y479424D01*
X843392Y479408D01*
X843330Y479395D01*
X843268Y479386D01*
X843205Y479381D01*
X843142Y479379D01*
X841339Y479379D01*
X841263Y479381D01*
X841188Y479387D01*
X841113Y479397D01*
X841039Y479411D01*
X840966Y479428D01*
X840893Y479450D01*
X840822Y479475D01*
X840752Y479504D01*
X840684Y479536D01*
X840618Y479572D01*
X840553Y479612D01*
X840491Y479655D01*
X840431Y479701D01*
X840373Y479750D01*
X840319Y479802D01*
X840267Y479856D01*
X840218Y479914D01*
X840172Y479974D01*
X840129Y480036D01*
X840089Y480101D01*
X840053Y480167D01*
X840021Y480235D01*
X839992Y480305D01*
X839967Y480376D01*
X839945Y480449D01*
X839928Y480522D01*
X839914Y480596D01*
X839904Y480671D01*
X839898Y480746D01*
X839896Y480822D01*
X839898Y480898D01*
X839904Y480973D01*
X839914Y481048D01*
X839928Y481122D01*
X839945Y481195D01*
X839967Y481268D01*
X839992Y481339D01*
X840021Y481409D01*
X840053Y481477D01*
X840089Y481544D01*
X840129Y481608D01*
X840172Y481670D01*
X840218Y481730D01*
X840267Y481788D01*
X840319Y481842D01*
X840373Y481894D01*
X840431Y481943D01*
X840491Y481989D01*
X840553Y482032D01*
X840618Y482072D01*
X840684Y482108D01*
X840752Y482140D01*
X840822Y482169D01*
X840893Y482194D01*
X840966Y482216D01*
X841039Y482233D01*
X841113Y482247D01*
X841188Y482257D01*
X841263Y482263D01*
X841339Y482265D01*
X842060Y482265D01*
X842060Y479379D01*
X844224Y485084D02*
X839896Y485084D01*
X839896Y487248D01*
X840617Y487248D01*
X839896Y488722D02*
X839896Y490886D01*
X837732Y489443D02*
X843142Y489443D01*
X843205Y489445D01*
X843268Y489450D01*
X843330Y489459D01*
X843392Y489472D01*
X843452Y489488D01*
X843512Y489508D01*
X843571Y489531D01*
X843628Y489558D01*
X843683Y489588D01*
X843737Y489621D01*
X843788Y489657D01*
X843837Y489696D01*
X843885Y489738D01*
X843929Y489782D01*
X843971Y489830D01*
X844010Y489879D01*
X844046Y489930D01*
X844079Y489984D01*
X844109Y490039D01*
X844136Y490096D01*
X844159Y490155D01*
X844179Y490215D01*
X844195Y490275D01*
X844208Y490337D01*
X844217Y490399D01*
X844222Y490462D01*
X844224Y490525D01*
X844224Y490886D01*
X844224Y494321D02*
X844224Y496125D01*
X844224Y494321D02*
X844222Y494258D01*
X844217Y494195D01*
X844208Y494133D01*
X844195Y494071D01*
X844179Y494011D01*
X844159Y493951D01*
X844136Y493892D01*
X844109Y493835D01*
X844079Y493780D01*
X844046Y493726D01*
X844010Y493675D01*
X843971Y493626D01*
X843929Y493578D01*
X843885Y493534D01*
X843837Y493492D01*
X843788Y493453D01*
X843737Y493417D01*
X843683Y493384D01*
X843628Y493354D01*
X843571Y493327D01*
X843512Y493304D01*
X843452Y493284D01*
X843392Y493268D01*
X843330Y493255D01*
X843268Y493246D01*
X843205Y493241D01*
X843142Y493239D01*
X841339Y493239D01*
X841263Y493241D01*
X841188Y493247D01*
X841113Y493257D01*
X841039Y493271D01*
X840966Y493288D01*
X840893Y493310D01*
X840822Y493335D01*
X840752Y493364D01*
X840684Y493396D01*
X840618Y493432D01*
X840553Y493472D01*
X840491Y493515D01*
X840431Y493561D01*
X840373Y493610D01*
X840319Y493662D01*
X840267Y493716D01*
X840218Y493774D01*
X840172Y493834D01*
X840129Y493896D01*
X840089Y493961D01*
X840053Y494027D01*
X840021Y494095D01*
X839992Y494165D01*
X839967Y494236D01*
X839945Y494309D01*
X839928Y494382D01*
X839914Y494456D01*
X839904Y494531D01*
X839898Y494606D01*
X839896Y494682D01*
X839898Y494758D01*
X839904Y494833D01*
X839914Y494908D01*
X839928Y494982D01*
X839945Y495055D01*
X839967Y495128D01*
X839992Y495199D01*
X840021Y495269D01*
X840053Y495337D01*
X840089Y495404D01*
X840129Y495468D01*
X840172Y495530D01*
X840218Y495590D01*
X840267Y495648D01*
X840319Y495702D01*
X840373Y495754D01*
X840431Y495803D01*
X840491Y495849D01*
X840553Y495892D01*
X840618Y495932D01*
X840684Y495968D01*
X840752Y496000D01*
X840822Y496029D01*
X840893Y496054D01*
X840966Y496076D01*
X841039Y496093D01*
X841113Y496107D01*
X841188Y496117D01*
X841263Y496123D01*
X841339Y496125D01*
X842060Y496125D01*
X842060Y493239D01*
X844224Y498944D02*
X839896Y498944D01*
X839896Y501108D01*
X840617Y501108D01*
D12*
X668821Y301902D02*
X668819Y301803D01*
X668813Y301703D01*
X668804Y301604D01*
X668791Y301506D01*
X668774Y301408D01*
X668753Y301310D01*
X668728Y301214D01*
X668700Y301119D01*
X668668Y301025D01*
X668633Y300932D01*
X668594Y300840D01*
X668551Y300750D01*
X668506Y300662D01*
X668456Y300575D01*
X668404Y300491D01*
X668348Y300408D01*
X668290Y300328D01*
X668228Y300250D01*
X668163Y300175D01*
X668095Y300102D01*
X668025Y300032D01*
X667952Y299964D01*
X667877Y299899D01*
X667799Y299837D01*
X667719Y299779D01*
X667636Y299723D01*
X667552Y299671D01*
X667465Y299621D01*
X667377Y299576D01*
X667287Y299533D01*
X667195Y299494D01*
X667102Y299459D01*
X667008Y299427D01*
X666913Y299399D01*
X666817Y299374D01*
X666719Y299353D01*
X666621Y299336D01*
X666523Y299323D01*
X666424Y299314D01*
X666324Y299308D01*
X666225Y299306D01*
X666081Y299308D01*
X665936Y299314D01*
X665792Y299323D01*
X665649Y299336D01*
X665505Y299353D01*
X665362Y299374D01*
X665220Y299399D01*
X665079Y299427D01*
X664938Y299459D01*
X664798Y299495D01*
X664659Y299534D01*
X664521Y299577D01*
X664385Y299624D01*
X664249Y299674D01*
X664115Y299728D01*
X663983Y299785D01*
X663852Y299846D01*
X663723Y299910D01*
X663595Y299978D01*
X663469Y300048D01*
X663345Y300123D01*
X663224Y300200D01*
X663104Y300281D01*
X662986Y300364D01*
X662871Y300451D01*
X662758Y300541D01*
X662647Y300634D01*
X662539Y300729D01*
X662433Y300828D01*
X662330Y300929D01*
X662655Y308394D02*
X662657Y308493D01*
X662663Y308593D01*
X662672Y308692D01*
X662685Y308790D01*
X662702Y308888D01*
X662723Y308986D01*
X662748Y309082D01*
X662776Y309177D01*
X662808Y309271D01*
X662843Y309364D01*
X662882Y309456D01*
X662925Y309546D01*
X662970Y309634D01*
X663020Y309721D01*
X663072Y309805D01*
X663128Y309888D01*
X663186Y309968D01*
X663248Y310046D01*
X663313Y310121D01*
X663381Y310194D01*
X663451Y310264D01*
X663524Y310332D01*
X663599Y310397D01*
X663677Y310459D01*
X663757Y310517D01*
X663840Y310573D01*
X663924Y310625D01*
X664011Y310675D01*
X664099Y310720D01*
X664189Y310763D01*
X664281Y310802D01*
X664374Y310837D01*
X664468Y310869D01*
X664563Y310897D01*
X664660Y310922D01*
X664757Y310943D01*
X664855Y310960D01*
X664953Y310973D01*
X665052Y310982D01*
X665152Y310988D01*
X665251Y310990D01*
X665387Y310988D01*
X665523Y310982D01*
X665659Y310973D01*
X665795Y310960D01*
X665930Y310942D01*
X666064Y310922D01*
X666198Y310897D01*
X666332Y310869D01*
X666464Y310836D01*
X666595Y310801D01*
X666726Y310761D01*
X666855Y310718D01*
X666983Y310672D01*
X667109Y310621D01*
X667235Y310568D01*
X667358Y310510D01*
X667480Y310450D01*
X667600Y310386D01*
X667719Y310318D01*
X667835Y310248D01*
X667949Y310174D01*
X668062Y310097D01*
X668172Y310016D01*
X663953Y306122D02*
X663867Y306175D01*
X663783Y306232D01*
X663701Y306291D01*
X663621Y306354D01*
X663544Y306420D01*
X663469Y306488D01*
X663397Y306560D01*
X663328Y306634D01*
X663262Y306711D01*
X663199Y306790D01*
X663139Y306872D01*
X663082Y306956D01*
X663028Y307042D01*
X662978Y307130D01*
X662931Y307220D01*
X662887Y307311D01*
X662848Y307405D01*
X662811Y307499D01*
X662779Y307595D01*
X662750Y307693D01*
X662725Y307791D01*
X662704Y307890D01*
X662686Y307990D01*
X662673Y308090D01*
X662663Y308191D01*
X662657Y308293D01*
X662655Y308394D01*
X667523Y304174D02*
X667609Y304121D01*
X667693Y304064D01*
X667775Y304005D01*
X667855Y303942D01*
X667932Y303876D01*
X668007Y303808D01*
X668079Y303736D01*
X668148Y303662D01*
X668214Y303585D01*
X668277Y303506D01*
X668337Y303424D01*
X668394Y303340D01*
X668448Y303254D01*
X668498Y303166D01*
X668545Y303076D01*
X668589Y302985D01*
X668628Y302891D01*
X668665Y302797D01*
X668697Y302701D01*
X668726Y302603D01*
X668751Y302505D01*
X668772Y302406D01*
X668790Y302306D01*
X668803Y302206D01*
X668813Y302105D01*
X668819Y302003D01*
X668821Y301902D01*
X667523Y304174D02*
X663953Y306122D01*
X673760Y310990D02*
X673760Y299306D01*
X673760Y305797D02*
X680251Y305797D01*
X680251Y310990D02*
X680251Y299306D01*
X685952Y299306D02*
X685952Y310990D01*
X689197Y310990D01*
X689310Y310988D01*
X689423Y310982D01*
X689536Y310972D01*
X689649Y310958D01*
X689761Y310941D01*
X689872Y310919D01*
X689982Y310894D01*
X690092Y310864D01*
X690200Y310831D01*
X690307Y310794D01*
X690413Y310754D01*
X690517Y310709D01*
X690620Y310661D01*
X690721Y310610D01*
X690820Y310555D01*
X690917Y310497D01*
X691012Y310435D01*
X691105Y310370D01*
X691195Y310302D01*
X691283Y310231D01*
X691369Y310156D01*
X691452Y310079D01*
X691532Y309999D01*
X691609Y309916D01*
X691684Y309830D01*
X691755Y309742D01*
X691823Y309652D01*
X691888Y309559D01*
X691950Y309464D01*
X692008Y309367D01*
X692063Y309268D01*
X692114Y309167D01*
X692162Y309064D01*
X692207Y308960D01*
X692247Y308854D01*
X692284Y308747D01*
X692317Y308639D01*
X692347Y308529D01*
X692372Y308419D01*
X692394Y308308D01*
X692411Y308196D01*
X692425Y308083D01*
X692435Y307970D01*
X692441Y307857D01*
X692443Y307744D01*
X692443Y302552D01*
X692444Y302552D02*
X692442Y302439D01*
X692436Y302326D01*
X692426Y302213D01*
X692412Y302100D01*
X692395Y301988D01*
X692373Y301877D01*
X692348Y301767D01*
X692318Y301657D01*
X692285Y301549D01*
X692248Y301442D01*
X692208Y301336D01*
X692163Y301232D01*
X692115Y301129D01*
X692064Y301028D01*
X692009Y300929D01*
X691951Y300832D01*
X691889Y300737D01*
X691824Y300644D01*
X691756Y300554D01*
X691685Y300466D01*
X691610Y300380D01*
X691533Y300297D01*
X691453Y300217D01*
X691370Y300140D01*
X691284Y300065D01*
X691196Y299994D01*
X691106Y299926D01*
X691013Y299861D01*
X690918Y299799D01*
X690821Y299741D01*
X690722Y299686D01*
X690621Y299635D01*
X690518Y299587D01*
X690414Y299542D01*
X690308Y299502D01*
X690201Y299465D01*
X690093Y299432D01*
X689983Y299402D01*
X689873Y299377D01*
X689762Y299355D01*
X689650Y299338D01*
X689537Y299324D01*
X689424Y299314D01*
X689311Y299308D01*
X689198Y299306D01*
X689197Y299306D02*
X685952Y299306D01*
X698144Y299306D02*
X698144Y310990D01*
X704635Y299306D01*
X704635Y310990D01*
X964683Y324190D02*
X964782Y324192D01*
X964882Y324198D01*
X964981Y324207D01*
X965079Y324220D01*
X965177Y324237D01*
X965275Y324258D01*
X965371Y324283D01*
X965466Y324311D01*
X965560Y324343D01*
X965653Y324378D01*
X965745Y324417D01*
X965835Y324460D01*
X965923Y324505D01*
X966010Y324555D01*
X966094Y324607D01*
X966177Y324663D01*
X966257Y324721D01*
X966335Y324783D01*
X966410Y324848D01*
X966483Y324916D01*
X966553Y324986D01*
X966621Y325059D01*
X966686Y325134D01*
X966748Y325212D01*
X966806Y325292D01*
X966862Y325375D01*
X966914Y325459D01*
X966964Y325546D01*
X967009Y325634D01*
X967052Y325724D01*
X967091Y325816D01*
X967126Y325909D01*
X967158Y326003D01*
X967186Y326098D01*
X967211Y326194D01*
X967232Y326292D01*
X967249Y326390D01*
X967262Y326488D01*
X967271Y326587D01*
X967277Y326687D01*
X967279Y326786D01*
X964683Y324190D02*
X964539Y324192D01*
X964394Y324198D01*
X964250Y324207D01*
X964107Y324220D01*
X963963Y324237D01*
X963820Y324258D01*
X963678Y324283D01*
X963537Y324311D01*
X963396Y324343D01*
X963256Y324379D01*
X963117Y324418D01*
X962979Y324461D01*
X962843Y324508D01*
X962707Y324558D01*
X962573Y324612D01*
X962441Y324669D01*
X962310Y324730D01*
X962181Y324794D01*
X962053Y324862D01*
X961927Y324932D01*
X961803Y325007D01*
X961682Y325084D01*
X961562Y325165D01*
X961444Y325248D01*
X961329Y325335D01*
X961216Y325425D01*
X961105Y325518D01*
X960997Y325613D01*
X960891Y325712D01*
X960788Y325813D01*
X961113Y333278D02*
X961115Y333377D01*
X961121Y333477D01*
X961130Y333576D01*
X961143Y333674D01*
X961160Y333772D01*
X961181Y333870D01*
X961206Y333966D01*
X961234Y334061D01*
X961266Y334155D01*
X961301Y334248D01*
X961340Y334340D01*
X961383Y334430D01*
X961428Y334518D01*
X961478Y334605D01*
X961530Y334689D01*
X961586Y334772D01*
X961644Y334852D01*
X961706Y334930D01*
X961771Y335005D01*
X961839Y335078D01*
X961909Y335148D01*
X961982Y335216D01*
X962057Y335281D01*
X962135Y335343D01*
X962215Y335401D01*
X962298Y335457D01*
X962382Y335509D01*
X962469Y335559D01*
X962557Y335604D01*
X962647Y335647D01*
X962739Y335686D01*
X962832Y335721D01*
X962926Y335753D01*
X963021Y335781D01*
X963118Y335806D01*
X963215Y335827D01*
X963313Y335844D01*
X963411Y335857D01*
X963510Y335866D01*
X963610Y335872D01*
X963709Y335874D01*
X963845Y335872D01*
X963981Y335866D01*
X964117Y335857D01*
X964253Y335844D01*
X964388Y335826D01*
X964522Y335806D01*
X964656Y335781D01*
X964790Y335753D01*
X964922Y335720D01*
X965053Y335685D01*
X965184Y335645D01*
X965313Y335602D01*
X965441Y335556D01*
X965567Y335505D01*
X965693Y335452D01*
X965816Y335394D01*
X965938Y335334D01*
X966058Y335270D01*
X966177Y335202D01*
X966293Y335132D01*
X966407Y335058D01*
X966520Y334981D01*
X966630Y334900D01*
X962411Y331006D02*
X962325Y331059D01*
X962241Y331116D01*
X962159Y331175D01*
X962079Y331238D01*
X962002Y331304D01*
X961927Y331372D01*
X961855Y331444D01*
X961786Y331518D01*
X961720Y331595D01*
X961657Y331674D01*
X961597Y331756D01*
X961540Y331840D01*
X961486Y331926D01*
X961436Y332014D01*
X961389Y332104D01*
X961345Y332195D01*
X961306Y332289D01*
X961269Y332383D01*
X961237Y332479D01*
X961208Y332577D01*
X961183Y332675D01*
X961162Y332774D01*
X961144Y332874D01*
X961131Y332974D01*
X961121Y333075D01*
X961115Y333177D01*
X961113Y333278D01*
X965981Y329058D02*
X966067Y329005D01*
X966151Y328948D01*
X966233Y328889D01*
X966313Y328826D01*
X966390Y328760D01*
X966465Y328692D01*
X966537Y328620D01*
X966606Y328546D01*
X966672Y328469D01*
X966735Y328390D01*
X966795Y328308D01*
X966852Y328224D01*
X966906Y328138D01*
X966956Y328050D01*
X967003Y327960D01*
X967047Y327869D01*
X967086Y327775D01*
X967123Y327681D01*
X967155Y327585D01*
X967184Y327487D01*
X967209Y327389D01*
X967230Y327290D01*
X967248Y327190D01*
X967261Y327090D01*
X967271Y326989D01*
X967277Y326887D01*
X967279Y326786D01*
X965981Y329058D02*
X962411Y331006D01*
X972218Y335874D02*
X972218Y324190D01*
X972218Y330681D02*
X978709Y330681D01*
X978709Y335874D02*
X978709Y324190D01*
X984410Y324190D02*
X984410Y335874D01*
X987655Y335874D01*
X987768Y335872D01*
X987881Y335866D01*
X987994Y335856D01*
X988107Y335842D01*
X988219Y335825D01*
X988330Y335803D01*
X988440Y335778D01*
X988550Y335748D01*
X988658Y335715D01*
X988765Y335678D01*
X988871Y335638D01*
X988975Y335593D01*
X989078Y335545D01*
X989179Y335494D01*
X989278Y335439D01*
X989375Y335381D01*
X989470Y335319D01*
X989563Y335254D01*
X989653Y335186D01*
X989741Y335115D01*
X989827Y335040D01*
X989910Y334963D01*
X989990Y334883D01*
X990067Y334800D01*
X990142Y334714D01*
X990213Y334626D01*
X990281Y334536D01*
X990346Y334443D01*
X990408Y334348D01*
X990466Y334251D01*
X990521Y334152D01*
X990572Y334051D01*
X990620Y333948D01*
X990665Y333844D01*
X990705Y333738D01*
X990742Y333631D01*
X990775Y333523D01*
X990805Y333413D01*
X990830Y333303D01*
X990852Y333192D01*
X990869Y333080D01*
X990883Y332967D01*
X990893Y332854D01*
X990899Y332741D01*
X990901Y332628D01*
X990901Y327436D01*
X990902Y327436D02*
X990900Y327323D01*
X990894Y327210D01*
X990884Y327097D01*
X990870Y326984D01*
X990853Y326872D01*
X990831Y326761D01*
X990806Y326651D01*
X990776Y326541D01*
X990743Y326433D01*
X990706Y326326D01*
X990666Y326220D01*
X990621Y326116D01*
X990573Y326013D01*
X990522Y325912D01*
X990467Y325813D01*
X990409Y325716D01*
X990347Y325621D01*
X990282Y325528D01*
X990214Y325438D01*
X990143Y325350D01*
X990068Y325264D01*
X989991Y325181D01*
X989911Y325101D01*
X989828Y325024D01*
X989742Y324949D01*
X989654Y324878D01*
X989564Y324810D01*
X989471Y324745D01*
X989376Y324683D01*
X989279Y324625D01*
X989180Y324570D01*
X989079Y324519D01*
X988976Y324471D01*
X988872Y324426D01*
X988766Y324386D01*
X988659Y324349D01*
X988551Y324316D01*
X988441Y324286D01*
X988331Y324261D01*
X988220Y324239D01*
X988108Y324222D01*
X987995Y324208D01*
X987882Y324198D01*
X987769Y324192D01*
X987656Y324190D01*
X987655Y324190D02*
X984410Y324190D01*
X996602Y324190D02*
X996602Y335874D01*
X1003093Y324190D01*
X1003093Y335874D01*
X1011983Y335874D02*
X1012090Y335872D01*
X1012196Y335866D01*
X1012302Y335856D01*
X1012408Y335843D01*
X1012514Y335825D01*
X1012618Y335804D01*
X1012722Y335779D01*
X1012825Y335750D01*
X1012926Y335718D01*
X1013026Y335681D01*
X1013125Y335641D01*
X1013223Y335598D01*
X1013319Y335551D01*
X1013413Y335500D01*
X1013505Y335446D01*
X1013595Y335389D01*
X1013683Y335329D01*
X1013768Y335265D01*
X1013851Y335198D01*
X1013932Y335128D01*
X1014010Y335056D01*
X1014086Y334980D01*
X1014158Y334902D01*
X1014228Y334821D01*
X1014295Y334738D01*
X1014359Y334653D01*
X1014419Y334565D01*
X1014476Y334475D01*
X1014530Y334383D01*
X1014581Y334289D01*
X1014628Y334193D01*
X1014671Y334095D01*
X1014711Y333996D01*
X1014748Y333896D01*
X1014780Y333795D01*
X1014809Y333692D01*
X1014834Y333588D01*
X1014855Y333484D01*
X1014873Y333378D01*
X1014886Y333272D01*
X1014896Y333166D01*
X1014902Y333060D01*
X1014904Y332953D01*
X1011983Y335874D02*
X1011862Y335872D01*
X1011741Y335866D01*
X1011621Y335856D01*
X1011500Y335843D01*
X1011381Y335825D01*
X1011261Y335804D01*
X1011143Y335779D01*
X1011026Y335750D01*
X1010909Y335717D01*
X1010794Y335681D01*
X1010680Y335640D01*
X1010567Y335597D01*
X1010455Y335549D01*
X1010346Y335498D01*
X1010238Y335443D01*
X1010131Y335385D01*
X1010027Y335324D01*
X1009925Y335259D01*
X1009825Y335191D01*
X1009727Y335120D01*
X1009631Y335046D01*
X1009538Y334969D01*
X1009448Y334888D01*
X1009360Y334805D01*
X1009275Y334719D01*
X1009192Y334630D01*
X1009113Y334539D01*
X1009036Y334445D01*
X1008963Y334349D01*
X1008893Y334251D01*
X1008826Y334150D01*
X1008762Y334047D01*
X1008702Y333942D01*
X1008645Y333835D01*
X1008591Y333727D01*
X1008541Y333617D01*
X1008495Y333505D01*
X1008452Y333392D01*
X1008413Y333277D01*
X1013930Y330681D02*
X1014009Y330758D01*
X1014085Y330839D01*
X1014158Y330922D01*
X1014228Y331007D01*
X1014295Y331095D01*
X1014359Y331185D01*
X1014419Y331277D01*
X1014476Y331372D01*
X1014530Y331468D01*
X1014581Y331566D01*
X1014628Y331666D01*
X1014672Y331768D01*
X1014712Y331871D01*
X1014748Y331975D01*
X1014780Y332081D01*
X1014809Y332187D01*
X1014834Y332295D01*
X1014856Y332403D01*
X1014873Y332513D01*
X1014887Y332622D01*
X1014896Y332732D01*
X1014902Y332843D01*
X1014904Y332953D01*
X1013930Y330681D02*
X1008413Y324190D01*
X1014904Y324190D01*
D14*
X1113214Y498364D02*
X1135214Y498364D01*
X1135214Y469864D02*
X1113214Y469864D01*
X1109964Y495114D02*
X1109966Y495225D01*
X1109972Y495336D01*
X1109981Y495446D01*
X1109994Y495557D01*
X1110011Y495666D01*
X1110032Y495775D01*
X1110056Y495883D01*
X1110085Y495991D01*
X1110116Y496097D01*
X1110152Y496202D01*
X1110191Y496306D01*
X1110233Y496409D01*
X1110279Y496510D01*
X1110328Y496609D01*
X1110381Y496707D01*
X1110437Y496803D01*
X1110496Y496896D01*
X1110559Y496988D01*
X1110624Y497078D01*
X1110693Y497165D01*
X1110764Y497250D01*
X1110839Y497332D01*
X1110916Y497412D01*
X1110996Y497489D01*
X1111078Y497564D01*
X1111163Y497635D01*
X1111250Y497704D01*
X1111340Y497769D01*
X1111432Y497832D01*
X1111525Y497891D01*
X1111621Y497947D01*
X1111719Y498000D01*
X1111818Y498049D01*
X1111919Y498095D01*
X1112022Y498137D01*
X1112126Y498176D01*
X1112231Y498212D01*
X1112337Y498243D01*
X1112445Y498272D01*
X1112553Y498296D01*
X1112662Y498317D01*
X1112771Y498334D01*
X1112882Y498347D01*
X1112992Y498356D01*
X1113103Y498362D01*
X1113214Y498364D01*
X1109964Y473114D02*
X1109966Y473003D01*
X1109972Y472892D01*
X1109981Y472782D01*
X1109994Y472671D01*
X1110011Y472562D01*
X1110032Y472453D01*
X1110056Y472345D01*
X1110085Y472237D01*
X1110116Y472131D01*
X1110152Y472026D01*
X1110191Y471922D01*
X1110233Y471819D01*
X1110279Y471718D01*
X1110328Y471619D01*
X1110381Y471521D01*
X1110437Y471425D01*
X1110496Y471332D01*
X1110559Y471240D01*
X1110624Y471150D01*
X1110693Y471063D01*
X1110764Y470978D01*
X1110839Y470896D01*
X1110916Y470816D01*
X1110996Y470739D01*
X1111078Y470664D01*
X1111163Y470593D01*
X1111250Y470524D01*
X1111340Y470459D01*
X1111432Y470396D01*
X1111525Y470337D01*
X1111621Y470281D01*
X1111719Y470228D01*
X1111818Y470179D01*
X1111919Y470133D01*
X1112022Y470091D01*
X1112126Y470052D01*
X1112231Y470016D01*
X1112337Y469985D01*
X1112445Y469956D01*
X1112553Y469932D01*
X1112662Y469911D01*
X1112771Y469894D01*
X1112882Y469881D01*
X1112992Y469872D01*
X1113103Y469866D01*
X1113214Y469864D01*
X1135214Y469864D02*
X1135325Y469866D01*
X1135436Y469872D01*
X1135546Y469881D01*
X1135657Y469894D01*
X1135766Y469911D01*
X1135875Y469932D01*
X1135983Y469956D01*
X1136091Y469985D01*
X1136197Y470016D01*
X1136302Y470052D01*
X1136406Y470091D01*
X1136509Y470133D01*
X1136610Y470179D01*
X1136709Y470228D01*
X1136807Y470281D01*
X1136903Y470337D01*
X1136996Y470396D01*
X1137088Y470459D01*
X1137178Y470524D01*
X1137265Y470593D01*
X1137350Y470664D01*
X1137432Y470739D01*
X1137512Y470816D01*
X1137589Y470896D01*
X1137664Y470978D01*
X1137735Y471063D01*
X1137804Y471150D01*
X1137869Y471240D01*
X1137932Y471332D01*
X1137991Y471425D01*
X1138047Y471521D01*
X1138100Y471619D01*
X1138149Y471718D01*
X1138195Y471819D01*
X1138237Y471922D01*
X1138276Y472026D01*
X1138312Y472131D01*
X1138343Y472237D01*
X1138372Y472345D01*
X1138396Y472453D01*
X1138417Y472562D01*
X1138434Y472671D01*
X1138447Y472782D01*
X1138456Y472892D01*
X1138462Y473003D01*
X1138464Y473114D01*
X1138464Y495114D02*
X1138462Y495225D01*
X1138456Y495336D01*
X1138447Y495446D01*
X1138434Y495557D01*
X1138417Y495666D01*
X1138396Y495775D01*
X1138372Y495883D01*
X1138343Y495991D01*
X1138312Y496097D01*
X1138276Y496202D01*
X1138237Y496306D01*
X1138195Y496409D01*
X1138149Y496510D01*
X1138100Y496609D01*
X1138047Y496707D01*
X1137991Y496803D01*
X1137932Y496896D01*
X1137869Y496988D01*
X1137804Y497078D01*
X1137735Y497165D01*
X1137664Y497250D01*
X1137589Y497332D01*
X1137512Y497412D01*
X1137432Y497489D01*
X1137350Y497564D01*
X1137265Y497635D01*
X1137178Y497704D01*
X1137088Y497769D01*
X1136996Y497832D01*
X1136903Y497891D01*
X1136807Y497947D01*
X1136709Y498000D01*
X1136610Y498049D01*
X1136509Y498095D01*
X1136406Y498137D01*
X1136302Y498176D01*
X1136197Y498212D01*
X1136091Y498243D01*
X1135983Y498272D01*
X1135875Y498296D01*
X1135766Y498317D01*
X1135657Y498334D01*
X1135546Y498347D01*
X1135436Y498356D01*
X1135325Y498362D01*
X1135214Y498364D01*
X1138464Y495114D02*
X1138454Y473124D01*
X1109964Y473114D02*
X1109964Y495114D01*
D13*
X1127383Y474668D02*
X1127385Y474772D01*
X1127391Y474875D01*
X1127401Y474979D01*
X1127415Y475082D01*
X1127432Y475184D01*
X1127454Y475286D01*
X1127479Y475386D01*
X1127509Y475486D01*
X1127542Y475584D01*
X1127578Y475682D01*
X1127619Y475777D01*
X1127663Y475871D01*
X1127710Y475964D01*
X1127761Y476054D01*
X1127816Y476142D01*
X1127874Y476229D01*
X1127935Y476313D01*
X1127999Y476394D01*
X1128066Y476473D01*
X1128136Y476550D01*
X1128209Y476624D01*
X1128285Y476695D01*
X1128364Y476763D01*
X1128445Y476828D01*
X1128528Y476889D01*
X1128614Y476948D01*
X1128702Y477003D01*
X1128792Y477055D01*
X1128884Y477104D01*
X1128977Y477149D01*
X1129072Y477190D01*
X1129169Y477228D01*
X1129267Y477262D01*
X1129367Y477292D01*
X1129467Y477318D01*
X1129568Y477341D01*
X1129671Y477359D01*
X1129773Y477374D01*
X1129877Y477385D01*
X1129980Y477392D01*
X1130084Y477395D01*
X1130188Y477394D01*
X1130292Y477389D01*
X1130395Y477380D01*
X1130498Y477367D01*
X1130601Y477351D01*
X1130702Y477330D01*
X1130803Y477305D01*
X1130903Y477277D01*
X1131002Y477245D01*
X1131099Y477209D01*
X1131195Y477170D01*
X1131290Y477127D01*
X1131383Y477080D01*
X1131473Y477030D01*
X1131562Y476976D01*
X1131649Y476919D01*
X1131734Y476859D01*
X1131816Y476795D01*
X1131896Y476729D01*
X1131973Y476659D01*
X1132047Y476587D01*
X1132119Y476512D01*
X1132188Y476434D01*
X1132254Y476354D01*
X1132316Y476271D01*
X1132376Y476186D01*
X1132432Y476098D01*
X1132485Y476009D01*
X1132534Y475918D01*
X1132580Y475824D01*
X1132622Y475730D01*
X1132660Y475633D01*
X1132695Y475535D01*
X1132727Y475436D01*
X1132754Y475336D01*
X1132777Y475235D01*
X1132797Y475133D01*
X1132813Y475030D01*
X1132825Y474927D01*
X1132833Y474824D01*
X1132837Y474720D01*
X1132837Y474616D01*
X1132833Y474512D01*
X1132825Y474409D01*
X1132813Y474306D01*
X1132797Y474203D01*
X1132777Y474101D01*
X1132754Y474000D01*
X1132727Y473900D01*
X1132695Y473801D01*
X1132660Y473703D01*
X1132622Y473606D01*
X1132580Y473512D01*
X1132534Y473418D01*
X1132485Y473327D01*
X1132432Y473238D01*
X1132376Y473150D01*
X1132316Y473065D01*
X1132254Y472982D01*
X1132188Y472902D01*
X1132119Y472824D01*
X1132047Y472749D01*
X1131973Y472677D01*
X1131896Y472607D01*
X1131816Y472541D01*
X1131734Y472477D01*
X1131649Y472417D01*
X1131562Y472360D01*
X1131474Y472306D01*
X1131383Y472256D01*
X1131290Y472209D01*
X1131195Y472166D01*
X1131099Y472127D01*
X1131002Y472091D01*
X1130903Y472059D01*
X1130803Y472031D01*
X1130702Y472006D01*
X1130601Y471985D01*
X1130498Y471969D01*
X1130395Y471956D01*
X1130292Y471947D01*
X1130188Y471942D01*
X1130084Y471941D01*
X1129980Y471944D01*
X1129877Y471951D01*
X1129773Y471962D01*
X1129671Y471977D01*
X1129568Y471995D01*
X1129467Y472018D01*
X1129367Y472044D01*
X1129267Y472074D01*
X1129169Y472108D01*
X1129072Y472146D01*
X1128977Y472187D01*
X1128884Y472232D01*
X1128792Y472281D01*
X1128702Y472333D01*
X1128614Y472388D01*
X1128528Y472447D01*
X1128445Y472508D01*
X1128364Y472573D01*
X1128285Y472641D01*
X1128209Y472712D01*
X1128136Y472786D01*
X1128066Y472863D01*
X1127999Y472942D01*
X1127935Y473023D01*
X1127874Y473107D01*
X1127816Y473194D01*
X1127761Y473282D01*
X1127710Y473372D01*
X1127663Y473465D01*
X1127619Y473559D01*
X1127578Y473654D01*
X1127542Y473752D01*
X1127509Y473850D01*
X1127479Y473950D01*
X1127454Y474050D01*
X1127432Y474152D01*
X1127415Y474254D01*
X1127401Y474357D01*
X1127391Y474461D01*
X1127385Y474564D01*
X1127383Y474668D01*
D15*
X1140704Y474124D03*
X1140704Y479124D03*
X1140704Y484124D03*
X1140704Y489124D03*
X1140704Y494124D03*
X1107704Y494124D03*
X1107704Y489124D03*
X1107704Y484124D03*
X1107704Y479124D03*
X1107704Y474124D03*
D11*
X1105662Y486410D02*
X1105662Y494665D01*
X1105662Y486410D02*
X1105664Y486299D01*
X1105670Y486189D01*
X1105679Y486078D01*
X1105693Y485968D01*
X1105710Y485859D01*
X1105731Y485750D01*
X1105756Y485642D01*
X1105785Y485535D01*
X1105817Y485429D01*
X1105853Y485324D01*
X1105893Y485221D01*
X1105936Y485119D01*
X1105983Y485018D01*
X1106034Y484919D01*
X1106087Y484823D01*
X1106144Y484728D01*
X1106205Y484635D01*
X1106268Y484544D01*
X1106335Y484455D01*
X1106405Y484369D01*
X1106478Y484286D01*
X1106553Y484204D01*
X1106631Y484126D01*
X1106713Y484051D01*
X1106796Y483978D01*
X1106882Y483908D01*
X1106971Y483841D01*
X1107062Y483778D01*
X1107155Y483717D01*
X1107250Y483660D01*
X1107346Y483607D01*
X1107445Y483556D01*
X1107546Y483509D01*
X1107648Y483466D01*
X1107751Y483426D01*
X1107856Y483390D01*
X1107962Y483358D01*
X1108069Y483329D01*
X1108177Y483304D01*
X1108286Y483283D01*
X1108395Y483266D01*
X1108505Y483252D01*
X1108616Y483243D01*
X1108726Y483237D01*
X1108837Y483235D01*
X1108948Y483237D01*
X1109058Y483243D01*
X1109169Y483252D01*
X1109279Y483266D01*
X1109388Y483283D01*
X1109497Y483304D01*
X1109605Y483329D01*
X1109712Y483358D01*
X1109818Y483390D01*
X1109923Y483426D01*
X1110026Y483466D01*
X1110128Y483509D01*
X1110229Y483556D01*
X1110328Y483607D01*
X1110425Y483660D01*
X1110519Y483717D01*
X1110612Y483778D01*
X1110703Y483841D01*
X1110792Y483908D01*
X1110878Y483978D01*
X1110961Y484051D01*
X1111043Y484126D01*
X1111121Y484204D01*
X1111196Y484286D01*
X1111269Y484369D01*
X1111339Y484455D01*
X1111406Y484544D01*
X1111469Y484635D01*
X1111530Y484728D01*
X1111587Y484822D01*
X1111640Y484919D01*
X1111691Y485018D01*
X1111738Y485119D01*
X1111781Y485221D01*
X1111821Y485324D01*
X1111857Y485429D01*
X1111889Y485535D01*
X1111918Y485642D01*
X1111943Y485750D01*
X1111964Y485859D01*
X1111981Y485968D01*
X1111995Y486078D01*
X1112004Y486189D01*
X1112010Y486299D01*
X1112012Y486410D01*
X1112012Y494665D01*
X1119886Y494665D02*
X1119886Y483235D01*
X1119886Y488950D02*
X1118299Y489903D01*
X1118298Y489902D02*
X1118225Y489949D01*
X1118154Y489998D01*
X1118085Y490051D01*
X1118019Y490107D01*
X1117955Y490166D01*
X1117894Y490227D01*
X1117836Y490291D01*
X1117781Y490358D01*
X1117729Y490428D01*
X1117681Y490499D01*
X1117635Y490573D01*
X1117593Y490649D01*
X1117555Y490727D01*
X1117520Y490806D01*
X1117489Y490887D01*
X1117462Y490969D01*
X1117438Y491052D01*
X1117418Y491137D01*
X1117402Y491222D01*
X1117390Y491308D01*
X1117382Y491394D01*
X1117378Y491480D01*
X1117377Y491567D01*
X1117381Y491654D01*
X1117389Y491740D01*
X1117400Y491826D01*
X1117416Y491911D01*
X1117435Y491995D01*
X1117458Y492079D01*
X1117485Y492161D01*
X1117516Y492242D01*
X1117551Y492322D01*
X1117588Y492399D01*
X1117630Y492475D01*
X1117675Y492550D01*
X1117723Y492621D01*
X1117775Y492691D01*
X1117829Y492758D01*
X1117887Y492823D01*
X1117947Y492885D01*
X1118011Y492944D01*
X1118077Y493000D01*
X1118145Y493054D01*
X1118216Y493103D01*
X1118289Y493150D01*
X1118364Y493193D01*
X1118441Y493233D01*
X1118519Y493269D01*
X1118600Y493302D01*
X1118681Y493331D01*
X1118764Y493356D01*
X1118848Y493378D01*
X1118933Y493395D01*
X1118934Y493395D02*
X1119071Y493418D01*
X1119210Y493438D01*
X1119348Y493453D01*
X1119487Y493465D01*
X1119627Y493473D01*
X1119766Y493476D01*
X1119906Y493477D01*
X1120045Y493473D01*
X1120184Y493465D01*
X1120323Y493454D01*
X1120462Y493438D01*
X1120600Y493419D01*
X1120738Y493396D01*
X1120875Y493369D01*
X1121011Y493338D01*
X1121146Y493304D01*
X1121280Y493266D01*
X1121414Y493224D01*
X1121545Y493178D01*
X1121676Y493129D01*
X1121805Y493076D01*
X1121933Y493020D01*
X1122059Y492960D01*
X1122183Y492897D01*
X1122306Y492830D01*
X1122426Y492760D01*
X1119886Y488950D02*
X1121474Y487998D01*
X1121547Y487951D01*
X1121618Y487902D01*
X1121687Y487849D01*
X1121753Y487793D01*
X1121817Y487734D01*
X1121878Y487673D01*
X1121936Y487609D01*
X1121991Y487542D01*
X1122043Y487472D01*
X1122091Y487401D01*
X1122137Y487327D01*
X1122179Y487251D01*
X1122217Y487173D01*
X1122252Y487094D01*
X1122283Y487013D01*
X1122310Y486931D01*
X1122334Y486848D01*
X1122354Y486763D01*
X1122370Y486678D01*
X1122382Y486592D01*
X1122390Y486506D01*
X1122394Y486420D01*
X1122395Y486333D01*
X1122391Y486246D01*
X1122383Y486160D01*
X1122372Y486074D01*
X1122356Y485989D01*
X1122337Y485905D01*
X1122314Y485821D01*
X1122287Y485739D01*
X1122256Y485658D01*
X1122221Y485578D01*
X1122184Y485501D01*
X1122142Y485425D01*
X1122097Y485350D01*
X1122049Y485279D01*
X1121997Y485209D01*
X1121943Y485142D01*
X1121885Y485077D01*
X1121825Y485015D01*
X1121761Y484956D01*
X1121695Y484900D01*
X1121627Y484846D01*
X1121556Y484797D01*
X1121483Y484750D01*
X1121408Y484707D01*
X1121331Y484667D01*
X1121253Y484631D01*
X1121172Y484598D01*
X1121091Y484569D01*
X1121008Y484544D01*
X1120924Y484522D01*
X1120839Y484505D01*
X1120838Y484505D02*
X1120701Y484482D01*
X1120562Y484462D01*
X1120424Y484447D01*
X1120285Y484435D01*
X1120145Y484427D01*
X1120006Y484424D01*
X1119866Y484423D01*
X1119727Y484427D01*
X1119588Y484435D01*
X1119449Y484446D01*
X1119310Y484462D01*
X1119172Y484481D01*
X1119034Y484504D01*
X1118897Y484531D01*
X1118761Y484562D01*
X1118626Y484596D01*
X1118492Y484634D01*
X1118358Y484676D01*
X1118227Y484722D01*
X1118096Y484771D01*
X1117967Y484824D01*
X1117839Y484880D01*
X1117713Y484940D01*
X1117589Y485003D01*
X1117466Y485070D01*
X1117346Y485140D01*
X1130872Y494666D02*
X1130976Y494664D01*
X1131081Y494658D01*
X1131185Y494649D01*
X1131288Y494636D01*
X1131391Y494618D01*
X1131493Y494598D01*
X1131595Y494573D01*
X1131695Y494545D01*
X1131795Y494513D01*
X1131893Y494477D01*
X1131990Y494438D01*
X1132085Y494396D01*
X1132179Y494350D01*
X1132271Y494300D01*
X1132361Y494248D01*
X1132449Y494192D01*
X1132535Y494132D01*
X1132619Y494070D01*
X1132700Y494005D01*
X1132779Y493937D01*
X1132856Y493865D01*
X1132929Y493792D01*
X1133001Y493715D01*
X1133069Y493636D01*
X1133134Y493555D01*
X1133196Y493471D01*
X1133256Y493385D01*
X1133312Y493297D01*
X1133364Y493207D01*
X1133414Y493115D01*
X1133460Y493021D01*
X1133502Y492926D01*
X1133541Y492829D01*
X1133577Y492731D01*
X1133609Y492631D01*
X1133637Y492531D01*
X1133662Y492429D01*
X1133682Y492327D01*
X1133700Y492224D01*
X1133713Y492121D01*
X1133722Y492017D01*
X1133728Y491912D01*
X1133730Y491808D01*
X1130872Y494665D02*
X1130754Y494663D01*
X1130635Y494657D01*
X1130517Y494648D01*
X1130400Y494635D01*
X1130283Y494617D01*
X1130166Y494597D01*
X1130050Y494572D01*
X1129935Y494544D01*
X1129822Y494511D01*
X1129709Y494476D01*
X1129597Y494436D01*
X1129487Y494394D01*
X1129378Y494347D01*
X1129270Y494297D01*
X1129165Y494244D01*
X1129061Y494187D01*
X1128959Y494127D01*
X1128859Y494064D01*
X1128761Y493997D01*
X1128665Y493928D01*
X1128572Y493855D01*
X1128481Y493779D01*
X1128392Y493701D01*
X1128306Y493619D01*
X1128223Y493535D01*
X1128142Y493449D01*
X1128065Y493359D01*
X1127990Y493268D01*
X1127918Y493174D01*
X1127849Y493077D01*
X1127784Y492979D01*
X1127721Y492878D01*
X1127662Y492775D01*
X1127606Y492671D01*
X1127554Y492565D01*
X1127505Y492457D01*
X1127460Y492348D01*
X1127418Y492237D01*
X1127380Y492125D01*
X1132777Y489586D02*
X1132853Y489661D01*
X1132928Y489740D01*
X1132999Y489821D01*
X1133068Y489905D01*
X1133133Y489991D01*
X1133195Y490079D01*
X1133255Y490169D01*
X1133311Y490261D01*
X1133364Y490356D01*
X1133413Y490452D01*
X1133459Y490550D01*
X1133502Y490649D01*
X1133541Y490750D01*
X1133576Y490852D01*
X1133608Y490955D01*
X1133636Y491059D01*
X1133661Y491164D01*
X1133682Y491271D01*
X1133699Y491377D01*
X1133712Y491484D01*
X1133721Y491592D01*
X1133727Y491700D01*
X1133729Y491808D01*
X1132777Y489585D02*
X1127379Y483235D01*
X1133729Y483235D01*
X680212Y343154D02*
X578612Y343154D01*
X680212Y343154D02*
X680212Y584454D01*
X578612Y584454D01*
X578612Y343154D01*
X989330Y366776D02*
X1090930Y366776D01*
X1090930Y608076D01*
X989330Y608076D01*
X989330Y366776D01*
M02*
