G04 EAGLE Gerber RS-274X export*
G75*
%MOMM*%
%FSLAX34Y34*%
%LPD*%
%INSoldermask Top*%
%IPPOS*%
%AMOC8*
5,1,8,0,0,1.08239X$1,22.5*%
G01*
%ADD10C,2.203200*%
%ADD11R,1.727200X1.727200*%
%ADD12P,1.869504X8X112.500000*%
%ADD13R,1.503200X1.703200*%
%ADD14R,1.703200X1.503200*%
%ADD15R,1.703200X2.303200*%
%ADD16P,1.869504X8X22.500000*%
%ADD17C,2.103200*%
%ADD18R,1.853200X1.503200*%
%ADD19R,0.503200X1.203200*%
%ADD20R,1.503200X1.853200*%
%ADD21R,1.203200X0.503200*%
%ADD22R,2.203200X1.803200*%
%ADD23R,1.803200X2.203200*%
%ADD24R,1.981200X1.981200*%
%ADD25C,1.981200*%
%ADD26C,2.953200*%
%ADD27C,1.879600*%
%ADD28R,1.100000X0.400000*%
%ADD29P,2.144431X8X22.500000*%
%ADD30P,1.302332X8X22.500000*%
%ADD31P,1.843527X8X22.500000*%
%ADD32C,1.203200*%


D10*
X1071626Y301244D03*
X1097534Y301498D03*
X615188Y302006D03*
X645160Y302006D03*
D11*
X635254Y340614D03*
D12*
X660654Y340614D03*
D11*
X1071880Y332486D03*
D12*
X1097280Y332486D03*
D13*
X728116Y400304D03*
X747116Y400304D03*
X622198Y507746D03*
X641198Y507746D03*
D14*
X735584Y341528D03*
X735584Y360528D03*
D13*
X1122578Y356362D03*
X1141578Y356362D03*
X728116Y424688D03*
X747116Y424688D03*
D15*
X664684Y368300D03*
X628684Y368300D03*
X1099786Y371602D03*
X1063786Y371602D03*
D11*
X701548Y348488D03*
D16*
X701548Y373888D03*
D11*
X1002030Y324866D03*
D12*
X1027430Y324866D03*
D17*
X576326Y492506D03*
D18*
X765958Y304038D03*
X911458Y304038D03*
D19*
X793708Y323038D03*
X803708Y323038D03*
X813708Y323038D03*
X823708Y323038D03*
X833708Y323038D03*
X843708Y323038D03*
X853708Y323038D03*
X863708Y323038D03*
X873708Y323038D03*
X883708Y323038D03*
D20*
X1198880Y335494D03*
X1198880Y520994D03*
D21*
X1179880Y363244D03*
X1179880Y373244D03*
X1179880Y383244D03*
X1179880Y393244D03*
X1179880Y403244D03*
X1179880Y413244D03*
X1179880Y423244D03*
X1179880Y433244D03*
X1179880Y443244D03*
X1179880Y453244D03*
X1179880Y463244D03*
X1179880Y473244D03*
X1179880Y483244D03*
X1179880Y493244D03*
D22*
X941070Y301976D03*
X941070Y329976D03*
D23*
X710662Y295148D03*
X738662Y295148D03*
D24*
X629800Y531700D03*
D25*
X629800Y557100D03*
X655200Y531700D03*
X655200Y557100D03*
X680600Y531700D03*
X680600Y557100D03*
X706000Y531700D03*
X706000Y557100D03*
X731400Y531700D03*
X731400Y557100D03*
X756800Y531700D03*
X756800Y557100D03*
X782200Y531700D03*
X782200Y557100D03*
X807600Y531700D03*
X807600Y557100D03*
X833000Y531700D03*
X833000Y557100D03*
X858400Y531700D03*
X858400Y557100D03*
X883800Y531700D03*
X883800Y557100D03*
X909200Y531700D03*
X909200Y557100D03*
X934600Y531700D03*
X934600Y557100D03*
X960000Y531700D03*
X960000Y557100D03*
X985400Y531700D03*
X985400Y557100D03*
X1010800Y531700D03*
X1010800Y557100D03*
X1036200Y531700D03*
X1036200Y557100D03*
X1061600Y531700D03*
X1061600Y557100D03*
X1087000Y531700D03*
X1087000Y557100D03*
X1112400Y531700D03*
X1112400Y557100D03*
D26*
X581100Y314400D03*
X581100Y544400D03*
X1161100Y314400D03*
X1161100Y544400D03*
D27*
X707390Y492252D03*
X707390Y466852D03*
X707390Y441452D03*
X707390Y416052D03*
X966978Y476504D03*
X966978Y451104D03*
X966978Y425704D03*
X966978Y400304D03*
D17*
X671322Y288798D03*
D10*
X970280Y313182D03*
D28*
X1148204Y474124D03*
X1148204Y479124D03*
X1148204Y484124D03*
X1148204Y489124D03*
X1148204Y494124D03*
X1100204Y494124D03*
X1100204Y489124D03*
X1100204Y484124D03*
X1100204Y479124D03*
X1100204Y474124D03*
D27*
X591312Y393954D03*
X591312Y419354D03*
X591312Y444754D03*
X667512Y393954D03*
X667512Y419354D03*
X667512Y444754D03*
X616712Y470154D03*
X642112Y470154D03*
X1002030Y417576D03*
X1002030Y442976D03*
X1002030Y468376D03*
X1078230Y417576D03*
X1078230Y442976D03*
X1078230Y468376D03*
X1027430Y493776D03*
X1052830Y493776D03*
D29*
X898664Y328168D03*
X1031494Y374904D03*
D30*
X1132840Y458724D03*
D31*
X1161164Y368138D03*
D32*
X1197610Y544068D03*
D30*
X1126744Y402336D03*
X1143000Y419782D03*
D29*
X1123442Y334010D03*
X1044194Y453644D03*
D30*
X775983Y337553D03*
X880110Y356870D03*
D29*
X963930Y357632D03*
D30*
X1159256Y397510D03*
X817372Y363982D03*
X1120140Y379020D03*
X713740Y322326D03*
D29*
X838590Y305190D03*
D30*
X870966Y388112D03*
X1120140Y482092D03*
X1115822Y444754D03*
X1128014Y517398D03*
X1156970Y460248D03*
X685546Y311150D03*
M02*
